<svg width="40" height="40" viewBox="0 0 40 40" fill="none" xmlns="http://www.w3.org/2000/svg">
<mask id="mask0_377_2380" style="mask-type:alpha" maskUnits="userSpaceOnUse" x="0" y="0" width="40" height="40">
<circle cx="20" cy="20" r="19.756" fill="white" stroke="#F3F3F3" stroke-width="0.488095"/>
</mask>
<g mask="url(#mask0_377_2380)">
<path d="M14.1661 33.1402H14.4071V32.8993V25.7875H18.5434V32.8993V35.0261V36.912L7.9799 36.912C7.79948 36.912 7.68086 36.7237 7.75874 36.561L7.99041 36.0769C8.85654 34.2671 10.374 33.1402 12.3476 33.1402H14.1661Z" fill="#FFEB3B" stroke="black" stroke-width="0.481917"/>
<path d="M24.4472 33.1402H24.2062L24.2062 32.8993V25.7875H20.0699V32.8993L20.0699 35.0261V36.912L30.6334 36.912C30.8138 36.912 30.9324 36.7237 30.8545 36.561L30.6229 36.0769C29.7567 34.2671 28.2393 33.1402 26.2657 33.1402H24.4472Z" fill="#FFEB3B" stroke="black" stroke-width="0.481917"/>
<path d="M23.5226 6.88294C22.0893 2.47146 15.8482 2.47146 14.4148 6.88294C13.7093 9.05437 11.6858 10.5245 9.40258 10.5245C4.76408 10.5245 2.83549 16.4601 6.58812 19.1866C8.43525 20.5286 9.20816 22.9074 8.50262 25.0788C7.06924 29.4903 12.1184 33.1587 15.871 30.4323C17.7181 29.0902 20.2193 29.0902 22.0665 30.4323C25.8191 33.1587 30.8682 29.4903 29.4348 25.0788C28.7293 22.9074 29.5022 20.5286 31.3493 19.1866C35.102 16.4601 33.1734 10.5245 28.5349 10.5245C26.2517 10.5245 24.2282 9.05437 23.5226 6.88294Z" fill="#FFEB3B" stroke="black" stroke-width="0.481917"/>
<ellipse cx="16.8691" cy="16.2868" rx="0.413072" ry="0.51634" fill="black"/>
<ellipse cx="23.2031" cy="15.3231" rx="1.17037" ry="1.48017" fill="black"/>
<ellipse cx="22.8244" cy="14.7722" rx="0.585185" ry="0.722876" fill="white"/>
<path d="M16.057 20.8203L16.3792 19.1157L27.0591 19.4423L26.7107 20.1667C25.6088 22.4579 25.0337 24.9665 25.0273 27.5086H15.5955V25.7485C15.5955 24.095 15.75 22.4451 16.057 20.8203Z" fill="white" stroke="black" stroke-width="0.481917"/>
<path d="M16.057 21.5776L16.3792 19.873L27.0591 20.1996L26.7107 20.924C25.6088 23.2152 25.0337 25.7239 25.0273 28.2659H15.5955V26.5058C15.5955 24.8523 15.75 23.2024 16.057 21.5776Z" fill="white" stroke="black" stroke-width="0.481917"/>
<path d="M8.89105 29.333C6.46769 29.2504 5.50464 24.1655 7.1684 19.725C7.6395 20.1495 8.1758 21.0716 8.65005 22.3108C9.1243 23.55 9.39968 25.2367 11.3694 24.4106C13.3392 23.5844 15.1504 22.4489 17.0836 22.3108C18.4964 22.2099 17.7323 22.9965 17.1257 23.2573C17.3945 23.1578 18.6126 22.8253 19.4167 22.7583C20.1051 22.7583 20.2428 22.8271 20.2772 23.137C20.3117 23.4468 19.6173 23.4842 19.0724 23.7566C19.9466 23.5848 20.4783 23.6189 20.5021 24.0319C20.5259 24.445 19.883 24.6171 18.9424 24.6171C19.6868 24.6171 19.9616 24.5483 19.9407 24.9269C19.9201 25.2997 19.0057 25.3362 18.0907 25.3727L18.0474 25.3744C19.0876 25.4356 19.3003 25.3744 19.3107 25.8563C19.3211 26.3383 18.2273 26.4186 16.9459 26.476C14.6396 26.5792 11.9202 29.4363 8.89105 29.333Z" fill="#FFEB3B" stroke="black" stroke-width="0.481917" stroke-linejoin="round"/>
<circle cx="23.203" cy="15.1509" r="3.30458" stroke="black" stroke-width="0.826144"/>
<rect x="26.1631" y="16.9678" width="0.826144" height="4.827" transform="rotate(-60 26.1631 16.9678)" fill="black"/>
<path d="M39.347 17.8709C38.284 16.0328 36.2656 15.8182 33.3918 14.7037C33.4722 15.5655 33.5709 17.2512 32.2215 18.3182C31.8084 18.1116 31.7052 18.0084 31.2577 17.8707C30.5172 17.6428 29.5817 17.7701 29.2292 17.818L29.2235 17.8188C28.6222 17.6938 28.4006 17.5951 28.2629 17.9049C28.1252 18.2148 28.6103 18.5314 29.1176 18.8762C28.3914 18.6073 28.1252 18.4649 27.9876 18.8217C27.8499 19.1784 28.393 19.6468 29.1181 19.9565C28.3911 19.7694 28.2285 19.5571 28.022 19.9013C27.8154 20.2455 28.5942 20.6894 28.9826 20.9963C28.3901 20.6456 27.5359 20.94 28.7691 21.83C30.2191 22.8765 33.8652 22.6904 35.3841 22.3457C36.903 22.0011 40.9993 20.7276 39.347 17.8709Z" fill="#FFEB3B"/>
<path d="M29.2235 17.8188C29.4846 18.0534 30.1583 18.5642 30.7638 18.7306M29.2235 17.8188C29.5715 17.7715 30.5132 17.6416 31.2577 17.8707C31.7052 18.0084 31.8084 18.1116 32.2215 18.3182M29.2235 17.8188C28.6222 17.6938 28.4006 17.5951 28.2629 17.9049C28.1252 18.2148 28.6103 18.5314 29.1176 18.8762C28.3914 18.6073 28.1252 18.4649 27.9876 18.8217C27.8499 19.1784 28.393 19.6468 29.1181 19.9565C28.3911 19.7694 28.2285 19.5571 28.022 19.9013C27.8154 20.2455 28.5942 20.6894 28.9826 20.9963C28.3901 20.6456 27.5359 20.94 28.7691 21.83C30.2191 22.8765 33.8652 22.6904 35.3841 22.3457C36.903 22.0011 40.9993 20.7276 39.347 17.8709C38.284 16.0328 36.2656 15.8182 33.3918 14.7037C33.4722 15.5655 33.5709 17.2512 32.2215 18.3182M37.5366 18.9798C36.9083 19.1808 32.6346 18.5247 32.2215 18.3182" stroke="black" stroke-width="0.481917" stroke-linecap="round" stroke-linejoin="round"/>
</g>
<circle cx="20" cy="20" r="19.5" stroke="#CECECE"/>
</svg>
