<svg width="765" height="765" viewBox="0 0 765 765" fill="none" xmlns="http://www.w3.org/2000/svg">
<path d="M308.739 593.504H312.239V590.004V486.703H372.321V590.004V620.897V648.29L218.882 648.29C216.262 648.29 214.539 645.556 215.67 643.192L219.035 636.16C231.616 609.872 253.657 593.504 282.325 593.504H308.739Z" fill="#FBC02D" stroke="black" stroke-width="7"/>
<path d="M458.074 593.504H454.574V590.004V486.703H394.492V590.004V620.897L394.492 648.29L547.93 648.29C550.551 648.29 552.274 645.556 551.142 643.192L547.777 636.16C535.196 609.872 513.155 593.504 484.488 593.504H458.074Z" fill="#FBC02D" stroke="black" stroke-width="7"/>
<path d="M316.353 214.906C337.173 150.828 427.827 150.828 448.647 214.906C458.895 246.446 488.287 267.801 521.451 267.801C588.827 267.801 616.84 354.018 562.332 393.62C535.502 413.113 524.275 447.666 534.524 479.207C555.344 543.285 482.004 596.569 427.496 556.967C400.665 537.474 364.335 537.474 337.504 556.967C282.996 596.569 209.656 543.285 230.476 479.207C240.725 447.666 229.498 413.113 202.668 393.62C148.16 354.018 176.173 267.801 243.549 267.801C276.713 267.801 306.105 246.446 316.353 214.906Z" fill="#FBC02D" stroke="black" stroke-width="7"/>
<path d="M362.235 349C362.235 349 358.235 372 383.235 372C408.235 372 404.235 349 404.235 349" stroke="black" stroke-width="7" stroke-linecap="round" stroke-linejoin="round"/>
<path d="M292.666 269.057C324.579 279.186 318.607 478.201 317.882 486.269C317.157 494.337 288.929 521.429 274.384 517.798C256.201 513.26 119.207 405.387 117.983 386.687C116.758 367.987 159.439 306.757 182.992 287.088C206.544 267.419 255.671 257.315 292.666 269.057Z" fill="#FFEBEB" stroke="black" stroke-width="7" stroke-linecap="round" stroke-linejoin="round"/>
<path d="M251.04 240.83C248.932 239.288 247.19 237.273 246.324 235.204C245.477 233.181 245.481 231.187 246.67 229.365C247.354 228.316 248.258 227.253 249.455 226.253C250.653 225.253 251.861 224.553 253.015 224.066C255.019 223.221 256.982 223.573 258.821 224.767C260.703 225.988 262.376 228.061 263.517 230.41L268.692 241.069C269.781 243.312 269.202 246.008 267.288 247.606C265.374 249.204 262.618 249.293 260.605 247.822L251.04 240.83Z" fill="white" stroke="black" stroke-width="3.27309"/>
<path d="M282.076 277.997C283.216 280.346 284.889 282.419 286.771 283.64C288.61 284.834 290.573 285.186 292.577 284.341C293.732 283.854 294.939 283.154 296.137 282.154C297.334 281.154 298.238 280.091 298.923 279.042C300.111 277.22 300.115 275.226 299.268 273.203C298.402 271.134 296.661 269.118 294.552 267.577L284.987 260.585C282.974 259.114 280.218 259.203 278.304 260.801C276.39 262.399 275.812 265.095 276.9 267.338L282.076 277.997Z" fill="white" stroke="black" stroke-width="3.27309"/>
<path d="M267.873 227.073C267.472 224.492 267.666 221.836 268.517 219.76C269.348 217.731 270.761 216.323 272.889 215.876C274.115 215.618 275.506 215.505 277.06 215.645C278.614 215.784 279.963 216.144 281.123 216.616C283.137 217.435 284.277 219.072 284.734 221.217C285.2 223.411 284.918 226.06 284.063 228.527L280.186 239.724C279.37 242.08 277.054 243.577 274.571 243.354C272.087 243.13 270.076 241.244 269.693 238.781L267.873 227.073Z" fill="white" stroke="black" stroke-width="3.27309"/>
<path d="M288.052 230.873C289.593 228.765 291.609 227.023 293.678 226.157C295.701 225.31 297.695 225.314 299.517 226.503C300.566 227.187 301.629 228.091 302.629 229.288C303.629 230.486 304.329 231.694 304.816 232.848C305.66 234.852 305.309 236.815 304.115 238.654C302.894 240.536 300.821 242.209 298.472 243.35L287.813 248.525C285.57 249.614 282.874 249.035 281.276 247.121C279.678 245.207 279.589 242.451 281.06 240.438L288.052 230.873Z" fill="white" stroke="black" stroke-width="3.27309"/>
<path d="M299.747 247.304C302.327 246.903 304.984 247.097 307.06 247.947C309.089 248.779 310.496 250.192 310.943 252.32C311.201 253.546 311.314 254.937 311.175 256.491C311.035 258.045 310.676 259.393 310.204 260.554C309.384 262.568 307.747 263.708 305.603 264.164C303.408 264.631 300.76 264.348 298.292 263.494L287.096 259.616C284.74 258.8 283.243 256.484 283.466 254.001C283.689 251.518 285.575 249.506 288.038 249.123L299.747 247.304Z" fill="white" stroke="black" stroke-width="3.27309"/>
<path d="M277.392 280.943C277.793 283.523 277.599 286.18 276.748 288.256C275.917 290.285 274.504 291.692 272.375 292.14C271.149 292.397 269.758 292.51 268.204 292.371C266.651 292.231 265.302 291.872 264.142 291.4C262.127 290.58 260.987 288.944 260.531 286.799C260.064 284.604 260.347 281.956 261.201 279.488L265.079 268.292C265.895 265.936 268.211 264.439 270.694 264.662C273.177 264.885 275.189 266.771 275.572 269.235L277.392 280.943Z" fill="white" stroke="black" stroke-width="3.27309"/>
<path d="M257.213 277.143C255.672 279.251 253.657 280.992 251.587 281.859C249.565 282.706 247.57 282.701 245.749 281.513C244.7 280.828 243.636 279.925 242.636 278.727C241.636 277.53 240.937 276.322 240.45 275.168C239.605 273.164 239.957 271.201 241.15 269.361C242.372 267.48 244.445 265.807 246.794 264.666L257.453 259.491C259.695 258.402 262.392 258.981 263.99 260.895C265.588 262.808 265.677 265.564 264.206 267.577L257.213 277.143Z" fill="white" stroke="black" stroke-width="3.27309"/>
<path d="M245.519 260.712C242.938 261.113 240.282 260.919 238.206 260.068C236.177 259.237 234.77 257.824 234.322 255.696C234.064 254.47 233.952 253.079 234.091 251.525C234.231 249.971 234.59 248.622 235.062 247.462C235.882 245.448 237.518 244.308 239.663 243.851C241.858 243.385 244.506 243.667 246.974 244.522L258.17 248.399C260.526 249.215 262.023 251.531 261.8 254.014C261.577 256.498 259.691 258.509 257.227 258.892L245.519 260.712Z" fill="white" stroke="black" stroke-width="3.27309"/>
<circle cx="273.372" cy="254.255" r="13.0919" transform="rotate(-39.8659 273.372 254.255)" fill="#FFFDE7" stroke="black" stroke-width="3.27309"/>
<path d="M194.985 237.533C192.877 235.992 191.136 233.976 190.269 231.907C189.422 229.884 189.426 227.89 190.615 226.068C191.299 225.019 192.203 223.956 193.401 222.956C194.598 221.956 195.806 221.256 196.96 220.769C198.964 219.925 200.927 220.276 202.767 221.47C204.648 222.691 206.321 224.764 207.462 227.113L212.637 237.772C213.726 240.015 213.147 242.711 211.233 244.309C209.32 245.907 206.564 245.996 204.551 244.525L194.985 237.533Z" fill="white" stroke="black" stroke-width="3.27309"/>
<path d="M226.021 274.7C227.162 277.049 228.834 279.122 230.716 280.343C232.555 281.537 234.519 281.889 236.523 281.044C237.677 280.557 238.885 279.857 240.082 278.857C241.279 277.858 242.183 276.794 242.868 275.745C244.056 273.924 244.061 271.929 243.214 269.907C242.347 267.837 240.606 265.822 238.498 264.281L228.932 257.288C226.919 255.817 224.163 255.906 222.249 257.504C220.336 259.102 219.757 261.798 220.846 264.041L226.021 274.7Z" fill="white" stroke="black" stroke-width="3.27309"/>
<path d="M211.818 223.776C211.417 221.195 211.611 218.539 212.462 216.463C213.293 214.434 214.706 213.027 216.835 212.579C218.061 212.321 219.452 212.208 221.006 212.348C222.559 212.488 223.908 212.847 225.068 213.319C227.083 214.139 228.223 215.775 228.679 217.92C229.146 220.114 228.863 222.763 228.008 225.23L224.131 236.427C223.315 238.783 220.999 240.28 218.516 240.057C216.033 239.834 214.021 237.948 213.638 235.484L211.818 223.776Z" fill="white" stroke="black" stroke-width="3.27309"/>
<path d="M231.998 227.576C233.539 225.468 235.554 223.727 237.624 222.86C239.646 222.013 241.641 222.017 243.462 223.206C244.511 223.89 245.575 224.794 246.575 225.992C247.575 227.189 248.274 228.397 248.761 229.551C249.606 231.555 249.254 233.518 248.06 235.357C246.839 237.239 244.766 238.912 242.417 240.053L231.758 245.228C229.515 246.317 226.819 245.738 225.221 243.824C223.623 241.911 223.534 239.154 225.005 237.142L231.998 227.576Z" fill="white" stroke="black" stroke-width="3.27309"/>
<path d="M243.692 244.007C246.272 243.606 248.929 243.8 251.005 244.65C253.034 245.482 254.441 246.895 254.889 249.023C255.147 250.249 255.259 251.64 255.12 253.194C254.98 254.748 254.621 256.097 254.149 257.257C253.329 259.271 251.693 260.411 249.548 260.867C247.353 261.334 244.705 261.052 242.237 260.197L231.041 256.319C228.685 255.503 227.188 253.188 227.411 250.704C227.634 248.221 229.52 246.209 231.984 245.826L243.692 244.007Z" fill="white" stroke="black" stroke-width="3.27309"/>
<path d="M221.337 277.646C221.738 280.227 221.544 282.883 220.693 284.959C219.862 286.988 218.449 288.395 216.321 288.843C215.095 289.101 213.704 289.214 212.15 289.074C210.596 288.934 209.247 288.575 208.087 288.103C206.073 287.283 204.933 285.647 204.476 283.502C204.01 281.308 204.292 278.659 205.147 276.192L209.024 264.995C209.84 262.639 212.156 261.142 214.639 261.365C217.123 261.588 219.134 263.474 219.517 265.938L221.337 277.646Z" fill="white" stroke="black" stroke-width="3.27309"/>
<path d="M201.159 273.846C199.618 275.954 197.602 277.695 195.533 278.562C193.51 279.409 191.516 279.405 189.694 278.216C188.645 277.532 187.582 276.628 186.582 275.43C185.582 274.233 184.882 273.025 184.395 271.871C183.551 269.867 183.902 267.904 185.096 266.064C186.317 264.183 188.39 262.51 190.739 261.369L201.398 256.194C203.641 255.105 206.337 255.684 207.935 257.598C209.533 259.511 209.622 262.267 208.151 264.28L201.159 273.846Z" fill="white" stroke="black" stroke-width="3.27309"/>
<path d="M189.464 257.415C186.884 257.816 184.227 257.622 182.151 256.772C180.122 255.94 178.715 254.527 178.268 252.399C178.01 251.173 177.897 249.782 178.036 248.228C178.176 246.674 178.535 245.325 179.007 244.165C179.827 242.151 181.464 241.011 183.608 240.555C185.803 240.088 188.451 240.37 190.919 241.225L202.115 245.102C204.471 245.918 205.968 248.234 205.745 250.717C205.522 253.201 203.636 255.213 201.172 255.595L189.464 257.415Z" fill="white" stroke="black" stroke-width="3.27309"/>
<circle cx="217.317" cy="250.958" r="13.0919" transform="rotate(-39.8659 217.317 250.958)" fill="#FFFDE7" stroke="black" stroke-width="3.27309"/>
<path d="M157.041 220.189C154.933 218.648 153.191 216.632 152.325 214.563C151.478 212.54 151.482 210.546 152.671 208.725C153.355 207.675 154.259 206.612 155.456 205.612C156.654 204.612 157.862 203.912 159.016 203.426C161.02 202.581 162.983 202.932 164.822 204.126C166.704 205.348 168.377 207.42 169.518 209.769L174.693 220.428C175.782 222.671 175.203 225.367 173.289 226.965C171.375 228.563 168.619 228.652 166.606 227.181L157.041 220.189Z" fill="white" stroke="black" stroke-width="3.27309"/>
<path d="M188.077 257.356C189.217 259.706 190.89 261.778 192.772 263C194.611 264.193 196.574 264.545 198.578 263.7C199.733 263.214 200.94 262.514 202.138 261.514C203.335 260.514 204.239 259.45 204.924 258.401C206.112 256.58 206.116 254.585 205.269 252.563C204.403 250.493 202.662 248.478 200.553 246.937L190.988 239.944C188.975 238.473 186.219 238.562 184.305 240.16C182.391 241.758 181.813 244.455 182.901 246.697L188.077 257.356Z" fill="white" stroke="black" stroke-width="3.27309"/>
<path d="M173.874 206.432C173.473 203.852 173.667 201.195 174.518 199.119C175.349 197.09 176.762 195.683 178.89 195.235C180.116 194.978 181.507 194.865 183.061 195.004C184.615 195.144 185.964 195.503 187.124 195.975C189.138 196.795 190.278 198.431 190.734 200.576C191.201 202.771 190.919 205.419 190.064 207.887L186.187 219.083C185.371 221.439 183.055 222.936 180.572 222.713C178.088 222.49 176.077 220.604 175.694 218.14L173.874 206.432Z" fill="white" stroke="black" stroke-width="3.27309"/>
<path d="M194.053 210.232C195.594 208.124 197.61 206.383 199.679 205.516C201.702 204.669 203.696 204.674 205.518 205.862C206.567 206.547 207.63 207.45 208.63 208.648C209.63 209.845 210.33 211.053 210.817 212.207C211.661 214.211 211.31 216.174 210.116 218.014C208.895 219.895 206.822 221.568 204.473 222.709L193.814 227.884C191.571 228.973 188.875 228.394 187.277 226.48C185.679 224.567 185.59 221.811 187.061 219.798L194.053 210.232Z" fill="white" stroke="black" stroke-width="3.27309"/>
<path d="M205.748 226.663C208.328 226.262 210.985 226.456 213.061 227.307C215.09 228.138 216.497 229.551 216.944 231.679C217.202 232.905 217.315 234.296 217.175 235.85C217.036 237.404 216.677 238.753 216.205 239.913C215.385 241.927 213.748 243.067 211.604 243.524C209.409 243.99 206.761 243.708 204.293 242.853L193.097 238.976C190.741 238.16 189.244 235.844 189.467 233.361C189.69 230.877 191.576 228.866 194.039 228.483L205.748 226.663Z" fill="white" stroke="black" stroke-width="3.27309"/>
<path d="M183.393 260.302C183.794 262.883 183.6 265.539 182.749 267.615C181.918 269.644 180.505 271.052 178.376 271.499C177.15 271.757 175.759 271.87 174.205 271.73C172.652 271.591 171.303 271.231 170.142 270.759C168.128 269.94 166.988 268.303 166.532 266.158C166.065 263.964 166.348 261.315 167.202 258.848L171.08 247.651C171.896 245.295 174.212 243.798 176.695 244.021C179.178 244.245 181.19 246.131 181.573 248.594L183.393 260.302Z" fill="white" stroke="black" stroke-width="3.27309"/>
<path d="M163.214 256.502C161.673 258.61 159.658 260.352 157.588 261.218C155.566 262.065 153.571 262.061 151.75 260.872C150.701 260.188 149.637 259.284 148.637 258.087C147.637 256.889 146.938 255.681 146.451 254.527C145.606 252.523 145.958 250.56 147.151 248.721C148.373 246.839 150.446 245.166 152.795 244.025L163.454 238.85C165.696 237.761 168.393 238.34 169.991 240.254C171.589 242.168 171.678 244.924 170.207 246.937L163.214 256.502Z" fill="white" stroke="black" stroke-width="3.27309"/>
<path d="M151.52 240.071C148.939 240.472 146.283 240.278 144.207 239.428C142.178 238.596 140.771 237.183 140.323 235.055C140.065 233.829 139.952 232.438 140.092 230.884C140.232 229.33 140.591 227.982 141.063 226.821C141.883 224.807 143.519 223.667 145.664 223.211C147.858 222.744 150.507 223.027 152.975 223.881L164.171 227.759C166.527 228.575 168.024 230.891 167.801 233.374C167.578 235.857 165.692 237.869 163.228 238.252L151.52 240.071Z" fill="white" stroke="black" stroke-width="3.27309"/>
<circle cx="179.373" cy="233.614" r="13.0919" transform="rotate(-39.8659 179.373 233.614)" fill="#FFFDE7" stroke="black" stroke-width="3.27309"/>
<path d="M134.244 260.54C132.136 258.999 130.395 256.984 129.528 254.914C128.681 252.892 128.685 250.897 129.874 249.076C130.558 248.027 131.462 246.963 132.66 245.963C133.857 244.964 135.065 244.264 136.219 243.777C138.223 242.932 140.186 243.284 142.025 244.478C143.907 245.699 145.58 247.772 146.721 250.121L151.896 260.78C152.985 263.023 152.406 265.719 150.492 267.317C148.579 268.915 145.822 269.004 143.81 267.533L134.244 260.54Z" fill="white" stroke="black" stroke-width="3.27309"/>
<path d="M165.28 297.708C166.42 300.057 168.093 302.13 169.975 303.351C171.814 304.545 173.777 304.896 175.781 304.052C176.936 303.565 178.143 302.865 179.341 301.865C180.538 300.865 181.442 299.802 182.127 298.753C183.315 296.931 183.319 294.937 182.472 292.914C181.606 290.845 179.865 288.829 177.756 287.288L168.191 280.296C166.178 278.825 163.422 278.914 161.508 280.512C159.595 282.11 159.016 284.806 160.105 287.049L165.28 297.708Z" fill="white" stroke="black" stroke-width="3.27309"/>
<path d="M151.077 246.784C150.676 244.203 150.87 241.547 151.721 239.471C152.552 237.442 153.965 236.034 156.093 235.587C157.319 235.329 158.711 235.216 160.264 235.356C161.818 235.495 163.167 235.854 164.327 236.327C166.342 237.146 167.481 238.783 167.938 240.928C168.404 243.122 168.122 245.771 167.267 248.238L163.39 259.435C162.574 261.79 160.258 263.288 157.775 263.065C155.292 262.841 153.28 260.955 152.897 258.492L151.077 246.784Z" fill="white" stroke="black" stroke-width="3.27309"/>
<path d="M171.256 250.584C172.797 248.476 174.813 246.734 176.882 245.868C178.905 245.021 180.899 245.025 182.721 246.214C183.77 246.898 184.833 247.802 185.833 248.999C186.833 250.197 187.533 251.404 188.02 252.559C188.865 254.563 188.513 256.526 187.319 258.365C186.098 260.247 184.025 261.92 181.676 263.06L171.017 268.236C168.774 269.325 166.078 268.746 164.48 266.832C162.882 264.918 162.793 262.162 164.264 260.149L171.256 250.584Z" fill="white" stroke="black" stroke-width="3.27309"/>
<path d="M182.951 267.015C185.531 266.614 188.188 266.808 190.264 267.658C192.293 268.489 193.7 269.903 194.148 272.031C194.405 273.257 194.518 274.648 194.379 276.202C194.239 277.756 193.88 279.104 193.408 280.265C192.588 282.279 190.951 283.419 188.807 283.875C186.612 284.342 183.964 284.059 181.496 283.205L170.3 279.327C167.944 278.511 166.447 276.195 166.67 273.712C166.893 271.229 168.779 269.217 171.243 268.834L182.951 267.015Z" fill="white" stroke="black" stroke-width="3.27309"/>
<path d="M160.596 300.654C160.997 303.234 160.803 305.891 159.952 307.967C159.121 309.996 157.708 311.403 155.579 311.851C154.354 312.108 152.962 312.221 151.409 312.082C149.855 311.942 148.506 311.583 147.346 311.111C145.331 310.291 144.192 308.654 143.735 306.51C143.268 304.315 143.551 301.667 144.406 299.199L148.283 288.003C149.099 285.647 151.415 284.15 153.898 284.373C156.381 284.596 158.393 286.482 158.776 288.946L160.596 300.654Z" fill="white" stroke="black" stroke-width="3.27309"/>
<path d="M140.417 296.854C138.876 298.962 136.861 300.703 134.791 301.57C132.769 302.417 130.774 302.412 128.953 301.224C127.904 300.539 126.84 299.635 125.84 298.438C124.84 297.241 124.141 296.033 123.654 294.879C122.809 292.875 123.161 290.911 124.355 289.072C125.576 287.19 127.649 285.518 129.998 284.377L140.657 279.202C142.9 278.113 145.596 278.692 147.194 280.605C148.792 282.519 148.881 285.275 147.41 287.288L140.417 296.854Z" fill="white" stroke="black" stroke-width="3.27309"/>
<path d="M128.723 280.423C126.143 280.824 123.486 280.63 121.41 279.779C119.381 278.948 117.974 277.535 117.526 275.407C117.269 274.181 117.156 272.789 117.295 271.236C117.435 269.682 117.794 268.333 118.266 267.173C119.086 265.158 120.722 264.019 122.867 263.562C125.062 263.096 127.71 263.378 130.178 264.233L141.374 268.11C143.73 268.926 145.227 271.242 145.004 273.725C144.781 276.208 142.895 278.22 140.431 278.603L128.723 280.423Z" fill="white" stroke="black" stroke-width="3.27309"/>
<circle cx="156.576" cy="273.966" r="13.0919" transform="rotate(-39.8659 156.576 273.966)" fill="#FFFDE7" stroke="black" stroke-width="3.27309"/>
<path d="M75.6668 349.978C73.5585 348.437 71.8174 346.421 70.9508 344.352C70.1039 342.329 70.1081 340.335 71.2965 338.514C71.9811 337.465 72.885 336.401 74.0824 335.401C75.2798 334.401 76.4875 333.701 77.6419 333.215C79.6458 332.37 81.6091 332.721 83.4482 333.915C85.3301 335.137 87.0029 337.209 88.1435 339.558L93.3187 350.217C94.4076 352.46 93.8287 355.156 91.9151 356.754C90.0014 358.353 87.2452 358.442 85.2324 356.97L75.6668 349.978Z" fill="white" stroke="black" stroke-width="3.27309"/>
<path d="M106.703 387.145C107.843 389.495 109.516 391.567 111.398 392.789C113.237 393.983 115.2 394.334 117.204 393.489C118.359 393.003 119.566 392.303 120.764 391.303C121.961 390.303 122.865 389.239 123.55 388.19C124.738 386.369 124.742 384.374 123.895 382.352C123.029 380.282 121.288 378.267 119.179 376.726L109.614 369.734C107.601 368.262 104.845 368.351 102.931 369.949C101.017 371.547 100.438 374.244 101.527 376.487L106.703 387.145Z" fill="white" stroke="black" stroke-width="3.27309"/>
<path d="M92.5 336.221C92.0989 333.641 92.2929 330.984 93.1435 328.908C93.9748 326.879 95.3881 325.472 97.5162 325.024C98.7421 324.767 100.133 324.654 101.687 324.793C103.241 324.933 104.59 325.292 105.75 325.764C107.764 326.584 108.904 328.221 109.36 330.365C109.827 332.56 109.545 335.208 108.69 337.676L104.813 348.872C103.997 351.228 101.681 352.725 99.1976 352.502C96.7144 352.279 94.7025 350.393 94.3196 347.929L92.5 336.221Z" fill="white" stroke="black" stroke-width="3.27309"/>
<path d="M112.679 340.021C114.22 337.913 116.236 336.172 118.305 335.305C120.328 334.458 122.322 334.463 124.144 335.651C125.193 336.336 126.256 337.24 127.256 338.437C128.256 339.634 128.956 340.842 129.443 341.996C130.287 344 129.936 345.964 128.742 347.803C127.521 349.685 125.448 351.357 123.099 352.498L112.44 357.673C110.197 358.762 107.501 358.183 105.903 356.27C104.305 354.356 104.216 351.6 105.687 349.587L112.679 340.021Z" fill="white" stroke="black" stroke-width="3.27309"/>
<path d="M124.374 356.452C126.954 356.051 129.61 356.245 131.687 357.096C133.716 357.927 135.123 359.34 135.57 361.468C135.828 362.694 135.941 364.086 135.801 365.639C135.662 367.193 135.303 368.542 134.831 369.702C134.011 371.717 132.374 372.856 130.23 373.313C128.035 373.779 125.387 373.497 122.919 372.642L111.723 368.765C109.367 367.949 107.87 365.633 108.093 363.15C108.316 360.667 110.202 358.655 112.665 358.272L124.374 356.452Z" fill="white" stroke="black" stroke-width="3.27309"/>
<path d="M102.019 390.091C102.42 392.672 102.226 395.328 101.375 397.404C100.544 399.433 99.1305 400.841 97.0023 401.288C95.7764 401.546 94.3852 401.659 92.8314 401.519C91.2776 401.38 89.9288 401.021 88.7685 400.548C86.7541 399.729 85.6144 398.092 85.1581 395.947C84.6912 393.753 84.9738 391.104 85.8284 388.637L89.706 377.44C90.5219 375.085 92.8378 373.587 95.321 373.81C97.8041 374.034 99.816 375.92 100.199 378.383L102.019 390.091Z" fill="white" stroke="black" stroke-width="3.27309"/>
<path d="M81.8403 386.291C80.2992 388.399 78.2837 390.141 76.2142 391.007C74.1917 391.854 72.1973 391.85 70.376 390.661C69.3269 389.977 68.2633 389.073 67.2633 387.876C66.2633 386.678 65.5635 385.471 65.0769 384.316C64.2322 382.312 64.5836 380.349 65.7774 378.51C66.999 376.628 69.0715 374.955 71.4207 373.815L82.0796 368.639C84.3224 367.55 87.0186 368.129 88.6167 370.043C90.2148 371.957 90.3039 374.713 88.8326 376.726L81.8403 386.291Z" fill="white" stroke="black" stroke-width="3.27309"/>
<path d="M70.1459 369.86C67.5654 370.261 64.9091 370.067 62.833 369.217C60.804 368.386 59.3967 366.972 58.9492 364.844C58.6914 363.618 58.5785 362.227 58.7181 360.673C58.8577 359.119 59.2168 357.771 59.689 356.61C60.5086 354.596 62.1453 353.456 64.29 353C66.4845 352.533 69.1328 352.816 71.6005 353.67L82.7969 357.548C85.1528 358.364 86.6499 360.68 86.4268 363.163C86.2037 365.646 84.3177 367.658 81.8541 368.041L70.1459 369.86Z" fill="white" stroke="black" stroke-width="3.27309"/>
<circle cx="97.9986" cy="363.403" r="13.0919" transform="rotate(-39.8659 97.9986 363.403)" fill="#FFFDE7" stroke="black" stroke-width="3.27309"/>
<path d="M90.5701 274.634C88.4618 273.093 86.7207 271.078 85.8541 269.008C85.0072 266.986 85.0114 264.991 86.1998 263.17C86.8844 262.121 87.7883 261.057 88.9857 260.057C90.1831 259.057 91.3908 258.357 92.5452 257.871C94.5491 257.026 96.5124 257.377 98.3515 258.571C100.233 259.793 101.906 261.865 103.047 264.215L108.222 274.874C109.311 277.116 108.732 279.813 106.818 281.411C104.905 283.009 102.149 283.098 100.136 281.627L90.5701 274.634Z" fill="white" stroke="black" stroke-width="3.27309"/>
<path d="M121.606 311.802C122.747 314.151 124.419 316.223 126.301 317.445C128.14 318.639 130.104 318.99 132.108 318.145C133.262 317.659 134.47 316.959 135.667 315.959C136.864 314.959 137.768 313.895 138.453 312.846C139.641 311.025 139.646 309.031 138.799 307.008C137.932 304.939 136.191 302.923 134.083 301.382L124.517 294.39C122.504 292.918 119.748 293.008 117.834 294.606C115.921 296.204 115.342 298.9 116.431 301.143L121.606 311.802Z" fill="white" stroke="black" stroke-width="3.27309"/>
<path d="M107.403 260.877C107.002 258.297 107.196 255.64 108.047 253.564C108.878 251.535 110.291 250.128 112.42 249.681C113.645 249.423 115.037 249.31 116.59 249.45C118.144 249.589 119.493 249.948 120.653 250.42C122.668 251.24 123.807 252.877 124.264 255.021C124.731 257.216 124.448 259.864 123.593 262.332L119.716 273.528C118.9 275.884 116.584 277.381 114.101 277.158C111.618 276.935 109.606 275.049 109.223 272.586L107.403 260.877Z" fill="white" stroke="black" stroke-width="3.27309"/>
<path d="M127.583 264.678C129.124 262.569 131.139 260.828 133.209 259.962C135.231 259.115 137.226 259.119 139.047 260.307C140.096 260.992 141.16 261.896 142.16 263.093C143.16 264.291 143.859 265.498 144.346 266.653C145.191 268.657 144.839 270.62 143.645 272.459C142.424 274.341 140.351 276.014 138.002 277.154L127.343 282.329C125.1 283.418 122.404 282.839 120.806 280.926C119.208 279.012 119.119 276.256 120.59 274.243L127.583 264.678Z" fill="white" stroke="black" stroke-width="3.27309"/>
<path d="M139.277 281.108C141.857 280.707 144.514 280.901 146.59 281.752C148.619 282.583 150.026 283.996 150.474 286.125C150.731 287.351 150.844 288.742 150.705 290.296C150.565 291.849 150.206 293.198 149.734 294.358C148.914 296.373 147.278 297.513 145.133 297.969C142.938 298.436 140.29 298.153 137.822 297.299L126.626 293.421C124.27 292.605 122.773 290.289 122.996 287.806C123.219 285.323 125.105 283.311 127.569 282.928L139.277 281.108Z" fill="white" stroke="black" stroke-width="3.27309"/>
<path d="M116.922 314.748C117.323 317.328 117.129 319.985 116.278 322.061C115.447 324.09 114.034 325.497 111.906 325.944C110.68 326.202 109.288 326.315 107.735 326.175C106.181 326.036 104.832 325.677 103.672 325.205C101.657 324.385 100.518 322.748 100.061 320.604C99.5945 318.409 99.8772 315.761 100.732 313.293L104.609 302.097C105.425 299.741 107.741 298.244 110.224 298.467C112.707 298.69 114.719 300.576 115.102 303.039L116.922 314.748Z" fill="white" stroke="black" stroke-width="3.27309"/>
<path d="M96.7436 310.947C95.2025 313.056 93.187 314.797 91.1176 315.663C89.095 316.51 87.1006 316.506 85.2793 315.318C84.2302 314.633 83.1666 313.729 82.1666 312.532C81.1667 311.334 80.4668 310.127 79.9802 308.972C79.1355 306.968 79.4869 305.005 80.6807 303.166C81.9023 301.284 83.9748 299.611 86.324 298.471L96.9829 293.296C99.2257 292.207 101.922 292.786 103.52 294.699C105.118 296.613 105.207 299.369 103.736 301.382L96.7436 310.947Z" fill="white" stroke="black" stroke-width="3.27309"/>
<path d="M85.0492 294.517C82.4687 294.918 79.8124 294.724 77.7363 293.873C75.7073 293.042 74.3 291.629 73.8525 289.5C73.5947 288.274 73.4818 286.883 73.6214 285.329C73.761 283.776 74.1201 282.427 74.5923 281.267C75.412 279.252 77.0487 278.112 79.1933 277.656C81.3878 277.189 84.0362 277.472 86.5038 278.326L97.7002 282.204C100.056 283.02 101.553 285.336 101.33 287.819C101.107 290.302 99.221 292.314 96.7574 292.697L85.0492 294.517Z" fill="white" stroke="black" stroke-width="3.27309"/>
<circle cx="112.902" cy="288.059" r="13.0919" transform="rotate(-39.8659 112.902 288.059)" fill="#FFFDE7" stroke="black" stroke-width="3.27309"/>
<path d="M96.0623 316.955C93.954 315.413 92.2129 313.398 91.3463 311.329C90.4994 309.306 90.5036 307.312 91.692 305.49C92.3766 304.441 93.2805 303.378 94.4779 302.378C95.6753 301.378 96.883 300.678 98.0374 300.191C100.041 299.346 102.005 299.698 103.844 300.892C105.726 302.113 107.398 304.186 108.539 306.535L113.714 317.194C114.803 319.437 114.224 322.133 112.311 323.731C110.397 325.329 107.641 325.418 105.628 323.947L96.0623 316.955Z" fill="white" stroke="black" stroke-width="3.27309"/>
<path d="M127.098 354.122C128.239 356.471 129.912 358.544 131.793 359.765C133.633 360.959 135.596 361.311 137.6 360.466C138.754 359.979 139.962 359.279 141.159 358.279C142.357 357.279 143.26 356.216 143.945 355.167C145.133 353.345 145.138 351.351 144.291 349.328C143.424 347.259 141.683 345.243 139.575 343.702L130.009 336.71C127.996 335.239 125.24 335.328 123.327 336.926C121.413 338.524 120.834 341.22 121.923 343.463L127.098 354.122Z" fill="white" stroke="black" stroke-width="3.27309"/>
<path d="M112.895 303.198C112.494 300.617 112.688 297.961 113.539 295.885C114.37 293.856 115.784 292.448 117.912 292.001C119.138 291.743 120.529 291.63 122.083 291.77C123.636 291.909 124.985 292.269 126.146 292.741C128.16 293.56 129.3 295.197 129.756 297.342C130.223 299.536 129.94 302.185 129.086 304.652L125.208 315.849C124.392 318.205 122.076 319.702 119.593 319.479C117.11 319.255 115.098 317.369 114.715 314.906L112.895 303.198Z" fill="white" stroke="black" stroke-width="3.27309"/>
<path d="M133.075 306.998C134.616 304.89 136.631 303.148 138.701 302.282C140.723 301.435 142.718 301.439 144.539 302.628C145.588 303.312 146.652 304.216 147.652 305.413C148.652 306.611 149.352 307.819 149.838 308.973C150.683 310.977 150.331 312.94 149.138 314.779C147.916 316.661 145.844 318.334 143.494 319.475L132.835 324.65C130.593 325.739 127.896 325.16 126.298 323.246C124.7 321.332 124.611 318.576 126.082 316.563L133.075 306.998Z" fill="white" stroke="black" stroke-width="3.27309"/>
<path d="M144.769 323.429C147.35 323.028 150.006 323.222 152.082 324.072C154.111 324.904 155.518 326.317 155.966 328.445C156.224 329.671 156.337 331.062 156.197 332.616C156.057 334.17 155.698 335.518 155.226 336.679C154.406 338.693 152.77 339.833 150.625 340.289C148.431 340.756 145.782 340.473 143.315 339.619L132.118 335.741C129.762 334.925 128.265 332.609 128.488 330.126C128.711 327.643 130.597 325.631 133.061 325.248L144.769 323.429Z" fill="white" stroke="black" stroke-width="3.27309"/>
<path d="M122.414 357.068C122.815 359.648 122.621 362.305 121.771 364.381C120.939 366.41 119.526 367.817 117.398 368.265C116.172 368.522 114.781 368.635 113.227 368.496C111.673 368.356 110.324 367.997 109.164 367.525C107.15 366.705 106.01 365.069 105.554 362.924C105.087 360.729 105.369 358.081 106.224 355.613L110.102 344.417C110.917 342.061 113.233 340.564 115.716 340.787C118.2 341.01 120.212 342.896 120.594 345.36L122.414 357.068Z" fill="white" stroke="black" stroke-width="3.27309"/>
<path d="M102.236 353.268C100.695 355.376 98.6792 357.117 96.6098 357.984C94.5872 358.831 92.5928 358.826 90.7715 357.638C89.7224 356.953 88.6588 356.05 87.6588 354.852C86.6589 353.655 85.959 352.447 85.4724 351.293C84.6277 349.289 84.9791 347.326 86.1729 345.486C87.3945 343.605 89.467 341.932 91.8162 340.791L102.475 335.616C104.718 334.527 107.414 335.106 109.012 337.02C110.61 338.933 110.699 341.689 109.228 343.702L102.236 353.268Z" fill="white" stroke="black" stroke-width="3.27309"/>
<path d="M90.5414 336.837C87.9609 337.238 85.3046 337.044 83.2285 336.193C81.1995 335.362 79.7922 333.949 79.3447 331.821C79.0869 330.595 78.974 329.204 79.1136 327.65C79.2532 326.096 79.6123 324.747 80.0845 323.587C80.9041 321.573 82.5409 320.433 84.6855 319.976C86.88 319.51 89.5284 319.792 91.996 320.647L103.192 324.524C105.548 325.34 107.045 327.656 106.822 330.139C106.599 332.623 104.713 334.634 102.25 335.017L90.5414 336.837Z" fill="white" stroke="black" stroke-width="3.27309"/>
<circle cx="118.394" cy="330.38" r="13.0919" transform="rotate(-39.8659 118.394 330.38)" fill="#FFFDE7" stroke="black" stroke-width="3.27309"/>
<path d="M288.398 580.032C277.2 578.908 277.175 521.864 278.052 519.006C278.93 516.147 313.598 489.091 318.776 489.261C325.249 489.473 363.637 519.627 362.692 526.034C361.747 532.441 341.154 556.925 330.851 565.53C320.548 574.134 301.38 581.334 288.398 580.032Z" fill="#FFEBEB" stroke="black" stroke-width="7" stroke-linecap="round" stroke-linejoin="round"/>
<path d="M116 486.994C115.999 462.358 138 435.055 151.5 425.995C151.5 425.995 161.054 433.493 179 445.495L193.667 436.664C203.055 430.554 213.614 424.653 225.5 417.497C247.927 407.316 282.994 395.984 296.555 394.315C323.5 391 321.5 400.995 311.5 406.498C326.289 407.745 333.24 404.249 334.62 411.374C336 418.5 325.073 418.772 316.264 421.415C331.136 422.226 334.62 420.445 334.62 427.5C334.62 434.555 317.448 436.227 306.409 434.555C320.173 439.104 322.821 440 321.911 445.5C321 451 308.733 449.598 296.555 447.694C305 449.015 304.463 452.452 303 456C301.537 459.548 276.661 451.994 266.17 457.548C252.209 464.939 247.287 470.441 196.5 511.994C158 543.494 116.001 532.094 116 486.994Z" fill="#FBC02D"/>
<path d="M168.446 457.548C182.908 441.278 201.5 431.948 225.5 417.497M225.5 417.497C247.927 407.316 282.994 395.984 296.555 394.315C323.5 391 321.5 400.995 311.5 406.498C326.289 407.745 333.24 404.249 334.62 411.374C336 418.5 325.073 418.772 316.264 421.415C331.136 422.226 334.62 420.445 334.62 427.5C334.62 434.555 317.448 436.227 306.409 434.555C320.173 439.104 322.821 440 321.911 445.5C321 451 308.733 449.598 296.555 447.694C305 449.015 304.463 452.452 303 456C301.537 459.548 276.661 451.994 266.17 457.548C252.209 464.939 247.287 470.441 196.5 511.994C158 543.494 116.001 532.094 116 486.994C115.999 462.358 138 435.055 151.5 425.995C151.5 425.995 161.054 433.493 179 445.495L225.5 417.497Z" stroke="black" stroke-width="7" stroke-linecap="round" stroke-linejoin="round"/>
<ellipse cx="334" cy="307.5" rx="6" ry="7.5" fill="black"/>
<ellipse cx="420" cy="307.5" rx="6" ry="7.5" fill="black"/>
<path d="M322.642 190.289C322.499 190.91 322.755 191.448 323.18 191.716C331.46 196.93 357.045 211.951 386.837 218.813C416.572 225.661 445.426 223.212 454.943 222.089C455.433 222.031 455.891 221.663 456.032 221.05L467.834 169.809C468.056 168.844 467.294 167.882 466.256 167.91C459.02 168.106 446.724 168.317 434.064 167.981C421.484 167.647 408.256 166.769 399.299 164.706C390.314 162.636 377.828 157.578 366.151 152.314C354.398 147.016 343.196 141.384 336.685 138.033C335.763 137.558 334.663 138.093 334.443 139.05L322.642 190.289Z" fill="#293154" stroke="black" stroke-width="7"/>
<path d="M304.057 135.977C303.082 135.253 303.327 133.768 304.483 133.396L411.494 98.9979C412.035 98.8238 412.634 98.9619 413.043 99.3553L493.795 177.012C494.666 177.85 494.231 179.287 493.037 179.514L389.912 199.122C389.485 199.203 389.042 199.101 388.694 198.843L304.057 135.977Z" fill="#1E2646" stroke="black" stroke-width="7"/>
<path d="M567.64 389.927C600.253 426.631 630.315 476.745 619.02 505.924C603.607 545.743 524.614 535.419 460.275 492.515C429.186 471.783 424.308 468 427 462.5C429.692 457 443.034 460.148 441.5 459.508C420.547 450.758 422 432.92 448.504 444.622C433.286 433.119 433.005 408.369 465.221 433.368C448.536 419.42 449.52 396.499 480.137 426.607C474.999 416.501 490.499 417.501 501.079 432.918C509.276 444.863 516.517 460.507 531.02 470.978C522.62 428.221 551.934 399.129 567.64 389.927Z" fill="#FBC02D"/>
<path d="M573.02 477.424C560.52 483.424 541.261 478.371 531.02 470.978M531.02 470.978C516.517 460.507 509.276 444.863 501.079 432.918C490.499 417.501 474.999 416.501 480.137 426.607C448.504 395.5 448.504 421 466.94 434.724C433 407.5 433.02 432.918 448.504 444.622C422 432.92 420.547 450.758 441.5 459.508C443.034 460.148 429.692 457 427 462.5C424.308 468 429.186 471.783 460.275 492.515C524.614 535.419 603.607 545.743 619.02 505.924C630.315 476.745 600.253 426.631 567.64 389.927C551.934 399.129 522.62 428.221 531.02 470.978Z" stroke="black" stroke-width="7" stroke-linecap="round" stroke-linejoin="round"/>
</svg>
