<svg width="40" height="40" viewBox="0 0 40 40" fill="none" xmlns="http://www.w3.org/2000/svg">
<mask id="mask0_377_2371" style="mask-type:alpha" maskUnits="userSpaceOnUse" x="0" y="0" width="40" height="40">
<circle cx="20" cy="20" r="19.756" fill="white" stroke="#F3F3F3" stroke-width="0.488095"/>
</mask>
<g mask="url(#mask0_377_2371)">
<path d="M24.3167 33.5737H24.0545V33.3115V27.1979H20.3695V33.3115V35.1558V36.7378L29.9553 36.7378C30.1081 36.7378 30.1641 36.6005 30.1207 36.5143L29.9096 36.0946C29.1291 34.5432 27.761 33.5737 25.9742 33.5737H24.3167Z" fill="#FBC02D" stroke="black" stroke-width="0.524439"/>
<path d="M14.946 33.5737H15.2082V33.3115L15.2082 27.1979L18.8932 27.1979V33.3115V35.1558L18.8932 36.7378L9.30741 36.7378C9.15464 36.7378 9.09861 36.6005 9.14198 36.5143L9.35314 36.0946C10.1336 34.5432 11.5017 33.5737 13.2885 33.5737H14.946Z" fill="#FBC02D" stroke="black" stroke-width="0.524439"/>
<path d="M23.7994 10.9401C22.508 7.1589 16.8678 7.1589 15.5764 10.9401C14.9243 12.8495 13.0597 14.131 10.9686 14.131C8.86625 14.131 7.39038 15.4056 6.85714 16.9669C6.3245 18.5264 6.73091 20.3724 8.42332 21.5422C10.1226 22.7167 10.8407 24.8061 10.1876 26.7184C9.54519 28.5994 10.3488 30.3225 11.7538 31.2937C13.1602 32.2658 15.1477 32.4665 16.8444 31.2937C18.5408 30.1212 20.8351 30.1212 22.5314 31.2937C24.2282 32.4665 26.2156 32.2658 27.6221 31.2937C29.027 30.3225 29.8307 28.5994 29.1882 26.7184C28.5351 24.8061 29.2532 22.7167 30.9525 21.5422C32.6449 20.3724 33.0513 18.5264 32.5187 16.9669C31.9855 15.4056 30.5096 14.131 28.4072 14.131C26.3161 14.131 24.4516 12.8495 23.7994 10.9401Z" fill="#FBC02D" stroke="black" stroke-width="0.524439"/>
<path d="M20.9599 18.9244C20.9599 18.9244 21.2109 20.2975 19.6421 20.2975C18.0733 20.2975 18.3243 18.9244 18.3243 18.9244" stroke="black" stroke-width="0.524439" stroke-linecap="round" stroke-linejoin="round"/>
<path d="M25.359 14.1622C23.3551 14.7753 23.675 26.6557 23.7182 27.1372C23.7615 27.6187 25.5241 29.2288 26.4373 29.0082C27.5787 28.7325 36.1988 22.2564 36.2807 21.1396C36.3626 20.0228 33.703 16.3783 32.2315 15.2101C30.76 14.042 27.6821 13.4515 25.359 14.1622Z" fill="#FFEBEB" stroke="black" stroke-width="0.524439" stroke-linecap="round" stroke-linejoin="round"/>
<path d="M27.8845 12.4743C28.0265 12.3752 28.1435 12.2453 28.2002 12.1148C28.2552 11.9881 28.252 11.8678 28.1708 11.7608C28.1326 11.7105 28.0846 11.66 28.0242 11.612C27.9637 11.5641 27.9029 11.5282 27.844 11.5014C27.7187 11.4445 27.5937 11.4629 27.4724 11.537C27.3474 11.6133 27.2338 11.7459 27.1565 11.8964L26.8496 12.4941C26.7854 12.6192 26.8185 12.7691 26.9299 12.8575C27.0414 12.946 27.2025 12.9503 27.3205 12.8679L27.8845 12.4743Z" fill="white" stroke="black" stroke-width="0.245219"/>
<path d="M25.9872 14.6355C25.91 14.786 25.7964 14.9186 25.6714 14.9949C25.55 15.0689 25.425 15.0874 25.2997 15.0304C25.2408 15.0037 25.18 14.9678 25.1196 14.9198C25.0591 14.8718 25.0112 14.8214 24.973 14.771C24.8917 14.664 24.8885 14.5438 24.9435 14.4171C25.0003 14.2865 25.1173 14.1567 25.2593 14.0576L25.8232 13.6639C25.9413 13.5816 26.1024 13.5858 26.2138 13.6743C26.3252 13.7628 26.3584 13.9127 26.2941 14.0378L25.9872 14.6355Z" fill="white" stroke="black" stroke-width="0.245219"/>
<path d="M26.8538 11.688C26.8818 11.5226 26.8686 11.3524 26.8117 11.2226C26.7565 11.0966 26.6643 11.0143 26.5261 10.9941C26.4611 10.9846 26.389 10.9816 26.3098 10.9886C26.2306 10.9957 26.1602 11.0114 26.0979 11.0322C25.9655 11.0765 25.8895 11.1737 25.8578 11.3075C25.8252 11.4453 25.8427 11.615 25.9 11.7729L26.1242 12.391C26.1721 12.523 26.3084 12.6065 26.455 12.5935C26.6016 12.5804 26.7208 12.4742 26.7442 12.3358L26.8538 11.688Z" fill="white" stroke="black" stroke-width="0.245219"/>
<path d="M25.6254 11.9203C25.5224 11.7858 25.3869 11.6754 25.2501 11.6225C25.1173 11.5711 24.9908 11.5752 24.8775 11.6537C24.8242 11.6906 24.7707 11.7368 24.7197 11.7948C24.6687 11.8529 24.6304 11.9112 24.6017 11.9676C24.5407 12.0875 24.559 12.2066 24.6358 12.3217C24.715 12.4402 24.8535 12.5473 25.011 12.6196L25.6368 12.9069C25.7679 12.9671 25.9259 12.9341 26.0199 12.827C26.114 12.72 26.1199 12.5663 26.0343 12.4544L25.6254 11.9203Z" fill="white" stroke="black" stroke-width="0.245219"/>
<path d="M24.9215 12.8851C24.7486 12.8604 24.5702 12.8741 24.4335 12.9287C24.3009 12.9817 24.2138 13.0692 24.1911 13.1998C24.1804 13.2611 24.1765 13.3291 24.1833 13.4038C24.19 13.4784 24.2061 13.5446 24.2276 13.6031C24.2734 13.7276 24.3748 13.7983 24.5148 13.8271C24.6591 13.8567 24.8371 13.8387 25.0029 13.7838L25.6705 13.5631C25.8074 13.5178 25.8949 13.3897 25.8825 13.2526C25.8701 13.1155 25.761 13.0048 25.6181 12.9845L24.9215 12.8851Z" fill="white" stroke="black" stroke-width="0.245219"/>
<path d="M26.3107 14.8206C26.2827 14.9861 26.2959 15.1562 26.3528 15.2861C26.408 15.4121 26.5002 15.4944 26.6385 15.5145C26.7035 15.524 26.7756 15.5271 26.8548 15.52C26.934 15.513 27.0044 15.4973 27.0667 15.4764C27.1991 15.4322 27.275 15.3349 27.3067 15.2012C27.3394 15.0634 27.3218 14.8936 27.2646 14.7358L27.0404 14.1177C26.9925 13.9856 26.8561 13.9022 26.7096 13.9152C26.563 13.9282 26.4438 14.0345 26.4204 14.1729L26.3107 14.8206Z" fill="white" stroke="black" stroke-width="0.245219"/>
<path d="M27.5386 14.5884C27.6416 14.7229 27.7772 14.8333 27.914 14.8863C28.0467 14.9376 28.1733 14.9335 28.2866 14.855C28.3399 14.8182 28.3934 14.772 28.4444 14.7139C28.4954 14.6559 28.5337 14.5976 28.5623 14.5412C28.6233 14.4212 28.605 14.3021 28.5282 14.1871C28.4491 14.0685 28.3106 13.9614 28.153 13.8891L27.5272 13.6018C27.3962 13.5417 27.2382 13.5746 27.1441 13.6817C27.05 13.7888 27.0441 13.9424 27.1297 14.0543L27.5386 14.5884Z" fill="white" stroke="black" stroke-width="0.245219"/>
<path d="M28.2425 13.6236C28.4155 13.6483 28.5938 13.6346 28.7305 13.58C28.8632 13.527 28.9502 13.4395 28.973 13.3089C28.9836 13.2476 28.9875 13.1796 28.9808 13.105C28.974 13.0303 28.958 12.9641 28.9365 12.9056C28.8907 12.7812 28.7893 12.7104 28.6492 12.6817C28.5049 12.652 28.327 12.6701 28.1612 12.7249L27.4936 12.9456C27.3566 12.9909 27.2691 13.1191 27.2815 13.2562C27.2939 13.3932 27.4031 13.5039 27.5459 13.5243L28.2425 13.6236Z" fill="white" stroke="black" stroke-width="0.245219"/>
<path d="M25.9252 12.7847C25.6411 13.1081 25.6841 13.5872 26.0212 13.8548C26.3583 14.1224 26.8619 14.0773 27.146 13.7539C27.4301 13.4305 27.3871 12.9514 27.05 12.6837C26.7129 12.4161 26.2093 12.4613 25.9252 12.7847Z" fill="#FFFDE7" stroke="black" stroke-width="0.245219"/>
<path d="M31.4025 12.2776C31.5445 12.1785 31.6616 12.0486 31.7183 11.918C31.7733 11.7914 31.7701 11.6711 31.6888 11.5641C31.6506 11.5138 31.6027 11.4633 31.5422 11.4153C31.4818 11.3673 31.421 11.3315 31.3621 11.3047C31.2368 11.2478 31.1118 11.2662 30.9905 11.3403C30.8654 11.4166 30.7519 11.5492 30.6746 11.6997L30.3677 12.2974C30.3034 12.4224 30.3366 12.5724 30.448 12.6608C30.5595 12.7493 30.7205 12.7536 30.8386 12.6712L31.4025 12.2776Z" fill="white" stroke="black" stroke-width="0.245219"/>
<path d="M29.5053 14.4387C29.428 14.5892 29.3144 14.7218 29.1894 14.7981C29.0681 14.8722 28.9431 14.8906 28.8178 14.8337C28.7589 14.807 28.6981 14.7711 28.6377 14.7231C28.5772 14.6751 28.5292 14.6246 28.491 14.5743C28.4098 14.4673 28.4066 14.347 28.4616 14.2204C28.5183 14.0898 28.6353 13.96 28.7773 13.8608L29.3413 13.4672C29.4593 13.3848 29.6204 13.3891 29.7319 13.4776C29.8433 13.5661 29.8764 13.716 29.8122 13.8411L29.5053 14.4387Z" fill="white" stroke="black" stroke-width="0.245219"/>
<path d="M30.3719 11.4913C30.3999 11.3259 30.3867 11.1557 30.3298 11.0259C30.2746 10.8999 30.1824 10.8176 30.0442 10.7974C29.9791 10.7879 29.907 10.7849 29.8278 10.7919C29.7486 10.799 29.6782 10.8147 29.616 10.8355C29.4835 10.8798 29.4076 10.977 29.3759 11.1107C29.3432 11.2486 29.3608 11.4183 29.4181 11.5762L29.6422 12.1943C29.6901 12.3263 29.8265 12.4098 29.9731 12.3967C30.1196 12.3837 30.2388 12.2775 30.2623 12.1391L30.3719 11.4913Z" fill="white" stroke="black" stroke-width="0.245219"/>
<path d="M29.1435 11.7236C29.0405 11.5891 28.905 11.4787 28.7682 11.4258C28.6354 11.3744 28.5089 11.3785 28.3955 11.457C28.3423 11.4938 28.2888 11.54 28.2378 11.5981C28.1867 11.6562 28.1485 11.7144 28.1198 11.7708C28.0588 11.8908 28.0771 12.0099 28.1539 12.1249C28.2331 12.2435 28.3715 12.3506 28.5291 12.4229L29.1549 12.7102C29.2859 12.7703 29.4439 12.7374 29.538 12.6303C29.6321 12.5232 29.638 12.3696 29.5524 12.2577L29.1435 11.7236Z" fill="white" stroke="black" stroke-width="0.245219"/>
<path d="M28.4396 12.6884C28.2666 12.6637 28.0883 12.6774 27.9516 12.732C27.8189 12.785 27.7319 12.8725 27.7092 13.0031C27.6985 13.0644 27.6946 13.1324 27.7013 13.2071C27.7081 13.2817 27.7241 13.3479 27.7457 13.4064C27.7915 13.5308 27.8928 13.6016 28.0329 13.6303C28.1772 13.66 28.3552 13.6419 28.5209 13.5871L29.1885 13.3664C29.3255 13.3211 29.413 13.1929 29.4006 13.0559C29.3882 12.9188 29.2791 12.8081 29.1362 12.7877L28.4396 12.6884Z" fill="white" stroke="black" stroke-width="0.245219"/>
<path d="M29.8288 14.6239C29.8008 14.7894 29.814 14.9595 29.8709 15.0894C29.9261 15.2154 30.0183 15.2977 30.1565 15.3178C30.2215 15.3273 30.2937 15.3304 30.3729 15.3233C30.452 15.3163 30.5225 15.3005 30.5847 15.2797C30.7171 15.2355 30.7931 15.1382 30.8248 15.0045C30.8575 14.8667 30.8399 14.6969 30.7826 14.5391L30.5585 13.921C30.5106 13.7889 30.3742 13.7054 30.2276 13.7185C30.081 13.7315 29.9618 13.8377 29.9384 13.9761L29.8288 14.6239Z" fill="white" stroke="black" stroke-width="0.245219"/>
<path d="M31.0572 14.3917C31.1602 14.5262 31.2957 14.6366 31.4325 14.6895C31.5653 14.7409 31.6918 14.7368 31.8052 14.6583C31.8584 14.6215 31.9119 14.5753 31.9629 14.5172C32.0139 14.4591 32.0522 14.4009 32.0809 14.3445C32.1419 14.2245 32.1236 14.1054 32.0468 13.9904C31.9676 13.8718 31.8292 13.7647 31.6716 13.6924L31.0458 13.4051C30.9148 13.345 30.7567 13.3779 30.6627 13.485C30.5686 13.592 30.5627 13.7457 30.6483 13.8576L31.0572 14.3917Z" fill="white" stroke="black" stroke-width="0.245219"/>
<path d="M31.7606 13.4269C31.9336 13.4516 32.1119 13.4379 32.2486 13.3833C32.3813 13.3303 32.4683 13.2428 32.491 13.1122C32.5017 13.0509 32.5056 12.9829 32.4989 12.9082C32.4921 12.8336 32.4761 12.7674 32.4545 12.7089C32.4087 12.5845 32.3074 12.5137 32.1673 12.485C32.023 12.4553 31.845 12.4734 31.6793 12.5282L31.0116 12.7489C30.8747 12.7942 30.7872 12.9223 30.7996 13.0594C30.812 13.1965 30.9211 13.3072 31.064 13.3276L31.7606 13.4269Z" fill="white" stroke="black" stroke-width="0.245219"/>
<path d="M29.4432 12.588C29.1591 12.9113 29.2021 13.3905 29.5393 13.6581C29.8764 13.9257 30.38 13.8805 30.6641 13.5572C30.9482 13.2338 30.9052 12.7547 30.5681 12.487C30.2309 12.2194 29.7273 12.2646 29.4432 12.588Z" fill="#FFFDE7" stroke="black" stroke-width="0.245219"/>
<path d="M33.7829 11.2419C33.9249 11.1428 34.0419 11.0129 34.0986 10.8824C34.1537 10.7557 34.1505 10.6355 34.0692 10.5285C34.031 10.4781 33.983 10.4277 33.9226 10.3797C33.8621 10.3317 33.8014 10.2958 33.7425 10.269C33.6172 10.2121 33.4921 10.2306 33.3708 10.3046C33.2458 10.3809 33.1322 10.5135 33.0549 10.664L32.748 11.2617C32.6838 11.3868 32.7169 11.5367 32.8284 11.6252C32.9398 11.7137 33.1009 11.7179 33.2189 11.6355L33.7829 11.2419Z" fill="white" stroke="black" stroke-width="0.245219"/>
<path d="M31.8857 13.4031C31.8084 13.5536 31.6948 13.6862 31.5698 13.7625C31.4485 13.8366 31.3234 13.855 31.1982 13.7981C31.1393 13.7713 31.0785 13.7354 31.018 13.6875C30.9576 13.6395 30.9096 13.589 30.8714 13.5387C30.7902 13.4316 30.787 13.3114 30.842 13.1847C30.8987 13.0542 31.0157 12.9243 31.1577 12.8252L31.7217 12.4316C31.8397 12.3492 32.0008 12.3535 32.1122 12.4419C32.2237 12.5304 32.2568 12.6803 32.1926 12.8054L31.8857 13.4031Z" fill="white" stroke="black" stroke-width="0.245219"/>
<path d="M32.7522 10.4557C32.7802 10.2902 32.7671 10.1201 32.7102 9.99022C32.655 9.86423 32.5628 9.78194 32.4245 9.76176C32.3595 9.75227 32.2874 9.74924 32.2082 9.75628C32.129 9.76333 32.0586 9.77904 31.9963 9.79986C31.8639 9.84412 31.788 9.94137 31.7563 10.0751C31.7236 10.2129 31.7412 10.3827 31.7984 10.5405L32.0226 11.1586C32.0705 11.2907 32.2069 11.3741 32.3534 11.3611C32.5 11.3481 32.6192 11.2419 32.6426 11.1034L32.7522 10.4557Z" fill="white" stroke="black" stroke-width="0.245219"/>
<path d="M31.5239 10.6879C31.4209 10.5534 31.2853 10.443 31.1485 10.3901C31.0158 10.3387 30.8892 10.3428 30.7759 10.4213C30.7226 10.4581 30.6691 10.5043 30.6181 10.5624C30.5671 10.6204 30.5288 10.6787 30.5002 10.7351C30.4392 10.8551 30.4575 10.9742 30.5343 11.0892C30.6134 11.2078 30.7519 11.3149 30.9095 11.3872L31.5353 11.6745C31.6663 11.7346 31.8243 11.7017 31.9184 11.5946C32.0125 11.4875 32.0184 11.3339 31.9328 11.222L31.5239 10.6879Z" fill="white" stroke="black" stroke-width="0.245219"/>
<path d="M30.82 11.6527C30.647 11.6281 30.4687 11.6417 30.332 11.6964C30.1993 11.7494 30.1123 11.8369 30.0895 11.9674C30.0789 12.0288 30.075 12.0968 30.0817 12.1714C30.0885 12.246 30.1045 12.3123 30.126 12.3708C30.1718 12.4952 30.2732 12.5659 30.4133 12.5947C30.5576 12.6243 30.7355 12.6063 30.9013 12.5515L31.5689 12.3307C31.7059 12.2855 31.7934 12.1573 31.781 12.0202C31.7686 11.8831 31.6594 11.7725 31.5166 11.7521L30.82 11.6527Z" fill="white" stroke="black" stroke-width="0.245219"/>
<path d="M32.2092 13.5883C32.1812 13.7537 32.1944 13.9239 32.2513 14.0537C32.3065 14.1797 32.3987 14.262 32.5369 14.2822C32.6019 14.2917 32.674 14.2947 32.7532 14.2877C32.8324 14.2806 32.9028 14.2649 32.9651 14.2441C33.0975 14.1998 33.1734 14.1026 33.2051 13.9689C33.2378 13.831 33.2203 13.6613 33.163 13.5034L32.9388 12.8853C32.8909 12.7533 32.7546 12.6698 32.608 12.6828C32.4614 12.6959 32.3422 12.8021 32.3188 12.9405L32.2092 13.5883Z" fill="white" stroke="black" stroke-width="0.245219"/>
<path d="M33.4376 13.3561C33.5405 13.4906 33.6761 13.601 33.8129 13.6539C33.9457 13.7052 34.0722 13.7011 34.1855 13.6227C34.2388 13.5858 34.2923 13.5396 34.3433 13.4816C34.3943 13.4235 34.4326 13.3652 34.4613 13.3088C34.5223 13.1888 34.504 13.0697 34.4271 12.9547C34.348 12.8362 34.2095 12.7291 34.0519 12.6567L33.4262 12.3695C33.2951 12.3093 33.1371 12.3423 33.043 12.4493C32.949 12.5564 32.943 12.7101 33.0287 12.8219L33.4376 13.3561Z" fill="white" stroke="black" stroke-width="0.245219"/>
<path d="M34.141 12.3913C34.3139 12.416 34.4923 12.4023 34.629 12.3476C34.7616 12.2946 34.8487 12.2071 34.8714 12.0766C34.8821 12.0152 34.886 11.9472 34.8792 11.8726C34.8725 11.798 34.8564 11.7317 34.8349 11.6732C34.7891 11.5488 34.6877 11.4781 34.5477 11.4493C34.4034 11.4197 34.2254 11.4377 34.0596 11.4925L33.392 11.7133C33.2551 11.7586 33.1676 11.8867 33.18 12.0238C33.1924 12.1609 33.3015 12.2715 33.4444 12.2919L34.141 12.3913Z" fill="white" stroke="black" stroke-width="0.245219"/>
<path d="M31.8236 11.5523C31.5395 11.8757 31.5825 12.3548 31.9196 12.6225C32.2568 12.8901 32.7604 12.8449 33.0445 12.5215C33.3286 12.1981 33.2856 11.719 32.9484 11.4514C32.6113 11.1838 32.1077 11.2289 31.8236 11.5523Z" fill="#FFFDE7" stroke="black" stroke-width="0.245219"/>
<path d="M35.2141 13.6511C35.3561 13.5519 35.4731 13.4221 35.5298 13.2915C35.5848 13.1648 35.5816 13.0446 35.5004 12.9376C35.4622 12.8872 35.4142 12.8368 35.3537 12.7888C35.2933 12.7408 35.2325 12.7049 35.1736 12.6782C35.0483 12.6213 34.9233 12.6397 34.802 12.7137C34.677 12.7901 34.5634 12.9227 34.4861 13.0732L34.1792 13.6708C34.115 13.7959 34.1481 13.9458 34.2595 14.0343C34.371 14.1228 34.5321 14.127 34.6501 14.0447L35.2141 13.6511Z" fill="white" stroke="black" stroke-width="0.245219"/>
<path d="M33.3168 15.8122C33.2395 15.9627 33.126 16.0953 33.0009 16.1716C32.8796 16.2457 32.7546 16.2641 32.6293 16.2072C32.5704 16.1804 32.5096 16.1446 32.4492 16.0966C32.3887 16.0486 32.3408 15.9981 32.3026 15.9478C32.2213 15.8408 32.2181 15.7205 32.2731 15.5938C32.3298 15.4633 32.4469 15.3334 32.5889 15.2343L33.1528 14.8407C33.2709 14.7583 33.4319 14.7626 33.5434 14.8511C33.6548 14.9395 33.688 15.0894 33.6237 15.2145L33.3168 15.8122Z" fill="white" stroke="black" stroke-width="0.245219"/>
<path d="M34.1834 12.8648C34.2114 12.6993 34.1982 12.5292 34.1413 12.3993C34.0861 12.2734 33.9939 12.1911 33.8557 12.1709C33.7907 12.1614 33.7185 12.1584 33.6394 12.1654C33.5602 12.1724 33.4897 12.1882 33.4275 12.209C33.2951 12.2532 33.2191 12.3505 33.1874 12.4842C33.1548 12.622 33.1723 12.7918 33.2296 12.9497L33.4537 13.5677C33.5016 13.6998 33.638 13.7833 33.7846 13.7702C33.9312 13.7572 34.0504 13.651 34.0738 13.5126L34.1834 12.8648Z" fill="white" stroke="black" stroke-width="0.245219"/>
<path d="M32.955 13.0971C32.852 12.9626 32.7165 12.8521 32.5797 12.7992C32.4469 12.7479 32.3204 12.752 32.2071 12.8304C32.1538 12.8673 32.1003 12.9135 32.0493 12.9716C31.9983 13.0296 31.96 13.0879 31.9313 13.1443C31.8703 13.2643 31.8886 13.3834 31.9654 13.4984C32.0446 13.6169 32.183 13.7241 32.3406 13.7964L32.9664 14.0837C33.0975 14.1438 33.2555 14.1109 33.3495 14.0038C33.4436 13.8967 33.4495 13.743 33.3639 13.6312L32.955 13.0971Z" fill="white" stroke="black" stroke-width="0.245219"/>
<path d="M32.2511 14.0618C32.0782 14.0372 31.8998 14.0508 31.7631 14.1055C31.6305 14.1585 31.5434 14.246 31.5207 14.3765C31.51 14.4379 31.5061 14.5059 31.5129 14.5805C31.5196 14.6552 31.5357 14.7214 31.5572 14.7799C31.603 14.9043 31.7043 14.9751 31.8444 15.0038C31.9887 15.0334 32.1667 15.0154 32.3325 14.9606L33.0001 14.7399C33.137 14.6946 33.2245 14.5664 33.2121 14.4293C33.1997 14.2922 33.0906 14.1816 32.9477 14.1612L32.2511 14.0618Z" fill="white" stroke="black" stroke-width="0.245219"/>
<path d="M33.6403 15.9974C33.6123 16.1628 33.6255 16.333 33.6824 16.4628C33.7376 16.5888 33.8298 16.6711 33.9681 16.6913C34.0331 16.7008 34.1052 16.7038 34.1844 16.6968C34.2636 16.6897 34.334 16.674 34.3963 16.6532C34.5287 16.6089 34.6046 16.5117 34.6363 16.378C34.669 16.2401 34.6514 16.0704 34.5942 15.9125L34.37 15.2944C34.3221 15.1624 34.1857 15.0789 34.0391 15.092C33.8926 15.105 33.7734 15.2112 33.7499 15.3496L33.6403 15.9974Z" fill="white" stroke="black" stroke-width="0.245219"/>
<path d="M34.8687 15.7652C34.9717 15.8997 35.1073 16.0101 35.2441 16.063C35.3768 16.1144 35.5033 16.1102 35.6167 16.0318C35.6699 15.9949 35.7234 15.9487 35.7745 15.8907C35.8255 15.8326 35.8637 15.7743 35.8924 15.7179C35.9534 15.5979 35.9351 15.4789 35.8583 15.3638C35.7791 15.2453 35.6407 15.1382 35.4831 15.0659L34.8573 14.7786C34.7263 14.7184 34.5683 14.7514 34.4742 14.8584C34.3801 14.9655 34.3742 15.1192 34.4598 15.231L34.8687 15.7652Z" fill="white" stroke="black" stroke-width="0.245219"/>
<path d="M35.5721 14.8004C35.7451 14.8251 35.9234 14.8114 36.0601 14.7568C36.1928 14.7037 36.2798 14.6162 36.3026 14.4857C36.3132 14.4244 36.3171 14.3563 36.3104 14.2817C36.3036 14.2071 36.2876 14.1408 36.2661 14.0824C36.2202 13.9579 36.1189 13.8872 35.9788 13.8584C35.8345 13.8288 35.6566 13.8468 35.4908 13.9016L34.8232 14.1224C34.6862 14.1677 34.5987 14.2958 34.6111 14.4329C34.6235 14.57 34.7326 14.6807 34.8755 14.701L35.5721 14.8004Z" fill="white" stroke="black" stroke-width="0.245219"/>
<path d="M33.2548 13.9614C32.9707 14.2848 33.0136 14.7639 33.3508 15.0316C33.6879 15.2992 34.1915 15.254 34.4756 14.9306C34.7597 14.6073 34.7167 14.1281 34.3796 13.8605C34.0425 13.5929 33.5389 13.6381 33.2548 13.9614Z" fill="#FFFDE7" stroke="black" stroke-width="0.245219"/>
<path d="M38.8898 18.9899C39.0318 18.8908 39.1489 18.7609 39.2056 18.6304C39.2606 18.5037 39.2574 18.3835 39.1761 18.2764C39.1379 18.2261 39.09 18.1756 39.0295 18.1277C38.9691 18.0797 38.9083 18.0438 38.8494 18.017C38.7241 17.9601 38.5991 17.9786 38.4778 18.0526C38.3527 18.1289 38.2392 18.2615 38.1619 18.412L37.855 19.0097C37.7907 19.1348 37.8239 19.2847 37.9353 19.3732C38.0468 19.4616 38.2078 19.4659 38.3259 19.3835L38.8898 18.9899Z" fill="white" stroke="black" stroke-width="0.245219"/>
<path d="M36.9926 21.1511C36.9153 21.3016 36.8017 21.4342 36.6767 21.5105C36.5554 21.5845 36.4304 21.603 36.3051 21.5461C36.2462 21.5193 36.1854 21.4834 36.125 21.4354C36.0645 21.3875 36.0165 21.337 35.9783 21.2867C35.8971 21.1796 35.8939 21.0594 35.9489 20.9327C36.0056 20.8022 36.1226 20.6723 36.2646 20.5732L36.8286 20.1796C36.9466 20.0972 37.1077 20.1015 37.2192 20.1899C37.3306 20.2784 37.3637 20.4283 37.2995 20.5534L36.9926 21.1511Z" fill="white" stroke="black" stroke-width="0.245219"/>
<path d="M37.8592 18.2037C37.8872 18.0383 37.874 17.8681 37.8171 17.7383C37.7619 17.6123 37.6697 17.53 37.5315 17.5098C37.4664 17.5003 37.3943 17.4973 37.3151 17.5043C37.236 17.5114 37.1655 17.5271 37.1033 17.5479C36.9709 17.5922 36.8949 17.6894 36.8632 17.8231C36.8305 17.961 36.8481 18.1307 36.9054 18.2886L37.1295 18.9067C37.1774 19.0387 37.3138 19.1222 37.4604 19.1091C37.6069 19.0961 37.7261 18.9899 37.7496 18.8515L37.8592 18.2037Z" fill="white" stroke="black" stroke-width="0.245219"/>
<path d="M36.6308 18.4359C36.5278 18.3014 36.3923 18.191 36.2555 18.1381C36.1227 18.0868 35.9962 18.0909 35.8828 18.1693C35.8296 18.2062 35.7761 18.2524 35.7251 18.3104C35.6741 18.3685 35.6358 18.4268 35.6071 18.4832C35.5461 18.6032 35.5644 18.7223 35.6412 18.8373C35.7204 18.9558 35.8588 19.0629 36.0164 19.1353L36.6422 19.4225C36.7732 19.4827 36.9312 19.4497 37.0253 19.3427C37.1194 19.2356 37.1253 19.0819 37.0397 18.9701L36.6308 18.4359Z" fill="white" stroke="black" stroke-width="0.245219"/>
<path d="M35.9269 19.4007C35.7539 19.376 35.5756 19.3897 35.4389 19.4443C35.3062 19.4974 35.2192 19.5849 35.1965 19.7154C35.1858 19.7768 35.1819 19.8448 35.1886 19.9194C35.1954 19.994 35.2114 20.0603 35.233 20.1187C35.2788 20.2432 35.3801 20.3139 35.5202 20.3427C35.6645 20.3723 35.8425 20.3543 36.0082 20.2995L36.6759 20.0787C36.8128 20.0334 36.9003 19.9053 36.8879 19.7682C36.8755 19.6311 36.7664 19.5205 36.6235 19.5001L35.9269 19.4007Z" fill="white" stroke="black" stroke-width="0.245219"/>
<path d="M37.3161 21.3363C37.2881 21.5017 37.3013 21.6718 37.3582 21.8017C37.4134 21.9277 37.5056 22.01 37.6438 22.0302C37.7089 22.0397 37.781 22.0427 37.8602 22.0356C37.9393 22.0286 38.0098 22.0129 38.072 21.9921C38.2044 21.9478 38.2804 21.8506 38.3121 21.7168C38.3448 21.579 38.3272 21.4092 38.2699 21.2514L38.0458 20.6333C37.9979 20.5013 37.8615 20.4178 37.7149 20.4308C37.5684 20.4439 37.4491 20.5501 37.4257 20.6885L37.3161 21.3363Z" fill="white" stroke="black" stroke-width="0.245219"/>
<path d="M38.5445 21.104C38.6475 21.2386 38.783 21.349 38.9198 21.4019C39.0526 21.4532 39.1791 21.4491 39.2925 21.3707C39.3457 21.3338 39.3992 21.2876 39.4502 21.2295C39.5012 21.1715 39.5395 21.1132 39.5682 21.0568C39.6292 20.9368 39.6109 20.8177 39.5341 20.7027C39.4549 20.5842 39.3165 20.4771 39.1589 20.4047L38.5331 20.1175C38.4021 20.0573 38.244 20.0902 38.15 20.1973C38.0559 20.3044 38.05 20.4581 38.1356 20.5699L38.5445 21.104Z" fill="white" stroke="black" stroke-width="0.245219"/>
<path d="M39.2479 20.1393C39.4209 20.1639 39.5992 20.1503 39.7359 20.0956C39.8686 20.0426 39.9556 19.9551 39.9783 19.8246C39.989 19.7632 39.9929 19.6952 39.9862 19.6206C39.9794 19.546 39.9634 19.4797 39.9418 19.4212C39.896 19.2968 39.7947 19.2261 39.6546 19.1973C39.5103 19.1677 39.3323 19.1857 39.1666 19.2405L38.4989 19.4613C38.362 19.5065 38.2745 19.6347 38.2869 19.7718C38.2993 19.9089 38.4084 20.0195 38.5513 20.0399L39.2479 20.1393Z" fill="white" stroke="black" stroke-width="0.245219"/>
<path d="M36.9305 19.3003C36.6464 19.6237 36.6894 20.1028 37.0266 20.3704C37.3637 20.6381 37.8673 20.5929 38.1514 20.2695C38.4355 19.9461 38.3925 19.467 38.0554 19.1994C37.7182 18.9317 37.2146 18.9769 36.9305 19.3003Z" fill="#FFFDE7" stroke="black" stroke-width="0.245219"/>
<path d="M37.9543 14.4924C38.0963 14.3933 38.2133 14.2634 38.27 14.1329C38.325 14.0062 38.3218 13.886 38.2406 13.7789C38.2024 13.7286 38.1544 13.6781 38.094 13.6302C38.0335 13.5822 37.9727 13.5463 37.9138 13.5195C37.7886 13.4626 37.6635 13.4811 37.5422 13.5551C37.4172 13.6314 37.3036 13.764 37.2263 13.9145L36.9194 14.5122C36.8552 14.6373 36.8883 14.7872 36.9998 14.8757C37.1112 14.9641 37.2723 14.9684 37.3903 14.886L37.9543 14.4924Z" fill="white" stroke="black" stroke-width="0.245219"/>
<path d="M36.0571 16.6536C35.9798 16.8041 35.8662 16.9367 35.7412 17.013C35.6199 17.087 35.4948 17.1055 35.3696 17.0486C35.3107 17.0218 35.2499 16.9859 35.1894 16.9379C35.129 16.89 35.081 16.8395 35.0428 16.7892C34.9615 16.6821 34.9583 16.5619 35.0134 16.4352C35.0701 16.3047 35.1871 16.1748 35.3291 16.0757L35.8931 15.6821C36.0111 15.5997 36.1722 15.604 36.2836 15.6924C36.3951 15.7809 36.4282 15.9308 36.364 16.0559L36.0571 16.6536Z" fill="white" stroke="black" stroke-width="0.245219"/>
<path d="M36.9236 13.7062C36.9516 13.5407 36.9384 13.3706 36.8815 13.2407C36.8263 13.1147 36.7341 13.0324 36.5959 13.0122C36.5309 13.0028 36.4588 12.9997 36.3796 13.0068C36.3004 13.0138 36.23 13.0295 36.1677 13.0503C36.0353 13.0946 35.9594 13.1919 35.9277 13.3256C35.895 13.4634 35.9126 13.6332 35.9698 13.791L36.194 14.4091C36.2419 14.5412 36.3782 14.6246 36.5248 14.6116C36.6714 14.5985 36.7906 14.4923 36.814 14.3539L36.9236 13.7062Z" fill="white" stroke="black" stroke-width="0.245219"/>
<path d="M35.6952 13.9384C35.5923 13.8039 35.4567 13.6935 35.3199 13.6406C35.1872 13.5893 35.0606 13.5934 34.9473 13.6718C34.894 13.7087 34.8405 13.7549 34.7895 13.8129C34.7385 13.871 34.7002 13.9293 34.6716 13.9857C34.6106 14.1057 34.6289 14.2248 34.7057 14.3398C34.7848 14.4583 34.9233 14.5654 35.0809 14.6378L35.7067 14.925C35.8377 14.9852 35.9957 14.9522 36.0898 14.8452C36.1838 14.7381 36.1898 14.5844 36.1041 14.4726L35.6952 13.9384Z" fill="white" stroke="black" stroke-width="0.245219"/>
<path d="M34.9914 14.9032C34.8184 14.8785 34.6401 14.8922 34.5034 14.9469C34.3707 14.9999 34.2837 15.0874 34.2609 15.2179C34.2502 15.2793 34.2463 15.3473 34.2531 15.4219C34.2598 15.4965 34.2759 15.5628 34.2974 15.6213C34.3432 15.7457 34.4446 15.8164 34.5847 15.8452C34.729 15.8748 34.9069 15.8568 35.0727 15.802L35.7403 15.5812C35.8773 15.5359 35.9648 15.4078 35.9524 15.2707C35.94 15.1336 35.8308 15.023 35.6879 15.0026L34.9914 14.9032Z" fill="white" stroke="black" stroke-width="0.245219"/>
<path d="M36.3806 16.8388C36.3526 17.0042 36.3658 17.1744 36.4227 17.3042C36.4779 17.4302 36.5701 17.5125 36.7083 17.5327C36.7733 17.5422 36.8454 17.5452 36.9246 17.5382C37.0038 17.5311 37.0742 17.5154 37.1365 17.4946C37.2689 17.4503 37.3448 17.3531 37.3765 17.2193C37.4092 17.0815 37.3916 16.9118 37.3344 16.7539L37.1102 16.1358C37.0623 16.0038 36.926 15.9203 36.7794 15.9333C36.6328 15.9464 36.5136 16.0526 36.4902 16.191L36.3806 16.8388Z" fill="white" stroke="black" stroke-width="0.245219"/>
<path d="M37.6085 16.6065C37.7114 16.7411 37.847 16.8515 37.9838 16.9044C38.1166 16.9557 38.2431 16.9516 38.3564 16.8732C38.4097 16.8363 38.4632 16.7901 38.5142 16.732C38.5652 16.674 38.6035 16.6157 38.6322 16.5593C38.6932 16.4393 38.6749 16.3202 38.598 16.2052C38.5189 16.0867 38.3804 15.9796 38.2228 15.9072L37.5971 15.62C37.466 15.5598 37.308 15.5927 37.2139 15.6998C37.1199 15.8069 37.1139 15.9606 37.1996 16.0724L37.6085 16.6065Z" fill="white" stroke="black" stroke-width="0.245219"/>
<path d="M38.3123 15.6418C38.4853 15.6664 38.6637 15.6528 38.8004 15.5981C38.933 15.5451 39.0201 15.4576 39.0428 15.3271C39.0535 15.2657 39.0574 15.1977 39.0506 15.1231C39.0439 15.0485 39.0278 14.9822 39.0063 14.9237C38.9605 14.7993 38.8591 14.7286 38.7191 14.6998C38.5747 14.6702 38.3968 14.6882 38.231 14.743L37.5634 14.9638C37.4265 15.009 37.3389 15.1372 37.3513 15.2743C37.3637 15.4114 37.4729 15.522 37.6158 15.5424L38.3123 15.6418Z" fill="white" stroke="black" stroke-width="0.245219"/>
<path d="M35.995 14.8028C35.7109 15.1262 35.7539 15.6053 36.091 15.8729C36.4281 16.1406 36.9318 16.0954 37.2159 15.772C37.5 15.4486 37.457 14.9695 37.1198 14.7019C36.7827 14.4342 36.2791 14.4794 35.995 14.8028Z" fill="#FFFDE7" stroke="black" stroke-width="0.245219"/>
<path d="M37.6096 17.0188C37.7516 16.9197 37.8686 16.7898 37.9253 16.6593C37.9803 16.5326 37.9771 16.4123 37.8959 16.3053C37.8577 16.255 37.8097 16.2045 37.7492 16.1565C37.6888 16.1085 37.628 16.0727 37.5691 16.0459C37.4438 15.989 37.3188 16.0074 37.1975 16.0815C37.0725 16.1578 36.9589 16.2904 36.8816 16.4409L36.5747 17.0386C36.5105 17.1637 36.5436 17.3136 36.655 17.402C36.7665 17.4905 36.9276 17.4948 37.0456 17.4124L37.6096 17.0188Z" fill="white" stroke="black" stroke-width="0.245219"/>
<path d="M35.7123 19.18C35.6351 19.3304 35.5215 19.463 35.3965 19.5394C35.2751 19.6134 35.1501 19.6319 35.0248 19.5749C34.9659 19.5482 34.9051 19.5123 34.8447 19.4643C34.7842 19.4163 34.7363 19.3659 34.6981 19.3155C34.6168 19.2085 34.6136 19.0883 34.6686 18.9616C34.7254 18.831 34.8424 18.7012 34.9844 18.6021L35.5483 18.2084C35.6664 18.1261 35.8275 18.1303 35.9389 18.2188C36.0503 18.3073 36.0835 18.4572 36.0192 18.5823L35.7123 19.18Z" fill="white" stroke="black" stroke-width="0.245219"/>
<path d="M36.5789 16.2325C36.6069 16.0671 36.5937 15.8969 36.5368 15.7671C36.4816 15.6411 36.3894 15.5588 36.2512 15.5386C36.1862 15.5291 36.114 15.5261 36.0349 15.5331C35.9557 15.5402 35.8853 15.5559 35.823 15.5767C35.6906 15.621 35.6146 15.7182 35.5829 15.8519C35.5503 15.9898 35.5678 16.1595 35.6251 16.3174L35.8493 16.9355C35.8971 17.0675 36.0335 17.151 36.1801 17.138C36.3267 17.1249 36.4459 17.0187 36.4693 16.8803L36.5789 16.2325Z" fill="white" stroke="black" stroke-width="0.245219"/>
<path d="M35.3505 16.4648C35.2475 16.3303 35.112 16.2199 34.9752 16.167C34.8424 16.1156 34.7159 16.1197 34.6026 16.1982C34.5493 16.2351 34.4958 16.2812 34.4448 16.3393C34.3938 16.3974 34.3555 16.4556 34.3268 16.512C34.2658 16.632 34.2841 16.7511 34.3609 16.8661C34.4401 16.9847 34.5786 17.0918 34.7361 17.1641L35.3619 17.4514C35.493 17.5115 35.651 17.4786 35.745 17.3715C35.8391 17.2645 35.845 17.1108 35.7594 16.9989L35.3505 16.4648Z" fill="white" stroke="black" stroke-width="0.245219"/>
<path d="M34.6466 17.4296C34.4737 17.4049 34.2953 17.4186 34.1586 17.4732C34.026 17.5262 33.9389 17.6137 33.9162 17.7443C33.9055 17.8056 33.9016 17.8736 33.9084 17.9483C33.9151 18.0229 33.9312 18.0891 33.9527 18.1476C33.9985 18.2721 34.0999 18.3428 34.2399 18.3715C34.3842 18.4012 34.5622 18.3831 34.728 18.3283L35.3956 18.1076C35.5325 18.0623 35.62 17.9342 35.6076 17.7971C35.5952 17.66 35.4861 17.5493 35.3432 17.5289L34.6466 17.4296Z" fill="white" stroke="black" stroke-width="0.245219"/>
<path d="M36.0358 19.3651C36.0078 19.5306 36.021 19.7007 36.0779 19.8306C36.1331 19.9566 36.2253 20.0389 36.3636 20.059C36.4286 20.0685 36.5007 20.0716 36.5799 20.0645C36.6591 20.0575 36.7295 20.0418 36.7918 20.0209C36.9242 19.9767 37.0001 19.8794 37.0318 19.7457C37.0645 19.6079 37.0469 19.4381 36.9897 19.2803L36.7655 18.6622C36.7176 18.5301 36.5812 18.4467 36.4347 18.4597C36.2881 18.4727 36.1689 18.5789 36.1455 18.7174L36.0358 19.3651Z" fill="white" stroke="black" stroke-width="0.245219"/>
<path d="M37.2642 19.1329C37.3672 19.2674 37.5028 19.3778 37.6396 19.4307C37.7723 19.4821 37.8989 19.478 38.0122 19.3995C38.0655 19.3627 38.119 19.3165 38.17 19.2584C38.221 19.2004 38.2592 19.1421 38.2879 19.0857C38.3489 18.9657 38.3306 18.8466 38.2538 18.7316C38.1746 18.613 38.0362 18.5059 37.8786 18.4336L37.2528 18.1463C37.1218 18.0862 36.9638 18.1191 36.8697 18.2262C36.7756 18.3333 36.7697 18.4869 36.8553 18.5988L37.2642 19.1329Z" fill="white" stroke="black" stroke-width="0.245219"/>
<path d="M37.9676 18.1681C38.1406 18.1928 38.3189 18.1791 38.4556 18.1245C38.5883 18.0715 38.6753 17.984 38.6981 17.8534C38.7087 17.7921 38.7126 17.7241 38.7059 17.6494C38.6991 17.5748 38.6831 17.5086 38.6616 17.4501C38.6158 17.3257 38.5144 17.2549 38.3743 17.2262C38.23 17.1965 38.0521 17.2146 37.8863 17.2694L37.2187 17.4901C37.0817 17.5354 36.9942 17.6636 37.0066 17.8006C37.019 17.9377 37.1281 18.0484 37.271 18.0688L37.9676 18.1681Z" fill="white" stroke="black" stroke-width="0.245219"/>
<path d="M35.6503 17.3292C35.3662 17.6526 35.4092 18.1317 35.7463 18.3993C36.0834 18.6669 36.587 18.6218 36.8711 18.2984C37.1552 17.975 37.1122 17.4959 36.7751 17.2282C36.438 16.9606 35.9344 17.0058 35.6503 17.3292Z" fill="#FFFDE7" stroke="black" stroke-width="0.245219"/>
<path d="M25.5817 32.7138C26.2849 32.6437 26.3021 29.2348 26.2478 29.0642C26.1935 28.8936 24.025 27.2858 23.6999 27.2973C23.2936 27.3116 20.8758 29.1237 20.9334 29.5063C20.991 29.8889 22.2767 31.3467 22.9211 31.8582C23.5654 32.3697 24.7665 32.7951 25.5817 32.7138Z" fill="#FFEBEB" stroke="black" stroke-width="0.524439" stroke-linecap="round" stroke-linejoin="round"/>
<path d="M36.4111 27.1627C36.4112 25.692 35.0306 24.062 34.1835 23.5212C34.1835 23.5212 33.584 23.9688 32.4578 24.6853L31.5375 24.1581C30.9484 23.7934 30.2858 23.4411 29.5399 23.0139C28.1326 22.4061 25.9321 21.7296 25.0812 21.63C23.3904 21.432 23.5159 22.0287 24.1434 22.3573C23.2153 22.4317 22.7792 22.223 22.6926 22.6484C22.606 23.0738 23.2917 23.09 23.8444 23.2478C22.9112 23.2962 22.6926 23.1899 22.6926 23.611C22.6926 24.0322 23.7701 24.132 24.4628 24.0322C23.5991 24.3038 23.433 24.3573 23.4901 24.6856C23.5472 25.014 24.317 24.9303 25.0812 24.8166C24.5512 24.8954 24.585 25.1006 24.6768 25.3124C24.7685 25.5243 26.3295 25.0733 26.9879 25.4049C27.8639 25.8461 28.1728 26.1746 31.3597 28.6552C33.7756 30.5357 36.4111 29.8551 36.4111 27.1627Z" fill="#FBC02D"/>
<path d="M33.1201 25.4049C32.2126 24.4336 31.0459 23.8766 29.5399 23.0139M29.5399 23.0139C28.1326 22.4061 25.9321 21.7296 25.0812 21.63C23.3904 21.432 23.5159 22.0287 24.1434 22.3573C23.2153 22.4317 22.7792 22.223 22.6926 22.6484C22.606 23.0738 23.2917 23.09 23.8444 23.2478C22.9112 23.2962 22.6926 23.1899 22.6926 23.611C22.6926 24.0322 23.7701 24.132 24.4628 24.0322C23.5991 24.3038 23.433 24.3573 23.4901 24.6856C23.5472 25.014 24.317 24.9303 25.0812 24.8166C24.5512 24.8954 24.585 25.1006 24.6768 25.3124C24.7685 25.5243 26.3295 25.0733 26.9879 25.4049C27.8639 25.8461 28.1728 26.1746 31.3597 28.6552C33.7756 30.5357 36.4111 29.8551 36.4111 27.1627C36.4112 25.692 35.0306 24.062 34.1835 23.5212C34.1835 23.5212 33.584 23.9688 32.4578 24.6853L29.5399 23.0139Z" stroke="black" stroke-width="0.524439" stroke-linecap="round" stroke-linejoin="round"/>
<ellipse cx="0.376505" cy="0.447736" rx="0.376505" ry="0.447736" transform="matrix(-1 0 0 1 23.1079 15.999)" fill="black"/>
<ellipse cx="0.376504" cy="0.447736" rx="0.376504" ry="0.447736" transform="matrix(-1 0 0 1 17.7114 15.999)" fill="black"/>
<path d="M23.3803 9.4548C23.3919 9.50168 23.3727 9.54095 23.3412 9.55973C22.7902 9.8881 21.2341 10.745 19.4243 11.1312C17.6182 11.5166 15.8578 11.3695 15.2215 11.2942C15.1852 11.2899 15.1501 11.2629 15.1385 11.2164L14.4016 8.25211C14.3837 8.18 14.4397 8.10953 14.5177 8.11214C14.9923 8.12802 15.7503 8.14554 16.5217 8.13108C17.2875 8.11672 18.0869 8.07066 18.6344 7.95384C19.1839 7.83658 19.9373 7.5503 20.6464 7.24913C21.3607 6.94573 22.0488 6.61894 22.4741 6.41162C22.5425 6.3783 22.6255 6.41849 22.6434 6.4907L23.3803 9.4548Z" fill="#293154" stroke="black" stroke-width="0.524439"/>
<path d="M24.4737 6.30332C24.5485 6.2509 24.5299 6.14224 24.4413 6.11453L17.8524 4.05317C17.8108 4.04017 17.7648 4.05001 17.7334 4.07863L12.8319 8.54594C12.7652 8.60671 12.7983 8.71174 12.8896 8.729L19.2327 9.92785C19.2654 9.93403 19.2995 9.92685 19.3262 9.90813L24.4737 6.30332Z" fill="#1E2646" stroke="black" stroke-width="0.524439"/>
<path d="M8.0704 21.3678C6.02394 23.5589 4.13752 26.5506 4.84627 28.2926C5.81345 30.6697 10.7703 30.0534 14.8076 27.492C16.7585 26.2544 17.0646 26.0286 16.8957 25.7002C16.7267 25.3719 15.8895 25.5598 15.9858 25.5216C17.3006 24.9993 17.2094 23.9343 15.5463 24.633C16.5012 23.9462 16.5188 22.4687 14.4973 23.9611C15.5443 23.1284 15.4825 21.7601 13.5613 23.5575C13.8837 22.9542 12.911 23.0139 12.2472 23.9342C11.7328 24.6473 11.2784 25.5813 10.3683 26.2064C10.8954 23.6538 9.056 21.9171 8.0704 21.3678Z" fill="#FBC02D"/>
<path d="M7.7328 26.5912C8.51718 26.9494 9.72574 26.6477 10.3683 26.2064M10.3683 26.2064C11.2784 25.5813 11.7328 24.6473 12.2472 23.9342C12.911 23.0139 13.8837 22.9542 13.5613 23.5575C15.5463 21.7005 15.5463 23.2228 14.3894 24.0421C16.5192 22.4168 16.5179 23.9342 15.5463 24.633C17.2094 23.9343 17.3006 24.9993 15.9858 25.5216C15.8895 25.5598 16.7267 25.3719 16.8957 25.7002C17.0646 26.0286 16.7585 26.2544 14.8076 27.492C10.7703 30.0534 5.81344 30.6697 4.84627 28.2926C4.13752 26.5506 6.02394 23.5589 8.0704 21.3678C9.056 21.9171 10.8954 23.6538 10.3683 26.2064Z" stroke="black" stroke-width="0.524439" stroke-linecap="round" stroke-linejoin="round"/>
</g>
<circle cx="20" cy="20" r="19.5" stroke="#CECECE"/>
</svg>
