<svg width="765" height="765" viewBox="0 0 765 765" fill="none" xmlns="http://www.w3.org/2000/svg">
<path d="M312.739 596.301H316.239V592.801V489.5H376.321V592.801V623.694V651.087L222.882 651.087C220.262 651.087 218.539 648.352 219.67 645.989L223.035 638.957C235.616 612.669 257.657 596.301 286.325 596.301H312.739Z" fill="#F57F17" stroke="black" stroke-width="7"/>
<path d="M462.074 596.301H458.574V592.801V489.5H398.492V592.801V623.694L398.492 651.087L551.93 651.087C554.551 651.087 556.274 648.352 555.142 645.989L551.777 638.957C539.196 612.669 517.155 596.301 488.488 596.301H462.074Z" fill="#F57F17" stroke="black" stroke-width="7"/>
<path d="M203.68 412.153C218.18 398.821 242.022 379.694 252.131 371.796C259.274 395.966 273.059 445.658 271.061 451.07C268.564 457.835 252.473 478.098 218.863 484.55C181.748 491.674 153.435 472.989 132.458 449.725C115.677 431.114 104.828 428.735 101.501 429.872C63.7217 433.549 59.5 423 71 414.5C41.5 417.5 53.3764 404.865 57.4271 400.3C48.1341 398.845 43.5 399.8 43.5 393.5C43.5 387.2 54.5671 385.477 61.4921 382.88C56.0627 382.531 45.8717 381.598 49.7865 374.306C53.7013 367.014 87.9858 366.099 103.497 367.193C85.2713 336.075 117.594 353.031 133.163 360.109C148.733 367.186 185.555 428.819 203.68 412.153Z" fill="#F57F17" stroke="black" stroke-width="7" stroke-linejoin="round"/>
<path d="M577.871 412.153C563.371 398.821 539.528 379.694 529.42 371.796C522.277 395.966 508.492 445.658 510.49 451.07C512.987 457.835 529.078 478.098 562.688 484.55C599.802 491.674 628.115 472.989 649.092 449.725C665.874 431.114 676.723 428.735 680.05 429.872C717.829 433.549 722.051 423 710.551 414.5C740.051 417.5 728.174 404.865 724.124 400.3C733.417 398.845 738.051 399.8 738.051 393.5C738.051 387.2 726.984 385.477 720.059 382.88C725.488 382.531 735.679 381.598 731.764 374.306C727.849 367.014 693.565 366.099 678.054 367.193C696.279 336.075 663.957 353.031 648.388 360.109C632.818 367.186 595.996 428.819 577.871 412.153Z" fill="#F57F17" stroke="black" stroke-width="7" stroke-linejoin="round"/>
<path d="M316.353 214.906C337.173 150.828 427.827 150.828 448.647 214.906C458.895 246.446 488.287 267.801 521.451 267.801C588.827 267.801 616.84 354.018 562.332 393.62C535.502 413.113 524.275 447.666 534.524 479.207C555.344 543.285 482.004 596.569 427.496 556.967C400.665 537.474 364.335 537.474 337.504 556.967C282.996 596.569 209.656 543.285 230.476 479.207C240.725 447.666 229.498 413.113 202.668 393.62C148.16 354.018 176.173 267.801 243.549 267.801C276.713 267.801 306.105 246.446 316.353 214.906Z" fill="#F57F17" stroke="black" stroke-width="7"/>
<ellipse cx="360" cy="308.5" rx="6" ry="7.5" fill="black"/>
<ellipse cx="399.5" cy="361.625" rx="16.5" ry="20.625" fill="black"/>
<ellipse cx="446" cy="308.5" rx="6" ry="7.5" fill="black"/>
<path d="M608.367 220.335C608.37 220.289 608.371 220.243 608.372 220.197C608.485 211.174 613.622 203.438 620.556 197.833C627.54 192.187 635.826 189.134 641.345 189.111C641.418 189.11 641.492 189.107 641.565 189.102C648.721 188.544 658.47 190.528 667.085 197.829C675.344 204.828 679.545 219.001 675.65 231.837C673.058 240.377 667.979 246.042 660.729 251.902C660.262 252.279 659.539 252.784 658.543 253.481C658.431 253.559 658.315 253.64 658.196 253.723C657.072 254.509 655.734 255.455 654.391 256.505C651.815 258.52 648.772 261.254 647.31 264.424C647.252 264.549 647.203 264.679 647.163 264.812C645.815 269.278 643.782 271.282 641.983 272.136C640.134 273.015 637.973 272.945 635.906 272.186C634.896 271.814 633.179 270.34 632.121 267.895C631.123 265.591 630.871 262.763 632.245 259.87C635.512 252.995 640.32 248.503 647.993 243.46C654.583 239.129 661.802 232.983 661.89 222.107C661.936 216.277 658.976 212.302 655.554 209.811C652.231 207.391 648.385 206.276 646.005 205.878C643.668 205.487 640.057 205.697 636.502 206.929C632.898 208.178 629.033 210.594 626.681 214.895C626.201 215.772 625.763 216.578 625.36 217.32C624.137 219.57 623.234 221.232 622.454 222.519C621.408 224.244 620.82 224.878 620.38 225.186C616.995 227.562 614.056 227.081 611.898 225.699C610.75 224.964 609.807 223.953 609.179 222.901C608.532 221.819 608.334 220.894 608.367 220.335Z" fill="#FFEB3B" stroke="black" stroke-width="6" stroke-linecap="round" stroke-linejoin="round"/>
<path d="M647.362 301.403C646.996 307.667 642.036 312.083 636.689 311.742C631.342 311.402 626.932 306.389 627.298 300.125C627.664 293.861 632.624 289.445 637.971 289.786C643.318 290.126 647.728 295.139 647.362 301.403Z" fill="#FFEB3B" stroke="black" stroke-width="6"/>
</svg>
