<svg width="100" height="100" viewBox="0 0 100 100" fill="none" xmlns="http://www.w3.org/2000/svg">
<mask id="mask0_377_1941" style="mask-type:alpha" maskUnits="userSpaceOnUse" x="0" y="0" width="100" height="100">
<circle cx="50" cy="50" r="49.756" fill="white" stroke="#F3F3F3" stroke-width="0.488095"/>
</mask>
<g mask="url(#mask0_377_1941)">
<path d="M36.586 80.2335V63.573H46.7895V80.2335V85.1168V89.7783L22.1026 89.7783C21.4398 89.7783 21.0069 89.0904 21.2915 88.4981L21.8256 87.3866C23.8675 83.1373 27.471 80.4552 32.1719 80.4552H36.3643H36.586V80.2335Z" fill="#F57F17" stroke="black" stroke-width="0.443512"/>
<path d="M59.8441 80.2335L59.8441 63.573H49.6407V80.2335L49.6407 85.1168V89.7783L74.3276 89.7783C74.9904 89.7783 75.4233 89.0904 75.1386 88.4981L74.6046 87.3866C72.5627 83.1373 68.9592 80.4552 64.2583 80.4552H60.0659H59.8441V80.2335Z" fill="#F57F17" stroke="black" stroke-width="0.443512"/>
<path d="M19.0548 51.6795C21.3562 49.572 25.1404 46.5485 26.7448 45.3002C27.8784 49.1207 30.0664 56.9756 29.7493 57.8311C29.353 58.9004 26.7991 62.1034 21.4646 63.1233C15.5739 64.2495 11.0802 61.2959 7.75081 57.6185C5.08729 54.6766 3.36536 54.3006 2.83733 54.4804C-3.15884 55.0616 -3.82889 53.394 -2.00366 52.0504C-6.68579 52.5246 -4.80081 50.5273 -4.1579 49.8059C-5.63284 49.5759 -6.36836 49.7268 -6.36836 48.7309C-6.36836 47.735 -4.61183 47.4627 -3.51271 47.0522C-4.37445 46.9971 -5.99193 46.8495 -5.37059 45.6969C-4.74924 44.5442 0.692275 44.3997 3.15419 44.5724C0.261439 39.6536 5.39151 42.3339 7.86266 43.4527C10.3338 44.5714 16.1781 54.3138 19.0548 51.6795Z" fill="#F57F17" stroke="black" stroke-width="0.443512" stroke-linejoin="round"/>
<path d="M78.4452 51.6795C76.1438 49.572 72.3596 46.5485 70.7552 45.3002C69.6216 49.1207 67.4336 56.9756 67.7507 57.8311C68.147 58.9004 70.7009 62.1034 76.0354 63.1233C81.9261 64.2495 86.4198 61.2959 89.7492 57.6185C92.4127 54.6766 94.1346 54.3006 94.6627 54.4804C100.659 55.0616 101.329 53.394 99.5037 52.0504C104.186 52.5246 102.301 50.5273 101.658 49.8059C103.133 49.5759 103.868 49.7268 103.868 48.7309C103.868 47.735 102.112 47.4627 101.013 47.0522C101.874 46.9971 103.492 46.8495 102.871 45.6969C102.249 44.5442 96.8077 44.3997 94.3458 44.5724C97.2386 39.6536 92.1085 42.3339 89.6373 43.4527C87.1662 44.5714 81.3219 54.3138 78.4452 51.6795Z" fill="#F57F17" stroke="black" stroke-width="0.443512" stroke-linejoin="round"/>
<path d="M25.3822 28.5303C30.5007 28.5303 35.0379 25.2478 36.62 20.3984C40.0242 9.96367 54.8479 9.96367 58.2522 20.3984C59.8343 25.2478 64.3714 28.5303 69.4899 28.5303C80.5087 28.5303 85.0857 42.5704 76.1749 49.0182C72.0334 52.0149 70.3 57.3273 71.8822 62.1769C75.2854 72.6082 63.2965 81.2899 54.3811 74.8387C50.2398 71.8422 44.6323 71.8422 40.4911 74.8387C31.5756 81.2899 19.5868 72.6082 22.99 62.1769C24.5721 57.3273 22.8387 52.0149 18.6972 49.0182C9.78644 42.5704 14.3634 28.5303 25.3822 28.5303Z" fill="#F57F17" stroke="black" stroke-width="0.443512"/>
<ellipse cx="43.8654" cy="35.292" rx="0.952297" ry="1.18554" fill="black"/>
<ellipse cx="50.1344" cy="43.6924" rx="2.61882" ry="3.26023" fill="black"/>
<ellipse cx="57.5148" cy="35.292" rx="0.952299" ry="1.18554" fill="black"/>
<path d="M88.5109 16.1392L88.5109 16.1397L88.5247 16.1386C89.7293 16.0462 91.3555 16.3798 92.7887 17.588C94.1993 18.7771 94.8897 21.1391 94.2437 23.2613C93.8097 24.6868 92.9551 25.6247 91.783 26.5663C91.7006 26.6325 91.577 26.7184 91.4224 26.8257C91.4038 26.8386 91.3847 26.8519 91.3651 26.8655C91.1872 26.9892 90.9801 27.1346 90.7733 27.2954C90.3668 27.6114 89.9331 28.0075 89.7321 28.4415C89.7284 28.4495 89.7253 28.4577 89.7227 28.4661C89.4928 29.2256 89.1279 29.618 88.7512 29.7957C88.3711 29.9749 87.9449 29.9519 87.5638 29.8124C87.3096 29.7193 86.9871 29.4157 86.7966 28.9789C86.61 28.5509 86.5609 28.0178 86.819 27.4769C87.3683 26.3257 88.1791 25.5818 89.4189 24.7722C90.4495 24.0991 91.4846 23.2017 91.4959 21.6344C91.5017 20.8257 91.0936 20.2771 90.6063 19.9241C90.1252 19.5756 89.5606 19.4111 89.2109 19.3527C88.8917 19.2993 88.3665 19.3256 87.8426 19.5058C87.3156 19.687 86.7693 20.0312 86.4395 20.6317C86.3652 20.7671 86.2968 20.8924 86.2334 21.0085C86.0381 21.3662 85.8903 21.637 85.7628 21.8464C85.5934 22.1245 85.4749 22.2678 85.3541 22.352C84.7153 22.7975 84.1217 22.7146 83.6874 22.4377C83.466 22.2966 83.285 22.1039 83.163 21.9009C83.0398 21.696 82.9841 21.4935 82.9934 21.3329L82.9936 21.3329L82.9937 21.3241C83.0118 19.7873 83.8898 18.4943 85.0313 17.577C86.176 16.6572 87.5527 16.1424 88.5109 16.1392Z" fill="#FFEB3B" stroke="black" stroke-width="0.380153" stroke-linecap="round" stroke-linejoin="round"/>
<path d="M89.7618 34.1899C89.6967 35.316 88.7922 36.1526 87.7657 36.0867C86.7392 36.0209 85.9379 35.0747 86.003 33.9487C86.0682 32.8226 86.9727 31.986 87.9992 32.0518C89.0256 32.1177 89.827 33.0639 89.7618 34.1899Z" fill="#FFEB3B" stroke="black" stroke-width="0.380153"/>
</g>
<circle cx="50" cy="50" r="49.5" stroke="#CECECE"/>
</svg>
