<svg width="765" height="765" viewBox="0 0 765 765" fill="none" xmlns="http://www.w3.org/2000/svg">
<path d="M312.739 596.301H316.239V592.801V489.5H376.321V592.801V623.694V651.087L222.882 651.087C220.262 651.087 218.539 648.352 219.67 645.989L223.035 638.957C235.616 612.669 257.657 596.301 286.325 596.301H312.739Z" fill="#FFFDE7" stroke="black" stroke-width="7"/>
<path d="M462.074 596.301H458.574V592.801V489.5H398.492V592.801V623.694L398.492 651.087L551.93 651.087C554.551 651.087 556.274 648.352 555.142 645.989L551.777 638.957C539.196 612.669 517.155 596.301 488.488 596.301H462.074Z" fill="#FFFDE7" stroke="black" stroke-width="7"/>
<path d="M199.109 345.41C218.704 343.404 249.253 342.346 262.078 342.067C253.338 365.706 234.648 413.769 229.81 416.909C223.761 420.835 198.744 427.442 167.954 412.5C133.954 396 122.45 364.087 119.563 332.896C117.254 307.942 109.985 299.545 106.639 298.465C74.1695 278.805 78.5831 268.4 84.8486 265.655C73.8431 254.81 83.0449 249.632 89.0215 248.399C72.0943 231.082 91.0892 233.5 102.702 236.874C98.5608 233.346 90.9541 226.5 98.4541 223C105.954 219.5 133.971 239.282 145.745 249.44C149.762 213.602 165.513 246.528 173.752 261.515C181.992 276.502 174.615 347.917 199.109 345.41Z" fill="#FFFDE7" stroke="black" stroke-width="7" stroke-linejoin="round"/>
<path d="M615.228 533.245C619.83 569.012 596.715 540.765 585.154 528.161C555.553 495.892 538.211 440.297 475.189 436.173C478.069 411.135 494.425 366.759 498.381 362.56C524.592 334.73 585.195 419.51 602.247 442.19C619.298 464.869 638.074 476.085 641.581 476.339C677.789 487.732 675.97 498.887 670.535 503.041C683.8 510.964 676.09 518.178 670.577 520.794C691.13 533.599 672.104 535.758 660.022 535.237C664.883 537.681 673.897 542.526 667.442 547.706C660.987 552.886 629.076 540.318 615.228 533.245Z" fill="#FFFDE7" stroke="black" stroke-width="7" stroke-linejoin="round"/>
<path d="M316.353 214.906C337.173 150.828 427.827 150.828 448.647 214.906C458.895 246.446 488.287 267.801 521.451 267.801C588.827 267.801 616.84 354.018 562.332 393.62C535.502 413.113 524.275 447.666 534.524 479.207C555.344 543.285 482.004 596.569 427.496 556.967C400.665 537.474 364.335 537.474 337.504 556.967C282.996 596.569 209.656 543.285 230.476 479.207C240.725 447.666 229.498 413.113 202.668 393.62C148.16 354.018 176.173 267.801 243.549 267.801C276.713 267.801 306.105 246.446 316.353 214.906Z" fill="#FFFDE7" stroke="black" stroke-width="7"/>
<path d="M410.851 366H371.252C370.611 366 370.134 366.591 370.292 367.213C372.404 375.505 378.187 389 390.788 389C403.431 389 410.242 375.414 411.813 367.129C411.927 366.532 411.458 366 410.851 366Z" stroke="black" stroke-width="7"/>
<circle cx="337.5" cy="312.5" r="33" stroke="black" stroke-width="7"/>
<circle cx="423.5" cy="312.5" r="33" stroke="black" stroke-width="7"/>
<path d="M370 306.5C370 306.5 374.5 303.5 381 303.5C387.5 303.5 392 306.5 392 306.5" stroke="black" stroke-width="7"/>
<ellipse cx="334" cy="307.5" rx="6" ry="7.5" fill="black"/>
<ellipse cx="420" cy="307.5" rx="6" ry="7.5" fill="black"/>
<path d="M130.004 128.36C114.137 138.575 120.338 166.476 123.985 173.406C126.69 178.544 127.523 185.855 128.194 189.54C128.483 191.127 129.705 192.042 131.271 192.425C144.894 195.761 150.728 195.069 152.8 194.379C153.675 188.689 156.812 183.801 162.283 179.425C165.155 177.128 173.955 169.942 176.691 163.741C179.426 157.541 181.615 150.428 175.779 136.931C169.943 123.433 145.87 118.146 130.004 128.36Z" fill="#FFEB3B" stroke="black" stroke-width="6"/>
<path d="M141.451 212.619C141.451 214.269 140.185 215.496 138.756 215.496C137.327 215.496 136.062 214.269 136.062 212.619C136.062 210.969 137.327 209.742 138.756 209.742C140.185 209.742 141.451 210.969 141.451 212.619Z" fill="#CECECE" stroke="black" stroke-width="3"/>
<path d="M131.14 207.834C131.312 206.449 132.675 205.541 134.022 205.907C135.877 206.412 138.195 207.027 138.988 207.17C139.778 207.313 142.161 207.273 144.082 207.212C145.482 207.167 146.604 208.378 146.432 209.768C146.297 210.851 145.407 211.682 144.317 211.723C142.429 211.795 139.635 211.863 138.425 211.704C137.221 211.546 134.553 210.808 132.741 210.282C131.676 209.974 131.003 208.934 131.14 207.834Z" fill="#CECECE" stroke="black" stroke-width="3"/>
<path d="M129.244 202.213C129.489 200.398 131.291 199.226 133.053 199.726C135.48 200.414 138.513 201.254 139.552 201.453C140.586 201.65 143.713 201.632 146.235 201.579C148.072 201.54 149.528 203.144 149.282 204.965C149.09 206.385 147.911 207.462 146.479 207.501C144.002 207.569 140.335 207.619 138.748 207.394C137.171 207.17 133.681 206.164 131.31 205.448C129.917 205.028 129.049 203.655 129.244 202.213Z" fill="#CECECE" stroke="black" stroke-width="3"/>
<path d="M125.807 195.834C126.167 193.175 128.842 191.482 131.417 192.238C134.427 193.123 138.169 194.154 140.681 194.607C143.165 195.054 146.99 195.05 150.116 194.94C152.824 194.845 155.04 197.188 154.677 199.872C154.413 201.823 152.843 203.333 150.877 203.436C147.754 203.6 143.061 203.705 139.523 203.17C136.04 202.642 131.623 201.351 128.651 200.404C126.71 199.786 125.534 197.853 125.807 195.834Z" fill="#CECECE" stroke="black" stroke-width="3"/>
<path d="M137.298 193.652C137.967 184.108 138.174 163.816 133.651 159.002C127.997 152.984 129.639 168.667 141.128 168.303C152.618 167.938 152.946 168.63 156.447 165.566C161.465 161.176 158.106 155.342 152.8 163.378C146.417 173.044 145.14 188.606 144.958 194.929" stroke="black" stroke-width="3"/>
<rect x="155.155" y="98.1362" width="4.81856" height="12.4248" rx="2.40928" transform="rotate(8.45901 155.155 98.1362)" fill="#FFEB3B" stroke="black" stroke-width="2"/>
<rect x="122.975" y="104.543" width="4.81856" height="12.4248" rx="2.40928" transform="rotate(-27.1532 122.975 104.543)" fill="#FFEB3B" stroke="black" stroke-width="2"/>
<rect x="99.3639" y="131.986" width="4.81856" height="12.4248" rx="2.40928" transform="rotate(-60.3226 99.3639 131.986)" fill="#FFEB3B" stroke="black" stroke-width="2"/>
<rect x="186.759" y="114.414" width="4.81856" height="12.4248" rx="2.40928" transform="rotate(44.5492 186.759 114.414)" fill="#FFEB3B" stroke="black" stroke-width="2"/>
<rect x="197.995" y="144.174" width="4.81856" height="12.4248" rx="2.40928" transform="rotate(78.8956 197.995 144.174)" fill="#FFEB3B" stroke="black" stroke-width="2"/>
</svg>
