<svg width="40" height="40" viewBox="0 0 40 40" fill="none" xmlns="http://www.w3.org/2000/svg">
<mask id="mask0_377_2539" style="mask-type:alpha" maskUnits="userSpaceOnUse" x="0" y="0" width="40" height="40">
<circle cx="20" cy="20" r="19.5" fill="white" stroke="#F3F3F3"/>
</mask>
<g mask="url(#mask0_377_2539)">
<path d="M18.4938 33.6412H18.7092V33.4257V27.0869H22.4086V33.4257V35.3215V37.0019L12.9612 37.0019C12.7988 37.0019 12.6943 36.8338 12.7632 36.6903L12.9704 36.2587C13.7449 34.6458 15.1019 33.6412 16.8674 33.6412H18.4938Z" fill="#FFFDE7" stroke="black" stroke-width="0.430919"/>
<path d="M27.6884 33.6412H27.4729V33.4257V27.0869H23.7735V33.4257V35.3215L23.7735 37.0019L33.2209 37.0019C33.3834 37.0019 33.4878 36.8338 33.4189 36.6903L33.2117 36.2587C32.4373 34.6458 31.0802 33.6412 29.3147 33.6412H27.6884Z" fill="#FFFDE7" stroke="black" stroke-width="0.430919"/>
<path d="M11.4977 18.243C12.7042 18.1199 14.5851 18.055 15.3748 18.0379C14.8367 19.4885 13.6859 22.4381 13.388 22.6308C13.0156 22.8718 11.4752 23.2772 9.57947 22.3602C7.48605 21.3476 6.77772 19.3892 6.6 17.475C6.45782 15.9437 6.01024 15.4283 5.80422 15.3621C3.80504 14.1556 4.07679 13.517 4.46256 13.3486C3.78494 12.683 4.35151 12.3653 4.71949 12.2896C3.67727 11.2269 4.8468 11.3753 5.56185 11.5823C5.30684 11.3658 4.83849 10.9457 5.30027 10.7309C5.76206 10.5161 7.48707 11.7301 8.212 12.3535C8.45935 10.1541 9.42914 12.1748 9.93647 13.0945C10.4438 14.0142 9.98957 18.3969 11.4977 18.243Z" fill="#FFFDE7" stroke="black" stroke-width="0.430919" stroke-linejoin="round"/>
<path d="M37.1186 29.7709C37.402 31.9659 35.9788 30.2323 35.2669 29.4589C33.4444 27.4786 32.3766 24.0668 28.4962 23.8137C28.6736 22.2772 29.6806 19.5539 29.9242 19.2962C31.5381 17.5883 35.2695 22.7911 36.3193 24.1829C37.3692 25.5748 38.5253 26.263 38.7412 26.2786C40.9705 26.9778 40.8586 27.6624 40.524 27.9173C41.3407 28.4035 40.866 28.8462 40.5265 29.0068C41.792 29.7926 40.6206 29.9251 39.8766 29.8931C40.1759 30.0431 40.7309 30.3404 40.3335 30.6583C39.936 30.9762 37.9712 30.2049 37.1186 29.7709Z" fill="#FFFDE7" stroke="black" stroke-width="0.430919" stroke-linejoin="round"/>
<path d="M18.7161 10.2359C19.9979 6.30387 25.5799 6.30386 26.8618 10.2359C27.4929 12.172 29.3028 13.4823 31.3443 13.4823C35.4942 13.4823 37.2162 18.773 33.8617 21.2022C32.2097 22.3985 31.5181 24.5194 32.1493 26.4556C33.4302 30.385 28.9172 33.6583 25.559 31.2265C23.9072 30.0303 21.6706 30.0303 20.0188 31.2265C16.6606 33.6583 12.1476 30.385 13.4285 26.4556C14.0597 24.5194 13.3681 22.3985 11.7161 21.2022C8.36161 18.773 10.0836 13.4823 14.2335 13.4823C16.275 13.4823 18.0849 12.172 18.7161 10.2359Z" fill="#FFFDE7" stroke="black" stroke-width="0.430919"/>
<path d="M24.5347 19.5077H22.0967C22.0572 19.5077 22.0278 19.5441 22.0376 19.5824C22.1677 20.0913 22.5238 20.9192 23.2995 20.9192C24.0778 20.9192 24.4972 20.0857 24.594 19.5772C24.601 19.5405 24.5721 19.5077 24.5347 19.5077Z" stroke="black" stroke-width="0.430919"/>
<path d="M22.0502 16.2235C22.0502 17.3409 21.1412 18.248 20.0183 18.248C18.8955 18.248 17.9865 17.3409 17.9865 16.2235C17.9865 15.106 18.8955 14.199 20.0183 14.199C21.1412 14.199 22.0502 15.106 22.0502 16.2235Z" stroke="black" stroke-width="0.430919"/>
<path d="M27.3452 16.2235C27.3452 17.3409 26.4361 18.248 25.3133 18.248C24.1904 18.248 23.2814 17.3409 23.2814 16.2235C23.2814 15.106 24.1904 14.199 25.3133 14.199C26.4361 14.199 27.3452 15.106 27.3452 16.2235Z" stroke="black" stroke-width="0.430919"/>
<path d="M22.0195 15.8555C22.0195 15.8555 22.2966 15.6714 22.6968 15.6714C23.097 15.6714 23.3741 15.8555 23.3741 15.8555" stroke="black" stroke-width="0.430919"/>
<ellipse cx="19.803" cy="15.9169" rx="0.369359" ry="0.460264" fill="black"/>
<ellipse cx="25.0979" cy="15.9169" rx="0.369359" ry="0.460264" fill="black"/>
<path d="M7.24277 4.9248C6.26586 5.55163 6.64765 7.26388 6.87222 7.68918C7.03872 8.00448 7.09001 8.45308 7.13134 8.67924C7.14914 8.77668 7.22428 8.83279 7.3205 8.85628C8.15948 9.06109 8.51875 9.01864 8.64637 8.97624C8.70027 8.62706 8.89342 8.32714 9.23028 8.05857C9.4071 7.9176 9.94893 7.4766 10.1174 7.09608C10.2858 6.71555 10.4205 6.27907 10.0612 5.45074C9.70189 4.62241 8.21969 4.29797 7.24277 4.9248Z" fill="#FFEB3B" stroke="black" stroke-width="0.369359"/>
<path d="M7.94753 10.0955C7.94753 10.1963 7.86986 10.2718 7.78165 10.2718C7.69344 10.2718 7.61578 10.1963 7.61578 10.0955C7.61578 9.99469 7.69344 9.91924 7.78165 9.91924C7.86986 9.91924 7.94753 9.99469 7.94753 10.0955Z" fill="#CECECE" stroke="black" stroke-width="0.184679"/>
<path d="M7.31239 9.80154C7.32299 9.71656 7.40666 9.6608 7.4893 9.68321C7.60359 9.71422 7.74666 9.75205 7.79555 9.76084C7.84423 9.7696 7.99129 9.76714 8.10967 9.76337C8.19557 9.76063 8.2644 9.83489 8.25376 9.92016C8.24547 9.98666 8.19079 10.0377 8.12382 10.0402C8.00764 10.0446 7.83543 10.0488 7.76084 10.0391C7.68669 10.0294 7.52223 9.98402 7.41066 9.95176C7.34527 9.93286 7.30396 9.86909 7.31239 9.80154Z" fill="#CECECE" stroke="black" stroke-width="0.184679"/>
<path d="M7.19592 9.4565C7.21102 9.34514 7.3216 9.27315 7.42972 9.30372C7.57926 9.346 7.76645 9.39765 7.83048 9.40987C7.89424 9.42204 8.08723 9.42088 8.24262 9.41759C8.35537 9.4152 8.44464 9.51361 8.42948 9.62534C8.41766 9.71248 8.34519 9.77866 8.25728 9.78105C8.10477 9.7852 7.87874 9.78833 7.78101 9.77449C7.68385 9.76073 7.46869 9.69888 7.32275 9.65499C7.23722 9.62927 7.18391 9.54501 7.19592 9.4565Z" fill="#CECECE" stroke="black" stroke-width="0.184679"/>
<path d="M6.98393 9.06526C7.00606 8.90212 7.17023 8.79812 7.3282 8.84441C7.51372 8.89876 7.74473 8.96225 7.89971 8.99008C8.05297 9.01761 8.28911 9.01728 8.48179 9.01052C8.64793 9.00468 8.78382 9.14834 8.76147 9.31305C8.74522 9.43285 8.64865 9.52561 8.5279 9.53192C8.33566 9.54197 8.04642 9.54846 7.82842 9.51557C7.61372 9.48318 7.34149 9.40384 7.15852 9.34571C7.03931 9.30783 6.96711 9.18922 6.98393 9.06526Z" fill="#CECECE" stroke="black" stroke-width="0.184679"/>
<path d="M7.69153 8.93152C7.7327 8.34581 7.74543 7.10053 7.46695 6.80507C7.11886 6.43574 7.21991 7.39822 7.92733 7.37585C8.63476 7.35349 8.65497 7.39593 8.87056 7.20791C9.17947 6.9385 8.97271 6.58047 8.64598 7.07361C8.25297 7.66681 8.17438 8.62187 8.16315 9.00988" stroke="black" stroke-width="0.184679"/>
<rect x="0.0518096" y="0.0699121" width="0.296601" height="0.762166" rx="0.148301" transform="matrix(0.989192 0.146628 -0.147577 0.989051 8.75014 2.99317)" fill="#FFEB3B" stroke="black" stroke-width="0.12312"/>
<rect x="0.0829803" y="0.0267167" width="0.296358" height="0.762681" rx="0.148179" transform="matrix(0.890399 -0.455181 0.457564 0.889177 6.72392 3.47701)" fill="#FFEB3B" stroke="black" stroke-width="0.12312"/>
<rect x="0.0840764" y="-0.0230362" width="0.295645" height="0.76419" rx="0.147823" transform="matrix(0.49628 -0.868162 0.869488 0.493954 5.33435 5.2315)" fill="#FFEB3B" stroke="black" stroke-width="0.12312"/>
<rect x="0.00068382" y="0.0869123" width="0.295988" height="0.763465" rx="0.147994" transform="matrix(0.713804 0.700346 -0.702696 0.711491 10.7976 4.00653)" fill="#FFEB3B" stroke="black" stroke-width="0.12312"/>
<rect x="-0.0485207" y="0.0722185" width="0.295373" height="0.764763" rx="0.147687" transform="matrix(0.193209 0.981158 -0.981398 0.191986 11.5093 5.92896)" fill="#FFEB3B" stroke="black" stroke-width="0.12312"/>
</g>
<circle cx="20" cy="20" r="19.5" stroke="#CECECE"/>
</svg>
