<svg width="100" height="100" viewBox="0 0 100 100" fill="none" xmlns="http://www.w3.org/2000/svg">
<mask id="mask0_377_1834" style="mask-type:alpha" maskUnits="userSpaceOnUse" x="0" y="0" width="100" height="100">
<circle cx="50" cy="50" r="49.756" fill="white" stroke="#F3F3F3" stroke-width="0.488095"/>
</mask>
<g mask="url(#mask0_377_1834)">
<path d="M60.5293 83.2787V67.6013H50.5302V83.2787V87.8893V92.2377L74.888 92.2377C75.5298 92.2377 75.9074 91.6149 75.6529 91.109L75.125 90.0596C73.1157 86.0652 69.569 83.5409 64.9354 83.5409H60.7916H60.5293V83.2787Z" fill="#FBC02D" stroke="black" stroke-width="0.524439"/>
<path d="M37.6269 83.2787L37.6269 67.6013L47.626 67.6013V83.2787L47.626 87.8893V92.2377L23.2683 92.2377C22.6264 92.2377 22.2488 91.6149 22.5033 91.109L23.0312 90.0596C25.0406 86.0652 28.5873 83.5409 33.2209 83.5409H37.3647H37.6269V83.2787Z" fill="#FBC02D" stroke="black" stroke-width="0.524439"/>
<path d="M71.0185 34.9341C65.9486 34.9341 61.4439 31.8279 59.8713 27.2232C56.5215 17.4152 41.9191 17.4152 38.5693 27.2232C36.9967 31.8279 32.492 34.9341 27.4221 34.9341C21.9892 34.9341 18.1557 38.2359 16.7711 42.2901C15.3871 46.3425 16.4483 51.1469 20.8351 54.179C24.9444 57.0193 26.6709 62.0613 25.0973 66.6689C23.4257 71.5632 25.5274 76.046 29.1613 78.5578C32.7967 81.0706 37.944 81.5929 42.3352 78.5578C46.4415 75.7195 51.9991 75.7195 56.1054 78.5578C60.4966 81.5929 65.6438 81.0706 69.2793 78.5578C72.9132 76.046 75.0149 71.5632 73.3433 66.6689C71.7697 62.0613 73.4962 57.0193 77.6054 54.179C81.9923 51.1469 83.0535 46.3425 81.6695 42.2901C80.2849 38.2359 76.4514 34.9341 71.0185 34.9341Z" fill="#FBC02D" stroke="black" stroke-width="0.524439"/>
<path d="M52.3992 47.3112C52.3992 47.3112 53.0267 50.7438 49.1047 50.7438C45.1828 50.7438 45.8103 47.3112 45.8103 47.3112" stroke="black" stroke-width="0.524439" stroke-linecap="round" stroke-linejoin="round"/>
<path d="M63.3983 35.4055C58.3885 36.9382 59.1882 66.6392 59.2963 67.8429C59.4044 69.0467 63.8111 73.072 66.0939 72.5206C68.9474 71.8313 90.4977 55.641 90.7025 52.8491C90.9072 50.0571 84.2582 40.9458 80.5794 38.0253C76.9006 35.1049 69.2061 33.6288 63.3983 35.4055Z" fill="#FFEBEB" stroke="black" stroke-width="0.524439" stroke-linecap="round" stroke-linejoin="round"/>
<path d="M68.0877 28.9526L66.9554 31.1577C66.7567 31.5447 66.8592 32.0085 67.204 32.2822C67.5487 32.5559 68.0471 32.5691 68.4122 32.3142L70.4929 30.862C70.8217 30.6325 71.0142 30.2935 70.9175 29.9632C70.8229 29.6401 70.619 29.2387 70.1822 28.892C69.7455 28.5454 69.2937 28.4262 68.9424 28.3953C68.5833 28.3636 68.2666 28.6042 68.0877 28.9526Z" fill="white" stroke="black" stroke-width="0.245219"/>
<path d="M62.3679 35.4678L64.4486 34.0156C64.8137 33.7608 65.3121 33.774 65.6569 34.0477C66.0016 34.3214 66.1041 34.7852 65.9054 35.1722L64.7731 37.3772C64.5942 37.7257 64.2775 37.9662 63.9185 37.9346C63.5671 37.9037 63.1153 37.7845 62.6786 37.4378C62.2419 37.0911 62.038 36.6898 61.9433 36.3666C61.8466 36.0364 62.0391 35.6973 62.3679 35.4678Z" fill="white" stroke="black" stroke-width="0.245219"/>
<path d="M64.3026 28.7476L65.133 31.0372C65.2809 31.4449 65.7019 31.7026 66.1544 31.6623C66.6069 31.622 66.9749 31.2942 67.0472 30.8668L67.4533 28.4672C67.5183 28.0826 67.4021 27.7126 67.0843 27.5466C66.775 27.3849 66.3298 27.2424 65.759 27.2932C65.1882 27.3439 64.7756 27.5628 64.5003 27.7765C64.2175 27.996 64.1695 28.3805 64.3026 28.7476Z" fill="white" stroke="black" stroke-width="0.245219"/>
<path d="M61.7005 31.3688L64.01 32.4289C64.4153 32.615 64.904 32.5131 65.1949 32.1819C65.4858 31.8508 65.5042 31.3755 65.2394 31.0296L63.7303 29.0584C63.4922 28.7474 63.1378 28.567 62.79 28.662C62.4491 28.755 62.0249 28.9529 61.6561 29.3727C61.2874 29.7924 61.1581 30.2245 61.1226 30.5599C61.0863 30.9021 61.3362 31.2015 61.7005 31.3688Z" fill="white" stroke="black" stroke-width="0.245219"/>
<path d="M61.7835 34.8885L64.2376 34.0771C64.662 33.9368 64.9332 33.5396 64.8948 33.1147C64.8563 32.6899 64.5181 32.3469 64.0753 32.2838L61.5148 31.9185C61.1165 31.8617 60.7326 31.9722 60.5547 32.2696C60.3795 32.5626 60.2223 32.9853 60.2712 33.5261C60.3201 34.0669 60.5507 34.4551 60.7758 34.7125C61.0042 34.9738 61.4018 35.0147 61.7835 34.8885Z" fill="white" stroke="black" stroke-width="0.245219"/>
<path d="M68.6095 37.5243L67.7791 35.2347C67.6313 34.827 67.2102 34.5693 66.7577 34.6096C66.3052 34.6498 65.9372 34.9777 65.8649 35.405L65.4589 37.8046C65.3938 38.1893 65.5101 38.5592 65.8278 38.7253C66.1371 38.8869 66.5824 39.0295 67.1531 38.9787C67.7239 38.9279 68.1365 38.709 68.4118 38.4954C68.6946 38.2759 68.7426 37.8913 68.6095 37.5243Z" fill="white" stroke="black" stroke-width="0.245219"/>
<path d="M71.2121 34.9031L68.9026 33.8429C68.4973 33.6569 68.0086 33.7588 67.7177 34.0899C67.4268 34.4211 67.4084 34.8963 67.6732 35.2422L69.1823 37.2135C69.4204 37.5245 69.7748 37.7048 70.1226 37.6099C70.4634 37.5168 70.8877 37.3189 71.2565 36.8992C71.6252 36.4794 71.7545 36.0473 71.79 35.7119C71.8263 35.3697 71.5764 35.0703 71.2121 34.9031Z" fill="white" stroke="black" stroke-width="0.245219"/>
<path d="M71.1286 31.3833L68.6745 32.1948C68.2501 32.3351 67.9789 32.7323 68.0173 33.1571C68.0558 33.582 68.394 33.9249 68.8368 33.9881L71.3973 34.3533C71.7956 34.4101 72.1796 34.2996 72.3574 34.0022C72.5326 33.7092 72.6898 33.2865 72.6409 32.7457C72.592 32.2049 72.3614 31.8167 72.1364 31.5593C71.9079 31.2981 71.5103 31.2571 71.1286 31.3833Z" fill="white" stroke="black" stroke-width="0.245219"/>
<path d="M64.6701 31.8474C63.8928 32.7322 64.0104 34.043 64.9328 34.7753C65.8552 35.5075 67.2331 35.3839 68.0104 34.4991C68.7877 33.6143 68.67 32.3035 67.7476 31.5713C66.8252 30.839 65.4474 30.9627 64.6701 31.8474Z" fill="#FFFDE7" stroke="black" stroke-width="0.245219"/>
<path d="M76.8812 28.4608L75.7489 30.6659C75.5501 31.0529 75.6527 31.5166 75.9974 31.7903C76.3422 32.064 76.8405 32.0773 77.2057 31.8224L79.2864 30.3702C79.6152 30.1407 79.8077 29.8017 79.711 29.4714C79.6163 29.1483 79.4124 28.7469 78.9757 28.4002C78.539 28.0535 78.0872 27.9344 77.7358 27.9034C77.3767 27.8718 77.0601 28.1124 76.8812 28.4608Z" fill="white" stroke="black" stroke-width="0.245219"/>
<path d="M71.1614 34.976L73.242 33.5238C73.6072 33.2689 74.1055 33.2822 74.4503 33.5559C74.7951 33.8296 74.8976 34.2933 74.6989 34.6803L73.5666 36.8854C73.3876 37.2338 73.071 37.4744 72.7119 37.4428C72.3605 37.4118 71.9087 37.2927 71.472 36.946C71.0353 36.5993 70.8314 36.1979 70.7368 35.8748C70.64 35.5445 70.8326 35.2055 71.1614 34.976Z" fill="white" stroke="black" stroke-width="0.245219"/>
<path d="M73.096 28.2557L73.9264 30.5453C74.0743 30.9531 74.4953 31.2107 74.9478 31.1705C75.4003 31.1302 75.7684 30.8023 75.8407 30.375L76.2467 27.9754C76.3118 27.5907 76.1955 27.2208 75.8778 27.0547C75.5685 26.8931 75.1232 26.7505 74.5524 26.8013C73.9817 26.8521 73.5691 27.071 73.2938 27.2847C73.0109 27.5041 72.9629 27.8887 73.096 28.2557Z" fill="white" stroke="black" stroke-width="0.245219"/>
<path d="M70.494 30.8769L72.8035 31.9371C73.2087 32.1231 73.6974 32.0213 73.9883 31.6901C74.2793 31.359 74.2976 30.8837 74.0328 30.5378L72.5237 28.5666C72.2856 28.2555 71.9312 28.0752 71.5834 28.1701C71.2426 28.2632 70.8184 28.4611 70.4496 28.8809C70.0809 29.3006 69.9516 29.7327 69.916 30.0681C69.8798 30.4103 70.1296 30.7097 70.494 30.8769Z" fill="white" stroke="black" stroke-width="0.245219"/>
<path d="M70.577 34.3967L73.031 33.5853C73.4555 33.4449 73.7267 33.0478 73.6883 32.6229C73.6498 32.1981 73.3116 31.8551 72.8688 31.792L70.3082 31.4267C69.91 31.3699 69.526 31.4804 69.3481 31.7778C69.1729 32.0708 69.0157 32.4935 69.0647 33.0343C69.1136 33.5751 69.3442 33.9633 69.5692 34.2207C69.7976 34.482 70.1953 34.5229 70.577 34.3967Z" fill="white" stroke="black" stroke-width="0.245219"/>
<path d="M77.403 37.0325L76.5726 34.7429C76.4247 34.3351 76.0037 34.0775 75.5512 34.1177C75.0987 34.158 74.7306 34.4859 74.6583 34.9132L74.2523 37.3128C74.1872 37.6975 74.3035 38.0674 74.6212 38.2335C74.9305 38.3951 75.3758 38.5377 75.9466 38.4869C76.5173 38.4361 76.9299 38.2172 77.2053 38.0035C77.4881 37.7841 77.5361 37.3995 77.403 37.0325Z" fill="white" stroke="black" stroke-width="0.245219"/>
<path d="M80.0055 34.4113L77.696 33.3511C77.2908 33.1651 76.8021 33.2669 76.5112 33.5981C76.2202 33.9292 76.2019 34.4045 76.4667 34.7504L77.9758 36.7217C78.2139 37.0327 78.5683 37.213 78.9161 37.1181C79.2569 37.025 79.6812 36.8271 80.0499 36.4074C80.4187 35.9876 80.5479 35.5555 80.5835 35.2201C80.6197 34.8779 80.3699 34.5785 80.0055 34.4113Z" fill="white" stroke="black" stroke-width="0.245219"/>
<path d="M79.922 30.8915L77.468 31.7029C77.0436 31.8433 76.7723 32.2404 76.8108 32.6653C76.8492 33.0902 77.1874 33.4331 77.6303 33.4963L80.1908 33.8615C80.589 33.9183 80.973 33.8078 81.1509 33.5104C81.3261 33.2174 81.4833 32.7947 81.4344 32.2539C81.3854 31.7131 81.1548 31.3249 80.9298 31.0675C80.7014 30.8062 80.3037 30.7653 79.922 30.8915Z" fill="white" stroke="black" stroke-width="0.245219"/>
<path d="M73.4635 31.3556C72.6862 32.2404 72.8039 33.5512 73.7263 34.2834C74.6487 35.0157 76.0265 34.892 76.8038 34.0073C77.5811 33.1225 77.4635 31.8117 76.5411 31.0794C75.6187 30.3472 74.2408 30.4708 73.4635 31.3556Z" fill="#FFFDE7" stroke="black" stroke-width="0.245219"/>
<path d="M82.8343 25.8716L81.702 28.0766C81.5033 28.4636 81.6058 28.9274 81.9505 29.2011C82.2953 29.4748 82.7937 29.488 83.1588 29.2332L85.2395 27.781C85.5683 27.5515 85.7608 27.2124 85.6641 26.8822C85.5694 26.559 85.3655 26.1577 84.9288 25.811C84.4921 25.4643 84.0403 25.3451 83.6889 25.3142C83.3299 25.2826 83.0132 25.5231 82.8343 25.8716Z" fill="white" stroke="black" stroke-width="0.245219"/>
<path d="M77.1145 32.3868L79.1952 30.9346C79.5603 30.6797 80.0587 30.6929 80.4034 30.9666C80.7482 31.2403 80.8507 31.7041 80.652 32.0911L79.5197 34.2962C79.3408 34.6446 79.0241 34.8851 78.665 34.8535C78.3137 34.8226 77.8619 34.7034 77.4252 34.3567C76.9884 34.0101 76.7845 33.6087 76.6899 33.2855C76.5932 32.9553 76.7857 32.6162 77.1145 32.3868Z" fill="white" stroke="black" stroke-width="0.245219"/>
<path d="M79.0492 25.6665L79.8796 27.9561C80.0274 28.3638 80.4485 28.6215 80.901 28.5812C81.3535 28.541 81.7215 28.2131 81.7938 27.7858L82.1998 25.3862C82.2649 25.0015 82.1486 24.6316 81.8309 24.4655C81.5216 24.3039 81.0763 24.1613 80.5056 24.2121C79.9348 24.2629 79.5222 24.4818 79.2469 24.6954C78.9641 24.9149 78.9161 25.2995 79.0492 25.6665Z" fill="white" stroke="black" stroke-width="0.245219"/>
<path d="M76.4471 28.2877L78.7566 29.3479C79.1619 29.5339 79.6505 29.432 79.9415 29.1009C80.2324 28.7697 80.2507 28.2945 79.9859 27.9486L78.4768 25.9773C78.2388 25.6663 77.8843 25.486 77.5365 25.5809C77.1957 25.6739 76.7715 25.8719 76.4027 26.2916C76.034 26.7114 75.9047 27.1435 75.8692 27.4789C75.8329 27.8211 76.0827 28.1204 76.4471 28.2877Z" fill="white" stroke="black" stroke-width="0.245219"/>
<path d="M76.5301 31.8075L78.9842 30.996C79.4086 30.8557 79.6798 30.4585 79.6414 30.0337C79.6029 29.6088 79.2647 29.2659 78.8219 29.2027L76.2613 28.8375C75.8631 28.7807 75.4791 28.8912 75.3013 29.1886C75.1261 29.4816 74.9688 29.9043 75.0178 30.4451C75.0667 30.9859 75.2973 31.3741 75.5223 31.6314C75.7508 31.8927 76.1484 31.9337 76.5301 31.8075Z" fill="white" stroke="black" stroke-width="0.245219"/>
<path d="M83.3561 34.4432L82.5257 32.1536C82.3778 31.7459 81.9568 31.4882 81.5043 31.5285C81.0518 31.5688 80.6838 31.8966 80.6115 32.324L80.2054 34.7236C80.1403 35.1082 80.2566 35.4782 80.5743 35.6442C80.8836 35.8059 81.3289 35.9484 81.8997 35.8976C82.4705 35.8469 82.883 35.628 83.1584 35.4143C83.4412 35.1948 83.4892 34.8103 83.3561 34.4432Z" fill="white" stroke="black" stroke-width="0.245219"/>
<path d="M85.9586 31.822L83.6492 30.7619C83.2439 30.5758 82.7552 30.6777 82.4643 31.0088C82.1734 31.34 82.155 31.8153 82.4198 32.1612L83.9289 34.1324C84.167 34.4434 84.5214 34.6238 84.8692 34.5288C85.21 34.4358 85.6343 34.2379 86.003 33.8181C86.3718 33.3984 86.501 32.9663 86.5366 32.6309C86.5729 32.2887 86.323 31.9893 85.9586 31.822Z" fill="white" stroke="black" stroke-width="0.245219"/>
<path d="M85.8752 28.3023L83.4211 29.1137C82.9967 29.254 82.7254 29.6512 82.7639 30.0761C82.8023 30.5009 83.1405 30.8439 83.5834 30.907L86.1439 31.2723C86.5422 31.3291 86.9261 31.2186 87.104 30.9211C87.2792 30.6282 87.4364 30.2055 87.3875 29.6647C87.3385 29.1239 87.1079 28.7357 86.8829 28.4783C86.6545 28.217 86.2568 28.1761 85.8752 28.3023Z" fill="white" stroke="black" stroke-width="0.245219"/>
<path d="M79.4167 28.7664C78.6394 29.6511 78.757 30.962 79.6794 31.6942C80.6018 32.4265 81.9796 32.3028 82.7569 31.418C83.5342 30.5333 83.4166 29.2225 82.4942 28.4902C81.5718 27.758 80.1939 27.8816 79.4167 28.7664Z" fill="#FFFDE7" stroke="black" stroke-width="0.245219"/>
<path d="M86.41 31.8944L85.2777 34.0995C85.0789 34.4864 85.1815 34.9502 85.5262 35.2239C85.871 35.4976 86.3693 35.5108 86.7345 35.256L88.8152 33.8038C89.144 33.5743 89.3365 33.2353 89.2398 32.905C89.1451 32.5819 88.9412 32.1805 88.5045 31.8338C88.0678 31.4871 87.616 31.368 87.2646 31.337C86.9056 31.3054 86.5889 31.5459 86.41 31.8944Z" fill="white" stroke="black" stroke-width="0.245219"/>
<path d="M80.6902 38.4096L82.7708 36.9574C83.136 36.7025 83.6344 36.7158 83.9791 36.9895C84.3239 37.2632 84.4264 37.7269 84.2277 38.1139L83.0954 40.319C82.9165 40.6674 82.5998 40.908 82.2407 40.8764C81.8893 40.8454 81.4375 40.7263 81.0008 40.3796C80.5641 40.0329 80.3602 39.6315 80.2656 39.3084C80.1688 38.9781 80.3614 38.6391 80.6902 38.4096Z" fill="white" stroke="black" stroke-width="0.245219"/>
<path d="M82.6249 31.6893L83.4553 33.9789C83.6031 34.3867 84.0241 34.6443 84.4766 34.6041C84.9292 34.5638 85.2972 34.2359 85.3695 33.8086L85.7755 31.409C85.8406 31.0243 85.7243 30.6544 85.4066 30.4883C85.0973 30.3267 84.652 30.1841 84.0813 30.2349C83.5105 30.2857 83.0979 30.5046 82.8226 30.7183C82.5398 30.9377 82.4917 31.3223 82.6249 31.6893Z" fill="white" stroke="black" stroke-width="0.245219"/>
<path d="M80.0228 34.3105L82.3323 35.3707C82.7375 35.5567 83.2262 35.4549 83.5172 35.1237C83.8081 34.7926 83.8264 34.3173 83.5616 33.9714L82.0525 32.0001C81.8144 31.6891 81.46 31.5088 81.1122 31.6037C80.7714 31.6968 80.3472 31.8947 79.9784 32.3144C79.6097 32.7342 79.4804 33.1663 79.4449 33.5017C79.4086 33.8439 79.6584 34.1433 80.0228 34.3105Z" fill="white" stroke="black" stroke-width="0.245219"/>
<path d="M80.1058 37.8303L82.5598 37.0189C82.9843 36.8785 83.2555 36.4814 83.2171 36.0565C83.1786 35.6316 82.8404 35.2887 82.3976 35.2255L79.837 34.8603C79.4388 34.8035 79.0548 34.914 78.877 35.2114C78.7018 35.5044 78.5445 35.9271 78.5935 36.4679C78.6424 37.0087 78.873 37.3969 79.098 37.6543C79.3264 37.9156 79.7241 37.9565 80.1058 37.8303Z" fill="white" stroke="black" stroke-width="0.245219"/>
<path d="M86.9318 40.4661L86.1014 38.1765C85.9535 37.7687 85.5325 37.5111 85.08 37.5513C84.6275 37.5916 84.2595 37.9195 84.1872 38.3468L83.7811 40.7464C83.716 41.1311 83.8323 41.501 84.15 41.6671C84.4593 41.8287 84.9046 41.9713 85.4754 41.9205C86.0462 41.8697 86.4587 41.6508 86.7341 41.4371C87.0169 41.2177 87.0649 40.8331 86.9318 40.4661Z" fill="white" stroke="black" stroke-width="0.245219"/>
<path d="M89.5343 37.8449L87.2248 36.7847C86.8196 36.5987 86.3309 36.7005 86.04 37.0317C85.749 37.3628 85.7307 37.8381 85.9955 38.184L87.5046 40.1552C87.7427 40.4663 88.0971 40.6466 88.4449 40.5517C88.7857 40.4586 89.21 40.2607 89.5787 39.8409C89.9475 39.4212 90.0767 38.9891 90.1123 38.6537C90.1485 38.3115 89.8987 38.0121 89.5343 37.8449Z" fill="white" stroke="black" stroke-width="0.245219"/>
<path d="M89.4508 34.3251L86.9968 35.1365C86.5724 35.2769 86.3011 35.674 86.3396 36.0989C86.378 36.5237 86.7162 36.8667 87.1591 36.9299L89.7196 37.2951C90.1179 37.3519 90.5018 37.2414 90.6797 36.944C90.8549 36.651 91.0121 36.2283 90.9632 35.6875C90.9142 35.1467 90.6836 34.7585 90.4586 34.5011C90.2302 34.2398 89.8325 34.1989 89.4508 34.3251Z" fill="white" stroke="black" stroke-width="0.245219"/>
<path d="M82.9923 34.7892C82.215 35.674 82.3327 36.9848 83.2551 37.717C84.1775 38.4493 85.5553 38.3256 86.3326 37.4409C87.1099 36.5561 86.9923 35.2453 86.0699 34.513C85.1475 33.7808 83.7696 33.9044 82.9923 34.7892Z" fill="#FFFDE7" stroke="black" stroke-width="0.245219"/>
<path d="M95.5999 45.2417L94.4676 47.4468C94.2689 47.8337 94.3714 48.2975 94.7162 48.5712C95.0609 48.8449 95.5593 48.8581 95.9244 48.6033L98.0051 47.1511C98.3339 46.9216 98.5264 46.5825 98.4297 46.2523C98.3351 45.9292 98.1312 45.5278 97.6945 45.1811C97.2577 44.8344 96.8059 44.7152 96.4546 44.6843C96.0955 44.6527 95.7788 44.8932 95.5999 45.2417Z" fill="white" stroke="black" stroke-width="0.245219"/>
<path d="M89.8801 51.7569L91.9608 50.3047C92.3259 50.0498 92.8243 50.0631 93.1691 50.3367C93.5138 50.6104 93.6163 51.0742 93.4176 51.4612L92.2853 53.6663C92.1064 54.0147 91.7897 54.2553 91.4307 54.2237C91.0793 54.1927 90.6275 54.0735 90.1908 53.7269C89.7541 53.3802 89.5502 52.9788 89.4555 52.6557C89.3588 52.3254 89.5513 51.9864 89.8801 51.7569Z" fill="white" stroke="black" stroke-width="0.245219"/>
<path d="M91.8148 45.0366L92.6452 47.3262C92.7931 47.734 93.2141 47.9916 93.6666 47.9514C94.1191 47.9111 94.4871 47.5832 94.5594 47.1559L94.9655 44.7563C95.0306 44.3716 94.9143 44.0017 94.5966 43.8356C94.2873 43.674 93.842 43.5314 93.2712 43.5822C92.7004 43.633 92.2878 43.8519 92.0125 44.0655C91.7297 44.285 91.6817 44.6696 91.8148 45.0366Z" fill="white" stroke="black" stroke-width="0.245219"/>
<path d="M89.2127 47.6578L91.5222 48.718C91.9275 48.904 92.4162 48.8022 92.7071 48.471C92.998 48.1399 93.0164 47.6646 92.7516 47.3187L91.2425 45.3474C91.0044 45.0364 90.65 44.8561 90.3022 44.951C89.9614 45.0441 89.5371 45.242 89.1684 45.6617C88.7996 46.0815 88.6703 46.5136 88.6348 46.849C88.5985 47.1912 88.8484 47.4906 89.2127 47.6578Z" fill="white" stroke="black" stroke-width="0.245219"/>
<path d="M89.2957 51.1776L91.7498 50.3662C92.1742 50.2258 92.4455 49.8287 92.407 49.4038C92.3686 48.9789 92.0304 48.636 91.5875 48.5728L89.027 48.2076C88.6287 48.1508 88.2448 48.2613 88.0669 48.5587C87.8917 48.8517 87.7345 49.2744 87.7834 49.8152C87.8324 50.356 88.063 50.7442 88.288 51.0016C88.5164 51.2628 88.9141 51.3038 89.2957 51.1776Z" fill="white" stroke="black" stroke-width="0.245219"/>
<path d="M96.1217 53.8133L95.2913 51.5237C95.1435 51.116 94.7224 50.8583 94.2699 50.8986C93.8174 50.9389 93.4494 51.2668 93.3771 51.6941L92.9711 54.0937C92.906 54.4784 93.0223 54.8483 93.34 55.0143C93.6493 55.176 94.0946 55.3185 94.6653 55.2678C95.2361 55.217 95.6487 54.9981 95.924 54.7844C96.2068 54.565 96.2548 54.1804 96.1217 53.8133Z" fill="white" stroke="black" stroke-width="0.245219"/>
<path d="M98.7243 51.1921L96.4148 50.132C96.0095 49.9459 95.5208 50.0478 95.2299 50.379C94.939 50.7101 94.9207 51.1854 95.1855 51.5313L96.6945 53.5025C96.9326 53.8135 97.2871 53.9939 97.6348 53.8989C97.9757 53.8059 98.3999 53.608 98.7687 53.1882C99.1374 52.7685 99.2667 52.3364 99.3022 52.001C99.3385 51.6588 99.0886 51.3594 98.7243 51.1921Z" fill="white" stroke="black" stroke-width="0.245219"/>
<path d="M98.6408 47.6724L96.1867 48.4838C95.7623 48.6242 95.4911 49.0213 95.5295 49.4462C95.568 49.871 95.9062 50.214 96.349 50.2771L98.9096 50.6424C99.3078 50.6992 99.6918 50.5887 99.8696 50.2913C100.045 49.9983 100.202 49.5756 100.153 49.0348C100.104 48.494 99.8736 48.1058 99.6486 47.8484C99.4201 47.5871 99.0225 47.5462 98.6408 47.6724Z" fill="white" stroke="black" stroke-width="0.245219"/>
<path d="M92.1823 48.1365C91.405 49.0212 91.5226 50.3321 92.445 51.0643C93.3674 51.7966 94.7453 51.6729 95.5226 50.7882C96.2999 49.9034 96.1822 48.5926 95.2598 47.8603C94.3374 47.1281 92.9596 47.2517 92.1823 48.1365Z" fill="#FFFDE7" stroke="black" stroke-width="0.245219"/>
<path d="M93.2615 33.9978L92.1292 36.2029C91.9305 36.5898 92.033 37.0536 92.3778 37.3273C92.7226 37.601 93.2209 37.6142 93.5861 37.3594L95.6667 35.9072C95.9955 35.6777 96.1881 35.3386 96.0913 35.0084C95.9967 34.6853 95.7928 34.2839 95.3561 33.9372C94.9194 33.5905 94.4676 33.4714 94.1162 33.4404C93.7571 33.4088 93.4405 33.6493 93.2615 33.9978Z" fill="white" stroke="black" stroke-width="0.245219"/>
<path d="M87.5417 40.513L89.6224 39.0608C89.9876 38.8059 90.4859 38.8192 90.8307 39.0929C91.1754 39.3666 91.278 39.8303 91.0792 40.2173L89.9469 42.4224C89.768 42.7708 89.4514 43.0114 89.0923 42.9798C88.7409 42.9488 88.2891 42.8297 87.8524 42.483C87.4157 42.1363 87.2118 41.7349 87.1171 41.4118C87.0204 41.0815 87.2129 40.7425 87.5417 40.513Z" fill="white" stroke="black" stroke-width="0.245219"/>
<path d="M89.4764 33.7927L90.3068 36.0823C90.4547 36.4901 90.8757 36.7477 91.3282 36.7075C91.7807 36.6672 92.1487 36.3393 92.221 35.912L92.6271 33.5124C92.6922 33.1277 92.5759 32.7578 92.2582 32.5917C91.9489 32.4301 91.5036 32.2875 90.9328 32.3383C90.3621 32.3891 89.9495 32.608 89.6741 32.8216C89.3913 33.0411 89.3433 33.4257 89.4764 33.7927Z" fill="white" stroke="black" stroke-width="0.245219"/>
<path d="M86.8744 36.4139L89.1839 37.4741C89.5891 37.6601 90.0778 37.5583 90.3687 37.2271C90.6596 36.896 90.678 36.4207 90.4132 36.0748L88.9041 34.1035C88.666 33.7925 88.3116 33.6122 87.9638 33.7071C87.623 33.8002 87.1987 33.9981 86.83 34.4178C86.4612 34.8376 86.332 35.2697 86.2964 35.6051C86.2601 35.9473 86.51 36.2467 86.8744 36.4139Z" fill="white" stroke="black" stroke-width="0.245219"/>
<path d="M86.9574 39.9337L89.4114 39.1223C89.8358 38.9819 90.1071 38.5848 90.0686 38.1599C90.0302 37.735 89.692 37.3921 89.2491 37.3289L86.6886 36.9637C86.2903 36.9069 85.9064 37.0174 85.7285 37.3148C85.5533 37.6078 85.3961 38.0305 85.445 38.5713C85.494 39.1121 85.7246 39.5003 85.9496 39.7577C86.178 40.0189 86.5757 40.0599 86.9574 39.9337Z" fill="white" stroke="black" stroke-width="0.245219"/>
<path d="M93.7833 42.5695L92.953 40.2799C92.8051 39.8721 92.3841 39.6145 91.9316 39.6547C91.479 39.695 91.111 40.0229 91.0387 40.4502L90.6327 42.8498C90.5676 43.2345 90.6839 43.6044 91.0016 43.7705C91.3109 43.9321 91.7562 44.0747 92.3269 44.0239C92.8977 43.9731 93.3103 43.7542 93.5856 43.5405C93.8684 43.3211 93.9165 42.9365 93.7833 42.5695Z" fill="white" stroke="black" stroke-width="0.245219"/>
<path d="M96.3859 39.9482L94.0764 38.8881C93.6712 38.702 93.1825 38.8039 92.8915 39.1351C92.6006 39.4662 92.5823 39.9415 92.8471 40.2874L94.3562 42.2586C94.5943 42.5697 94.9487 42.75 95.2965 42.655C95.6373 42.562 96.0615 42.3641 96.4303 41.9443C96.799 41.5246 96.9283 41.0925 96.9638 40.7571C97.0001 40.4149 96.7503 40.1155 96.3859 39.9482Z" fill="white" stroke="black" stroke-width="0.245219"/>
<path d="M96.3024 36.4285L93.8484 37.2399C93.4239 37.3803 93.1527 37.7774 93.1911 38.2023C93.2296 38.6271 93.5678 38.9701 94.0106 39.0332L96.5712 39.3985C96.9694 39.4553 97.3534 39.3448 97.5312 39.0474C97.7065 38.7544 97.8637 38.3317 97.8147 37.7909C97.7658 37.2501 97.5352 36.8619 97.3102 36.6045C97.0818 36.3432 96.6841 36.3023 96.3024 36.4285Z" fill="white" stroke="black" stroke-width="0.245219"/>
<path d="M89.8439 36.8926C89.0666 37.7773 89.1842 39.0882 90.1066 39.8204C91.029 40.5527 92.4069 40.429 93.1842 39.5443C93.9615 38.6595 93.8439 37.3487 92.9215 36.6164C91.9991 35.8842 90.6212 36.0078 89.8439 36.8926Z" fill="#FFFDE7" stroke="black" stroke-width="0.245219"/>
<path d="M92.4002 40.3138L91.2679 42.5189C91.0692 42.9059 91.1717 43.3697 91.5165 43.6434C91.8612 43.9171 92.3596 43.9303 92.7247 43.6754L94.8054 42.2232C95.1342 41.9938 95.3267 41.6547 95.23 41.3244C95.1354 41.0013 94.9315 40.5999 94.4947 40.2533C94.058 39.9066 93.6062 39.7874 93.2549 39.7565C92.8958 39.7248 92.5791 39.9654 92.4002 40.3138Z" fill="white" stroke="black" stroke-width="0.245219"/>
<path d="M86.6804 46.829L88.7611 45.3768C89.1262 45.122 89.6246 45.1352 89.9694 45.4089C90.3141 45.6826 90.4166 46.1464 90.2179 46.5334L89.0856 48.7384C88.9067 49.0869 88.59 49.3274 88.231 49.2958C87.8796 49.2649 87.4278 49.1457 86.9911 48.799C86.5544 48.4523 86.3505 48.051 86.2558 47.7278C86.1591 47.3976 86.3516 47.0585 86.6804 46.829Z" fill="white" stroke="black" stroke-width="0.245219"/>
<path d="M88.6151 40.1088L89.4455 42.3984C89.5934 42.8061 90.0144 43.0638 90.4669 43.0235C90.9194 42.9832 91.2874 42.6554 91.3597 42.228L91.7658 39.8284C91.8308 39.4438 91.7146 39.0738 91.3968 38.9078C91.0875 38.7461 90.6423 38.6036 90.0715 38.6544C89.5007 38.7051 89.0881 38.924 88.8128 39.1377C88.53 39.3572 88.482 39.7417 88.6151 40.1088Z" fill="white" stroke="black" stroke-width="0.245219"/>
<path d="M86.013 42.73L88.3225 43.7901C88.7278 43.9762 89.2165 43.8743 89.5074 43.5432C89.7983 43.212 89.8167 42.7367 89.5519 42.3908L88.0428 40.4196C87.8047 40.1086 87.4503 39.9282 87.1025 40.0232C86.7616 40.1162 86.3374 40.3141 85.9686 40.7339C85.5999 41.1536 85.4706 41.5857 85.4351 41.9211C85.3988 42.2633 85.6487 42.5627 86.013 42.73Z" fill="white" stroke="black" stroke-width="0.245219"/>
<path d="M86.096 46.2497L88.5501 45.4383C88.9745 45.298 89.2457 44.9008 89.2073 44.4759C89.1688 44.0511 88.8306 43.7081 88.3878 43.645L85.8273 43.2797C85.429 43.2229 85.0451 43.3334 84.8672 43.6309C84.692 43.9238 84.5348 44.3466 84.5837 44.8873C84.6326 45.4281 84.8632 45.8163 85.0883 46.0737C85.3167 46.335 85.7143 46.3759 86.096 46.2497Z" fill="white" stroke="black" stroke-width="0.245219"/>
<path d="M92.922 48.8855L92.0916 46.5959C91.9438 46.1882 91.5227 45.9305 91.0702 45.9708C90.6177 46.011 90.2497 46.3389 90.1774 46.7662L89.7714 49.1658C89.7063 49.5505 89.8226 49.9205 90.1403 50.0865C90.4496 50.2481 90.8949 50.3907 91.4656 50.3399C92.0364 50.2891 92.449 50.0702 92.7243 49.8566C93.0071 49.6371 93.0551 49.2525 92.922 48.8855Z" fill="white" stroke="black" stroke-width="0.245219"/>
<path d="M95.5246 46.2643L93.2151 45.2041C92.8098 45.0181 92.3211 45.12 92.0302 45.4511C91.7393 45.7823 91.7209 46.2575 91.9857 46.6034L93.4948 48.5747C93.7329 48.8857 94.0873 49.066 94.4351 48.9711C94.7759 48.8781 95.2002 48.6801 95.569 48.2604C95.9377 47.8406 96.067 47.4085 96.1025 47.0732C96.1388 46.7309 95.8889 46.4316 95.5246 46.2643Z" fill="white" stroke="black" stroke-width="0.245219"/>
<path d="M95.4411 42.7445L92.987 43.556C92.5626 43.6963 92.2914 44.0935 92.3298 44.5183C92.3683 44.9432 92.7065 45.2861 93.1493 45.3493L95.7098 45.7145C96.1081 45.7713 96.4921 45.6608 96.6699 45.3634C96.8451 45.0704 97.0023 44.6477 96.9534 44.1069C96.9045 43.5661 96.6739 43.1779 96.4489 42.9206C96.2204 42.6593 95.8228 42.6183 95.4411 42.7445Z" fill="white" stroke="black" stroke-width="0.245219"/>
<path d="M88.9826 43.2086C88.2053 44.0934 88.3229 45.4042 89.2453 46.1365C90.1677 46.8687 91.5456 46.7451 92.3229 45.8603C93.1002 44.9756 92.9825 43.6647 92.0601 42.9325C91.1377 42.2002 89.7599 42.3239 88.9826 43.2086Z" fill="#FFFDE7" stroke="black" stroke-width="0.245219"/>
<path d="M63.9537 81.7844C65.7117 81.6092 65.7547 73.0869 65.619 72.6604C65.4833 72.2339 60.0619 68.2143 59.2492 68.243C58.2334 68.2789 52.1891 72.8091 52.333 73.7656C52.4769 74.7222 55.6914 78.3668 57.3021 79.6455C58.9129 80.9243 61.9158 81.9875 63.9537 81.7844Z" fill="#FFEBEB" stroke="black" stroke-width="0.524439" stroke-linecap="round" stroke-linejoin="round"/>
<path d="M91.0278 67.9068C91.0279 64.23 87.5765 60.1551 85.4587 58.803C85.4587 58.803 83.9599 59.922 81.1446 61.7132L78.8437 60.3952C77.3709 59.4834 75.7144 58.6027 73.8498 57.5347C70.3315 56.0153 64.8303 54.3239 62.703 54.0749C58.4759 53.5801 58.7897 55.0718 60.3584 55.8931C58.0383 56.0793 56.9479 55.5575 56.7314 56.6209C56.5149 57.6844 58.2291 57.725 59.6111 58.1195C57.2779 58.2405 56.7314 57.9747 56.7314 59.0276C56.7314 60.0804 59.4252 60.3301 61.1571 60.0804C58.9978 60.7594 58.5824 60.8931 58.7253 61.714C58.8681 62.5348 60.7925 62.3256 62.703 62.0414C61.3781 62.2385 61.4624 62.7515 61.6919 63.2811C61.9213 63.8107 65.8238 62.6832 67.4697 63.5122C69.6598 64.6152 70.432 65.4364 78.3993 71.6379C84.439 76.3392 91.0277 74.6377 91.0278 67.9068Z" fill="#FBC02D"/>
<path d="M82.8003 63.5122C80.5315 61.0839 77.6149 59.6914 73.8498 57.5347M73.8498 57.5347C70.3315 56.0153 64.8303 54.3239 62.703 54.0749C58.4759 53.5801 58.7897 55.0718 60.3584 55.8931C58.0383 56.0793 56.9479 55.5575 56.7314 56.6209C56.5149 57.6844 58.2291 57.725 59.6111 58.1195C57.2779 58.2405 56.7314 57.9747 56.7314 59.0276C56.7314 60.0804 59.4252 60.3301 61.1571 60.0804C58.9978 60.7594 58.5824 60.8931 58.7253 61.714C58.8681 62.5348 60.7925 62.3256 62.703 62.0414C61.3781 62.2385 61.4624 62.7515 61.6919 63.2811C61.9213 63.8107 65.8238 62.6832 67.4697 63.5122C69.6598 64.6152 70.432 65.4364 78.3993 71.6379C84.439 76.3392 91.0277 74.6377 91.0278 67.9068C91.0279 64.23 87.5765 60.1551 85.4587 58.803C85.4587 58.803 83.9599 59.922 81.1446 61.7132L73.8498 57.5347Z" stroke="black" stroke-width="0.524439" stroke-linecap="round" stroke-linejoin="round"/>
<ellipse cx="0.94126" cy="1.11934" rx="0.94126" ry="1.11934" transform="matrix(-1 0 0 1 57.7695 39.9976)" fill="black"/>
<ellipse cx="0.94126" cy="1.11934" rx="0.94126" ry="1.11934" transform="matrix(-1 0 0 1 44.2788 39.9976)" fill="black"/>
<path d="M37.5534 28.4942L35.4419 20.0004C35.4234 19.9259 35.48 19.8594 35.5538 19.8624C36.4451 19.899 38.4363 19.9667 40.5722 19.947C42.7014 19.9274 44.9989 19.821 46.4906 19.5027C47.9854 19.1837 50.1364 18.3391 52.0962 17.485C54.0624 16.6281 55.8587 15.7514 56.6523 15.3573C56.7165 15.3255 56.7981 15.3616 56.8168 15.4365L58.9282 23.9302C58.9396 23.9757 58.9209 24.0186 58.886 24.0402C57.906 24.6467 53.6719 27.1391 48.6551 28.2096C43.6436 29.279 38.7841 28.7305 37.6415 28.5755C37.6009 28.57 37.5647 28.5397 37.5534 28.4942Z" fill="#293154" stroke="black" stroke-width="0.524439"/>
<path d="M62.2787 15.2539L44.424 9.66802C44.3824 9.65501 44.3364 9.66486 44.305 9.69347L31.013 21.8079C30.9464 21.8687 30.9795 21.9737 31.0708 21.991L48.2569 25.2392C48.2896 25.2453 48.3237 25.2382 48.3504 25.2194L62.3111 15.4427C62.3859 15.3902 62.3673 15.2816 62.2787 15.2539Z" fill="#1E2646" stroke="black" stroke-width="0.524439"/>
<path d="M20.176 53.4194C15.0599 58.8973 10.3438 66.3766 12.1157 70.7314C14.5336 76.6741 26.9258 75.1334 37.0191 68.7301C41.8962 65.6359 42.6615 65.0714 42.2392 64.2505C41.8169 63.4297 39.7238 63.8995 39.9644 63.8039C43.2515 62.4981 43.0236 59.8358 38.8658 61.5823C41.253 59.8656 41.2971 56.1718 36.2432 59.9027C38.8606 57.8211 38.7063 54.4002 33.9033 58.8937C34.7092 57.3855 32.2776 57.5347 30.6179 59.8356C29.3319 61.6183 28.1961 63.9532 25.9208 65.5159C27.2386 59.1346 22.64 54.7927 20.176 53.4194Z" fill="#FBC02D"/>
<path d="M19.332 66.4779C21.293 67.3734 24.3143 66.6192 25.9208 65.5159M25.9208 65.5159C28.1961 63.9532 29.3319 61.6183 30.6179 59.8356C32.2776 57.5347 34.7092 57.3855 33.9033 58.8937C38.8658 54.2511 38.8658 58.0569 35.9735 60.1051C41.2979 56.0421 41.2947 59.8356 38.8658 61.5823C43.0236 59.8358 43.2515 62.4981 39.9644 63.8039C39.7238 63.8995 41.8169 63.4297 42.2392 64.2505C42.6615 65.0714 41.8962 65.6359 37.0191 68.7301C26.9258 75.1334 14.5336 76.6741 12.1157 70.7314C10.3438 66.3766 15.0599 58.8973 20.176 53.4194C22.64 54.7927 27.2386 59.1346 25.9208 65.5159Z" stroke="black" stroke-width="0.524439" stroke-linecap="round" stroke-linejoin="round"/>
</g>
<circle cx="50" cy="50" r="49.5" stroke="#CECECE"/>
</svg>
