<svg width="100" height="100" viewBox="0 0 100 100" fill="none" xmlns="http://www.w3.org/2000/svg">
<mask id="mask0_377_1693" style="mask-type:alpha" maskUnits="userSpaceOnUse" x="0" y="0" width="100" height="100">
<circle cx="50" cy="50" r="49.3899" fill="white" stroke="#F3F3F3" stroke-width="1.22024"/>
</mask>
<g mask="url(#mask0_377_1693)">
<path d="M36.0172 82.2481V64.4686H46.358V82.2481V87.5652V92.2799L19.9493 92.2799C19.4982 92.2799 19.2017 91.8092 19.3964 91.4024L19.9755 90.1922C22.1409 85.6676 25.9345 82.8505 30.8685 82.8505H35.4148H36.0172V82.2481Z" fill="#FFEB3B" stroke="black" stroke-width="1.20479"/>
<path d="M60.5151 82.2481L60.5151 64.4686L50.1742 64.4686L50.1742 82.2481V87.5652V92.2799L76.583 92.2799C77.034 92.2799 77.3306 91.8092 77.1359 91.4024L76.5567 90.1922C74.3914 85.6676 70.5977 82.8505 65.6637 82.8505H61.1175H60.5151V82.2481Z" fill="#FFEB3B" stroke="black" stroke-width="1.20479"/>
<path d="M36.0368 17.2073C34.273 22.6359 29.2142 26.3113 23.5062 26.3113C11.91 26.3113 7.08848 41.1503 16.47 47.9664C21.0879 51.3215 23.0202 57.2684 21.2563 62.697C17.6729 73.7257 30.2957 82.8967 39.6772 76.0806C44.2951 72.7255 50.5481 72.7255 55.1659 76.0806C64.5475 82.8967 77.1703 73.7257 73.5868 62.697C71.823 57.2684 73.7553 51.3215 78.3731 47.9664C87.7547 41.1503 82.9332 26.3113 71.3369 26.3113C65.629 26.3113 60.5702 22.6359 58.8063 17.2073C55.2229 6.1786 39.6202 6.1786 36.0368 17.2073Z" fill="#FFEB3B" stroke="black" stroke-width="1.20479"/>
<ellipse cx="42.1718" cy="40.717" rx="1.03268" ry="1.29085" fill="black"/>
<ellipse cx="58.0065" cy="38.3074" rx="2.92593" ry="3.70044" fill="black"/>
<ellipse cx="57.0596" cy="36.9305" rx="1.46296" ry="1.80719" fill="white"/>
<path d="M40.1421 52.0507L40.9474 47.7891L67.6472 48.6056L66.7763 50.4166C64.0216 56.1447 62.5838 62.4163 62.5678 68.7715H38.9881V64.3711C38.9881 60.2374 39.3745 56.1126 40.1421 52.0507Z" fill="white" stroke="black" stroke-width="1.20479"/>
<path d="M40.1421 53.9439L40.9474 49.6823L67.6472 50.4988L66.7763 52.3098C64.0216 58.0379 62.5838 64.3095 62.5678 70.6647H38.9881V66.2643C38.9881 62.1305 39.3745 58.0058 40.1421 53.9439Z" fill="white" stroke="black" stroke-width="1.20479"/>
<path d="M22.2259 73.3325C16.1675 73.126 13.7599 60.4137 17.9193 49.3124C19.0971 50.3737 20.4378 52.6789 21.6234 55.777C22.809 58.875 23.4975 63.0918 28.4219 61.0264C33.3463 58.9611 37.8743 56.1222 42.7073 55.777C46.2394 55.5247 44.3291 57.4913 42.8125 58.1432C43.4844 57.8944 46.5298 57.0632 48.54 56.8957C50.2611 56.8957 50.6053 57.0678 50.6914 57.8423C50.7775 58.6168 49.0414 58.7103 47.6794 59.3913C49.8649 58.9621 51.194 59.0471 51.2535 60.0798C51.313 61.1125 49.7059 61.5428 47.3543 61.5428C49.2152 61.5428 49.9022 61.3706 49.85 62.3173C49.7986 63.2492 47.5126 63.3404 45.225 63.4317L45.1168 63.436C47.7173 63.589 48.249 63.436 48.275 64.6408C48.301 65.8456 45.5666 66.0464 42.363 66.1898C36.5973 66.448 29.7989 73.5907 22.2259 73.3325Z" fill="#FFEB3B"/>
<path d="M17.9193 49.3124C13.7599 60.4137 16.1675 73.126 22.2259 73.3325C29.7989 73.5907 36.5973 66.448 42.363 66.1898C45.5666 66.0464 48.301 65.8456 48.275 64.6408C48.249 63.436 47.7173 63.589 45.1168 63.436C47.44 63.3431 49.7978 63.2639 49.85 62.3173C49.9022 61.3706 49.2152 61.5428 47.3543 61.5428C49.7059 61.5428 51.313 61.1125 51.2535 60.0798C51.194 59.0471 49.8649 58.9621 47.6794 59.3913C49.0414 58.7103 50.7775 58.6168 50.6914 57.8423C50.6053 57.0678 50.2611 56.8957 48.54 56.8957C46.3886 57.075 43.0515 58.0144 42.7073 58.1865C44.2371 57.5842 46.3216 55.5188 42.7073 55.777C37.8743 56.1222 33.3463 58.9611 28.4219 61.0264C23.4975 63.0918 22.809 58.875 21.6234 55.777C20.4378 52.6789 19.0971 50.3737 17.9193 49.3124Z" stroke="black" stroke-width="1.20479" stroke-linejoin="round"/>
<circle cx="58.0065" cy="37.8771" r="8.26144" stroke="black" stroke-width="2.06536"/>
<rect x="65.4072" y="42.4193" width="2.06536" height="12.0675" transform="rotate(-60 65.4072 42.4193)" fill="black"/>
<path d="M98.3668 44.677C95.7092 40.0819 90.6633 39.5454 83.4789 36.7592C83.6797 38.9136 83.9265 43.1278 80.5531 45.7952C79.5204 45.2789 79.2622 45.0207 78.1435 44.6765C76.2924 44.1069 73.9535 44.425 73.0722 44.5449L73.058 44.5468C71.5547 44.2344 71.0007 43.9877 70.6565 44.7622C70.3123 45.5367 71.525 46.3283 72.7932 47.1902C70.9778 46.518 70.3124 46.1621 69.9682 47.054C69.6239 47.9459 70.9818 49.1169 72.7945 49.8911C70.9769 49.4232 70.5706 48.8925 70.0542 49.7531C69.5379 50.6136 71.4847 51.7233 72.4557 52.4906C70.9746 51.6139 68.8389 52.3497 71.9219 54.5748C75.5471 57.1912 84.6623 56.7258 88.4595 55.8641C92.2567 55.0024 102.497 51.8189 98.3668 44.677Z" fill="#FFEB3B"/>
<path d="M73.058 44.5468C73.7109 45.1333 75.395 46.4103 76.9088 46.8264M73.058 44.5468C73.9281 44.4285 76.2823 44.1038 78.1435 44.6765C79.2622 45.0207 79.5204 45.2789 80.5531 45.7952M73.058 44.5468C71.5547 44.2344 71.0007 43.9877 70.6565 44.7622C70.3123 45.5367 71.525 46.3283 72.7932 47.1902C70.9778 46.518 70.3124 46.1621 69.9682 47.054C69.6239 47.9459 70.9818 49.1169 72.7945 49.8911C70.9769 49.4232 70.5706 48.8925 70.0542 49.7531C69.5379 50.6136 71.4847 51.7233 72.4557 52.4906C70.9746 51.6139 68.8389 52.3497 71.9219 54.5748C75.5471 57.1912 84.6623 56.7258 88.4595 55.8641C92.2567 55.0024 102.497 51.8189 98.3668 44.677C95.7092 40.0819 90.6633 39.5454 83.4789 36.7592C83.6797 38.9136 83.9265 43.1278 80.5531 45.7952M93.8409 47.4493C92.2699 47.9519 81.5857 46.3116 80.5531 45.7952" stroke="black" stroke-width="1.20479" stroke-linecap="round" stroke-linejoin="round"/>
</g>
<circle cx="50" cy="50" r="49.5" stroke="#CECECE"/>
</svg>
