<svg width="40" height="40" viewBox="0 0 40 40" fill="none" xmlns="http://www.w3.org/2000/svg">
<mask id="mask0_377_2362" style="mask-type:alpha" maskUnits="userSpaceOnUse" x="0" y="0" width="40" height="40">
<circle cx="20" cy="20" r="19.756" fill="white" stroke="#F3F3F3" stroke-width="0.488095"/>
</mask>
<g mask="url(#mask0_377_2362)">
<path d="M14.5456 32.3151H14.7674V32.0934V25.5622H18.5827V32.0934V34.0467V35.7783L8.84094 35.7783C8.67293 35.7783 8.56541 35.6047 8.63644 35.4568L8.85008 35.0122C9.64863 33.3504 11.048 32.3151 12.8687 32.3151H14.5456Z" fill="#F57F17" stroke="black" stroke-width="0.443512"/>
<path d="M24.0262 32.3151H23.8044V32.0934V25.5622H19.9891V32.0934V34.0467L19.9891 35.7783L29.7308 35.7783C29.8988 35.7783 30.0064 35.6047 29.9353 35.4568L29.7217 35.0122C28.9232 33.3504 27.5238 32.3151 25.7031 32.3151H24.0262Z" fill="#F57F17" stroke="black" stroke-width="0.443512"/>
<path d="M7.62182 20.6718C8.54237 19.8288 10.0561 18.6194 10.6978 18.1201C11.1513 19.6483 12.0265 22.7903 11.8996 23.1324C11.7411 23.5602 10.7195 24.8414 8.58575 25.2493C6.22948 25.6998 4.43198 24.5184 3.10023 23.0474C2.03482 21.8707 1.34605 21.7203 1.13483 21.7922C-1.26363 22.0247 -1.53166 21.3576 -0.80156 20.8202C-2.67441 21.0099 -1.92042 20.211 -1.66326 19.9224C-2.25324 19.8304 -2.54744 19.8908 -2.54744 19.4924C-2.54744 19.094 -1.84483 18.9851 -1.40518 18.8209C-1.74988 18.7989 -2.39687 18.7398 -2.14833 18.2788C-1.89979 17.8177 0.276813 17.7599 1.26158 17.829C0.104479 15.8615 2.15651 16.9336 3.14497 17.3811C4.13343 17.8286 6.47113 21.7256 7.62182 20.6718Z" fill="#F57F17" stroke="black" stroke-width="0.443512" stroke-linejoin="round"/>
<path d="M31.3782 20.6718C30.4576 19.8288 28.9439 18.6194 28.3022 18.1201C27.8487 19.6483 26.9735 22.7903 27.1004 23.1324C27.2589 23.5602 28.2805 24.8414 30.4142 25.2493C32.7705 25.6998 34.568 24.5184 35.8998 23.0474C36.9652 21.8707 37.654 21.7203 37.8652 21.7922C40.2636 22.0247 40.5317 21.3576 39.8016 20.8202C41.6744 21.0099 40.9204 20.211 40.6633 19.9224C41.2532 19.8304 41.5474 19.8908 41.5474 19.4924C41.5474 19.094 40.8448 18.9851 40.4052 18.8209C40.7499 18.7989 41.3969 18.7398 41.1483 18.2788C40.8998 17.8177 38.7232 17.7599 37.7384 17.829C38.8955 15.8615 36.8435 16.9336 35.855 17.3811C34.8666 17.8286 32.5289 21.7256 31.3782 20.6718Z" fill="#F57F17" stroke="black" stroke-width="0.443512" stroke-linejoin="round"/>
<path d="M14.7746 8.20062C16.0964 4.14913 21.8527 4.14913 23.1745 8.20062C23.8253 10.1954 25.6914 11.5452 27.7961 11.5452C32.0758 11.5452 33.8508 16.9967 30.3921 19.4995C28.6888 20.732 27.9756 22.9171 28.6265 24.912C29.9472 28.9602 25.2939 32.3338 21.8305 29.8277C20.1275 28.5954 17.8216 28.5954 16.1185 29.8277C12.6551 32.3338 8.00189 28.9602 9.32257 24.912C9.97342 22.9171 9.26025 20.732 7.55699 19.4995C4.09821 16.9967 5.87325 11.5452 10.153 11.5452C12.2577 11.5452 14.1238 10.1954 14.7746 8.20062Z" fill="#F57F17" stroke="black" stroke-width="0.443512"/>
<ellipse cx="17.5464" cy="14.1169" rx="0.380919" ry="0.474215" fill="black"/>
<ellipse cx="20.0539" cy="17.4769" rx="1.04753" ry="1.30409" fill="black"/>
<ellipse cx="23.0059" cy="14.1169" rx="0.380919" ry="0.474215" fill="black"/>
<path d="M33.311 8.54042L33.3112 8.54044L33.3113 8.5317C33.3181 7.96205 33.6438 7.47366 34.0842 7.1198C34.5277 6.76342 35.0542 6.57085 35.4053 6.56965L35.4053 6.57016L35.4191 6.5691C35.8742 6.5342 36.4941 6.66022 37.0421 7.12214C37.5673 7.5649 37.8348 8.46037 37.5881 9.27065C37.424 9.80987 37.1017 10.1675 36.6412 10.5374C36.6116 10.5612 36.5657 10.5931 36.5024 10.6371C36.4952 10.642 36.4879 10.6471 36.4803 10.6524C36.409 10.702 36.324 10.7617 36.2387 10.8279C36.0752 10.9551 35.8819 11.1277 35.7891 11.3281C35.7854 11.3361 35.7823 11.3443 35.7797 11.3528C35.6944 11.6346 35.5655 11.7611 35.4511 11.8151C35.3333 11.8706 35.1956 11.8661 35.064 11.8179C34.9994 11.7942 34.8903 11.7008 34.823 11.5465C34.7595 11.4011 34.7434 11.2227 34.8304 11.0403C35.0376 10.6063 35.3427 10.3227 35.8302 10.0044C36.2484 9.73125 36.7073 9.34315 36.7122 8.65526C36.7149 8.28632 36.5262 8.0349 36.3089 7.87743C36.0977 7.72444 35.8534 7.65381 35.7023 7.62856C35.554 7.60379 35.3248 7.61682 35.0991 7.69442C34.8704 7.77306 34.6249 7.92542 34.4755 8.19728C34.4451 8.2527 34.4173 8.3036 34.3917 8.35046C34.3142 8.49255 34.2569 8.59751 34.2074 8.67877C34.1411 8.78767 34.1037 8.82763 34.0758 8.84712C33.8606 8.99721 33.6732 8.96672 33.5357 8.87903C33.4626 8.83245 33.4026 8.7685 33.3627 8.70206C33.3215 8.63366 33.309 8.57545 33.311 8.54042Z" fill="#FFEB3B" stroke="black" stroke-width="0.380153" stroke-linecap="round" stroke-linejoin="round"/>
<path d="M35.791 13.6686C35.7681 14.0633 35.4538 14.3427 35.113 14.3209C34.7721 14.299 34.4923 13.9814 34.5152 13.5867C34.538 13.192 34.8524 12.9126 35.1932 12.9345C35.534 12.9564 35.8138 13.2739 35.791 13.6686Z" fill="#FFEB3B" stroke="black" stroke-width="0.380153"/>
</g>
<circle cx="20" cy="20" r="19.5" stroke="#CECECE"/>
</svg>
