<svg width="100" height="100" viewBox="0 0 100 100" fill="none" xmlns="http://www.w3.org/2000/svg">
<mask id="mask0_377_2071" style="mask-type:alpha" maskUnits="userSpaceOnUse" x="0" y="0" width="100" height="100">
<circle cx="50" cy="50" r="49.756" fill="white" stroke="#F3F3F3" stroke-width="0.488095"/>
</mask>
<g mask="url(#mask0_377_2071)">
<path d="M46.4501 83.5642V67.394H56.345V83.5642V88.3038V92.828L32.4032 92.828C31.7609 92.828 31.3409 92.1607 31.617 91.5857L32.135 90.5069C34.1153 86.3826 37.6099 83.7796 42.1687 83.7796H46.2346H46.4501V83.5642Z" fill="#FFFDE7" stroke="black" stroke-width="0.430919"/>
<path d="M69.006 83.5642V67.394L59.1111 67.394V83.5642L59.1111 88.3038V92.828L83.0529 92.828C83.6951 92.828 84.1151 92.1607 83.8391 91.5857L83.3211 90.5069C81.3408 86.3827 77.8461 83.7796 73.2873 83.7796H69.2214H69.006V83.5642Z" fill="#FFFDE7" stroke="black" stroke-width="0.430919"/>
<path d="M28.744 45.6076C31.7603 45.2999 36.4626 45.1375 38.4367 45.0948C37.0914 48.7215 34.2146 56.0953 33.4697 56.5772C32.5387 57.1795 28.6878 58.1931 23.9484 55.9007C18.7149 53.3692 16.9441 48.4732 16.4997 43.6877C16.1443 39.8593 15.0254 38.571 14.5103 38.4053C9.51236 35.3891 10.1917 33.7927 11.1562 33.3715C9.46211 31.7076 10.8785 30.9133 11.7985 30.7241C9.19293 28.0673 12.1168 28.4383 13.9044 28.9559C13.2669 28.4146 12.096 27.3643 13.2504 26.8273C14.4049 26.2904 18.7174 29.3254 20.5298 30.8838C21.1481 25.3855 23.5726 30.4371 24.8409 32.7364C26.1093 35.0357 24.9737 45.9923 28.744 45.6076Z" fill="#FFFDE7" stroke="black" stroke-width="0.430919" stroke-linejoin="round"/>
<path d="M92.7962 74.427C93.5047 79.9145 89.9467 75.5807 88.1671 73.6471C83.6107 68.6963 80.9413 60.1669 71.2403 59.5341C71.6837 55.6928 74.2014 48.8846 74.8102 48.2403C78.8449 43.9706 88.1734 56.9777 90.7981 60.4572C93.4227 63.9368 96.313 65.6574 96.8527 65.6965C102.426 67.4443 102.146 69.1558 101.31 69.7931C103.351 71.0087 102.165 72.1154 101.316 72.5168C104.48 74.4813 101.551 74.8126 99.6914 74.7326C100.44 75.1076 101.827 75.851 100.833 76.6457C99.8398 77.4404 94.9278 75.5122 92.7962 74.427Z" fill="#FFFDE7" stroke="black" stroke-width="0.430919" stroke-linejoin="round"/>
<path d="M46.4836 25.4896C49.7851 15.3622 64.1609 15.3622 67.4624 25.4896C68.9968 30.1964 73.3972 33.3825 78.3615 33.3825C89.0471 33.3825 93.4866 47.0091 84.8445 53.2673C80.8279 56.1759 79.1468 61.3321 80.6812 66.039C83.9818 76.1638 72.3545 84.5889 63.7088 78.3281C59.6923 75.4196 54.2537 75.4196 50.2372 78.3282C41.5915 84.5889 29.9642 76.1638 33.2648 66.039C34.7992 61.3321 33.1181 56.1759 29.1015 53.2673C20.4594 47.0091 24.8989 33.3825 35.5845 33.3825C40.5488 33.3825 44.9492 30.1964 46.4836 25.4896Z" fill="#FFFDE7" stroke="black" stroke-width="0.430919"/>
<path d="M61.443 48.7694H55.126C55.0865 48.7694 55.057 48.8054 55.0662 48.8438C55.3668 50.1022 56.2512 52.2981 58.2487 52.2981C60.2489 52.2981 61.3008 50.0962 61.5034 48.8386C61.5093 48.8017 61.4804 48.7694 61.443 48.7694Z" stroke="black" stroke-width="0.430919"/>
<path d="M55.449 40.5587C55.449 43.5318 53.0307 45.9432 50.0461 45.9432C47.0615 45.9432 44.6432 43.5318 44.6432 40.5587C44.6432 37.5857 47.0615 35.1743 50.0461 35.1743C53.0307 35.1743 55.449 37.5857 55.449 40.5587Z" stroke="black" stroke-width="0.430919"/>
<path d="M68.6868 40.5587C68.6868 43.5318 66.2685 45.9432 63.2839 45.9432C60.2993 45.9432 57.881 43.5318 57.881 40.5587C57.881 37.5857 60.2993 35.1743 63.2839 35.1743C66.2685 35.1743 68.6868 37.5857 68.6868 40.5587Z" stroke="black" stroke-width="0.430919"/>
<path d="M55.0488 39.6386C55.0488 39.6386 55.7415 39.1783 56.742 39.1783C57.7426 39.1783 58.4352 39.6386 58.4352 39.6386" stroke="black" stroke-width="0.430919"/>
<ellipse cx="49.5069" cy="39.7924" rx="0.923398" ry="1.15066" fill="black"/>
<ellipse cx="62.7452" cy="39.7924" rx="0.923397" ry="1.15066" fill="black"/>
<path d="M18.1067 12.3119C15.6644 13.879 16.6189 18.1596 17.1803 19.2229C17.6609 20.133 17.7576 21.4875 17.8752 21.9172C17.9014 22.0127 17.9878 22.0621 18.0838 22.0865C20.337 22.6599 21.2858 22.5501 21.6157 22.4405C21.7504 21.5676 22.2333 20.8178 23.0755 20.1464C23.5175 19.7939 24.8721 18.6914 25.2931 17.7401C25.7142 16.7888 26.0511 15.6976 25.1528 13.6268C24.2545 11.556 20.549 10.7449 18.1067 12.3119Z" fill="#FFEB3B" stroke="black" stroke-width="0.369359"/>
<path d="M20.0073 25.2389C20.0073 25.5622 19.7563 25.8181 19.4541 25.8181C19.152 25.8181 18.9009 25.5622 18.9009 25.2389C18.9009 24.9156 19.152 24.6597 19.4541 24.6597C19.7563 24.6597 20.0073 24.9156 20.0073 25.2389Z" fill="#CECECE" stroke="black" stroke-width="0.184679"/>
<path d="M18.2817 24.504C18.3082 24.2915 18.5174 24.1521 18.724 24.2082C19.0097 24.2857 19.3674 24.3803 19.4896 24.4022C19.6113 24.4241 19.979 24.418 20.2749 24.4085C20.4897 24.4017 20.6617 24.5874 20.6351 24.8005V24.8005C20.6144 24.9668 20.4777 25.0943 20.3103 25.1007C20.0198 25.1117 19.5893 25.1222 19.4028 25.0978C19.2175 25.0736 18.8063 24.9602 18.5274 24.8795C18.3639 24.8323 18.2606 24.6728 18.2817 24.504V24.504Z" fill="#CECECE" stroke="black" stroke-width="0.184679"/>
<path d="M17.9898 23.6412C18.0276 23.3628 18.304 23.1828 18.5743 23.2592C18.9481 23.3649 19.4161 23.4941 19.5762 23.5246C19.7356 23.555 20.2181 23.5521 20.6065 23.5439C20.8884 23.5379 21.1116 23.784 21.0737 24.0633V24.0633C21.0441 24.2811 20.863 24.4466 20.6432 24.4526C20.2619 24.4629 19.6969 24.4708 19.4525 24.4362C19.2096 24.4018 18.6717 24.2471 18.3069 24.1374C18.093 24.0731 17.9598 23.8625 17.9898 23.6412V23.6412Z" fill="#CECECE" stroke="black" stroke-width="0.184679"/>
<path d="M17.4841 22.4916C17.5273 22.1732 17.8476 21.9701 18.1554 22.0619C18.6397 22.2063 19.315 22.397 19.7502 22.4752C20.1788 22.5522 20.8666 22.542 21.3716 22.5197C21.7016 22.5051 21.9714 22.7907 21.927 23.118L21.8904 23.3876C21.8581 23.6256 21.6659 23.8098 21.4261 23.8239C20.9513 23.8519 20.1585 23.8774 19.572 23.7889C18.9895 23.7011 18.2376 23.4749 17.7853 23.3283C17.5531 23.2531 17.4121 23.0217 17.445 22.7798L17.4841 22.4916Z" fill="#CECECE" stroke="black" stroke-width="0.184679"/>
<path d="M19.2296 22.3289C19.3325 20.8646 19.3643 17.7514 18.6681 17.0127C17.7979 16.0894 18.0505 18.4956 19.8191 18.4397C21.5876 18.3838 21.6382 18.4899 22.1771 18.0198C22.9494 17.3463 22.4325 16.4512 21.6157 17.6841C20.6332 19.1671 20.4367 21.5547 20.4086 22.5248" stroke="black" stroke-width="0.184679"/>
<rect x="0.0518096" y="0.0699121" width="0.926181" height="2.09009" rx="0.454869" transform="matrix(0.989192 0.146628 -0.147577 0.989051 21.8595 7.49317)" fill="#FFEB3B" stroke="black" stroke-width="0.12312"/>
<rect x="0.0829803" y="0.0267167" width="0.925575" height="2.09138" rx="0.454869" transform="matrix(0.890399 -0.455181 0.457564 0.889176 16.8147 8.63143)" fill="#FFEB3B" stroke="black" stroke-width="0.12312"/>
<rect x="0.0840764" y="-0.0230362" width="0.923792" height="2.09515" rx="0.454869" transform="matrix(0.49628 -0.868162 0.869488 0.493954 13.243 12.9866)" fill="#FFEB3B" stroke="black" stroke-width="0.12312"/>
<rect x="0.00068382" y="0.0869123" width="0.92465" height="2.09334" rx="0.454869" transform="matrix(0.713804 0.700345 -0.702696 0.71149 26.9026 9.97931)" fill="#FFEB3B" stroke="black" stroke-width="0.12312"/>
<rect x="-0.0485207" y="0.0722185" width="0.923113" height="2.09659" rx="0.454869" transform="matrix(0.193209 0.981158 -0.981398 0.191986 28.7256 14.6633)" fill="#FFEB3B" stroke="black" stroke-width="0.12312"/>
</g>
<circle cx="50" cy="50" r="49.5" stroke="#CECECE"/>
</svg>
