<svg width="765" height="765" viewBox="0 0 765 765" fill="none" xmlns="http://www.w3.org/2000/svg">
<path d="M312.739 596.301H316.239V592.801V489.5H376.321V592.801V623.694V651.087L222.882 651.087C220.262 651.087 218.539 648.352 219.67 645.989L223.035 638.957C235.616 612.669 257.657 596.301 286.325 596.301H312.739Z" fill="#FFEB3B" stroke="black" stroke-width="7"/>
<path d="M462.074 596.301H458.574V592.801V489.5H398.492V592.801V623.694L398.492 651.087L551.93 651.087C554.551 651.087 556.274 648.352 555.142 645.989L551.777 638.957C539.196 612.669 517.155 596.301 488.488 596.301H462.074Z" fill="#FFEB3B" stroke="black" stroke-width="7"/>
<path d="M316.353 214.906C337.173 150.828 427.827 150.828 448.647 214.906C458.895 246.446 488.287 267.801 521.451 267.801C588.827 267.801 616.84 354.018 562.332 393.62C535.502 413.113 524.275 447.666 534.524 479.207C555.344 543.285 482.004 596.569 427.496 556.967C400.665 537.474 364.335 537.474 337.504 556.967C282.996 596.569 209.656 543.285 230.476 479.207C240.725 447.666 229.498 413.113 202.668 393.62C148.16 354.018 176.173 267.801 243.549 267.801C276.713 267.801 306.105 246.446 316.353 214.906Z" fill="#FFEB3B" stroke="black" stroke-width="7"/>
<ellipse cx="352" cy="351.5" rx="6" ry="7.5" fill="black"/>
<ellipse cx="444" cy="337.5" rx="17" ry="21.5" fill="black"/>
<ellipse cx="438.5" cy="329.5" rx="8.5" ry="10.5" fill="white"/>
<path d="M340.204 417.35L344.884 392.59L500.013 397.334L494.953 407.856C478.947 441.137 470.594 477.576 470.501 514.5H333.5V488.933C333.5 464.916 335.745 440.95 340.204 417.35Z" fill="white" stroke="black" stroke-width="7"/>
<path d="M340.204 428.35L344.884 403.59L500.013 408.334L494.953 418.856C478.947 452.137 470.594 488.576 470.501 525.5H333.5V499.933C333.5 475.916 335.745 451.95 340.204 428.35Z" fill="white" stroke="black" stroke-width="7"/>
<path d="M236.112 541C200.912 539.8 186.916 464.5 211.082 400C217.925 406.167 225.723 421 232.611 439C239.5 457 243.5 481.5 272.111 469.5C300.723 457.5 327.031 441.006 355.111 439C375.633 437.534 364.534 448.96 355.723 452.748C359.627 451.302 377.321 446.473 389 445.5C399 445.5 401 446.5 401.5 451C402 455.5 391.913 456.043 384 460C396.698 457.506 404.42 458 404.766 464C405.111 470 395.774 472.5 382.111 472.5C392.923 472.5 396.915 471.5 396.611 477C396.313 482.415 383.031 482.945 369.74 483.475L369.111 483.5C384.22 484.389 387.31 483.5 387.46 490.5C387.611 497.5 371.724 498.667 353.111 499.5C319.611 501 280.112 542.5 236.112 541Z" fill="#FFEB3B" stroke="black" stroke-width="7" stroke-linejoin="round"/>
<circle cx="444" cy="335" r="48" stroke="black" stroke-width="12"/>
<rect x="487" y="361.391" width="12" height="70.1137" transform="rotate(-60 487 361.391)" fill="black"/>
<path d="M678.5 374.511C663.059 347.814 633.742 344.696 591.999 328.508C593.166 341.026 594.6 365.511 575 381.009C569 378.009 567.5 376.509 561 374.509C550.245 371.199 536.656 373.048 531.535 373.744L531.453 373.755C522.718 371.94 519.5 370.507 517.5 375.007C515.5 379.507 522.546 384.106 529.914 389.114C519.367 385.208 515.5 383.14 513.5 388.322C511.5 393.504 519.39 400.308 529.922 404.806C519.361 402.088 517 399.004 514 404.004C511 409.004 522.312 415.451 527.953 419.91C519.348 414.816 506.939 419.091 524.852 432.019C545.915 447.22 598.875 444.517 620.937 439.51C643 434.504 702.5 416.007 678.5 374.511Z" fill="#FFEB3B"/>
<path d="M531.453 373.755C535.246 377.163 545.031 384.582 553.826 387M531.453 373.755C536.508 373.068 550.187 371.181 561 374.509C567.5 376.509 569 378.009 575 381.009M531.453 373.755C522.718 371.94 519.5 370.507 517.5 375.007C515.5 379.507 522.546 384.106 529.914 389.114C519.367 385.208 515.5 383.14 513.5 388.322C511.5 393.504 519.39 400.308 529.922 404.806C519.361 402.088 517 399.004 514 404.004C511 409.004 522.312 415.451 527.953 419.91C519.348 414.816 506.939 419.091 524.852 432.019C545.915 447.22 598.875 444.517 620.937 439.51C643 434.504 702.5 416.007 678.5 374.511C663.059 347.814 633.742 344.696 591.999 328.508C593.166 341.026 594.6 365.511 575 381.009M652.204 390.619C643.077 393.539 581 384.009 575 381.009" stroke="black" stroke-width="7" stroke-linecap="round" stroke-linejoin="round"/>
</svg>
