<svg width="18" height="18" viewBox="0 0 18 18" fill="none" xmlns="http://www.w3.org/2000/svg">
<g id="Info outline">
<path id="Vector" d="M9 1.5C4.86 1.5 1.5 4.86 1.5 9C1.5 13.14 4.86 16.5 9 16.5C13.14 16.5 16.5 13.14 16.5 9C16.5 4.86 13.14 1.5 9 1.5ZM9.75 12C9.75 12.4142 9.41421 12.75 9 12.75V12.75C8.58579 12.75 8.25 12.4142 8.25 12V9C8.25 8.58579 8.58579 8.25 9 8.25V8.25C9.41421 8.25 9.75 8.58579 9.75 9V12ZM9.75 6C9.75 6.41421 9.41421 6.75 9 6.75V6.75C8.58579 6.75 8.25 6.41421 8.25 6V6C8.25 5.58579 8.58579 5.25 9 5.25V5.25C9.41421 5.25 9.75 5.58579 9.75 6V6Z" fill="#CECECE"/>
</g>
</svg>
