<svg width="24" height="24" viewBox="0 0 24 24" fill="none" xmlns="http://www.w3.org/2000/svg">
<g id="Bookmarks" clip-path="url(#clip0_107_1609)">
<path id="Vector" d="M18.2222 16.8984C18.2222 17.2397 18.4135 17.5523 18.7174 17.7078L19.3385 18.0254C19.641 18.18 20 17.9604 20 17.6207V3.81818C20 2.81818 19.2 2 18.2222 2H9.32444C8.49844 2 7.80564 2.5839 7.61048 3.36805C7.54984 3.61165 7.75906 3.81818 8.0101 3.81818H16.4444C17.4222 3.81818 18.2222 4.63636 18.2222 5.63636V16.8984ZM14.6667 5.63636H5.77778C4.8 5.63636 4 6.45455 4 7.45455V20.6089C4 21.2648 4.67335 21.7049 5.27404 21.4416L10.2222 19.2727L15.1704 21.4416C15.7711 21.7049 16.4444 21.2648 16.4444 20.609V7.45455C16.4444 6.45455 15.6444 5.63636 14.6667 5.63636Z" fill="#CECECE"/>
</g>
<defs>
<clipPath id="clip0_107_1609">
<rect width="24" height="24" fill="white"/>
</clipPath>
</defs>
</svg>
