<svg width="24" height="24" viewBox="0 0 24 24" fill="none" xmlns="http://www.w3.org/2000/svg">
<g id="Search" clip-path="url(#clip0_29_3187)">
<path id="Vector" d="M11.1804 3C6.6625 3 3 6.66215 3 11.1796C3 15.6971 6.6625 19.3592 11.1804 19.3592C13.2006 19.3592 15.0497 18.627 16.4769 17.4135L19.8677 20.804C20.1267 21.063 20.5467 21.063 20.8057 20.804C21.0648 20.545 21.0648 20.1251 20.8057 19.8661L17.4149 16.4756C18.6285 15.0486 19.3608 13.1996 19.3608 11.1796C19.3608 6.66215 15.6983 3 11.1804 3ZM8.21003 7.76734C8.96952 7.00798 10.0206 6.53713 11.1804 6.53713C12.3402 6.53713 13.3913 7.00797 14.1508 7.76736C14.4098 8.02636 14.4098 8.44628 14.1508 8.70528C13.8917 8.96428 13.4718 8.96428 13.2127 8.70528C12.6919 8.18449 11.9743 7.86355 11.1804 7.86355C10.3866 7.86355 9.66891 8.18449 9.14801 8.7053C8.88898 8.96429 8.46902 8.96427 8.21 8.70526C7.95098 8.44625 7.951 8.02633 8.21003 7.76734Z" fill="#232323"/>
</g>
<defs>
<clipPath id="clip0_29_3187">
<rect width="24" height="24" fill="white"/>
</clipPath>
</defs>
</svg>
