<svg width="12" height="12" viewBox="0 0 12 12" fill="none" xmlns="http://www.w3.org/2000/svg">
<g clip-path="url(#clip0_32_3561)">
<path d="M9.11111 8.44918C9.11111 8.61987 9.20674 8.77617 9.35871 8.85388L9.66925 9.01269C9.82048 9.09002 10 8.98019 10 8.81034V1.90909C10 1.40909 9.6 1 9.11111 1H4.66222C4.24922 1 3.90282 1.29195 3.80524 1.68402C3.77492 1.80583 3.87953 1.90909 4.00505 1.90909H8.22222C8.71111 1.90909 9.11111 2.31818 9.11111 2.81818V8.44918ZM7.33333 2.81818H2.88889C2.4 2.81818 2 3.22727 2 3.72727V10.3045C2 10.6324 2.33667 10.8524 2.63702 10.7208L5.11111 9.63636L7.5852 10.7208C7.88555 10.8524 8.22222 10.6324 8.22222 10.3045V3.72727C8.22222 3.22727 7.82222 2.81818 7.33333 2.81818Z" fill="#989898"/>
</g>
<defs>
<clipPath id="clip0_32_3561">
<rect width="12" height="12" fill="white"/>
</clipPath>
</defs>
</svg>
