<svg width="20" height="20" viewBox="0 0 20 20" fill="none" xmlns="http://www.w3.org/2000/svg">
<g id="How to vote" clip-path="url(#clip0_72_1787)">
<path id="Vector" d="M15.2003 11.0331C15.0721 10.9048 14.8981 10.8328 14.7167 10.8328C14.5353 10.8328 14.3613 10.9048 14.233 11.0331L13.8921 11.3739C13.4768 11.7893 13.771 12.4994 14.3583 12.4994L15.8333 14.1661H4.16667L5.65 12.4994C6.28042 12.4994 6.59613 11.7372 6.15036 11.2914L5.93574 11.0768C5.77946 10.9206 5.56717 10.8328 5.34616 10.8328C5.12473 10.8328 4.91204 10.9207 4.75546 11.0773L2.98816 12.8446C2.6756 13.1572 2.5 13.5811 2.5 14.0231V16.6661C2.5 17.5828 3.24167 18.3328 4.15833 18.3328H15.8333C16.75 18.3328 17.5 17.5911 17.5 16.6661V14.0231C17.5 13.5811 17.3244 13.1572 17.0118 12.8446L15.2003 11.0331ZM14.1667 6.62442L10.0417 10.7494L7.09167 7.79942L11.2167 3.67442L14.1667 6.62442ZM10.6333 1.90776L5.325 7.21609C5 7.54109 5 8.06609 5.325 8.39109L9.45 12.5161C9.775 12.8411 10.3 12.8411 10.625 12.5161L15.925 7.21609C16.25 6.89109 16.25 6.36609 15.925 6.04109L11.8 1.91609C11.4833 1.58276 10.9583 1.58276 10.6333 1.90776Z" fill="#F57F17"/>
</g>
<defs>
<clipPath id="clip0_72_1787">
<rect width="20" height="20" fill="white"/>
</clipPath>
</defs>
</svg>
