<svg width="14" height="14" viewBox="0 0 14 14" fill="none" xmlns="http://www.w3.org/2000/svg">
<g clip-path="url(#clip0_37_649)">
<path d="M12.8333 7C12.8333 7.46024 12.4602 7.83334 12 7.83334H7.83329V12C7.83329 12.4602 7.4602 12.8333 6.99996 12.8333C6.53972 12.8333 6.16663 12.4602 6.16663 12V7.83334H1.99996C1.53972 7.83334 1.16663 7.46024 1.16663 7C1.16663 6.53976 1.53972 6.16667 1.99996 6.16667H6.16663V2C6.16663 1.53976 6.53972 1.16667 6.99996 1.16667C7.4602 1.16667 7.83329 1.53976 7.83329 2V6.16667H12C12.4602 6.16667 12.8333 6.53976 12.8333 7Z" fill="#494949"/>
</g>
<defs>
<clipPath id="clip0_37_649">
<rect width="14" height="14" fill="white"/>
</clipPath>
</defs>
</svg>
