<svg width="16" height="16" viewBox="0 0 16 16" fill="none" xmlns="http://www.w3.org/2000/svg">
<g id="Add" clip-path="url(#clip0_37_649)">
<path id="Subtract" fill-rule="evenodd" clip-rule="evenodd" d="M3.286 12.7151C4.53624 13.9654 6.23193 14.6679 8.00004 14.6679C9.76815 14.6679 11.4638 13.9654 12.7141 12.7151C13.9643 11.4647 14.6667 9.76888 14.6667 8.00061C14.6667 6.23234 13.9643 4.53649 12.7141 3.28613C11.4638 2.03578 9.76815 1.33333 8.00004 1.33333C6.23193 1.33333 4.53624 2.03578 3.286 3.28613C2.03575 4.53649 1.33337 6.23234 1.33337 8.00061C1.33337 9.76888 2.03575 11.4647 3.286 12.7151ZM10.6666 7.33388C11.0349 7.33388 11.3334 7.63239 11.3334 8.00061C11.3334 8.36883 11.0349 8.66734 10.6666 8.66734H8.66671V10.6667C8.66671 11.0349 8.36823 11.3333 8.00004 11.3333C7.63185 11.3333 7.33337 11.0349 7.33337 10.6667V8.66734H5.33343C4.96521 8.66734 4.66671 8.36883 4.66671 8.00061C4.66671 7.63239 4.96521 7.33388 5.33343 7.33388H7.33337V5.33334C7.33337 4.96515 7.63185 4.66667 8.00004 4.66667C8.36823 4.66667 8.66671 4.96515 8.66671 5.33334V7.33388H10.6666Z" fill="#494949"/>
</g>
<defs>
<clipPath id="clip0_37_649">
<rect width="16" height="16" fill="white"/>
</clipPath>
</defs>
</svg>
