<svg width="54" height="25" viewBox="0 0 54 25" fill="none" xmlns="http://www.w3.org/2000/svg">
<g id="&#236;&#183;&#168;&#237;&#149;&#180; &#235;&#161;&#156;&#234;&#179;&#160;">
<path id="Union" fill-rule="evenodd" clip-rule="evenodd" d="M13.5971 16.9488L20.8808 24.268C21.2826 24.6717 21.936 24.6717 22.3378 24.268L24.0927 22.5045C24.4917 22.1035 24.4917 21.4555 24.0927 21.0546L19.0682 16.0056H26.1665C26.7341 16.0056 27.1942 15.5454 27.1942 14.9778V12.4789C27.1942 11.9113 26.7341 11.4511 26.1665 11.4511H19.0682L24.0927 6.40214C24.4917 6.00119 24.4917 5.35317 24.0927 4.95222L22.3378 3.18875C21.936 2.78503 21.2826 2.78503 20.8808 3.18875L15.9281 8.16561L15.9281 1.02775C15.9281 0.460139 15.4679 0 14.9003 0H12.2939C11.7263 0 11.2662 0.460139 11.2662 1.02775V8.16561L6.31343 3.18875C5.91167 2.78503 5.25821 2.78503 4.85645 3.18875L3.10152 4.95222C2.70251 5.35317 2.70251 6.00119 3.10152 6.40214L8.12606 11.4511H1.02775C0.460138 11.4511 0 11.9113 0 12.4789V14.9778C0 15.5454 0.460139 16.0056 1.02775 16.0056H8.12606L3.10152 21.0546C2.70251 21.4555 2.70251 22.1035 3.10152 22.5045L4.85645 24.268C5.25821 24.6717 5.91167 24.6717 6.31343 24.268L13.5971 16.9488Z" fill="#FFEB3B"/>
<path id="Union_2" fill-rule="evenodd" clip-rule="evenodd" d="M43.26 0C43.8277 0 44.2878 0.460138 44.2878 1.02775V3.25316H52.9723C53.5399 3.25316 54 3.7133 54 4.28091V6.77985C54 7.34746 53.5399 7.80759 52.9723 7.80759H44.2878H39.6259H30.9414C30.3738 7.80759 29.9137 7.34746 29.9137 6.77985V4.28091C29.9137 3.7133 30.3738 3.25316 30.9414 3.25316H39.6259V1.02775C39.6259 0.460139 40.0861 0 40.6537 0H43.26ZM44.6699 10.4892C43.7956 7.78124 39.9886 7.78124 39.1143 10.4892C38.7233 11.7002 37.6018 12.5202 36.3365 12.5202C33.5071 12.5202 32.3306 16.1637 34.6197 17.8373C35.6434 18.5858 36.0717 19.9124 35.6807 21.1235C34.8064 23.8314 37.8863 26.0832 40.1753 24.4096C41.199 23.6612 42.5852 23.6612 43.6089 24.4096C45.8979 26.0832 48.9778 23.8314 48.1035 21.1235C47.7125 19.9124 48.1409 18.5858 49.1645 17.8373C51.4536 16.1637 50.2772 12.5202 47.4478 12.5202C46.1824 12.5202 45.0609 11.7002 44.6699 10.4892Z" fill="#F57F17"/>
</g>
</svg>
