<svg width="12" height="12" viewBox="0 0 12 12" fill="none" xmlns="http://www.w3.org/2000/svg">
<g clip-path="url(#clip0_32_3555)">
<path d="M6 2.5C3.72727 2.5 1.78636 3.95133 1 6C1.78636 8.04867 3.72727 9.5 6 9.5C8.27273 9.5 10.2136 8.04867 11 6C10.2136 3.95133 8.27273 2.5 6 2.5ZM6 8.33333C4.74545 8.33333 3.72727 7.288 3.72727 6C3.72727 4.712 4.74545 3.66667 6 3.66667C7.25455 3.66667 8.27273 4.712 8.27273 6C8.27273 7.288 7.25455 8.33333 6 8.33333ZM6 4.6C5.24545 4.6 4.63636 5.22533 4.63636 6C4.63636 6.77467 5.24545 7.4 6 7.4C6.75455 7.4 7.36364 6.77467 7.36364 6C7.36364 5.22533 6.75455 4.6 6 4.6Z" fill="#989898"/>
</g>
<defs>
<clipPath id="clip0_32_3555">
<rect width="12" height="12" fill="white"/>
</clipPath>
</defs>
</svg>
