<svg width="18" height="18" viewBox="0 0 18 18" fill="none" xmlns="http://www.w3.org/2000/svg">
<g clip-path="url(#clip0_37_567)">
<path d="M15.7446 3.76607C16.1618 3.3489 16.1618 2.67253 15.7446 2.25536C15.3275 1.83819 14.6511 1.83818 14.2339 2.25536L9 7.48929L3.76607 2.25536C3.3489 1.83819 2.67253 1.83818 2.25536 2.25536C1.83818 2.67253 1.83818 3.3489 2.25536 3.76607L7.48929 9L2.25536 14.2339C1.83819 14.6511 1.83819 15.3275 2.25536 15.7446C2.67253 16.1618 3.3489 16.1618 3.76607 15.7446L9 10.5107L14.2339 15.7446C14.6511 16.1618 15.3275 16.1618 15.7446 15.7446C16.1618 15.3275 16.1618 14.6511 15.7446 14.2339L10.5107 9L15.7446 3.76607Z" fill="#232323"/>
</g>
<defs>
<clipPath id="clip0_37_567">
<rect width="18" height="18" fill="white"/>
</clipPath>
</defs>
</svg>
