<svg width="17" height="17" viewBox="0 0 17 17" fill="none" xmlns="http://www.w3.org/2000/svg">
<g clip-path="url(#clip0_30_3197)">
<path d="M12.9203 9.37814C12.8113 9.2691 12.6634 9.20784 12.5092 9.20784C12.355 9.20784 12.2071 9.2691 12.098 9.37814L11.8083 9.66785C11.4553 10.0209 11.7053 10.6245 12.2046 10.6245L13.4583 12.0412H3.54167L4.8025 10.6245C5.33836 10.6245 5.60671 9.97664 5.22781 9.59773L5.04538 9.41531C4.91254 9.28247 4.7321 9.20784 4.54424 9.20784C4.35602 9.20784 4.17523 9.28261 4.04214 9.4157L2.53993 10.9179C2.27426 11.1836 2.125 11.5439 2.125 11.9196V14.1662C2.125 14.9453 2.75542 15.5828 3.53458 15.5828H13.4583C14.2375 15.5828 14.875 14.9524 14.875 14.1662V11.9196C14.875 11.5439 14.7257 11.1836 14.4601 10.9179L12.9203 9.37814ZM12.0417 5.63076L8.53542 9.13701L6.02792 6.62951L9.53417 3.12326L12.0417 5.63076ZM9.03833 1.62159L4.52625 6.13368C4.25 6.40993 4.25 6.85618 4.52625 7.13243L8.0325 10.6387C8.30875 10.9149 8.755 10.9149 9.03125 10.6387L13.5363 6.13368C13.8125 5.85743 13.8125 5.41118 13.5363 5.13493L10.03 1.62868C9.76083 1.34534 9.31458 1.34534 9.03833 1.62159Z" fill="#F57F17"/>
</g>
<defs>
<clipPath id="clip0_30_3197">
<rect width="17" height="17" fill="white"/>
</clipPath>
</defs>
</svg>
