<svg width="24" height="24" viewBox="0 0 24 24" fill="none" xmlns="http://www.w3.org/2000/svg">
<g clip-path="url(#clip0_125_360)">
<path d="M2.32543 17.506C2.11706 17.7143 2 17.9969 2 18.2915V20.3304C2 21.2507 2.74603 21.9967 3.6663 21.9967H5.70601C6.00059 21.9967 6.28312 21.8797 6.49144 21.6714L17.6676 10.4971C18.1015 10.0633 18.1015 9.35983 17.6676 8.926L15.0726 6.33146C14.6388 5.89773 13.9356 5.89773 13.5017 6.33146L2.32543 17.506ZM21.675 6.49031C22.1083 6.05711 22.1083 5.35732 21.675 4.92412L19.0754 2.3249C18.6421 1.8917 17.9422 1.8917 17.509 2.3249L16.2616 3.57206C15.8277 4.00589 15.8277 4.70935 16.2616 5.14319L18.8566 7.73772C19.2904 8.17146 19.9936 8.17146 20.4274 7.73772L21.675 6.49031Z" fill="white"/>
</g>
<defs>
<clipPath id="clip0_125_360">
<rect width="24" height="24" fill="white"/>
</clipPath>
</defs>
</svg>
