<svg width="24" height="24" viewBox="0 0 24 24" fill="none" xmlns="http://www.w3.org/2000/svg">
<g clip-path="url(#clip0_29_3187)">
<path d="M16.2939 14.58H15.3905L15.0703 14.2712C16.191 12.9675 16.8656 11.2749 16.8656 9.43365C16.8656 5.32799 13.538 2 9.43282 2C5.32762 2 2 5.32799 2 9.43365C2 13.5393 5.32762 16.8673 9.43282 16.8673C11.2739 16.8673 12.9663 16.1926 14.2699 15.0718L14.5786 15.392V16.2955L19.4433 21.151C19.9145 21.6212 20.6775 21.6209 21.1482 21.1501C21.6188 20.6795 21.6192 19.9166 21.149 19.4454L16.2939 14.58ZM9.43282 14.58C6.58548 14.58 4.28702 12.2813 4.28702 9.43365C4.28702 6.58599 6.58548 4.28728 9.43282 4.28728C12.2802 4.28728 14.5786 6.58599 14.5786 9.43365C14.5786 12.2813 12.2802 14.58 9.43282 14.58Z" fill="#232323"/>
</g>
<defs>
<clipPath id="clip0_29_3187">
<rect width="24" height="24" fill="white"/>
</clipPath>
</defs>
</svg>
