<svg width="20" height="20" viewBox="0 0 20 20" fill="none" xmlns="http://www.w3.org/2000/svg">
<g clip-path="url(#clip0_72_1782)">
<path d="M1.93769 14.5883C1.76406 14.7619 1.6665 14.9974 1.6665 15.243V16.9421C1.6665 17.709 2.28819 18.3306 3.05509 18.3306H4.75484C5.00033 18.3306 5.23577 18.2331 5.40937 18.0596L14.7228 8.74763C15.0844 8.3861 15.0844 7.79988 14.7228 7.43835L12.5604 5.27624C12.1989 4.91479 11.6128 4.91479 11.2513 5.27624L1.93769 14.5883ZM18.0624 5.40861C18.4234 5.04761 18.4234 4.46445 18.0624 4.10345L15.896 1.93744C15.535 1.57644 14.9517 1.57644 14.5906 1.93744L13.5512 2.97673C13.1896 3.33826 13.1896 3.92448 13.5512 4.28601L15.7136 6.44812C16.0751 6.80957 16.6612 6.80957 17.0227 6.44812L18.0624 5.40861Z" fill="#CECECE"/>
</g>
<defs>
<clipPath id="clip0_72_1782">
<rect width="20" height="20" fill="white"/>
</clipPath>
</defs>
</svg>
