<svg width="16" height="16" viewBox="0 0 16 16" fill="none" xmlns="http://www.w3.org/2000/svg">
<g clip-path="url(#clip0_37_680)">
<path d="M7.33337 5.33333C7.33337 4.96514 7.63185 4.66667 8.00004 4.66667C8.36823 4.66667 8.66671 4.96514 8.66671 5.33333C8.66671 5.70152 8.36823 6 8.00004 6C7.63185 6 7.33337 5.70152 7.33337 5.33333ZM7.33337 8C7.33337 7.63181 7.63185 7.33333 8.00004 7.33333C8.36823 7.33333 8.66671 7.63181 8.66671 8V10.6667C8.66671 11.0349 8.36823 11.3333 8.00004 11.3333C7.63185 11.3333 7.33337 11.0349 7.33337 10.6667V8ZM8.00004 1.33333C4.32004 1.33333 1.33337 4.32 1.33337 8C1.33337 11.68 4.32004 14.6667 8.00004 14.6667C11.68 14.6667 14.6667 11.68 14.6667 8C14.6667 4.32 11.68 1.33333 8.00004 1.33333ZM8.00004 13.3333C5.06004 13.3333 2.66671 10.94 2.66671 8C2.66671 5.06 5.06004 2.66667 8.00004 2.66667C10.94 2.66667 13.3334 5.06 13.3334 8C13.3334 10.94 10.94 13.3333 8.00004 13.3333Z" fill="#989898"/>
</g>
<defs>
<clipPath id="clip0_37_680">
<rect width="16" height="16" fill="white"/>
</clipPath>
</defs>
</svg>
