<svg width="16" height="16" viewBox="0 0 16 16" fill="none" xmlns="http://www.w3.org/2000/svg">
<g id="kebab">
<g id="Vector">
<path d="M9.33317 2.66671C9.33317 3.40309 8.73622 4.00004 7.99984 4.00004C7.26346 4.00004 6.6665 3.40309 6.6665 2.66671C6.6665 1.93033 7.26346 1.33337 7.99984 1.33337C8.73622 1.33337 9.33317 1.93033 9.33317 2.66671Z" fill="#989898"/>
<path d="M9.33317 8.00004C9.33317 8.73642 8.73622 9.33337 7.99984 9.33337C7.26346 9.33337 6.6665 8.73642 6.6665 8.00004C6.6665 7.26366 7.26346 6.66671 7.99984 6.66671C8.73622 6.66671 9.33317 7.26366 9.33317 8.00004Z" fill="#989898"/>
<path d="M9.33317 13.3334C9.33317 14.0698 8.73622 14.6667 7.99984 14.6667C7.26346 14.6667 6.6665 14.0698 6.6665 13.3334C6.6665 12.597 7.26346 12 7.99984 12C8.73622 12 9.33317 12.597 9.33317 13.3334Z" fill="#989898"/>
</g>
</g>
</svg>
