<svg width="20" height="20" viewBox="0 0 20 20" fill="none" xmlns="http://www.w3.org/2000/svg">
<g id="Bookmarks" clip-path="url(#clip0_72_1794)">
<path id="Vector" d="M15.1853 14.082C15.1853 14.3664 15.3447 14.6269 15.598 14.7565L16.1156 15.0211C16.3676 15.15 16.6668 14.967 16.6668 14.6839V3.18181C16.6668 2.34847 16.0002 1.66666 15.1853 1.66666H7.77053C7.08219 1.66666 6.50487 2.15324 6.34223 2.8067C6.2917 3.0097 6.46605 3.18181 6.67525 3.18181H13.7039C14.5187 3.18181 15.1853 3.86363 15.1853 4.69696V14.082ZM12.2224 4.69696H4.81498C4.00016 4.69696 3.3335 5.37878 3.3335 6.21211V17.1741C3.3335 17.7207 3.89462 18.0874 4.3952 17.868L8.51868 16.0606L12.6422 17.868C13.1427 18.0874 13.7039 17.7207 13.7039 17.1741V6.21211C13.7039 5.37878 13.0372 4.69696 12.2224 4.69696Z" fill="#F57F17"/>
</g>
<defs>
<clipPath id="clip0_72_1794">
<rect width="20" height="20" fill="white"/>
</clipPath>
</defs>
</svg>
