<svg width="24" height="24" viewBox="0 0 24 24" fill="none" xmlns="http://www.w3.org/2000/svg">
<g id="minus">
<path id="Vector" d="M12 22.0018C9.34784 22.0018 6.8043 20.9481 4.92893 19.0726C3.05357 17.1971 2 14.6533 2 12.0009C2 9.3485 3.05357 6.80473 4.92893 4.9292C6.8043 3.05366 9.34784 2 12 2C14.6522 2 17.1957 3.05366 19.0711 4.9292C20.9464 6.80473 22 9.3485 22 12.0009C22 14.6533 20.9464 17.1971 19.0711 19.0726C17.1957 20.9481 14.6522 22.0018 12 22.0018ZM17 12.0009C17 11.4486 16.5522 11.0008 15.9999 11.0008H8.00009C7.44776 11.0008 7 11.4486 7 12.0009V12.0009C7 12.5532 7.44776 13.001 8.00009 13.001H15.9999C16.5522 13.001 17 12.5532 17 12.0009V12.0009Z" fill="#CECECE"/>
</g>
</svg>
