<svg width="375" height="812" viewBox="0 0 375 812" fill="none" xmlns="http://www.w3.org/2000/svg">
<rect width="375" height="812" fill="#FFFFFC"/>
<path d="M115.02 373.482H115.927V372.575V345.813H131.492V372.575V380.579V387.675L91.7416 387.675C91.0627 387.675 90.6163 386.967 90.9093 386.355L91.7811 384.533C95.0404 377.722 100.751 373.482 108.177 373.482H115.02Z" fill="#F57F17" stroke="black" stroke-width="1.81347"/>
<path d="M153.708 373.482H152.801V372.575V345.813H137.236V372.575V380.579V387.675L176.987 387.675C177.666 387.675 178.112 386.967 177.819 386.355L176.947 384.533C173.688 377.722 167.978 373.482 160.551 373.482H153.708Z" fill="#F57F17" stroke="black" stroke-width="1.81347"/>
<path d="M86.7668 325.776C90.5232 322.322 96.7001 317.366 99.319 315.32C101.169 321.582 104.741 334.455 104.223 335.857C103.576 337.61 99.4075 342.859 90.7003 344.531C81.0851 346.377 73.7501 341.536 68.3157 335.509C63.9681 330.688 61.1574 330.071 60.2956 330.366C50.5082 331.319 49.4145 328.586 52.3938 326.383C44.7513 327.161 47.8281 323.887 48.8775 322.705C46.47 322.328 45.2694 322.575 45.2694 320.943C45.2694 319.311 48.1365 318.864 49.9306 318.192C48.524 318.101 45.8839 317.86 46.8981 315.97C47.9123 314.081 56.7943 313.844 60.8128 314.128C56.091 306.066 64.4647 310.459 68.4982 312.292C72.5318 314.126 82.0712 330.093 86.7668 325.776Z" fill="#F57F17" stroke="black" stroke-width="1.81347" stroke-linejoin="round"/>
<path d="M183.708 325.776C179.951 322.322 173.774 317.366 171.155 315.32C169.305 321.582 165.734 334.455 166.251 335.857C166.898 337.61 171.067 342.859 179.774 344.531C189.389 346.377 196.724 341.536 202.159 335.509C206.506 330.688 209.317 330.071 210.179 330.366C219.966 331.319 221.06 328.586 218.081 326.383C225.723 327.161 222.646 323.887 221.597 322.705C224.004 322.328 225.205 322.575 225.205 320.943C225.205 319.311 222.338 318.864 220.544 318.192C221.95 318.101 224.59 317.86 223.576 315.97C222.562 314.081 213.68 313.844 209.662 314.128C214.383 306.066 206.01 310.459 201.976 312.292C197.942 314.126 188.403 330.093 183.708 325.776Z" fill="#F57F17" stroke="black" stroke-width="1.81347" stroke-linejoin="round"/>
<path d="M115.957 274.675C121.351 258.074 144.836 258.074 150.23 274.675C152.885 282.846 160.499 288.378 169.091 288.378C186.546 288.378 193.803 310.714 179.682 320.974C172.731 326.024 169.823 334.976 172.478 343.147C177.871 359.747 158.871 373.552 144.75 363.292C137.799 358.242 128.387 358.242 121.436 363.292C107.315 373.552 88.3151 359.747 93.7089 343.147C96.3639 334.976 93.4554 326.024 86.5046 320.974C72.3833 310.714 79.6407 288.378 97.0955 288.378C105.687 288.378 113.302 282.846 115.957 274.675Z" fill="#F57F17" stroke="black" stroke-width="1.81347"/>
<ellipse cx="127.264" cy="298.922" rx="1.5544" ry="1.94301" fill="black"/>
<ellipse cx="137.497" cy="312.685" rx="4.27461" ry="5.34326" fill="black"/>
<ellipse cx="149.544" cy="298.922" rx="1.5544" ry="1.94301" fill="black"/>
<path d="M191.608 276.081C191.609 276.069 191.609 276.057 191.609 276.045C191.639 273.708 192.969 271.703 194.766 270.251C196.575 268.789 198.722 267.998 200.152 267.992C200.171 267.992 200.19 267.991 200.208 267.99C202.062 267.845 204.588 268.359 206.82 270.25C208.96 272.064 210.048 275.736 209.039 279.061C208.367 281.273 207.052 282.741 205.173 284.259C205.052 284.357 204.865 284.488 204.607 284.668C204.578 284.688 204.548 284.709 204.517 284.731C204.226 284.935 203.879 285.179 203.531 285.451C202.864 285.973 202.076 286.682 201.697 287.503C201.682 287.536 201.669 287.569 201.659 287.603C201.309 288.761 200.783 289.28 200.317 289.501C199.838 289.729 199.278 289.711 198.743 289.514C198.481 289.418 198.036 289.036 197.762 288.402C197.503 287.805 197.438 287.073 197.794 286.323C198.64 284.542 199.886 283.378 201.874 282.072C203.581 280.95 205.451 279.358 205.474 276.54C205.486 275.03 204.719 274 203.833 273.355C202.972 272.728 201.975 272.439 201.359 272.336C200.753 272.234 199.818 272.289 198.897 272.608C197.963 272.932 196.962 273.557 196.352 274.672C196.228 274.899 196.115 275.108 196.01 275.3C195.694 275.883 195.46 276.313 195.257 276.647C194.987 277.094 194.834 277.258 194.72 277.338C193.843 277.953 193.082 277.829 192.523 277.471C192.225 277.28 191.981 277.018 191.818 276.746C191.651 276.465 191.6 276.226 191.608 276.081Z" fill="#FFEB3B" stroke="black" stroke-width="1.5544" stroke-linecap="round" stroke-linejoin="round"/>
<path d="M201.71 297.085C201.616 298.707 200.331 299.851 198.945 299.763C197.56 299.675 196.418 298.376 196.513 296.754C196.607 295.131 197.892 293.987 199.278 294.075C200.663 294.163 201.805 295.462 201.71 297.085Z" fill="#FFEB3B" stroke="black" stroke-width="1.5544"/>
<path d="M225.984 443.758H226.891V442.851V416.089H242.456V442.851V450.854V457.951L202.705 457.951C202.026 457.951 201.58 457.242 201.873 456.63L202.745 454.808C206.004 447.998 211.714 443.758 219.141 443.758H225.984Z" fill="#FBC02D" stroke="black" stroke-width="1.81347"/>
<path d="M264.672 443.758H263.765V442.851V416.089H248.2V442.851V450.854V457.951L287.951 457.951C288.63 457.951 289.076 457.242 288.783 456.63L287.911 454.808C284.652 447.998 278.942 443.758 271.515 443.758H264.672Z" fill="#FBC02D" stroke="black" stroke-width="1.81347"/>
<path d="M227.957 345.675C233.351 329.074 256.836 329.074 262.23 345.675C264.885 353.846 272.499 359.378 281.091 359.378C298.546 359.378 305.803 381.714 291.682 391.974C284.731 397.024 281.823 405.976 284.478 414.147C289.871 430.747 270.871 444.552 256.75 434.292C249.799 429.242 240.387 429.242 233.436 434.292C219.315 444.552 200.315 430.747 205.709 414.147C208.364 405.976 205.455 397.024 198.505 391.974C184.383 381.714 191.641 359.378 209.096 359.378C217.687 359.378 225.302 353.846 227.957 345.675Z" fill="#FBC02D" stroke="black" stroke-width="1.81347"/>
<path d="M239.843 380.414C239.843 380.414 238.807 386.373 245.284 386.373C251.76 386.373 250.724 380.414 250.724 380.414" stroke="black" stroke-width="1.81347" stroke-linecap="round" stroke-linejoin="round"/>
<path d="M221.82 359.705C230.088 362.329 228.541 413.887 228.353 415.977C228.165 418.067 220.852 425.086 217.084 424.145C212.374 422.97 176.883 395.023 176.566 390.179C176.248 385.334 187.306 369.472 193.407 364.376C199.509 359.28 212.236 356.663 221.82 359.705Z" fill="#FFEBEB" stroke="black" stroke-width="1.81347" stroke-linecap="round" stroke-linejoin="round"/>
<path d="M211.036 352.392C210.49 351.992 210.039 351.47 209.814 350.934C209.595 350.41 209.596 349.893 209.904 349.422C210.081 349.15 210.316 348.874 210.626 348.615C210.936 348.356 211.249 348.175 211.548 348.049C212.067 347.83 212.576 347.921 213.052 348.23C213.54 348.547 213.973 349.084 214.269 349.692L215.609 352.454C215.891 353.035 215.741 353.733 215.246 354.147C214.75 354.561 214.036 354.584 213.514 354.203L211.036 352.392Z" fill="white" stroke="black" stroke-width="0.84795"/>
<path d="M219.077 362.02C219.372 362.628 219.805 363.165 220.293 363.482C220.769 363.791 221.278 363.882 221.797 363.663C222.096 363.537 222.409 363.356 222.719 363.097C223.03 362.838 223.264 362.562 223.441 362.29C223.749 361.818 223.75 361.302 223.531 360.778C223.306 360.242 222.855 359.719 222.309 359.32L219.831 357.509C219.309 357.128 218.595 357.151 218.099 357.565C217.604 357.979 217.454 358.677 217.736 359.258L219.077 362.02Z" fill="white" stroke="black" stroke-width="0.84795"/>
<path d="M215.397 348.827C215.293 348.158 215.343 347.47 215.564 346.932C215.779 346.407 216.145 346.042 216.697 345.926C217.014 345.859 217.375 345.83 217.777 345.866C218.18 345.902 218.529 345.995 218.83 346.118C219.352 346.33 219.647 346.754 219.765 347.31C219.886 347.878 219.813 348.564 219.591 349.204L218.587 352.104C218.376 352.715 217.776 353.103 217.132 353.045C216.489 352.987 215.968 352.498 215.869 351.86L215.397 348.827Z" fill="white" stroke="black" stroke-width="0.84795"/>
<path d="M220.625 349.812C221.024 349.266 221.546 348.815 222.082 348.59C222.606 348.371 223.123 348.372 223.595 348.68C223.867 348.857 224.142 349.091 224.401 349.401C224.66 349.712 224.842 350.025 224.968 350.324C225.187 350.843 225.096 351.351 224.786 351.828C224.47 352.315 223.933 352.749 223.324 353.044L220.563 354.385C219.982 354.667 219.283 354.517 218.869 354.021C218.455 353.526 218.432 352.811 218.813 352.29L220.625 349.812Z" fill="white" stroke="black" stroke-width="0.84795"/>
<path d="M223.654 354.068C224.323 353.964 225.011 354.015 225.549 354.235C226.075 354.45 226.439 354.816 226.555 355.368C226.622 355.685 226.651 356.046 226.615 356.448C226.579 356.851 226.486 357.2 226.364 357.501C226.151 358.023 225.727 358.318 225.172 358.436C224.603 358.557 223.917 358.484 223.278 358.263L220.377 357.258C219.767 357.047 219.379 356.447 219.437 355.803C219.494 355.16 219.983 354.639 220.621 354.54L223.654 354.068Z" fill="white" stroke="black" stroke-width="0.84795"/>
<path d="M217.863 362.784C217.967 363.453 217.917 364.141 217.696 364.679C217.481 365.205 217.115 365.569 216.563 365.685C216.246 365.752 215.885 365.781 215.483 365.745C215.08 365.709 214.731 365.616 214.43 365.493C213.909 365.281 213.613 364.857 213.495 364.301C213.374 363.733 213.447 363.047 213.669 362.407L214.673 359.507C214.885 358.897 215.485 358.509 216.128 358.566C216.771 358.624 217.292 359.113 217.392 359.751L217.863 362.784Z" fill="white" stroke="black" stroke-width="0.84795"/>
<path d="M212.635 361.799C212.236 362.345 211.714 362.797 211.178 363.021C210.654 363.24 210.137 363.239 209.665 362.931C209.394 362.754 209.118 362.52 208.859 362.21C208.6 361.9 208.419 361.587 208.293 361.288C208.074 360.768 208.165 360.26 208.474 359.783C208.791 359.296 209.327 358.862 209.936 358.567L212.697 357.226C213.278 356.944 213.977 357.094 214.391 357.59C214.805 358.086 214.828 358.8 214.447 359.321L212.635 361.799Z" fill="white" stroke="black" stroke-width="0.84795"/>
<path d="M209.606 357.543C208.937 357.647 208.249 357.597 207.711 357.376C207.186 357.161 206.821 356.795 206.705 356.243C206.638 355.926 206.609 355.565 206.645 355.163C206.681 354.76 206.775 354.411 206.897 354.11C207.109 353.588 207.533 353.293 208.089 353.175C208.657 353.054 209.343 353.127 209.983 353.349L212.883 354.353C213.494 354.565 213.882 355.165 213.824 355.808C213.766 356.451 213.277 356.972 212.639 357.072L209.606 357.543Z" fill="white" stroke="black" stroke-width="0.84795"/>
<circle cx="216.822" cy="355.87" r="3.39169" transform="rotate(-39.8659 216.822 355.87)" fill="#FFFDE7" stroke="black" stroke-width="0.84795"/>
<path d="M196.514 351.538C195.968 351.139 195.517 350.616 195.293 350.08C195.073 349.556 195.074 349.04 195.382 348.568C195.56 348.296 195.794 348.02 196.104 347.761C196.414 347.502 196.727 347.321 197.026 347.195C197.545 346.976 198.054 347.067 198.53 347.376C199.018 347.693 199.451 348.23 199.747 348.838L201.088 351.6C201.37 352.181 201.22 352.879 200.724 353.293C200.228 353.707 199.514 353.73 198.993 353.349L196.514 351.538Z" fill="white" stroke="black" stroke-width="0.84795"/>
<path d="M204.555 361.166C204.85 361.774 205.284 362.311 205.771 362.628C206.248 362.937 206.756 363.028 207.275 362.809C207.574 362.683 207.887 362.502 208.198 362.243C208.508 361.984 208.742 361.708 208.919 361.436C209.227 360.965 209.228 360.448 209.009 359.924C208.784 359.388 208.333 358.866 207.787 358.466L205.309 356.655C204.788 356.274 204.073 356.297 203.578 356.711C203.082 357.125 202.932 357.823 203.214 358.404L204.555 361.166Z" fill="white" stroke="black" stroke-width="0.84795"/>
<path d="M200.875 347.973C200.771 347.305 200.822 346.616 201.042 346.079C201.257 345.553 201.624 345.188 202.175 345.072C202.493 345.006 202.853 344.976 203.255 345.013C203.658 345.049 204.007 345.142 204.308 345.264C204.83 345.476 205.125 345.9 205.243 346.456C205.364 347.025 205.291 347.711 205.07 348.35L204.065 351.251C203.854 351.861 203.254 352.249 202.611 352.191C201.967 352.133 201.446 351.645 201.347 351.006L200.875 347.973Z" fill="white" stroke="black" stroke-width="0.84795"/>
<path d="M206.103 348.958C206.502 348.412 207.025 347.961 207.561 347.736C208.085 347.517 208.601 347.518 209.073 347.826C209.345 348.003 209.621 348.238 209.88 348.548C210.139 348.858 210.32 349.171 210.446 349.47C210.665 349.989 210.574 350.498 210.265 350.974C209.948 351.462 209.411 351.895 208.803 352.19L206.041 353.531C205.46 353.813 204.762 353.663 204.348 353.168C203.934 352.672 203.911 351.958 204.292 351.436L206.103 348.958Z" fill="white" stroke="black" stroke-width="0.84795"/>
<path d="M209.133 353.214C209.801 353.111 210.489 353.161 211.027 353.381C211.553 353.597 211.917 353.963 212.033 354.514C212.1 354.832 212.129 355.192 212.093 355.595C212.057 355.997 211.964 356.347 211.842 356.647C211.629 357.169 211.205 357.464 210.65 357.582C210.081 357.703 209.395 357.63 208.756 357.409L205.855 356.404C205.245 356.193 204.857 355.593 204.915 354.95C204.973 354.306 205.461 353.785 206.099 353.686L209.133 353.214Z" fill="white" stroke="black" stroke-width="0.84795"/>
<path d="M203.341 361.931C203.445 362.599 203.395 363.287 203.175 363.825C202.959 364.351 202.593 364.715 202.042 364.831C201.724 364.898 201.364 364.927 200.961 364.891C200.559 364.855 200.209 364.762 199.909 364.64C199.387 364.427 199.091 364.003 198.973 363.448C198.852 362.879 198.926 362.193 199.147 361.554L200.152 358.653C200.363 358.043 200.963 357.655 201.606 357.713C202.249 357.771 202.771 358.259 202.87 358.897L203.341 361.931Z" fill="white" stroke="black" stroke-width="0.84795"/>
<path d="M198.114 360.946C197.714 361.492 197.192 361.943 196.656 362.167C196.132 362.387 195.616 362.386 195.144 362.078C194.872 361.9 194.596 361.666 194.337 361.356C194.078 361.046 193.897 360.733 193.771 360.434C193.552 359.915 193.643 359.406 193.952 358.93C194.269 358.442 194.806 358.009 195.414 357.713L198.176 356.373C198.757 356.09 199.455 356.24 199.869 356.736C200.283 357.232 200.306 357.946 199.925 358.467L198.114 360.946Z" fill="white" stroke="black" stroke-width="0.84795"/>
<path d="M195.084 356.689C194.416 356.793 193.727 356.743 193.19 356.523C192.664 356.307 192.299 355.941 192.183 355.39C192.117 355.072 192.087 354.712 192.124 354.309C192.16 353.907 192.253 353.557 192.375 353.257C192.587 352.735 193.011 352.439 193.567 352.321C194.136 352.2 194.822 352.273 195.461 352.495L198.362 353.499C198.972 353.711 199.36 354.311 199.302 354.954C199.244 355.597 198.756 356.119 198.117 356.218L195.084 356.689Z" fill="white" stroke="black" stroke-width="0.84795"/>
<circle cx="202.3" cy="355.017" r="3.39169" transform="rotate(-39.8659 202.3 355.017)" fill="#FFFDE7" stroke="black" stroke-width="0.84795"/>
<path d="M186.684 347.043C186.138 346.644 185.687 346.122 185.462 345.586C185.243 345.062 185.244 344.545 185.552 344.073C185.729 343.802 185.964 343.526 186.274 343.267C186.584 343.008 186.897 342.827 187.196 342.701C187.715 342.482 188.224 342.573 188.7 342.882C189.188 343.199 189.621 343.735 189.917 344.344L191.257 347.105C191.539 347.686 191.389 348.385 190.894 348.799C190.398 349.213 189.684 349.236 189.162 348.855L186.684 347.043Z" fill="white" stroke="black" stroke-width="0.84795"/>
<path d="M194.725 356.671C195.02 357.28 195.453 357.817 195.941 358.133C196.417 358.443 196.926 358.534 197.445 358.315C197.744 358.189 198.057 358.007 198.367 357.748C198.678 357.489 198.912 357.214 199.089 356.942C199.397 356.47 199.398 355.954 199.179 355.43C198.954 354.893 198.503 354.371 197.957 353.972L195.479 352.161C194.957 351.779 194.243 351.802 193.747 352.216C193.252 352.63 193.102 353.329 193.384 353.91L194.725 356.671Z" fill="white" stroke="black" stroke-width="0.84795"/>
<path d="M191.045 343.479C190.941 342.81 190.991 342.122 191.212 341.584C191.427 341.059 191.793 340.694 192.345 340.578C192.662 340.511 193.023 340.482 193.425 340.518C193.828 340.554 194.177 340.647 194.478 340.77C195 340.982 195.295 341.406 195.413 341.962C195.534 342.53 195.461 343.216 195.239 343.856L194.235 346.756C194.023 347.366 193.424 347.754 192.78 347.697C192.137 347.639 191.616 347.15 191.516 346.512L191.045 343.479Z" fill="white" stroke="black" stroke-width="0.84795"/>
<path d="M196.273 344.464C196.672 343.918 197.194 343.467 197.73 343.242C198.254 343.023 198.771 343.024 199.243 343.332C199.515 343.509 199.79 343.743 200.049 344.053C200.308 344.364 200.49 344.676 200.616 344.975C200.835 345.495 200.744 346.003 200.434 346.48C200.118 346.967 199.581 347.401 198.972 347.696L196.211 349.037C195.63 349.319 194.931 349.169 194.517 348.673C194.103 348.177 194.08 347.463 194.461 346.942L196.273 344.464Z" fill="white" stroke="black" stroke-width="0.84795"/>
<path d="M199.302 348.72C199.971 348.616 200.659 348.666 201.197 348.887C201.723 349.102 202.087 349.468 202.203 350.02C202.27 350.337 202.299 350.698 202.263 351.1C202.227 351.503 202.134 351.852 202.011 352.153C201.799 352.675 201.375 352.97 200.819 353.088C200.251 353.209 199.565 353.136 198.926 352.914L196.025 351.91C195.415 351.698 195.027 351.099 195.085 350.455C195.142 349.812 195.631 349.291 196.269 349.191L199.302 348.72Z" fill="white" stroke="black" stroke-width="0.84795"/>
<path d="M193.511 357.436C193.615 358.105 193.565 358.793 193.344 359.331C193.129 359.856 192.763 360.221 192.211 360.337C191.894 360.404 191.533 360.433 191.131 360.397C190.728 360.361 190.379 360.268 190.078 360.145C189.556 359.933 189.261 359.509 189.143 358.953C189.022 358.385 189.095 357.699 189.317 357.059L190.321 354.159C190.533 353.548 191.133 353.161 191.776 353.218C192.419 353.276 192.94 353.765 193.04 354.403L193.511 357.436Z" fill="white" stroke="black" stroke-width="0.84795"/>
<path d="M188.283 356.451C187.884 356.997 187.362 357.448 186.826 357.673C186.302 357.892 185.785 357.891 185.313 357.583C185.042 357.406 184.766 357.172 184.507 356.862C184.248 356.551 184.067 356.239 183.941 355.939C183.722 355.42 183.813 354.912 184.122 354.435C184.439 353.948 184.975 353.514 185.584 353.219L188.345 351.878C188.926 351.596 189.625 351.746 190.039 352.242C190.453 352.738 190.476 353.452 190.095 353.973L188.283 356.451Z" fill="white" stroke="black" stroke-width="0.84795"/>
<path d="M185.254 352.195C184.585 352.299 183.897 352.248 183.359 352.028C182.834 351.813 182.469 351.447 182.353 350.895C182.286 350.578 182.257 350.217 182.293 349.815C182.329 349.412 182.422 349.063 182.545 348.762C182.757 348.24 183.181 347.945 183.737 347.827C184.305 347.706 184.991 347.779 185.631 348L188.531 349.005C189.142 349.216 189.53 349.816 189.472 350.46C189.414 351.103 188.925 351.624 188.287 351.723L185.254 352.195Z" fill="white" stroke="black" stroke-width="0.84795"/>
<circle cx="192.47" cy="350.522" r="3.39169" transform="rotate(-39.8659 192.47 350.522)" fill="#FFFDE7" stroke="black" stroke-width="0.84795"/>
<path d="M180.778 357.498C180.232 357.099 179.781 356.577 179.556 356.041C179.337 355.517 179.338 355 179.646 354.528C179.823 354.256 180.058 353.981 180.368 353.722C180.678 353.463 180.991 353.281 181.29 353.155C181.809 352.937 182.318 353.028 182.794 353.337C183.282 353.653 183.715 354.19 184.011 354.799L185.351 357.56C185.633 358.141 185.483 358.84 184.988 359.254C184.492 359.668 183.778 359.691 183.256 359.31L180.778 357.498Z" fill="white" stroke="black" stroke-width="0.84795"/>
<path d="M188.819 367.126C189.114 367.735 189.547 368.272 190.035 368.588C190.511 368.897 191.02 368.988 191.539 368.77C191.838 368.644 192.151 368.462 192.461 368.203C192.772 367.944 193.006 367.669 193.183 367.397C193.491 366.925 193.492 366.408 193.273 365.884C193.048 365.348 192.597 364.826 192.051 364.427L189.573 362.615C189.051 362.234 188.337 362.257 187.841 362.671C187.346 363.085 187.196 363.784 187.478 364.365L188.819 367.126Z" fill="white" stroke="black" stroke-width="0.84795"/>
<path d="M185.139 353.933C185.035 353.265 185.085 352.577 185.306 352.039C185.521 351.513 185.887 351.149 186.439 351.033C186.756 350.966 187.117 350.937 187.519 350.973C187.922 351.009 188.271 351.102 188.572 351.224C189.094 351.437 189.389 351.861 189.507 352.416C189.628 352.985 189.555 353.671 189.333 354.31L188.329 357.211C188.118 357.821 187.518 358.209 186.874 358.151C186.231 358.094 185.71 357.605 185.611 356.967L185.139 353.933Z" fill="white" stroke="black" stroke-width="0.84795"/>
<path d="M190.367 354.919C190.766 354.372 191.288 353.921 191.824 353.697C192.348 353.477 192.865 353.478 193.337 353.786C193.609 353.964 193.884 354.198 194.143 354.508C194.402 354.818 194.584 355.131 194.71 355.43C194.929 355.949 194.838 356.458 194.528 356.934C194.212 357.422 193.675 357.855 193.066 358.151L190.305 359.492C189.724 359.774 189.025 359.624 188.611 359.128C188.197 358.632 188.174 357.918 188.555 357.397L190.367 354.919Z" fill="white" stroke="black" stroke-width="0.84795"/>
<path d="M193.396 359.175C194.065 359.071 194.753 359.121 195.291 359.342C195.817 359.557 196.181 359.923 196.297 360.474C196.364 360.792 196.393 361.152 196.357 361.555C196.321 361.957 196.228 362.307 196.105 362.608C195.893 363.129 195.469 363.425 194.914 363.543C194.345 363.664 193.659 363.591 193.02 363.369L190.119 362.365C189.509 362.153 189.121 361.553 189.179 360.91C189.236 360.267 189.725 359.745 190.363 359.646L193.396 359.175Z" fill="white" stroke="black" stroke-width="0.84795"/>
<path d="M187.605 367.891C187.709 368.56 187.659 369.248 187.438 369.786C187.223 370.311 186.857 370.676 186.305 370.792C185.988 370.858 185.627 370.888 185.225 370.852C184.822 370.815 184.473 370.722 184.172 370.6C183.651 370.388 183.355 369.964 183.237 369.408C183.116 368.84 183.189 368.153 183.411 367.514L184.415 364.614C184.627 364.003 185.227 363.615 185.87 363.673C186.513 363.731 187.034 364.22 187.134 364.858L187.605 367.891Z" fill="white" stroke="black" stroke-width="0.84795"/>
<path d="M182.377 366.906C181.978 367.452 181.456 367.903 180.92 368.128C180.396 368.347 179.879 368.346 179.407 368.038C179.136 367.861 178.86 367.627 178.601 367.316C178.342 367.006 178.161 366.693 178.035 366.394C177.816 365.875 177.907 365.366 178.216 364.89C178.533 364.402 179.069 363.969 179.678 363.674L182.439 362.333C183.02 362.051 183.719 362.201 184.133 362.697C184.547 363.192 184.57 363.906 184.189 364.428L182.377 366.906Z" fill="white" stroke="black" stroke-width="0.84795"/>
<path d="M179.348 362.65C178.679 362.754 177.991 362.703 177.453 362.483C176.928 362.268 176.563 361.901 176.447 361.35C176.38 361.032 176.351 360.672 176.387 360.27C176.423 359.867 176.517 359.518 176.639 359.217C176.851 358.695 177.275 358.4 177.831 358.282C178.399 358.161 179.085 358.234 179.725 358.455L182.625 359.46C183.236 359.671 183.624 360.271 183.566 360.914C183.508 361.558 183.019 362.079 182.381 362.178L179.348 362.65Z" fill="white" stroke="black" stroke-width="0.84795"/>
<circle cx="186.564" cy="360.977" r="3.39169" transform="rotate(-39.8659 186.564 360.977)" fill="#FFFDE7" stroke="black" stroke-width="0.84795"/>
<path d="M165.603 380.667C165.057 380.268 164.606 379.746 164.381 379.21C164.162 378.686 164.163 378.169 164.471 377.697C164.648 377.425 164.882 377.15 165.192 376.891C165.503 376.632 165.816 376.45 166.115 376.324C166.634 376.105 167.142 376.196 167.619 376.506C168.106 376.822 168.54 377.359 168.835 377.968L170.176 380.729C170.458 381.31 170.308 382.009 169.812 382.423C169.317 382.837 168.603 382.86 168.081 382.479L165.603 380.667Z" fill="white" stroke="black" stroke-width="0.84795"/>
<path d="M173.643 390.295C173.939 390.904 174.372 391.441 174.86 391.757C175.336 392.066 175.845 392.157 176.364 391.938C176.663 391.812 176.976 391.631 177.286 391.372C177.596 391.113 177.83 390.837 178.008 390.566C178.316 390.094 178.317 389.577 178.097 389.053C177.873 388.517 177.422 387.995 176.876 387.596L174.397 385.784C173.876 385.403 173.162 385.426 172.666 385.84C172.17 386.254 172.02 386.953 172.303 387.534L173.643 390.295Z" fill="white" stroke="black" stroke-width="0.84795"/>
<path d="M169.964 377.102C169.86 376.434 169.91 375.746 170.131 375.208C170.346 374.682 170.712 374.318 171.263 374.202C171.581 374.135 171.941 374.106 172.344 374.142C172.746 374.178 173.096 374.271 173.396 374.393C173.918 374.606 174.214 375.03 174.332 375.585C174.453 376.154 174.38 376.84 174.158 377.479L173.154 380.38C172.942 380.99 172.342 381.378 171.699 381.32C171.056 381.262 170.534 380.774 170.435 380.136L169.964 377.102Z" fill="white" stroke="black" stroke-width="0.84795"/>
<path d="M175.192 378.087C175.591 377.541 176.113 377.09 176.649 376.866C177.173 376.646 177.69 376.647 178.162 376.955C178.433 377.133 178.709 377.367 178.968 377.677C179.227 377.987 179.408 378.3 179.534 378.599C179.753 379.118 179.662 379.627 179.353 380.103C179.036 380.591 178.5 381.024 177.891 381.32L175.13 382.66C174.549 382.943 173.85 382.793 173.436 382.297C173.022 381.801 172.999 381.087 173.38 380.566L175.192 378.087Z" fill="white" stroke="black" stroke-width="0.84795"/>
<path d="M178.221 382.344C178.89 382.24 179.578 382.29 180.116 382.51C180.641 382.726 181.006 383.092 181.122 383.643C181.189 383.961 181.218 384.321 181.182 384.724C181.146 385.126 181.053 385.476 180.93 385.776C180.718 386.298 180.294 386.593 179.738 386.712C179.17 386.833 178.484 386.759 177.844 386.538L174.944 385.533C174.333 385.322 173.946 384.722 174.003 384.079C174.061 383.436 174.55 382.914 175.188 382.815L178.221 382.344Z" fill="white" stroke="black" stroke-width="0.84795"/>
<path d="M172.43 391.06C172.534 391.728 172.483 392.416 172.263 392.954C172.048 393.48 171.682 393.845 171.13 393.961C170.813 394.027 170.452 394.057 170.05 394.02C169.647 393.984 169.298 393.891 168.997 393.769C168.475 393.557 168.18 393.132 168.062 392.577C167.941 392.008 168.014 391.322 168.235 390.683L169.24 387.782C169.451 387.172 170.051 386.784 170.695 386.842C171.338 386.9 171.859 387.388 171.958 388.027L172.43 391.06Z" fill="white" stroke="black" stroke-width="0.84795"/>
<path d="M167.202 390.075C166.803 390.621 166.281 391.072 165.745 391.297C165.221 391.516 164.704 391.515 164.232 391.207C163.96 391.03 163.685 390.795 163.426 390.485C163.167 390.175 162.985 389.862 162.859 389.563C162.64 389.044 162.732 388.535 163.041 388.059C163.357 387.571 163.894 387.138 164.503 386.842L167.264 385.502C167.845 385.22 168.544 385.37 168.958 385.865C169.372 386.361 169.395 387.075 169.014 387.597L167.202 390.075Z" fill="white" stroke="black" stroke-width="0.84795"/>
<path d="M164.173 385.818C163.504 385.922 162.816 385.872 162.278 385.652C161.752 385.436 161.388 385.07 161.272 384.519C161.205 384.201 161.176 383.841 161.212 383.438C161.248 383.036 161.341 382.686 161.464 382.386C161.676 381.864 162.1 381.569 162.656 381.45C163.224 381.329 163.91 381.403 164.549 381.624L167.45 382.629C168.06 382.84 168.448 383.44 168.39 384.083C168.333 384.727 167.844 385.248 167.206 385.347L164.173 385.818Z" fill="white" stroke="black" stroke-width="0.84795"/>
<circle cx="171.388" cy="384.146" r="3.39169" transform="rotate(-39.8659 171.388 384.146)" fill="#FFFDE7" stroke="black" stroke-width="0.84795"/>
<path d="M169.464 361.149C168.918 360.75 168.467 360.228 168.242 359.692C168.023 359.168 168.024 358.651 168.332 358.179C168.509 357.908 168.743 357.632 169.053 357.373C169.364 357.114 169.676 356.933 169.975 356.807C170.495 356.588 171.003 356.679 171.48 356.988C171.967 357.304 172.401 357.841 172.696 358.45L174.037 361.211C174.319 361.792 174.169 362.491 173.673 362.905C173.177 363.319 172.463 363.342 171.942 362.961L169.464 361.149Z" fill="white" stroke="black" stroke-width="0.84795"/>
<path d="M177.504 370.777C177.8 371.386 178.233 371.923 178.721 372.239C179.197 372.549 179.706 372.64 180.225 372.421C180.524 372.295 180.837 372.113 181.147 371.854C181.457 371.595 181.691 371.32 181.869 371.048C182.176 370.576 182.178 370.059 181.958 369.535C181.734 368.999 181.283 368.477 180.736 368.078L178.258 366.267C177.737 365.885 177.023 365.908 176.527 366.322C176.031 366.736 175.881 367.435 176.163 368.016L177.504 370.777Z" fill="white" stroke="black" stroke-width="0.84795"/>
<path d="M173.825 357.585C173.721 356.916 173.771 356.228 173.991 355.69C174.207 355.164 174.573 354.8 175.124 354.684C175.442 354.617 175.802 354.588 176.205 354.624C176.607 354.66 176.957 354.753 177.257 354.876C177.779 355.088 178.074 355.512 178.193 356.068C178.314 356.636 178.24 357.322 178.019 357.962L177.014 360.862C176.803 361.472 176.203 361.86 175.56 361.803C174.916 361.745 174.395 361.256 174.296 360.618L173.825 357.585Z" fill="white" stroke="black" stroke-width="0.84795"/>
<path d="M179.052 358.57C179.452 358.024 179.974 357.572 180.51 357.348C181.034 357.129 181.551 357.13 182.022 357.438C182.294 357.615 182.57 357.849 182.829 358.159C183.088 358.469 183.269 358.782 183.395 359.081C183.614 359.601 183.523 360.109 183.214 360.586C182.897 361.073 182.36 361.507 181.752 361.802L178.99 363.143C178.409 363.425 177.711 363.275 177.297 362.779C176.883 362.283 176.86 361.569 177.241 361.048L179.052 358.57Z" fill="white" stroke="black" stroke-width="0.84795"/>
<path d="M182.082 362.826C182.751 362.722 183.439 362.772 183.977 362.993C184.502 363.208 184.867 363.574 184.983 364.126C185.049 364.443 185.079 364.804 185.043 365.206C185.006 365.609 184.913 365.958 184.791 366.259C184.579 366.781 184.155 367.076 183.599 367.194C183.031 367.315 182.344 367.242 181.705 367.02L178.805 366.016C178.194 365.804 177.806 365.204 177.864 364.561C177.922 363.918 178.411 363.397 179.049 363.297L182.082 362.826Z" fill="white" stroke="black" stroke-width="0.84795"/>
<path d="M176.291 371.542C176.394 372.211 176.344 372.899 176.124 373.437C175.909 373.962 175.542 374.327 174.991 374.443C174.673 374.51 174.313 374.539 173.91 374.503C173.508 374.467 173.159 374.374 172.858 374.251C172.336 374.039 172.041 373.615 171.923 373.059C171.802 372.491 171.875 371.805 172.096 371.165L173.101 368.265C173.312 367.654 173.912 367.267 174.555 367.324C175.199 367.382 175.72 367.871 175.819 368.509L176.291 371.542Z" fill="white" stroke="black" stroke-width="0.84795"/>
<path d="M171.063 370.557C170.664 371.103 170.142 371.554 169.605 371.779C169.082 371.998 168.565 371.997 168.093 371.689C167.821 371.512 167.546 371.278 167.287 370.968C167.028 370.657 166.846 370.344 166.72 370.045C166.501 369.526 166.592 369.018 166.902 368.541C167.218 368.054 167.755 367.62 168.364 367.325L171.125 365.984C171.706 365.702 172.405 365.852 172.819 366.348C173.233 366.843 173.256 367.557 172.874 368.079L171.063 370.557Z" fill="white" stroke="black" stroke-width="0.84795"/>
<path d="M168.033 366.301C167.365 366.405 166.677 366.354 166.139 366.134C165.613 365.919 165.249 365.553 165.133 365.001C165.066 364.684 165.037 364.323 165.073 363.921C165.109 363.518 165.202 363.169 165.324 362.868C165.537 362.346 165.961 362.051 166.516 361.933C167.085 361.812 167.771 361.885 168.41 362.106L171.311 363.111C171.921 363.322 172.309 363.922 172.251 364.566C172.194 365.209 171.705 365.73 171.067 365.829L168.033 366.301Z" fill="white" stroke="black" stroke-width="0.84795"/>
<circle cx="175.249" cy="364.628" r="3.39169" transform="rotate(-39.8659 175.249 364.628)" fill="#FFFDE7" stroke="black" stroke-width="0.84795"/>
<path d="M170.887 372.113C170.341 371.714 169.889 371.192 169.665 370.655C169.446 370.132 169.447 369.615 169.755 369.143C169.932 368.871 170.166 368.596 170.476 368.337C170.786 368.078 171.099 367.896 171.398 367.77C171.918 367.551 172.426 367.642 172.903 367.952C173.39 368.268 173.824 368.805 174.119 369.414L175.46 372.175C175.742 372.756 175.592 373.455 175.096 373.869C174.6 374.283 173.886 374.306 173.365 373.924L170.887 372.113Z" fill="white" stroke="black" stroke-width="0.84795"/>
<path d="M178.927 381.741C179.223 382.35 179.656 382.886 180.143 383.203C180.62 383.512 181.129 383.603 181.648 383.384C181.947 383.258 182.26 383.077 182.57 382.818C182.88 382.559 183.114 382.283 183.292 382.012C183.599 381.54 183.601 381.023 183.381 380.499C183.157 379.963 182.706 379.441 182.159 379.042L179.681 377.23C179.16 376.849 178.446 376.872 177.95 377.286C177.454 377.7 177.304 378.399 177.586 378.98L178.927 381.741Z" fill="white" stroke="black" stroke-width="0.84795"/>
<path d="M175.248 368.548C175.144 367.88 175.194 367.192 175.414 366.654C175.63 366.128 175.996 365.764 176.547 365.648C176.865 365.581 177.225 365.552 177.628 365.588C178.03 365.624 178.38 365.717 178.68 365.839C179.202 366.052 179.497 366.476 179.616 367.031C179.737 367.6 179.663 368.286 179.442 368.925L178.437 371.826C178.226 372.436 177.626 372.824 176.983 372.766C176.339 372.708 175.818 372.22 175.719 371.582L175.248 368.548Z" fill="white" stroke="black" stroke-width="0.84795"/>
<path d="M180.475 369.533C180.875 368.987 181.397 368.536 181.933 368.312C182.457 368.092 182.974 368.093 183.445 368.401C183.717 368.578 183.993 368.813 184.252 369.123C184.511 369.433 184.692 369.746 184.818 370.045C185.037 370.564 184.946 371.073 184.637 371.549C184.32 372.037 183.783 372.47 183.175 372.766L180.413 374.106C179.832 374.388 179.134 374.238 178.72 373.743C178.306 373.247 178.283 372.533 178.664 372.011L180.475 369.533Z" fill="white" stroke="black" stroke-width="0.84795"/>
<path d="M183.505 373.79C184.173 373.686 184.862 373.736 185.4 373.956C185.925 374.172 186.29 374.538 186.406 375.089C186.472 375.407 186.502 375.767 186.466 376.17C186.429 376.572 186.336 376.922 186.214 377.222C186.002 377.744 185.578 378.039 185.022 378.158C184.454 378.279 183.767 378.205 183.128 377.984L180.228 376.979C179.617 376.768 179.229 376.168 179.287 375.525C179.345 374.881 179.834 374.36 180.472 374.261L183.505 373.79Z" fill="white" stroke="black" stroke-width="0.84795"/>
<path d="M177.714 382.506C177.817 383.174 177.767 383.862 177.547 384.4C177.331 384.926 176.965 385.291 176.414 385.406C176.096 385.473 175.736 385.503 175.333 385.466C174.931 385.43 174.581 385.337 174.281 385.215C173.759 385.002 173.464 384.578 173.346 384.023C173.225 383.454 173.298 382.768 173.519 382.129L174.524 379.228C174.735 378.618 175.335 378.23 175.978 378.288C176.622 378.346 177.143 378.834 177.242 379.473L177.714 382.506Z" fill="white" stroke="black" stroke-width="0.84795"/>
<path d="M172.486 381.521C172.087 382.067 171.565 382.518 171.028 382.742C170.504 382.962 169.988 382.961 169.516 382.653C169.244 382.476 168.969 382.241 168.71 381.931C168.45 381.621 168.269 381.308 168.143 381.009C167.924 380.49 168.015 379.981 168.325 379.505C168.641 379.017 169.178 378.584 169.787 378.288L172.548 376.948C173.129 376.666 173.828 376.816 174.242 377.311C174.656 377.807 174.679 378.521 174.297 379.043L172.486 381.521Z" fill="white" stroke="black" stroke-width="0.84795"/>
<path d="M169.456 377.264C168.788 377.368 168.1 377.318 167.562 377.098C167.036 376.882 166.672 376.516 166.556 375.965C166.489 375.647 166.46 375.287 166.496 374.884C166.532 374.482 166.625 374.132 166.747 373.832C166.96 373.31 167.384 373.015 167.939 372.896C168.508 372.775 169.194 372.849 169.833 373.07L172.734 374.075C173.344 374.286 173.732 374.886 173.674 375.529C173.616 376.173 173.128 376.694 172.49 376.793L169.456 377.264Z" fill="white" stroke="black" stroke-width="0.84795"/>
<circle cx="176.672" cy="375.592" r="3.39169" transform="rotate(-39.8659 176.672 375.592)" fill="#FFFDE7" stroke="black" stroke-width="0.84795"/>
<path d="M220.715 440.266C217.813 439.975 217.807 425.197 218.034 424.457C218.262 423.716 227.243 416.707 228.584 416.751C230.261 416.806 240.207 424.618 239.962 426.277C239.717 427.937 234.382 434.28 231.713 436.509C229.044 438.738 224.078 440.604 220.715 440.266Z" fill="#FFEBEB" stroke="black" stroke-width="1.81347" stroke-linecap="round" stroke-linejoin="round"/>
<path d="M176.052 416.164C176.052 409.782 181.751 402.708 185.249 400.361C185.249 400.361 187.724 402.304 192.373 405.413L196.173 403.125C198.605 401.543 201.341 400.014 204.42 398.16C210.23 395.522 219.315 392.586 222.828 392.154C229.808 391.295 229.29 393.885 226.7 395.31C230.531 395.634 232.332 394.728 232.689 396.574C233.047 398.42 230.216 398.49 227.934 399.175C231.787 399.385 232.689 398.924 232.689 400.751C232.689 402.579 228.241 403.012 225.381 402.579C228.946 403.757 229.632 403.99 229.397 405.415C229.161 406.839 225.983 406.476 222.828 405.983C225.016 406.325 224.876 407.215 224.497 408.135C224.119 409.054 217.674 407.097 214.956 408.536C211.339 410.451 210.064 411.876 196.907 422.641C186.933 430.802 176.052 427.848 176.052 416.164Z" fill="#FBC02D"/>
<path d="M189.639 408.536C193.386 404.321 198.202 401.904 204.42 398.16M204.42 398.16C210.23 395.522 219.315 392.586 222.828 392.154C229.808 391.295 229.29 393.885 226.7 395.31C230.531 395.634 232.332 394.728 232.689 396.574C233.047 398.42 230.216 398.49 227.934 399.175C231.787 399.385 232.689 398.924 232.689 400.751C232.689 402.579 228.241 403.012 225.381 402.579C228.946 403.757 229.632 403.99 229.397 405.415C229.161 406.839 225.983 406.476 222.828 405.983C225.016 406.325 224.876 407.215 224.497 408.135C224.119 409.054 217.674 407.097 214.956 408.536C211.339 410.451 210.064 411.876 196.907 422.641C186.933 430.802 176.052 427.848 176.052 416.164C176.052 409.782 181.751 402.708 185.249 400.361C185.249 400.361 187.724 402.304 192.373 405.413L204.42 398.16Z" stroke="black" stroke-width="1.81347" stroke-linecap="round" stroke-linejoin="round"/>
<ellipse cx="232.529" cy="369.663" rx="1.5544" ry="1.94301" fill="black"/>
<ellipse cx="254.808" cy="369.663" rx="1.5544" ry="1.94301" fill="black"/>
<path d="M229.586 339.298C229.549 339.459 229.615 339.598 229.726 339.668C231.871 341.019 238.499 344.91 246.217 346.688C253.92 348.462 261.395 347.827 263.861 347.536C263.988 347.521 264.107 347.426 264.143 347.267L267.201 333.992C267.258 333.743 267.061 333.493 266.792 333.501C264.917 333.551 261.732 333.606 258.452 333.519C255.193 333.432 251.766 333.205 249.445 332.67C247.118 332.134 243.883 330.824 240.858 329.46C237.813 328.088 234.911 326.629 233.224 325.76C232.985 325.637 232.7 325.776 232.643 326.024L229.586 339.298Z" fill="#293154" stroke="black" stroke-width="1.81347"/>
<path d="M224.771 325.228C224.519 325.04 224.582 324.655 224.882 324.559L252.605 315.648C252.745 315.603 252.9 315.638 253.006 315.74L273.926 335.859C274.152 336.076 274.039 336.448 273.73 336.507L247.013 341.587C246.903 341.608 246.788 341.581 246.698 341.514L224.771 325.228Z" fill="#1E2646" stroke="black" stroke-width="1.81347"/>
<path d="M293.057 391.016C301.506 400.525 309.294 413.508 306.368 421.068C302.375 431.383 281.91 428.709 265.242 417.593C257.188 412.223 255.924 411.243 256.622 409.818C257.319 408.393 260.776 409.208 260.378 409.042C254.95 406.776 255.326 402.154 262.193 405.186C258.25 402.206 258.178 395.794 266.524 402.27C262.201 398.657 262.456 392.719 270.388 400.519C269.057 397.901 273.072 398.16 275.813 402.154C277.937 405.248 279.813 409.301 283.57 412.014C281.394 400.937 288.988 393.4 293.057 391.016Z" fill="#FBC02D"/>
<path d="M294.451 413.684C291.213 415.239 286.223 413.929 283.57 412.014M283.57 412.014C279.813 409.301 277.937 405.248 275.813 402.154C273.072 398.16 269.057 397.901 270.388 400.519C262.193 392.46 262.193 399.066 266.969 402.622C258.176 395.569 258.182 402.154 262.193 405.186C255.326 402.154 254.95 406.776 260.378 409.042C260.776 409.208 257.319 408.393 256.622 409.818C255.924 411.243 257.188 412.223 265.242 417.593C281.91 428.709 302.375 431.383 306.368 421.068C309.294 413.508 301.506 400.525 293.057 391.016C288.988 393.4 281.394 400.937 283.57 412.014Z" stroke="black" stroke-width="1.81347" stroke-linecap="round" stroke-linejoin="round"/>
<path d="M110.02 498.482H110.927V497.575V470.813H126.492V497.575V505.579V512.675L86.7416 512.675C86.0627 512.675 85.6163 511.967 85.9093 511.355L86.7811 509.533C90.0404 502.722 95.7506 498.482 103.177 498.482H110.02Z" fill="#FFFDE7" stroke="black" stroke-width="1.81347"/>
<path d="M148.708 498.482H147.801V497.575V470.813H132.236V497.575V505.579V512.675L171.987 512.675C172.666 512.675 173.112 511.967 172.819 511.355L171.947 509.533C168.688 502.722 162.978 498.482 155.551 498.482H148.708Z" fill="#FFFDE7" stroke="black" stroke-width="1.81347"/>
<path d="M80.5826 433.484C85.6591 432.965 93.5733 432.691 96.8958 432.618C94.6316 438.742 89.7898 451.194 88.5362 452.008C86.9692 453.025 80.488 454.736 72.5114 450.865C63.7031 446.591 60.7228 438.323 59.975 430.242C59.3767 423.778 57.4935 421.602 56.6267 421.323C48.2149 416.229 49.3583 413.534 50.9815 412.823C48.1303 410.013 50.5142 408.672 52.0626 408.352C47.6773 403.866 52.5982 404.492 55.6069 405.366C54.5339 404.452 52.5632 402.679 54.5063 401.772C56.4493 400.865 63.7074 405.99 66.7577 408.622C67.7984 399.337 71.8789 407.867 74.0135 411.75C76.1482 415.633 74.237 434.134 80.5826 433.484Z" fill="#FFFDE7" stroke="black" stroke-width="1.81347" stroke-linejoin="round"/>
<path d="M188.385 482.146C189.578 491.413 183.589 484.094 180.594 480.829C172.926 472.469 168.433 458.067 152.106 456.998C152.852 450.512 157.089 439.015 158.114 437.927C164.905 430.718 180.605 452.681 185.022 458.557C189.44 464.432 194.304 467.338 195.213 467.404C204.593 470.355 204.122 473.245 202.714 474.321C206.15 476.374 204.153 478.243 202.725 478.921C208.049 482.238 203.12 482.797 199.99 482.662C201.249 483.296 203.585 484.551 201.912 485.893C200.24 487.235 191.973 483.979 188.385 482.146Z" fill="#FFFDE7" stroke="black" stroke-width="1.81347" stroke-linejoin="round"/>
<path d="M110.957 399.675C116.351 383.074 139.836 383.074 145.23 399.675C147.885 407.846 155.499 413.378 164.091 413.378C181.546 413.378 188.803 435.714 174.682 445.974C167.731 451.024 164.823 459.976 167.478 468.147C172.871 484.747 153.871 498.552 139.75 488.292C132.799 483.242 123.387 483.242 116.436 488.292C102.315 498.552 83.3151 484.747 88.7089 468.147C91.3639 459.976 88.4554 451.024 81.5046 445.974C67.3833 435.714 74.6407 413.378 92.0955 413.378C100.687 413.378 108.302 407.846 110.957 399.675Z" fill="#FFFDE7" stroke="black" stroke-width="1.81347"/>
<path d="M135.438 438.819H125.179C125.013 438.819 124.89 438.972 124.931 439.133C125.478 441.281 126.976 444.777 130.24 444.777C133.516 444.777 135.28 441.257 135.687 439.111C135.717 438.957 135.595 438.819 135.438 438.819Z" stroke="black" stroke-width="1.81347"/>
<circle cx="116.435" cy="424.959" r="8.54922" stroke="black" stroke-width="1.81347"/>
<circle cx="138.715" cy="424.959" r="8.54922" stroke="black" stroke-width="1.81347"/>
<path d="M124.855 423.404C124.855 423.404 126.021 422.627 127.705 422.627C129.389 422.627 130.554 423.404 130.554 423.404" stroke="black" stroke-width="1.81347"/>
<ellipse cx="115.528" cy="423.663" rx="1.5544" ry="1.94301" fill="black"/>
<ellipse cx="137.808" cy="423.663" rx="1.5544" ry="1.94301" fill="black"/>
<path d="M62.6796 377.255C58.5692 379.901 60.1756 387.129 61.1205 388.925C61.8211 390.256 62.0369 392.15 62.2108 393.105C62.2856 393.516 62.6022 393.753 63.008 393.852C66.5371 394.716 68.0485 394.537 68.5854 394.358C68.8122 392.884 69.6249 391.618 71.0423 390.484C71.7862 389.889 74.066 388.027 74.7747 386.421C75.4834 384.815 76.0504 382.972 74.5385 379.475C73.0266 375.978 66.7901 374.609 62.6796 377.255Z" fill="#FFEB3B" stroke="black" stroke-width="1.5544"/>
<path d="M65.6453 399.083C65.6453 399.511 65.3174 399.829 64.9473 399.829C64.5772 399.829 64.2492 399.511 64.2492 399.083C64.2492 398.656 64.5772 398.338 64.9473 398.338C65.3174 398.338 65.6453 398.656 65.6453 399.083Z" fill="#CECECE" stroke="black" stroke-width="0.777202"/>
<path d="M62.9742 397.843C63.0188 397.484 63.372 397.249 63.7209 397.344C64.2016 397.474 64.8021 397.634 65.0075 397.671C65.2121 397.708 65.8293 397.697 66.3271 397.682C66.6897 397.67 66.9806 397.984 66.9358 398.344C66.9009 398.624 66.6704 398.839 66.3879 398.85C65.899 398.869 65.1751 398.887 64.8615 398.845C64.5497 398.804 63.8584 398.613 63.3889 398.477C63.1131 398.397 62.9387 398.128 62.9742 397.843Z" fill="#CECECE" stroke="black" stroke-width="0.777202"/>
<path d="M62.4829 396.386C62.5465 395.916 63.0134 395.612 63.4698 395.742C64.0987 395.92 64.8844 396.137 65.1535 396.189C65.4214 396.24 66.2314 396.235 66.8848 396.222C67.3608 396.212 67.738 396.627 67.6742 397.099C67.6245 397.467 67.319 397.746 66.9481 397.756C66.3064 397.773 65.3563 397.787 64.9453 397.728C64.5368 397.67 63.6324 397.409 63.0183 397.224C62.6574 397.115 62.4324 396.76 62.4829 396.386Z" fill="#CECECE" stroke="black" stroke-width="0.777202"/>
<path d="M61.5925 394.735C61.6857 394.046 62.3788 393.607 63.0457 393.803C63.8255 394.032 64.795 394.299 65.4459 394.417C66.0894 394.533 67.0803 394.531 67.8901 394.503C68.5915 394.478 69.1658 395.085 69.0717 395.781C69.0034 396.286 68.5964 396.677 68.0872 396.704C67.2783 396.746 66.0624 396.774 65.1459 396.635C64.2433 396.498 63.0991 396.164 62.3293 395.919C61.8264 395.758 61.5218 395.258 61.5925 394.735Z" fill="#CECECE" stroke="black" stroke-width="0.777202"/>
<path d="M64.5695 394.17C64.7427 391.697 64.7963 386.44 63.6246 385.193C62.1599 383.634 62.5851 387.697 65.5617 387.602C68.5382 387.508 68.6233 387.687 69.5304 386.893C70.8302 385.756 69.9602 384.245 68.5855 386.326C66.9318 388.831 66.6011 392.862 66.5539 394.5" stroke="black" stroke-width="0.777202"/>
<rect x="69.1956" y="369.424" width="1.24833" height="3.21885" rx="0.624165" transform="rotate(8.45901 69.1956 369.424)" fill="#FFEB3B" stroke="black" stroke-width="0.518135"/>
<rect x="60.8589" y="371.084" width="1.24833" height="3.21885" rx="0.624165" transform="rotate(-27.1532 60.8589 371.084)" fill="#FFEB3B" stroke="black" stroke-width="0.518135"/>
<rect x="54.742" y="378.194" width="1.24833" height="3.21885" rx="0.624165" transform="rotate(-60.3226 54.742 378.194)" fill="#FFEB3B" stroke="black" stroke-width="0.518135"/>
<rect x="77.3833" y="373.641" width="1.24833" height="3.21885" rx="0.624165" transform="rotate(44.5492 77.3833 373.641)" fill="#FFEB3B" stroke="black" stroke-width="0.518135"/>
<rect x="80.294" y="381.351" width="1.24833" height="3.21885" rx="0.624165" transform="rotate(78.8956 80.294 381.351)" fill="#FFEB3B" stroke="black" stroke-width="0.518135"/>
<path d="M227.02 549.482H227.927V548.575V521.813H243.492V548.575V556.579V563.675L203.742 563.675C203.063 563.675 202.616 562.967 202.909 562.355L203.781 560.533C207.04 553.722 212.751 549.482 220.177 549.482H227.02Z" fill="#FFEB3B" stroke="black" stroke-width="1.81347"/>
<path d="M265.708 549.482H264.801V548.575V521.813H249.236V548.575V556.579V563.675L288.987 563.675C289.666 563.675 290.112 562.967 289.819 562.355L288.948 560.533C285.688 553.722 279.978 549.482 272.551 549.482H265.708Z" fill="#FFEB3B" stroke="black" stroke-width="1.81347"/>
<path d="M227.957 450.675C233.351 434.074 256.836 434.074 262.23 450.675C264.885 458.846 272.499 464.378 281.091 464.378C298.546 464.378 305.803 486.714 291.682 496.974C284.731 502.024 281.823 510.976 284.478 519.147C289.871 535.747 270.871 549.552 256.75 539.292C249.799 534.242 240.387 534.242 233.436 539.292C219.315 549.552 200.315 535.747 205.709 519.147C208.364 510.976 205.455 502.024 198.505 496.974C184.383 486.714 191.641 464.378 209.096 464.378C217.687 464.378 225.302 458.846 227.957 450.675Z" fill="#FFEB3B" stroke="black" stroke-width="1.81347"/>
<ellipse cx="237.192" cy="486.062" rx="1.5544" ry="1.94301" fill="black"/>
<ellipse cx="261.026" cy="482.435" rx="4.40415" ry="5.56995" fill="black"/>
<ellipse cx="259.601" cy="480.363" rx="2.20207" ry="2.72021" fill="white"/>
<path d="M234.136 503.122L235.348 496.707L275.537 497.936L274.226 500.662C270.08 509.284 267.915 518.724 267.891 528.29H232.399V521.667C232.399 515.444 232.98 509.236 234.136 503.122Z" fill="white" stroke="black" stroke-width="1.81347"/>
<path d="M234.136 505.972L235.348 499.557L275.537 500.786L274.226 503.512C270.08 512.134 267.915 521.574 267.891 531.14H232.399V524.516C232.399 518.294 232.98 512.086 234.136 505.972Z" fill="white" stroke="black" stroke-width="1.81347"/>
<path d="M207.169 535.155C198.05 534.845 194.424 515.337 200.685 498.627C202.457 500.225 204.477 504.067 206.262 508.731C208.047 513.394 209.083 519.741 216.495 516.632C223.907 513.523 230.723 509.25 237.998 508.731C243.314 508.351 240.439 511.311 238.156 512.292C239.167 511.918 243.751 510.667 246.777 510.415C249.368 510.415 249.886 510.674 250.016 511.839C250.145 513.005 247.532 513.146 245.482 514.171C248.771 513.525 250.772 513.653 250.862 515.207C250.951 516.762 248.532 517.409 244.993 517.409C247.794 517.409 248.828 517.15 248.749 518.575C248.672 519.978 245.231 520.115 241.787 520.253L241.625 520.259C245.539 520.489 246.339 520.259 246.378 522.073C246.417 523.886 242.302 524.188 237.48 524.404C228.801 524.793 218.568 535.544 207.169 535.155Z" fill="#FFEB3B" stroke="black" stroke-width="1.81347" stroke-linejoin="round"/>
<circle cx="261.026" cy="481.788" r="12.4352" stroke="black" stroke-width="3.10881"/>
<rect x="272.166" y="488.625" width="3.10881" height="18.1642" transform="rotate(-60 272.166 488.625)" fill="black"/>
<path d="M321.777 492.023C317.777 485.106 310.182 484.299 299.368 480.105C299.67 483.348 300.042 489.691 294.964 493.706C293.409 492.929 293.021 492.54 291.337 492.022C288.551 491.165 285.03 491.643 283.704 491.824L283.682 491.827C281.419 491.357 280.586 490.985 280.067 492.151C279.549 493.317 281.375 494.508 283.284 495.806C280.551 494.794 279.549 494.258 279.031 495.601C278.513 496.943 280.557 498.706 283.286 499.871C280.55 499.167 279.938 498.368 279.161 499.663C278.384 500.959 281.314 502.629 282.776 503.784C280.546 502.464 277.332 503.572 281.972 506.921C287.429 510.859 301.149 510.159 306.865 508.862C312.58 507.565 327.995 502.773 321.777 492.023Z" fill="#FFEB3B"/>
<path d="M283.682 491.827C284.665 492.71 287.2 494.632 289.478 495.258M283.682 491.827C284.992 491.649 288.535 491.16 291.337 492.022C293.021 492.54 293.409 492.929 294.964 493.706M283.682 491.827C281.419 491.357 280.586 490.985 280.067 492.151C279.549 493.317 281.375 494.508 283.284 495.806C280.551 494.794 279.549 494.258 279.031 495.601C278.513 496.943 280.557 498.706 283.286 499.871C280.55 499.167 279.938 498.368 279.161 499.663C278.384 500.959 281.314 502.629 282.776 503.784C280.546 502.464 277.332 503.572 281.972 506.921C287.429 510.859 301.149 510.159 306.865 508.862C312.58 507.565 327.995 502.773 321.777 492.023C317.777 485.106 310.182 484.299 299.368 480.105C299.67 483.348 300.042 489.691 294.964 493.706M314.965 496.196C312.6 496.952 296.518 494.483 294.964 493.706" stroke="black" stroke-width="1.81347" stroke-linecap="round" stroke-linejoin="round"/>
</svg>
