<svg width="321" height="342" viewBox="0 0 321 342" fill="none" xmlns="http://www.w3.org/2000/svg">
<path d="M85.9272 153.575V126.813H101.492V153.575V161.579V168.675L61.7416 168.675C61.0627 168.675 60.6163 167.967 60.9093 167.355L61.7811 165.533C65.0404 158.722 70.7506 154.482 78.1774 154.482H85.0205H85.9272V153.575Z" fill="#F57F17" stroke="black" stroke-width="1.81347"/>
<path d="M122.801 153.575V126.813H107.236V153.575V161.579L107.236 168.675L146.987 168.675C147.666 168.675 148.112 167.967 147.819 167.355L146.947 165.533C143.688 158.722 137.978 154.482 130.551 154.482H123.708H122.801V153.575Z" fill="#F57F17" stroke="black" stroke-width="1.81347"/>
<path d="M56.7668 106.776C60.5232 103.322 66.7001 98.3662 69.319 96.3203C71.1693 102.582 74.7406 115.455 74.2231 116.857C73.5762 118.61 69.4075 123.859 60.7003 125.531C51.0851 127.377 43.7501 122.536 38.3157 116.509C33.9681 111.688 31.1574 111.071 30.2956 111.366C20.5082 112.319 19.4145 109.586 22.3938 107.383C14.7513 108.161 17.8281 104.887 18.8775 103.705C16.47 103.328 15.2694 103.575 15.2694 101.943C15.2694 100.311 18.1365 99.8644 19.9306 99.1917C18.524 99.1014 15.8839 98.8596 16.8981 96.9705C17.9123 95.0813 26.7943 94.8444 30.8128 95.1276C26.091 87.066 34.4647 91.4589 38.4982 93.2924C42.5318 95.1259 52.0712 111.093 56.7668 106.776Z" fill="#F57F17" stroke="black" stroke-width="1.81347" stroke-linejoin="round"/>
<path d="M153.708 106.776C149.951 103.322 143.774 98.3662 141.155 96.3203C139.305 102.582 135.734 115.455 136.251 116.857C136.898 118.61 141.067 123.859 149.774 125.531C159.389 127.377 166.724 122.536 172.159 116.509C176.506 111.688 179.317 111.071 180.179 111.366C189.966 112.319 191.06 109.586 188.081 107.383C195.723 108.161 192.646 104.887 191.597 103.705C194.004 103.328 195.205 103.575 195.205 101.943C195.205 100.311 192.338 99.8644 190.544 99.1917C191.95 99.1014 194.59 98.8596 193.576 96.9705C192.562 95.0813 183.68 94.8444 179.662 95.1276C184.383 87.066 176.01 91.4589 171.976 93.2924C167.942 95.1259 158.403 111.093 153.708 106.776Z" fill="#F57F17" stroke="black" stroke-width="1.81347" stroke-linejoin="round"/>
<path d="M67.0955 69.3785C75.6872 69.3785 83.3018 63.8462 85.9567 55.675C91.3506 39.0745 114.836 39.0745 120.23 55.675C122.885 63.8462 130.499 69.3785 139.091 69.3785C156.546 69.3785 163.803 91.7144 149.682 101.974C142.731 107.024 139.823 115.976 142.478 124.147C147.871 140.747 128.871 154.552 114.75 144.292C107.799 139.242 98.3872 139.242 91.4364 144.292C77.3151 154.552 58.3151 140.747 63.7089 124.147C66.3639 115.976 63.4554 107.024 56.5046 101.974C42.3833 91.7144 49.6407 69.3785 67.0955 69.3785Z" fill="#F57F17" stroke="black" stroke-width="1.81347"/>
<ellipse cx="97.2642" cy="79.9223" rx="1.5544" ry="1.94301" fill="black"/>
<ellipse cx="107.497" cy="93.6852" rx="4.27461" ry="5.34326" fill="black"/>
<ellipse cx="119.544" cy="79.9223" rx="1.5544" ry="1.94301" fill="black"/>
<path d="M170.152 48.9919C170.171 48.9918 170.19 48.991 170.208 48.9896C172.062 48.845 174.588 49.359 176.82 51.2504C178.96 53.0637 180.048 56.7356 179.039 60.0608C178.367 62.2733 177.052 63.7409 175.173 65.259C175.052 65.3568 174.865 65.4876 174.607 65.6681C174.578 65.6884 174.548 65.7093 174.517 65.7309C174.226 65.9345 173.879 66.1794 173.531 66.4514C172.864 66.9735 172.076 67.6818 171.697 68.503C171.682 68.5356 171.669 68.5691 171.659 68.6035C171.309 69.7607 170.783 70.2797 170.317 70.5011C169.838 70.7286 169.278 70.7106 168.743 70.5139C168.481 70.4177 168.036 70.0357 167.762 69.4024C167.503 68.8054 167.438 68.0727 167.794 67.3233C168.64 65.5422 169.886 64.3785 171.874 63.072C173.581 61.95 175.451 60.3577 175.474 57.5402C175.486 56.0298 174.719 55 173.833 54.3546C172.972 53.7278 171.975 53.4388 171.359 53.3357C170.753 53.2345 169.818 53.2889 168.897 53.608C167.963 53.9315 166.962 54.5574 166.352 55.6718C166.228 55.899 166.115 56.1078 166.01 56.3C165.694 56.8828 165.46 57.3135 165.257 57.6469C164.987 58.0938 164.834 58.2579 164.72 58.3379C163.843 58.9532 163.082 58.8287 162.523 58.4707C162.225 58.2802 161.981 58.0184 161.818 57.7459C161.651 57.4654 161.6 57.226 161.608 57.081C161.609 57.0691 161.609 57.0573 161.609 57.0454C161.639 54.7077 162.969 52.7035 164.766 51.2515C166.575 49.7887 168.722 48.998 170.152 48.9919Z" fill="#FFEB3B" stroke="black" stroke-width="1.5544" stroke-linecap="round" stroke-linejoin="round"/>
<path d="M171.71 78.0846C171.616 79.7074 170.331 80.8515 168.945 80.7632C167.56 80.675 166.418 79.3763 166.513 77.7536C166.607 76.1308 167.892 74.9868 169.278 75.075C170.663 75.1632 171.805 76.4619 171.71 78.0846Z" fill="#FFEB3B" stroke="black" stroke-width="1.5544"/>
<path d="M202.891 190.851V164.089H218.456V190.851V198.854V205.951L178.705 205.951C178.026 205.951 177.58 205.242 177.873 204.63L178.745 202.808C182.004 195.998 187.714 191.758 195.141 191.758H201.984H202.891V190.851Z" fill="#FBC02D" stroke="black" stroke-width="1.81347"/>
<path d="M239.765 190.851V164.089H224.2V190.851V198.854V205.951L263.951 205.951C264.63 205.951 265.076 205.242 264.783 204.63L263.911 202.808C260.652 195.998 254.942 191.758 247.515 191.758H240.672H239.765V190.851Z" fill="#FBC02D" stroke="black" stroke-width="1.81347"/>
<path d="M185.096 107.378C193.687 107.378 201.302 101.846 203.957 93.675C209.351 77.0745 232.836 77.0745 238.23 93.675C240.885 101.846 248.499 107.378 257.091 107.378C274.546 107.378 281.803 129.714 267.682 139.974C260.731 145.024 257.823 153.976 260.478 162.147C265.871 178.747 246.871 192.552 232.75 182.292C225.799 177.242 216.387 177.242 209.436 182.292C195.315 192.552 176.315 178.747 181.709 162.147C184.364 153.976 181.455 145.024 174.505 139.974C160.383 129.714 167.641 107.378 185.096 107.378Z" fill="#FBC02D" stroke="black" stroke-width="1.81347"/>
<path d="M215.843 128.414C215.843 128.414 214.807 134.373 221.284 134.373C227.76 134.373 226.724 128.414 226.724 128.414" stroke="black" stroke-width="1.81347" stroke-linecap="round" stroke-linejoin="round"/>
<path d="M197.82 107.705C206.088 110.329 204.541 161.887 204.353 163.977C204.165 166.067 196.852 173.086 193.084 172.145C188.374 170.97 152.883 143.023 152.566 138.179C152.248 133.334 163.306 117.472 169.407 112.376C175.509 107.28 188.236 104.663 197.82 107.705Z" fill="#FFEBEB" stroke="black" stroke-width="1.81347" stroke-linecap="round" stroke-linejoin="round"/>
<path d="M190.269 97.6922L191.609 100.454C191.891 101.035 191.741 101.733 191.246 102.147C190.75 102.561 190.036 102.584 189.514 102.203L187.036 100.392C186.49 99.9923 186.039 99.4702 185.814 98.9341C185.595 98.4101 185.596 97.8934 185.904 97.4216C186.081 97.1498 186.316 96.8742 186.626 96.6152C186.936 96.3561 187.249 96.1748 187.548 96.0487C188.067 95.8299 188.576 95.9209 189.052 96.2302C189.54 96.5467 189.973 97.0836 190.269 97.6922Z" fill="white" stroke="black" stroke-width="0.84795"/>
<path d="M198.309 107.32L195.831 105.509C195.309 105.128 194.595 105.151 194.099 105.565C193.604 105.979 193.454 106.677 193.736 107.258L195.077 110.02C195.372 110.628 195.805 111.165 196.293 111.482C196.769 111.791 197.278 111.882 197.797 111.663C198.096 111.537 198.409 111.356 198.719 111.097C199.03 110.838 199.264 110.562 199.441 110.29C199.749 109.818 199.75 109.302 199.531 108.778C199.306 108.242 198.855 107.719 198.309 107.32Z" fill="white" stroke="black" stroke-width="0.84795"/>
<path d="M195.591 97.2037L194.587 100.104C194.376 100.715 193.776 101.103 193.132 101.045C192.489 100.987 191.968 100.498 191.869 99.8601L191.397 96.8268C191.293 96.1583 191.343 95.4702 191.564 94.9323C191.779 94.4067 192.145 94.0421 192.697 93.9261C193.014 93.8594 193.375 93.8301 193.777 93.8663C194.18 93.9024 194.529 93.9955 194.83 94.1178C195.352 94.3302 195.647 94.7542 195.765 95.3098C195.886 95.8783 195.813 96.5644 195.591 97.2037Z" fill="white" stroke="black" stroke-width="0.84795"/>
<path d="M199.324 101.044L196.563 102.385C195.982 102.667 195.283 102.517 194.869 102.021C194.455 101.526 194.432 100.811 194.813 100.29L196.625 97.8119C197.024 97.2657 197.546 96.8146 198.082 96.5902C198.606 96.3707 199.123 96.3718 199.595 96.6797C199.867 96.8571 200.142 97.0912 200.401 97.4014C200.66 97.7116 200.842 98.0245 200.968 98.3236C201.187 98.8427 201.096 99.3514 200.786 99.8278C200.47 100.315 199.933 100.749 199.324 101.044Z" fill="white" stroke="black" stroke-width="0.84795"/>
<path d="M199.278 106.263L196.377 105.258C195.767 105.047 195.379 104.447 195.437 103.803C195.494 103.16 195.983 102.639 196.621 102.54L199.654 102.068C200.323 101.964 201.011 102.015 201.549 102.235C202.075 102.45 202.439 102.816 202.555 103.368C202.622 103.685 202.651 104.046 202.615 104.448C202.579 104.851 202.486 105.2 202.363 105.501C202.151 106.023 201.727 106.318 201.172 106.436C200.603 106.557 199.917 106.484 199.278 106.263Z" fill="white" stroke="black" stroke-width="0.84795"/>
<path d="M189.669 110.407L190.673 107.507C190.885 106.897 191.485 106.509 192.128 106.566C192.771 106.624 193.292 107.113 193.392 107.751L193.863 110.784C193.967 111.453 193.917 112.141 193.696 112.679C193.481 113.205 193.115 113.569 192.563 113.685C192.246 113.752 191.885 113.781 191.483 113.745C191.08 113.709 190.731 113.616 190.43 113.493C189.909 113.281 189.613 112.857 189.495 112.301C189.374 111.733 189.447 111.047 189.669 110.407Z" fill="white" stroke="black" stroke-width="0.84795"/>
<path d="M185.936 106.567L188.697 105.226C189.278 104.944 189.977 105.094 190.391 105.59C190.805 106.086 190.828 106.8 190.447 107.321L188.635 109.799C188.236 110.345 187.714 110.797 187.178 111.021C186.654 111.24 186.137 111.239 185.665 110.931C185.394 110.754 185.118 110.52 184.859 110.21C184.6 109.9 184.419 109.587 184.293 109.288C184.074 108.768 184.165 108.26 184.474 107.783C184.791 107.296 185.327 106.862 185.936 106.567Z" fill="white" stroke="black" stroke-width="0.84795"/>
<path d="M185.983 101.349L188.883 102.353C189.494 102.565 189.882 103.165 189.824 103.808C189.766 104.451 189.277 104.972 188.639 105.072L185.606 105.543C184.937 105.647 184.249 105.597 183.711 105.376C183.186 105.161 182.821 104.795 182.705 104.243C182.638 103.926 182.609 103.565 182.645 103.163C182.681 102.76 182.775 102.411 182.897 102.11C183.109 101.588 183.533 101.293 184.089 101.175C184.657 101.054 185.343 101.127 185.983 101.349Z" fill="white" stroke="black" stroke-width="0.84795"/>
<circle cx="192.822" cy="103.87" r="3.39169" transform="rotate(-39.8659 192.822 103.87)" fill="#FFFDE7" stroke="black" stroke-width="0.84795"/>
<path d="M175.747 96.8384L177.088 99.5998C177.37 100.181 177.22 100.879 176.724 101.293C176.228 101.707 175.514 101.73 174.993 101.349L172.514 99.5378C171.968 99.1386 171.517 98.6164 171.293 98.0803C171.073 97.5563 171.074 97.0396 171.382 96.5678C171.56 96.296 171.794 96.0205 172.104 95.7614C172.414 95.5023 172.727 95.321 173.026 95.195C173.545 94.9761 174.054 95.0672 174.53 95.3765C175.018 95.6929 175.451 96.2299 175.747 96.8384Z" fill="white" stroke="black" stroke-width="0.84795"/>
<path d="M183.787 106.466L181.309 104.655C180.787 104.274 180.073 104.297 179.578 104.711C179.082 105.125 178.932 105.823 179.214 106.404L180.555 109.166C180.85 109.774 181.284 110.311 181.771 110.628C182.248 110.937 182.756 111.028 183.275 110.809C183.574 110.683 183.887 110.502 184.198 110.243C184.508 109.984 184.742 109.708 184.919 109.436C185.227 108.965 185.228 108.448 185.009 107.924C184.784 107.388 184.333 106.866 183.787 106.466Z" fill="white" stroke="black" stroke-width="0.84795"/>
<path d="M181.07 96.3499L180.065 99.2505C179.854 99.8609 179.254 100.249 178.61 100.191C177.967 100.133 177.446 99.6445 177.347 99.0063L176.875 95.9731C176.771 95.3046 176.822 94.6164 177.042 94.0786C177.257 93.5529 177.624 93.1883 178.175 93.0724C178.492 93.0056 178.853 92.9764 179.255 93.0125C179.658 93.0487 180.007 93.1417 180.308 93.264C180.83 93.4764 181.125 93.9004 181.243 94.456C181.364 95.0245 181.291 95.7106 181.07 96.3499Z" fill="white" stroke="black" stroke-width="0.84795"/>
<path d="M184.802 100.19L182.041 101.531C181.46 101.813 180.762 101.663 180.348 101.168C179.934 100.672 179.91 99.9578 180.292 99.4363L182.103 96.9582C182.502 96.412 183.025 95.9609 183.561 95.7364C184.085 95.517 184.601 95.5181 185.073 95.826C185.345 96.0033 185.62 96.2375 185.88 96.5477C186.139 96.8579 186.32 97.1708 186.446 97.4699C186.665 97.989 186.574 98.4976 186.264 98.9741C185.948 99.4616 185.411 99.895 184.802 100.19Z" fill="white" stroke="black" stroke-width="0.84795"/>
<path d="M184.756 105.409L181.855 104.404C181.245 104.193 180.857 103.593 180.915 102.95C180.973 102.306 181.461 101.785 182.099 101.686L185.133 101.214C185.801 101.111 186.489 101.161 187.027 101.381C187.553 101.597 187.917 101.963 188.033 102.514C188.1 102.832 188.129 103.192 188.093 103.595C188.057 103.997 187.964 104.347 187.842 104.647C187.629 105.169 187.205 105.464 186.65 105.582C186.081 105.703 185.395 105.63 184.756 105.409Z" fill="white" stroke="black" stroke-width="0.84795"/>
<path d="M175.147 109.554L176.151 106.653C176.363 106.043 176.963 105.655 177.606 105.713C178.249 105.771 178.771 106.259 178.87 106.897L179.341 109.931C179.445 110.599 179.395 111.287 179.175 111.825C178.959 112.351 178.593 112.715 178.042 112.831C177.724 112.898 177.364 112.927 176.961 112.891C176.559 112.855 176.209 112.762 175.909 112.64C175.387 112.427 175.091 112.003 174.973 111.448C174.852 110.879 174.926 110.193 175.147 109.554Z" fill="white" stroke="black" stroke-width="0.84795"/>
<path d="M171.414 105.713L174.176 104.373C174.757 104.09 175.455 104.24 175.869 104.736C176.283 105.232 176.306 105.946 175.925 106.467L174.114 108.946C173.714 109.492 173.192 109.943 172.656 110.167C172.132 110.387 171.615 110.386 171.144 110.078C170.872 109.9 170.596 109.666 170.337 109.356C170.078 109.046 169.897 108.733 169.771 108.434C169.552 107.915 169.643 107.406 169.952 106.93C170.269 106.442 170.806 106.009 171.414 105.713Z" fill="white" stroke="black" stroke-width="0.84795"/>
<path d="M171.461 100.495L174.362 101.499C174.972 101.711 175.36 102.311 175.302 102.954C175.244 103.597 174.756 104.119 174.117 104.218L171.084 104.689C170.416 104.793 169.727 104.743 169.19 104.523C168.664 104.307 168.299 103.941 168.183 103.39C168.117 103.072 168.087 102.712 168.124 102.309C168.16 101.907 168.253 101.557 168.375 101.257C168.587 100.735 169.011 100.439 169.567 100.321C170.136 100.2 170.822 100.273 171.461 100.495Z" fill="white" stroke="black" stroke-width="0.84795"/>
<circle cx="178.3" cy="103.017" r="3.39169" transform="rotate(-39.8659 178.3 103.017)" fill="#FFFDE7" stroke="black" stroke-width="0.84795"/>
<path d="M165.916 92.3441L167.257 95.1054C167.539 95.6865 167.389 96.385 166.894 96.799C166.398 97.213 165.684 97.2361 165.162 96.8549L162.684 95.0434C162.138 94.6442 161.687 94.122 161.462 93.5859C161.243 93.0619 161.244 92.5452 161.552 92.0734C161.729 91.8016 161.964 91.5261 162.274 91.267C162.584 91.008 162.897 90.8266 163.196 90.7006C163.715 90.4817 164.224 90.5728 164.7 90.8821C165.188 91.1985 165.621 91.7355 165.916 92.3441Z" fill="white" stroke="black" stroke-width="0.84795"/>
<path d="M173.957 101.972L171.479 100.161C170.957 99.7794 170.243 99.8024 169.747 100.216C169.252 100.63 169.102 101.329 169.384 101.91L170.725 104.671C171.02 105.28 171.453 105.817 171.941 106.133C172.417 106.443 172.926 106.534 173.445 106.315C173.744 106.189 174.057 106.007 174.367 105.748C174.677 105.489 174.912 105.214 175.089 104.942C175.397 104.47 175.398 103.954 175.179 103.43C174.954 102.893 174.503 102.371 173.957 101.972Z" fill="white" stroke="black" stroke-width="0.84795"/>
<path d="M171.239 91.8555L170.235 94.7562C170.023 95.3665 169.424 95.7544 168.78 95.6966C168.137 95.6388 167.616 95.1502 167.516 94.5119L167.045 91.4787C166.941 90.8102 166.991 90.122 167.212 89.5842C167.427 89.0585 167.793 88.6939 168.345 88.578C168.662 88.5112 169.023 88.482 169.425 88.5181C169.828 88.5543 170.177 88.6473 170.478 88.7697C171 88.982 171.295 89.406 171.413 89.9616C171.534 90.5302 171.461 91.2163 171.239 91.8555Z" fill="white" stroke="black" stroke-width="0.84795"/>
<path d="M174.972 95.6961L172.211 97.0368C171.63 97.3189 170.931 97.1689 170.517 96.6732C170.103 96.1774 170.08 95.4634 170.461 94.9419L172.273 92.4638C172.672 91.9176 173.194 91.4665 173.73 91.242C174.254 91.0226 174.771 91.0237 175.243 91.3316C175.515 91.509 175.79 91.7431 176.049 92.0533C176.308 92.3635 176.49 92.6764 176.616 92.9755C176.835 93.4946 176.744 94.0032 176.434 94.4797C176.118 94.9672 175.581 95.4006 174.972 95.6961Z" fill="white" stroke="black" stroke-width="0.84795"/>
<path d="M174.926 100.914L172.025 99.9099C171.415 99.6985 171.027 99.0985 171.085 98.4552C171.142 97.8119 171.631 97.2907 172.269 97.1915L175.302 96.7201C175.971 96.6162 176.659 96.6664 177.197 96.8868C177.723 97.1022 178.087 97.4683 178.203 98.0196C178.27 98.3372 178.299 98.6977 178.263 99.1002C178.227 99.5027 178.134 99.8521 178.011 100.153C177.799 100.675 177.375 100.97 176.819 101.088C176.251 101.209 175.565 101.136 174.926 100.914Z" fill="white" stroke="black" stroke-width="0.84795"/>
<path d="M165.317 105.059L166.321 102.159C166.533 101.548 167.133 101.161 167.776 101.218C168.419 101.276 168.94 101.765 169.04 102.403L169.511 105.436C169.615 106.105 169.565 106.793 169.344 107.331C169.129 107.856 168.763 108.221 168.211 108.337C167.894 108.404 167.533 108.433 167.131 108.397C166.728 108.361 166.379 108.268 166.078 108.145C165.556 107.933 165.261 107.509 165.143 106.953C165.022 106.385 165.095 105.699 165.317 105.059Z" fill="white" stroke="black" stroke-width="0.84795"/>
<path d="M161.584 101.219L164.345 99.8781C164.926 99.596 165.625 99.746 166.039 100.242C166.453 100.738 166.476 101.452 166.095 101.973L164.283 104.451C163.884 104.997 163.362 105.448 162.826 105.673C162.302 105.892 161.785 105.891 161.313 105.583C161.042 105.406 160.766 105.172 160.507 104.862C160.248 104.551 160.067 104.239 159.941 103.939C159.722 103.42 159.813 102.912 160.122 102.435C160.439 101.948 160.975 101.514 161.584 101.219Z" fill="white" stroke="black" stroke-width="0.84795"/>
<path d="M161.631 96.0005L164.531 97.0051C165.142 97.2164 165.53 97.8164 165.472 98.4597C165.414 99.103 164.925 99.6242 164.287 99.7234L161.254 100.195C160.585 100.299 159.897 100.248 159.359 100.028C158.834 99.8128 158.469 99.4466 158.353 98.8953C158.286 98.5777 158.257 98.2173 158.293 97.8147C158.329 97.4122 158.422 97.0628 158.545 96.7622C158.757 96.2403 159.181 95.945 159.737 95.8268C160.305 95.7059 160.991 95.7791 161.631 96.0005Z" fill="white" stroke="black" stroke-width="0.84795"/>
<circle cx="168.47" cy="98.5222" r="3.39169" transform="rotate(-39.8659 168.47 98.5222)" fill="#FFFDE7" stroke="black" stroke-width="0.84795"/>
<path d="M160.011 102.799L161.351 105.56C161.633 106.141 161.483 106.84 160.988 107.254C160.492 107.668 159.778 107.691 159.256 107.31L156.778 105.498C156.232 105.099 155.781 104.577 155.556 104.041C155.337 103.517 155.338 103 155.646 102.528C155.823 102.256 156.058 101.981 156.368 101.722C156.678 101.463 156.991 101.281 157.29 101.155C157.809 100.937 158.318 101.028 158.794 101.337C159.282 101.653 159.715 102.19 160.011 102.799Z" fill="white" stroke="black" stroke-width="0.84795"/>
<path d="M168.051 112.427L165.573 110.615C165.051 110.234 164.337 110.257 163.841 110.671C163.346 111.085 163.196 111.784 163.478 112.365L164.819 115.126C165.114 115.735 165.547 116.272 166.035 116.588C166.511 116.897 167.02 116.988 167.539 116.77C167.838 116.644 168.151 116.462 168.461 116.203C168.772 115.944 169.006 115.669 169.183 115.397C169.491 114.925 169.492 114.408 169.273 113.884C169.048 113.348 168.597 112.826 168.051 112.427Z" fill="white" stroke="black" stroke-width="0.84795"/>
<path d="M165.333 102.31L164.329 105.211C164.117 105.821 163.518 106.209 162.874 106.151C162.231 106.094 161.71 105.605 161.611 104.967L161.139 101.933C161.035 101.265 161.085 100.577 161.306 100.039C161.521 99.5133 161.887 99.1487 162.439 99.0328C162.756 98.966 163.117 98.9367 163.519 98.9729C163.922 99.0091 164.271 99.1021 164.572 99.2244C165.094 99.4368 165.389 99.8608 165.507 100.416C165.628 100.985 165.555 101.671 165.333 102.31Z" fill="white" stroke="black" stroke-width="0.84795"/>
<path d="M169.066 106.151L166.305 107.492C165.724 107.774 165.025 107.624 164.611 107.128C164.197 106.632 164.174 105.918 164.555 105.397L166.367 102.919C166.766 102.372 167.288 101.921 167.824 101.697C168.348 101.477 168.865 101.478 169.337 101.786C169.609 101.964 169.884 102.198 170.143 102.508C170.402 102.818 170.584 103.131 170.71 103.43C170.929 103.949 170.838 104.458 170.528 104.934C170.212 105.422 169.675 105.855 169.066 106.151Z" fill="white" stroke="black" stroke-width="0.84795"/>
<path d="M169.02 111.369L166.119 110.365C165.509 110.153 165.121 109.553 165.179 108.91C165.236 108.267 165.725 107.745 166.363 107.646L169.396 107.175C170.065 107.071 170.753 107.121 171.291 107.342C171.817 107.557 172.181 107.923 172.297 108.474C172.364 108.792 172.393 109.152 172.357 109.555C172.321 109.957 172.228 110.307 172.105 110.608C171.893 111.129 171.469 111.425 170.914 111.543C170.345 111.664 169.659 111.591 169.02 111.369Z" fill="white" stroke="black" stroke-width="0.84795"/>
<path d="M159.411 115.514L160.415 112.614C160.627 112.003 161.227 111.615 161.87 111.673C162.513 111.731 163.034 112.22 163.134 112.858L163.605 115.891C163.709 116.56 163.659 117.248 163.438 117.786C163.223 118.311 162.857 118.676 162.305 118.792C161.988 118.858 161.627 118.888 161.225 118.852C160.822 118.815 160.473 118.722 160.172 118.6C159.651 118.388 159.355 117.964 159.237 117.408C159.116 116.84 159.189 116.153 159.411 115.514Z" fill="white" stroke="black" stroke-width="0.84795"/>
<path d="M155.678 111.674L158.439 110.333C159.02 110.051 159.719 110.201 160.133 110.697C160.547 111.192 160.57 111.906 160.189 112.428L158.377 114.906C157.978 115.452 157.456 115.903 156.92 116.128C156.396 116.347 155.879 116.346 155.407 116.038C155.136 115.861 154.86 115.627 154.601 115.316C154.342 115.006 154.161 114.693 154.035 114.394C153.816 113.875 153.907 113.366 154.216 112.89C154.533 112.402 155.069 111.969 155.678 111.674Z" fill="white" stroke="black" stroke-width="0.84795"/>
<path d="M155.725 106.455L158.625 107.46C159.236 107.671 159.624 108.271 159.566 108.914C159.508 109.558 159.019 110.079 158.381 110.178L155.348 110.65C154.679 110.754 153.991 110.703 153.453 110.483C152.928 110.268 152.563 109.901 152.447 109.35C152.38 109.032 152.351 108.672 152.387 108.27C152.423 107.867 152.517 107.518 152.639 107.217C152.851 106.695 153.275 106.4 153.831 106.282C154.399 106.161 155.085 106.234 155.725 106.455Z" fill="white" stroke="black" stroke-width="0.84795"/>
<circle cx="162.564" cy="108.977" r="3.39169" transform="rotate(-39.8659 162.564 108.977)" fill="#FFFDE7" stroke="black" stroke-width="0.84795"/>
<path d="M144.835 125.968L146.176 128.729C146.458 129.31 146.308 130.009 145.812 130.423C145.317 130.837 144.603 130.86 144.081 130.479L141.603 128.667C141.057 128.268 140.606 127.746 140.381 127.21C140.162 126.686 140.163 126.169 140.471 125.697C140.648 125.425 140.882 125.15 141.192 124.891C141.503 124.632 141.816 124.45 142.115 124.324C142.634 124.105 143.142 124.196 143.619 124.506C144.106 124.822 144.54 125.359 144.835 125.968Z" fill="white" stroke="black" stroke-width="0.84795"/>
<path d="M152.876 135.596L150.397 133.784C149.876 133.403 149.162 133.426 148.666 133.84C148.17 134.254 148.02 134.953 148.303 135.534L149.643 138.295C149.939 138.904 150.372 139.441 150.86 139.757C151.336 140.066 151.845 140.157 152.364 139.938C152.663 139.812 152.976 139.631 153.286 139.372C153.596 139.113 153.83 138.837 154.008 138.566C154.316 138.094 154.317 137.577 154.097 137.053C153.873 136.517 153.422 135.995 152.876 135.596Z" fill="white" stroke="black" stroke-width="0.84795"/>
<path d="M150.158 125.479L149.154 128.38C148.942 128.99 148.342 129.378 147.699 129.32C147.056 129.262 146.534 128.774 146.435 128.136L145.964 125.102C145.86 124.434 145.91 123.746 146.131 123.208C146.346 122.682 146.712 122.318 147.263 122.202C147.581 122.135 147.941 122.106 148.344 122.142C148.746 122.178 149.096 122.271 149.396 122.393C149.918 122.606 150.214 123.03 150.332 123.585C150.453 124.154 150.38 124.84 150.158 125.479Z" fill="white" stroke="black" stroke-width="0.84795"/>
<path d="M153.891 129.32L151.13 130.66C150.549 130.943 149.85 130.793 149.436 130.297C149.022 129.801 148.999 129.087 149.38 128.566L151.192 126.087C151.591 125.541 152.113 125.09 152.649 124.866C153.173 124.646 153.69 124.647 154.162 124.955C154.433 125.133 154.709 125.367 154.968 125.677C155.227 125.987 155.408 126.3 155.534 126.599C155.753 127.118 155.662 127.627 155.353 128.103C155.036 128.591 154.5 129.024 153.891 129.32Z" fill="white" stroke="black" stroke-width="0.84795"/>
<path d="M153.844 134.538L150.944 133.533C150.333 133.322 149.945 132.722 150.003 132.079C150.061 131.436 150.55 130.914 151.188 130.815L154.221 130.344C154.89 130.24 155.578 130.29 156.116 130.51C156.641 130.726 157.006 131.092 157.122 131.643C157.189 131.961 157.218 132.321 157.182 132.724C157.146 133.126 157.053 133.476 156.93 133.776C156.718 134.298 156.294 134.593 155.738 134.712C155.17 134.833 154.484 134.759 153.844 134.538Z" fill="white" stroke="black" stroke-width="0.84795"/>
<path d="M144.235 138.683L145.24 135.782C145.451 135.172 146.051 134.784 146.695 134.842C147.338 134.9 147.859 135.388 147.958 136.027L148.43 139.06C148.534 139.728 148.483 140.416 148.263 140.954C148.048 141.48 147.682 141.845 147.13 141.961C146.813 142.027 146.452 142.057 146.05 142.02C145.647 141.984 145.298 141.891 144.997 141.769C144.475 141.557 144.18 141.132 144.062 140.577C143.941 140.008 144.014 139.322 144.235 138.683Z" fill="white" stroke="black" stroke-width="0.84795"/>
<path d="M140.503 134.842L143.264 133.502C143.845 133.22 144.544 133.37 144.958 133.865C145.372 134.361 145.395 135.075 145.014 135.597L143.202 138.075C142.803 138.621 142.281 139.072 141.745 139.297C141.221 139.516 140.704 139.515 140.232 139.207C139.96 139.03 139.685 138.795 139.426 138.485C139.167 138.175 138.985 137.862 138.859 137.563C138.64 137.044 138.731 136.535 139.041 136.059C139.357 135.571 139.894 135.138 140.503 134.842Z" fill="white" stroke="black" stroke-width="0.84795"/>
<path d="M140.549 129.624L143.45 130.629C144.06 130.84 144.448 131.44 144.39 132.083C144.333 132.727 143.844 133.248 143.206 133.347L140.173 133.818C139.504 133.922 138.816 133.872 138.278 133.652C137.752 133.436 137.388 133.07 137.272 132.519C137.205 132.201 137.176 131.841 137.212 131.438C137.248 131.036 137.341 130.686 137.464 130.386C137.676 129.864 138.1 129.569 138.656 129.45C139.224 129.329 139.91 129.403 140.549 129.624Z" fill="white" stroke="black" stroke-width="0.84795"/>
<circle cx="147.388" cy="132.146" r="3.39169" transform="rotate(-39.8659 147.388 132.146)" fill="#FFFDE7" stroke="black" stroke-width="0.84795"/>
<path d="M148.696 106.45L150.037 109.211C150.319 109.792 150.169 110.491 149.673 110.905C149.177 111.319 148.463 111.342 147.942 110.961L145.464 109.149C144.918 108.75 144.467 108.228 144.242 107.692C144.023 107.168 144.024 106.651 144.332 106.179C144.509 105.908 144.743 105.632 145.053 105.373C145.364 105.114 145.676 104.933 145.975 104.807C146.495 104.588 147.003 104.679 147.48 104.988C147.967 105.304 148.401 105.841 148.696 106.45Z" fill="white" stroke="black" stroke-width="0.84795"/>
<path d="M156.736 116.078L154.258 114.267C153.737 113.885 153.023 113.908 152.527 114.322C152.031 114.736 151.881 115.435 152.163 116.016L153.504 118.777C153.8 119.386 154.233 119.923 154.721 120.239C155.197 120.549 155.706 120.64 156.225 120.421C156.524 120.295 156.837 120.113 157.147 119.854C157.457 119.595 157.691 119.32 157.869 119.048C158.176 118.576 158.178 118.059 157.958 117.535C157.734 116.999 157.283 116.477 156.736 116.078Z" fill="white" stroke="black" stroke-width="0.84795"/>
<path d="M154.019 105.962L153.014 108.862C152.803 109.472 152.203 109.86 151.56 109.803C150.916 109.745 150.395 109.256 150.296 108.618L149.825 105.585C149.721 104.916 149.771 104.228 149.991 103.69C150.207 103.164 150.573 102.8 151.124 102.684C151.442 102.617 151.802 102.588 152.205 102.624C152.607 102.66 152.957 102.753 153.257 102.876C153.779 103.088 154.074 103.512 154.193 104.068C154.314 104.636 154.24 105.322 154.019 105.962Z" fill="white" stroke="black" stroke-width="0.84795"/>
<path d="M157.752 109.802L154.99 111.143C154.409 111.425 153.711 111.275 153.297 110.779C152.883 110.283 152.86 109.569 153.241 109.048L155.052 106.57C155.452 106.024 155.974 105.572 156.51 105.348C157.034 105.129 157.551 105.13 158.022 105.438C158.294 105.615 158.57 105.849 158.829 106.159C159.088 106.469 159.269 106.782 159.395 107.081C159.614 107.601 159.523 108.109 159.214 108.586C158.897 109.073 158.36 109.507 157.752 109.802Z" fill="white" stroke="black" stroke-width="0.84795"/>
<path d="M157.705 115.02L154.805 114.016C154.194 113.804 153.806 113.204 153.864 112.561C153.922 111.918 154.411 111.397 155.049 111.297L158.082 110.826C158.751 110.722 159.439 110.772 159.977 110.993C160.502 111.208 160.867 111.574 160.983 112.126C161.049 112.443 161.079 112.804 161.043 113.206C161.006 113.609 160.913 113.958 160.791 114.259C160.579 114.781 160.155 115.076 159.599 115.194C159.031 115.315 158.344 115.242 157.705 115.02Z" fill="white" stroke="black" stroke-width="0.84795"/>
<path d="M148.096 119.165L149.101 116.265C149.312 115.654 149.912 115.267 150.555 115.324C151.199 115.382 151.72 115.871 151.819 116.509L152.291 119.542C152.394 120.211 152.344 120.899 152.124 121.437C151.908 121.962 151.542 122.327 150.991 122.443C150.673 122.51 150.313 122.539 149.91 122.503C149.508 122.467 149.159 122.374 148.858 122.251C148.336 122.039 148.041 121.615 147.923 121.059C147.802 120.491 147.875 119.805 148.096 119.165Z" fill="white" stroke="black" stroke-width="0.84795"/>
<path d="M144.364 115.325L147.125 113.984C147.706 113.702 148.405 113.852 148.819 114.348C149.233 114.843 149.256 115.557 148.874 116.079L147.063 118.557C146.664 119.103 146.142 119.554 145.605 119.779C145.082 119.998 144.565 119.997 144.093 119.689C143.821 119.512 143.546 119.278 143.287 118.968C143.028 118.657 142.846 118.344 142.72 118.045C142.501 117.526 142.592 117.018 142.902 116.541C143.218 116.054 143.755 115.62 144.364 115.325Z" fill="white" stroke="black" stroke-width="0.84795"/>
<path d="M144.41 110.106L147.311 111.111C147.921 111.322 148.309 111.922 148.251 112.566C148.193 113.209 147.705 113.73 147.067 113.829L144.033 114.301C143.365 114.405 142.677 114.354 142.139 114.134C141.613 113.919 141.249 113.553 141.133 113.001C141.066 112.684 141.037 112.323 141.073 111.921C141.109 111.518 141.202 111.169 141.324 110.868C141.537 110.346 141.961 110.051 142.516 109.933C143.085 109.812 143.771 109.885 144.41 110.106Z" fill="white" stroke="black" stroke-width="0.84795"/>
<circle cx="151.249" cy="112.628" r="3.39169" transform="rotate(-39.8659 151.249 112.628)" fill="#FFFDE7" stroke="black" stroke-width="0.84795"/>
<path d="M150.119 117.414L151.46 120.175C151.742 120.756 151.592 121.455 151.096 121.869C150.6 122.283 149.886 122.306 149.365 121.924L146.887 120.113C146.341 119.714 145.889 119.192 145.665 118.655C145.446 118.132 145.447 117.615 145.755 117.143C145.932 116.871 146.166 116.596 146.476 116.337C146.786 116.078 147.099 115.896 147.398 115.77C147.918 115.551 148.426 115.642 148.903 115.952C149.39 116.268 149.824 116.805 150.119 117.414Z" fill="white" stroke="black" stroke-width="0.84795"/>
<path d="M158.159 127.042L155.681 125.23C155.16 124.849 154.446 124.872 153.95 125.286C153.454 125.7 153.304 126.399 153.586 126.98L154.927 129.741C155.223 130.35 155.656 130.886 156.143 131.203C156.62 131.512 157.129 131.603 157.648 131.384C157.947 131.258 158.26 131.077 158.57 130.818C158.88 130.559 159.114 130.283 159.292 130.012C159.599 129.54 159.601 129.023 159.381 128.499C159.157 127.963 158.706 127.441 158.159 127.042Z" fill="white" stroke="black" stroke-width="0.84795"/>
<path d="M155.442 116.925L154.437 119.826C154.226 120.436 153.626 120.824 152.983 120.766C152.339 120.708 151.818 120.22 151.719 119.582L151.248 116.548C151.144 115.88 151.194 115.192 151.414 114.654C151.63 114.128 151.996 113.764 152.547 113.648C152.865 113.581 153.225 113.552 153.628 113.588C154.03 113.624 154.38 113.717 154.68 113.839C155.202 114.052 155.497 114.476 155.616 115.031C155.737 115.6 155.663 116.286 155.442 116.925Z" fill="white" stroke="black" stroke-width="0.84795"/>
<path d="M159.175 120.766L156.413 122.106C155.832 122.388 155.134 122.238 154.72 121.743C154.306 121.247 154.283 120.533 154.664 120.011L156.475 117.533C156.875 116.987 157.397 116.536 157.933 116.312C158.457 116.092 158.974 116.093 159.445 116.401C159.717 116.578 159.993 116.813 160.252 117.123C160.511 117.433 160.692 117.746 160.818 118.045C161.037 118.564 160.946 119.073 160.637 119.549C160.32 120.037 159.783 120.47 159.175 120.766Z" fill="white" stroke="black" stroke-width="0.84795"/>
<path d="M159.128 125.984L156.228 124.979C155.617 124.768 155.229 124.168 155.287 123.525C155.345 122.881 155.834 122.36 156.472 122.261L159.505 121.79C160.173 121.686 160.862 121.736 161.4 121.956C161.925 122.172 162.29 122.538 162.406 123.089C162.472 123.407 162.502 123.767 162.466 124.17C162.429 124.572 162.336 124.922 162.214 125.222C162.002 125.744 161.578 126.039 161.022 126.158C160.454 126.279 159.767 126.205 159.128 125.984Z" fill="white" stroke="black" stroke-width="0.84795"/>
<path d="M149.519 130.129L150.524 127.228C150.735 126.618 151.335 126.23 151.978 126.288C152.622 126.346 153.143 126.834 153.242 127.473L153.714 130.506C153.817 131.174 153.767 131.862 153.547 132.4C153.331 132.926 152.965 133.291 152.414 133.406C152.096 133.473 151.736 133.503 151.333 133.466C150.931 133.43 150.581 133.337 150.281 133.215C149.759 133.002 149.464 132.578 149.346 132.023C149.225 131.454 149.298 130.768 149.519 130.129Z" fill="white" stroke="black" stroke-width="0.84795"/>
<path d="M145.787 126.288L148.548 124.948C149.129 124.666 149.827 124.816 150.242 125.311C150.656 125.807 150.679 126.521 150.297 127.043L148.486 129.521C148.087 130.067 147.565 130.518 147.028 130.742C146.504 130.962 145.988 130.961 145.516 130.653C145.244 130.476 144.969 130.241 144.71 129.931C144.45 129.621 144.269 129.308 144.143 129.009C143.924 128.49 144.015 127.981 144.325 127.505C144.641 127.017 145.178 126.584 145.787 126.288Z" fill="white" stroke="black" stroke-width="0.84795"/>
<path d="M145.833 121.07L148.734 122.075C149.344 122.286 149.732 122.886 149.674 123.529C149.616 124.173 149.128 124.694 148.49 124.793L145.456 125.264C144.788 125.368 144.1 125.318 143.562 125.098C143.036 124.882 142.672 124.516 142.556 123.965C142.489 123.647 142.46 123.287 142.496 122.884C142.532 122.482 142.625 122.132 142.747 121.832C142.96 121.31 143.384 121.015 143.939 120.896C144.508 120.775 145.194 120.849 145.833 121.07Z" fill="white" stroke="black" stroke-width="0.84795"/>
<circle cx="152.672" cy="123.592" r="3.39169" transform="rotate(-39.8659 152.672 123.592)" fill="#FFFDE7" stroke="black" stroke-width="0.84795"/>
<path d="M196.715 188.266C193.813 187.975 193.807 173.197 194.034 172.457C194.262 171.716 203.243 164.707 204.584 164.751C206.261 164.806 216.207 172.618 215.962 174.277C215.717 175.937 210.382 182.28 207.713 184.509C205.044 186.738 200.078 188.604 196.715 188.266Z" fill="#FFEBEB" stroke="black" stroke-width="1.81347" stroke-linecap="round" stroke-linejoin="round"/>
<path d="M152.052 164.164C152.052 157.782 157.751 150.708 161.249 148.361C161.249 148.361 163.724 150.304 168.373 153.413L172.173 151.125C174.605 149.543 177.341 148.014 180.42 146.16C186.23 143.522 195.315 140.586 198.828 140.154C205.808 139.295 205.29 141.885 202.7 143.31C206.531 143.634 208.332 142.728 208.689 144.574C209.047 146.42 206.216 146.49 203.934 147.175C207.787 147.385 208.689 146.924 208.689 148.751C208.689 150.579 204.241 151.012 201.381 150.579C204.946 151.757 205.632 151.99 205.397 153.415C205.161 154.839 201.983 154.476 198.828 153.983C201.016 154.325 200.876 155.215 200.497 156.135C200.119 157.054 193.674 155.097 190.956 156.536C187.339 158.451 186.064 159.876 172.907 170.641C162.933 178.802 152.052 175.848 152.052 164.164Z" fill="#FBC02D"/>
<path d="M165.639 156.536C169.386 152.321 174.202 149.904 180.42 146.16M180.42 146.16C186.23 143.522 195.315 140.586 198.828 140.154C205.808 139.295 205.29 141.885 202.7 143.31C206.531 143.634 208.332 142.728 208.689 144.574C209.047 146.42 206.216 146.49 203.934 147.175C207.787 147.385 208.689 146.924 208.689 148.751C208.689 150.579 204.241 151.012 201.381 150.579C204.946 151.757 205.632 151.99 205.397 153.415C205.161 154.839 201.983 154.476 198.828 153.983C201.016 154.325 200.876 155.215 200.497 156.135C200.119 157.054 193.674 155.097 190.956 156.536C187.339 158.451 186.064 159.876 172.907 170.641C162.933 178.802 152.052 175.848 152.052 164.164C152.052 157.782 157.751 150.708 161.249 148.361C161.249 148.361 163.724 150.304 168.373 153.413L180.42 146.16Z" stroke="black" stroke-width="1.81347" stroke-linecap="round" stroke-linejoin="round"/>
<ellipse cx="208.529" cy="117.663" rx="1.5544" ry="1.94301" fill="black"/>
<ellipse cx="230.808" cy="117.663" rx="1.5544" ry="1.94301" fill="black"/>
<path d="M240.143 95.2673L243.201 81.9924C243.258 81.7425 243.061 81.4933 242.792 81.5006C240.917 81.5514 237.732 81.606 234.452 81.5189C231.193 81.4324 227.766 81.2048 225.445 80.6704C223.118 80.1343 219.883 78.8239 216.858 77.4601C213.813 76.0876 210.911 74.6286 209.224 73.7603C208.985 73.6374 208.7 73.7758 208.643 74.0238L205.586 87.2982C205.549 87.459 205.615 87.5983 205.726 87.6678C207.871 89.0187 214.499 92.9102 222.217 94.6878C229.92 96.462 237.395 95.8274 239.861 95.5364C239.988 95.5215 240.107 95.4263 240.143 95.2673Z" fill="#293154" stroke="black" stroke-width="1.81347"/>
<path d="M200.882 72.5592L228.605 63.6478C228.745 63.6027 228.9 63.6385 229.006 63.7404L249.926 83.8586C250.152 84.0757 250.039 84.4482 249.73 84.507L223.013 89.5866C222.903 89.6076 222.788 89.5813 222.698 89.5144L200.771 73.2279C200.519 73.0403 200.582 72.6555 200.882 72.5592Z" fill="#1E2646" stroke="black" stroke-width="1.81347"/>
<path d="M269.057 139.016C277.506 148.525 285.294 161.508 282.368 169.068C278.375 179.383 257.91 176.709 241.242 165.593C233.188 160.223 231.924 159.243 232.622 157.818C233.319 156.393 236.776 157.208 236.378 157.042C230.95 154.776 231.326 150.154 238.193 153.186C234.25 150.206 234.178 143.794 242.524 150.27C238.201 146.657 238.456 140.719 246.388 148.519C245.057 145.901 249.072 146.16 251.813 150.154C253.937 153.248 255.813 157.301 259.57 160.014C257.394 148.937 264.988 141.4 269.057 139.016Z" fill="#FBC02D"/>
<path d="M270.451 161.684C267.213 163.239 262.223 161.929 259.57 160.014M259.57 160.014C255.813 157.301 253.937 153.248 251.813 150.154C249.072 146.16 245.057 145.901 246.388 148.519C238.193 140.46 238.193 147.066 242.969 150.622C234.176 143.569 234.182 150.154 238.193 153.186C231.326 150.154 230.95 154.776 236.378 157.042C236.776 157.208 233.319 156.393 232.622 157.818C231.924 159.243 233.188 160.223 241.242 165.593C257.91 176.709 278.375 179.383 282.368 169.068C285.294 161.508 277.506 148.525 269.057 139.016C264.988 141.4 257.394 148.937 259.57 160.014Z" stroke="black" stroke-width="1.81347" stroke-linecap="round" stroke-linejoin="round"/>
<path d="M76.9272 260.575V233.813H92.4925V260.575V268.579V275.675L52.7416 275.675C52.0627 275.675 51.6163 274.967 51.9094 274.355L52.7812 272.533C56.0404 265.722 61.7506 261.482 69.1774 261.482H76.0205H76.9272V260.575Z" fill="#FFEB3B" stroke="black" stroke-width="1.81347"/>
<path d="M113.801 260.575V233.813H98.2362V260.575V268.579L98.2362 275.675L137.987 275.675C138.666 275.675 139.112 274.967 138.819 274.355L137.948 272.533C134.688 265.722 128.978 261.482 121.551 261.482H114.708H113.801V260.575Z" fill="#FFEB3B" stroke="black" stroke-width="1.81347"/>
<path d="M58.0955 176.378C66.6872 176.378 74.3018 170.846 76.9567 162.675C82.3506 146.074 105.836 146.074 111.23 162.675C113.885 170.846 121.499 176.378 130.091 176.378C147.546 176.378 154.803 198.714 140.682 208.974C133.731 214.024 130.823 222.976 133.478 231.147C138.871 247.747 119.871 261.552 105.75 251.292C98.7993 246.242 89.3872 246.242 82.4364 251.292C68.3151 261.552 49.3151 247.747 54.7089 231.147C57.3639 222.976 54.4554 214.024 47.5046 208.974C33.3833 198.714 40.6407 176.378 58.0955 176.378Z" fill="#FFEB3B" stroke="black" stroke-width="1.81347"/>
<ellipse cx="86.1917" cy="198.062" rx="1.5544" ry="1.94301" fill="black"/>
<ellipse cx="110.026" cy="194.435" rx="4.40415" ry="5.56995" fill="black"/>
<ellipse cx="108.601" cy="192.363" rx="2.20207" ry="2.72021" fill="white"/>
<path d="M83.1359 215.122L84.3481 208.707L124.537 209.936L123.226 212.662C119.08 221.284 116.915 230.724 116.891 240.29H81.399V233.667C81.399 227.444 81.9805 221.236 83.1359 215.122Z" fill="white" stroke="black" stroke-width="1.81347"/>
<path d="M83.1359 217.972L84.3481 211.557L124.537 212.786L123.226 215.512C119.08 224.134 116.915 233.574 116.891 243.14H81.399V236.516C81.399 230.294 81.9805 224.086 83.1359 217.972Z" fill="white" stroke="black" stroke-width="1.81347"/>
<path d="M56.1689 247.155C47.0497 246.845 43.4238 227.337 49.6846 210.627C51.4574 212.225 53.4774 216.067 55.262 220.731C57.0467 225.394 58.0829 231.741 65.4952 228.632C72.9074 225.523 79.7232 221.25 86.9977 220.731C92.3143 220.351 89.4389 223.311 87.1562 224.292C88.1675 223.918 92.7514 222.667 95.7772 222.415C98.3679 222.415 98.886 222.674 99.0156 223.839C99.1451 225.005 96.532 225.146 94.4819 226.171C97.7715 225.525 99.7721 225.653 99.8616 227.207C99.9511 228.762 97.5321 229.409 93.9926 229.409C96.7936 229.409 97.8277 229.15 97.7491 230.575C97.6717 231.978 94.2308 232.115 90.7875 232.253L90.6247 232.259C94.5389 232.489 95.3393 232.259 95.3784 234.073C95.4175 235.886 91.3017 236.188 86.4796 236.404C77.8009 236.793 67.5679 247.544 56.1689 247.155Z" fill="#FFEB3B"/>
<path d="M49.6846 210.627C43.4238 227.337 47.0497 246.845 56.1689 247.155C67.5679 247.544 77.8009 236.793 86.4796 236.404C91.3017 236.188 95.4175 235.886 95.3784 234.073C95.3393 232.259 94.5389 232.489 90.6247 232.259C94.1215 232.119 97.6705 232 97.7491 230.575C97.8277 229.15 96.7936 229.409 93.9926 229.409C97.5321 229.409 99.9511 228.762 99.8616 227.207C99.7721 225.653 97.7715 225.525 94.4819 226.171C96.532 225.146 99.1451 225.005 99.0156 223.839C98.886 222.674 98.3679 222.415 95.7772 222.415C92.5389 222.684 87.5159 224.098 86.9977 224.358C89.3005 223.451 92.4382 220.342 86.9977 220.731C79.7232 221.25 72.9074 225.523 65.4952 228.632C58.0829 231.741 57.0467 225.394 55.262 220.731C53.4774 216.067 51.4574 212.225 49.6846 210.627Z" stroke="black" stroke-width="1.81347" stroke-linejoin="round"/>
<circle cx="110.026" cy="193.788" r="12.4352" stroke="black" stroke-width="3.10881"/>
<rect x="121.166" y="200.625" width="3.10881" height="18.1642" transform="rotate(-60 121.166 200.625)" fill="black"/>
<path d="M170.777 204.023C166.777 197.106 159.182 196.299 148.368 192.105C148.67 195.348 149.042 201.691 143.964 205.706C142.409 204.929 142.021 204.54 140.337 204.022C137.551 203.165 134.03 203.643 132.704 203.824L132.682 203.827C130.419 203.357 129.586 202.985 129.067 204.151C128.549 205.317 130.375 206.508 132.284 207.806C129.551 206.794 128.549 206.258 128.031 207.601C127.513 208.943 129.557 210.706 132.286 211.871C129.55 211.167 128.938 210.368 128.161 211.663C127.384 212.959 130.314 214.629 131.776 215.784C129.546 214.464 126.332 215.572 130.972 218.921C136.429 222.859 150.149 222.159 155.865 220.862C161.58 219.565 176.995 214.773 170.777 204.023Z" fill="#FFEB3B"/>
<path d="M132.682 203.827C133.665 204.71 136.2 206.632 138.478 207.258M132.682 203.827C133.992 203.649 137.535 203.16 140.337 204.022C142.021 204.54 142.409 204.929 143.964 205.706M132.682 203.827C130.419 203.357 129.586 202.985 129.067 204.151C128.549 205.317 130.375 206.508 132.284 207.806C129.551 206.794 128.549 206.258 128.031 207.601C127.513 208.943 129.557 210.706 132.286 211.871C129.55 211.167 128.938 210.368 128.161 211.663C127.384 212.959 130.314 214.629 131.776 215.784C129.546 214.464 126.332 215.572 130.972 218.921C136.429 222.859 150.149 222.159 155.865 220.862C161.58 219.565 176.995 214.773 170.777 204.023C166.777 197.106 159.182 196.299 148.368 192.105C148.67 195.348 149.042 201.691 143.964 205.706M163.965 208.196C161.6 208.952 145.518 206.483 143.964 205.706" stroke="black" stroke-width="1.81347" stroke-linecap="round" stroke-linejoin="round"/>
<path d="M230.259 296.575V269.813H214.694V296.575V304.579V311.675L254.445 311.675C255.124 311.675 255.57 310.967 255.277 310.355L254.405 308.533C251.146 301.722 245.436 297.482 238.009 297.482H231.166H230.259V296.575Z" fill="#FFFDE7" stroke="black" stroke-width="1.81347"/>
<path d="M193.385 296.575V269.813H208.95V296.575V304.579V311.675L169.199 311.675C168.521 311.675 168.074 310.967 168.367 310.355L169.239 308.533C172.498 301.722 178.208 297.482 185.635 297.482H192.478H193.385V296.575Z" fill="#FFFDE7" stroke="black" stroke-width="1.81347"/>
<path d="M260.604 232.484C255.527 231.965 247.613 231.691 244.291 231.618C246.555 237.742 251.397 250.194 252.65 251.008C254.217 252.025 260.699 253.736 268.675 249.865C277.483 245.591 280.464 237.323 281.212 229.242C281.81 222.778 283.693 220.602 284.56 220.323C292.972 215.229 291.828 212.534 290.205 211.823C293.056 209.013 290.672 207.672 289.124 207.352C293.509 202.866 288.588 203.492 285.58 204.366C286.653 203.452 288.623 201.679 286.68 200.772C284.737 199.865 277.479 204.99 274.429 207.622C273.388 198.337 269.308 206.867 267.173 210.75C265.038 214.633 266.95 233.134 260.604 232.484Z" fill="#FFFDE7" stroke="black" stroke-width="1.81347" stroke-linejoin="round"/>
<path d="M152.801 281.146C151.609 290.413 157.597 283.094 160.592 279.829C168.261 271.469 172.753 257.067 189.081 255.998C188.334 249.512 184.097 238.015 183.072 236.927C176.282 229.718 160.581 251.681 156.164 257.557C151.747 263.432 146.882 266.338 145.974 266.404C136.594 269.355 137.065 272.245 138.473 273.321C135.036 275.374 137.034 277.243 138.462 277.921C133.137 281.238 138.066 281.797 141.196 281.662C139.937 282.296 137.602 283.551 139.274 284.893C140.946 286.235 149.214 282.979 152.801 281.146Z" fill="#FFFDE7" stroke="black" stroke-width="1.81347" stroke-linejoin="round"/>
<path d="M249.091 212.378C240.499 212.378 232.885 206.846 230.23 198.675C224.836 182.074 201.351 182.074 195.957 198.675C193.302 206.846 185.687 212.378 177.096 212.378C159.641 212.378 152.383 234.714 166.505 244.974C173.455 250.024 176.364 258.976 173.709 267.147C168.315 283.747 187.315 297.552 201.436 287.292C208.387 282.242 217.799 282.242 224.75 287.292C238.871 297.552 257.871 283.747 252.478 267.147C249.823 258.976 252.731 250.024 259.682 244.974C273.803 234.714 266.546 212.378 249.091 212.378Z" fill="#FFFDE7" stroke="black" stroke-width="1.81347"/>
<path d="M205.748 237.819H216.007C216.173 237.819 216.297 237.972 216.256 238.133C215.709 240.281 214.211 243.777 210.946 243.777C207.671 243.777 205.906 240.257 205.499 238.111C205.47 237.957 205.591 237.819 205.748 237.819Z" stroke="black" stroke-width="1.81347"/>
<circle cx="9.45596" cy="9.45596" r="8.54922" transform="matrix(-1 0 0 1 234.207 214.503)" stroke="black" stroke-width="1.81347"/>
<circle cx="9.45596" cy="9.45596" r="8.54922" transform="matrix(-1 0 0 1 211.927 214.503)" stroke="black" stroke-width="1.81347"/>
<path d="M216.332 222.404C216.332 222.404 215.166 221.627 213.482 221.627C211.798 221.627 210.632 222.404 210.632 222.404" stroke="black" stroke-width="1.81347"/>
<ellipse cx="1.5544" cy="1.94301" rx="1.5544" ry="1.94301" transform="matrix(-1 0 0 1 227.212 220.72)" fill="black"/>
<ellipse cx="1.5544" cy="1.94301" rx="1.5544" ry="1.94301" transform="matrix(-1 0 0 1 204.933 220.72)" fill="black"/>
<path d="M278.507 176.255C282.617 178.901 281.011 186.129 280.066 187.925C279.365 189.256 279.15 191.15 278.976 192.105C278.901 192.516 278.584 192.753 278.178 192.852C274.649 193.716 273.138 193.537 272.601 193.358C272.374 191.884 271.562 190.618 270.144 189.484C269.4 188.889 267.121 187.027 266.412 185.421C265.703 183.815 265.136 181.972 266.648 178.475C268.16 174.978 274.396 173.609 278.507 176.255Z" fill="#FFEB3B" stroke="black" stroke-width="1.5544"/>
<path d="M275.541 198.083C275.541 198.511 275.869 198.829 276.239 198.829C276.609 198.829 276.937 198.511 276.937 198.083C276.937 197.656 276.609 197.338 276.239 197.338C275.869 197.338 275.541 197.656 275.541 198.083Z" fill="#CECECE" stroke="black" stroke-width="0.777202"/>
<path d="M278.212 196.843C278.168 196.484 277.815 196.249 277.466 196.344C276.985 196.474 276.384 196.634 276.179 196.671C275.974 196.708 275.357 196.697 274.859 196.682C274.497 196.67 274.206 196.984 274.251 197.344V197.344C274.286 197.624 274.516 197.839 274.799 197.85C275.288 197.869 276.011 197.887 276.325 197.845C276.637 197.804 277.328 197.613 277.798 197.477C278.073 197.397 278.248 197.128 278.212 196.843V196.843Z" fill="#CECECE" stroke="black" stroke-width="0.777202"/>
<path d="M278.704 195.386C278.64 194.916 278.173 194.612 277.717 194.742C277.088 194.92 276.302 195.137 276.033 195.189C275.765 195.24 274.955 195.235 274.302 195.222C273.826 195.212 273.448 195.627 273.512 196.099V196.099C273.562 196.467 273.868 196.746 274.238 196.756C274.88 196.773 275.83 196.787 276.241 196.728C276.65 196.67 277.554 196.409 278.168 196.224C278.529 196.115 278.754 195.76 278.704 195.386V195.386Z" fill="#CECECE" stroke="black" stroke-width="0.777202"/>
<path d="M279.594 193.735C279.501 193.046 278.808 192.607 278.141 192.803C277.361 193.032 276.391 193.299 275.741 193.417C275.097 193.533 274.106 193.531 273.296 193.503C272.595 193.478 272.021 194.085 272.115 194.781V194.781C272.183 195.286 272.59 195.677 273.099 195.704C273.908 195.746 275.124 195.774 276.041 195.635C276.943 195.498 278.087 195.164 278.857 194.919C279.36 194.758 279.665 194.258 279.594 193.735V193.735Z" fill="#CECECE" stroke="black" stroke-width="0.777202"/>
<path d="M276.617 193.17C276.444 190.697 276.39 185.44 277.562 184.193C279.027 182.634 278.601 186.697 275.625 186.602C272.648 186.508 272.563 186.687 271.656 185.893C270.356 184.756 271.226 183.245 272.601 185.326C274.255 187.831 274.585 191.862 274.633 193.5" stroke="black" stroke-width="0.777202"/>
<rect x="-0.21814" y="0.294358" width="1.24833" height="3.21885" rx="0.624165" transform="matrix(-0.989121 0.147102 0.147102 0.989121 271.732 168.165)" fill="#FFEB3B" stroke="black" stroke-width="0.518135"/>
<rect x="-0.348746" y="0.112284" width="1.24833" height="3.21885" rx="0.624165" transform="matrix(-0.889789 -0.456372 -0.456372 0.889789 280.069 169.825)" fill="#FFEB3B" stroke="black" stroke-width="0.518135"/>
<rect x="-0.353353" y="-0.096816" width="1.24833" height="3.21885" rx="0.624165" transform="matrix(-0.495117 -0.868827 -0.868827 0.495117 286.185 176.935)" fill="#FFEB3B" stroke="black" stroke-width="0.518135"/>
<rect x="-0.00288256" y="0.366365" width="1.24833" height="3.21885" rx="0.624165" transform="matrix(-0.712648 0.701522 0.701522 0.712648 263.544 172.382)" fill="#FFEB3B" stroke="black" stroke-width="0.518135"/>
<rect x="0.204322" y="0.304113" width="1.24833" height="3.21885" rx="0.624165" transform="matrix(-0.192597 0.981278 0.981278 0.192597 260.633 180.092)" fill="#FFEB3B" stroke="black" stroke-width="0.518135"/>
</svg>
