<svg width="316" height="375" viewBox="0 0 316 375" fill="none" xmlns="http://www.w3.org/2000/svg">
<path d="M86.9274 153.575V126.813H102.493V153.575V161.578V168.675L62.7417 168.675C62.0629 168.675 61.6165 167.966 61.9095 167.354L62.7813 165.532C66.0406 158.722 71.7508 154.482 79.1775 154.482H86.0206H86.9274V153.575Z" fill="#F57F17" stroke="black" stroke-width="1.81347"/>
<path d="M123.801 153.575V126.813H108.236V153.575V161.578L108.236 168.675L147.987 168.675C148.666 168.675 149.112 167.966 148.819 167.354L147.947 165.532C144.688 158.722 138.978 154.482 131.551 154.482H124.708H123.801V153.575Z" fill="#F57F17" stroke="black" stroke-width="1.81347"/>
<path d="M57.7668 106.777C61.5233 103.323 67.7001 98.3681 70.319 96.3222C72.1694 102.584 75.7407 115.457 75.2231 116.859C74.5762 118.612 70.4075 123.861 61.7003 125.533C52.0852 127.379 44.7502 122.538 39.3157 116.511C34.9682 111.689 32.1575 111.073 31.2956 111.368C21.5083 112.32 20.4146 109.587 23.3938 107.385C15.7514 108.163 18.8282 104.889 19.8775 103.707C17.47 103.33 16.2695 103.577 16.2695 101.945C16.2695 100.313 19.1366 99.8663 20.9307 99.1936C19.5241 99.1033 16.8839 98.8615 17.8981 96.9724C18.9123 95.0832 27.7943 94.8463 31.8128 95.1295C27.0911 87.0679 35.4647 91.4608 39.4983 93.2943C43.5319 95.1278 53.0712 111.095 57.7668 106.777Z" fill="#F57F17" stroke="black" stroke-width="1.81347" stroke-linejoin="round"/>
<path d="M154.708 106.777C150.951 103.323 144.774 98.3681 142.156 96.3222C140.305 102.584 136.734 115.457 137.251 116.859C137.898 118.612 142.067 123.861 150.774 125.533C160.389 127.379 167.724 122.538 173.159 116.511C177.506 111.689 180.317 111.073 181.179 111.368C190.966 112.32 192.06 109.587 189.081 107.385C196.723 108.163 193.646 104.889 192.597 103.707C195.005 103.33 196.205 103.577 196.205 101.945C196.205 100.313 193.338 99.8663 191.544 99.1936C192.951 99.1033 195.591 98.8615 194.576 96.9724C193.562 95.0832 184.68 94.8463 180.662 95.1295C185.384 87.0679 177.01 91.4608 172.976 93.2943C168.943 95.1278 159.403 111.095 154.708 106.777Z" fill="#F57F17" stroke="black" stroke-width="1.81347" stroke-linejoin="round"/>
<path d="M68.0955 69.3785C76.6872 69.3785 84.3018 63.8462 86.9567 55.675C92.3506 39.0745 115.836 39.0745 121.23 55.675C123.885 63.8462 131.499 69.3785 140.091 69.3785C157.546 69.3785 164.803 91.7144 150.682 101.974C143.731 107.024 140.823 115.976 143.478 124.147C148.871 140.747 129.871 154.552 115.75 144.292C108.799 139.242 99.3872 139.242 92.4364 144.292C78.3151 154.552 59.3151 140.747 64.7089 124.147C67.3639 115.976 64.4554 107.024 57.5046 101.974C43.3833 91.7144 50.6407 69.3785 68.0955 69.3785Z" fill="#F57F17" stroke="black" stroke-width="1.81347"/>
<ellipse cx="98.2644" cy="79.9196" rx="1.5544" ry="1.94301" fill="black"/>
<ellipse cx="108.497" cy="93.687" rx="4.27461" ry="5.34326" fill="black"/>
<ellipse cx="120.544" cy="79.9196" rx="1.5544" ry="1.94301" fill="black"/>
<path d="M171.152 48.9882C171.171 48.9881 171.19 48.9873 171.209 48.9859C173.063 48.8413 175.589 49.3553 177.82 51.2467C179.96 53.06 181.048 56.7319 180.039 60.0571C179.368 62.2696 178.052 63.7373 176.174 65.2553C176.053 65.3531 175.865 65.4839 175.607 65.6644C175.578 65.6847 175.548 65.7056 175.517 65.7272C175.226 65.9308 174.88 66.1757 174.532 66.4477C173.864 66.9698 173.076 67.6782 172.697 68.4993C172.682 68.5319 172.67 68.5655 172.659 68.5998C172.31 69.757 171.783 70.276 171.317 70.4974C170.838 70.7249 170.278 70.707 169.743 70.5102C169.481 70.414 169.036 70.032 168.762 69.3987C168.504 68.8017 168.438 68.069 168.794 67.3196C169.641 65.5385 170.886 64.3748 172.874 63.0683C174.582 61.9463 176.452 60.354 176.474 57.5365C176.487 56.0261 175.72 54.9963 174.833 54.3509C173.972 53.7241 172.976 53.4352 172.359 53.332C171.754 53.2308 170.818 53.2852 169.897 53.6043C168.964 53.9279 167.962 54.5537 167.353 55.6681C167.229 55.8954 167.115 56.1041 167.011 56.2963C166.694 56.8791 166.46 57.3098 166.258 57.6432C165.987 58.0901 165.835 58.2542 165.721 58.3342C164.844 58.9495 164.082 58.8251 163.523 58.467C163.226 58.2765 162.982 58.0147 162.819 57.7422C162.651 57.4617 162.6 57.2223 162.608 57.0773C162.609 57.0654 162.61 57.0536 162.61 57.0417C162.639 54.704 163.97 52.6998 165.766 51.2478C167.576 49.7851 169.722 48.9943 171.152 48.9882Z" fill="#FFEB3B" stroke="black" stroke-width="1.5544" stroke-linecap="round" stroke-linejoin="round"/>
<path d="M172.711 78.081C172.616 79.7037 171.331 80.8478 169.946 80.7595C168.561 80.6713 167.418 79.3726 167.513 77.7499C167.608 76.1272 168.893 74.9831 170.278 75.0713C171.663 75.1595 172.806 76.4582 172.711 78.081Z" fill="#FFEB3B" stroke="black" stroke-width="1.5544"/>
<path d="M197.891 223.848V197.086H213.456V223.848V231.852V238.948L173.706 238.948C173.027 238.948 172.58 238.24 172.873 237.628L173.745 235.806C177.004 228.995 182.715 224.755 190.141 224.755H196.985H197.891V223.848Z" fill="#FBC02D" stroke="black" stroke-width="1.81347"/>
<path d="M234.765 223.848V197.086H219.2V223.848V231.852V238.948L258.951 238.948C259.63 238.948 260.076 238.24 259.783 237.628L258.911 235.806C255.652 228.995 249.942 224.755 242.515 224.755H235.672H234.765V223.848Z" fill="#FBC02D" stroke="black" stroke-width="1.81347"/>
<path d="M180.096 140.378C188.687 140.378 196.302 134.846 198.957 126.675C204.351 110.074 227.836 110.074 233.23 126.675C235.885 134.846 243.499 140.378 252.091 140.378C269.546 140.378 276.803 162.714 262.682 172.974C255.731 178.024 252.823 186.976 255.478 195.147C260.871 211.747 241.871 225.552 227.75 215.292C220.799 210.242 211.387 210.242 204.436 215.292C190.315 225.552 171.315 211.747 176.709 195.147C179.364 186.976 176.455 178.024 169.505 172.974C155.383 162.714 162.641 140.378 180.096 140.378Z" fill="#FBC02D" stroke="black" stroke-width="1.81347"/>
<path d="M210.843 161.414C210.843 161.414 209.807 167.373 216.284 167.373C222.76 167.373 221.724 161.414 221.724 161.414" stroke="black" stroke-width="1.81347" stroke-linecap="round" stroke-linejoin="round"/>
<path d="M192.82 140.707C201.088 143.331 199.541 194.89 199.353 196.98C199.165 199.07 191.852 206.088 188.084 205.148C183.373 203.972 147.883 176.026 147.565 171.181C147.248 166.337 158.306 150.474 164.407 145.378C170.509 140.283 183.236 137.665 192.82 140.707Z" fill="#FFEBEB" stroke="black" stroke-width="1.81347" stroke-linecap="round" stroke-linejoin="round"/>
<path d="M185.268 130.695L186.609 133.456C186.891 134.037 186.741 134.735 186.245 135.15C185.75 135.564 185.036 135.587 184.514 135.205L182.036 133.394C181.49 132.995 181.039 132.473 180.814 131.936C180.595 131.412 180.596 130.896 180.904 130.424C181.081 130.152 181.315 129.877 181.626 129.618C181.936 129.358 182.249 129.177 182.548 129.051C183.067 128.832 183.576 128.923 184.052 129.233C184.539 129.549 184.973 130.086 185.268 130.695Z" fill="white" stroke="black" stroke-width="0.84795"/>
<path d="M193.309 140.323L190.831 138.511C190.309 138.13 189.595 138.153 189.099 138.567C188.604 138.981 188.454 139.68 188.736 140.261L190.076 143.022C190.372 143.631 190.805 144.167 191.293 144.484C191.769 144.793 192.278 144.884 192.797 144.665C193.096 144.539 193.409 144.358 193.719 144.099C194.029 143.84 194.264 143.564 194.441 143.293C194.749 142.821 194.75 142.304 194.53 141.78C194.306 141.244 193.855 140.722 193.309 140.323Z" fill="white" stroke="black" stroke-width="0.84795"/>
<path d="M190.591 130.206L189.587 133.107C189.375 133.717 188.775 134.105 188.132 134.047C187.489 133.989 186.968 133.501 186.868 132.862L186.397 129.829C186.293 129.161 186.343 128.473 186.564 127.935C186.779 127.409 187.145 127.044 187.696 126.929C188.014 126.862 188.375 126.832 188.777 126.869C189.18 126.905 189.529 126.998 189.83 127.12C190.351 127.333 190.647 127.757 190.765 128.312C190.886 128.881 190.813 129.567 190.591 130.206Z" fill="white" stroke="black" stroke-width="0.84795"/>
<path d="M194.324 134.047L191.563 135.387C190.982 135.669 190.283 135.519 189.869 135.024C189.455 134.528 189.432 133.814 189.813 133.292L191.625 130.814C192.024 130.268 192.546 129.817 193.082 129.593C193.606 129.373 194.123 129.374 194.595 129.682C194.867 129.859 195.142 130.094 195.401 130.404C195.66 130.714 195.841 131.027 195.968 131.326C196.186 131.845 196.095 132.354 195.786 132.83C195.47 133.318 194.933 133.751 194.324 134.047Z" fill="white" stroke="black" stroke-width="0.84795"/>
<path d="M194.277 139.265L191.377 138.26C190.766 138.049 190.379 137.449 190.436 136.806C190.494 136.162 190.983 135.641 191.621 135.542L194.654 135.071C195.323 134.967 196.011 135.017 196.549 135.237C197.074 135.453 197.439 135.819 197.555 136.37C197.622 136.688 197.651 137.048 197.615 137.451C197.579 137.853 197.486 138.203 197.363 138.503C197.151 139.025 196.727 139.32 196.171 139.439C195.603 139.56 194.917 139.486 194.277 139.265Z" fill="white" stroke="black" stroke-width="0.84795"/>
<path d="M184.668 143.41L185.673 140.509C185.884 139.899 186.484 139.511 187.128 139.569C187.771 139.627 188.292 140.115 188.391 140.753L188.863 143.787C188.967 144.455 188.916 145.143 188.696 145.681C188.481 146.207 188.115 146.571 187.563 146.687C187.246 146.754 186.885 146.783 186.483 146.747C186.08 146.711 185.731 146.618 185.43 146.496C184.908 146.283 184.613 145.859 184.495 145.304C184.374 144.735 184.447 144.049 184.668 143.41Z" fill="white" stroke="black" stroke-width="0.84795"/>
<path d="M180.936 139.569L183.697 138.229C184.278 137.947 184.977 138.096 185.391 138.592C185.805 139.088 185.828 139.802 185.447 140.324L183.635 142.802C183.236 143.348 182.714 143.799 182.178 144.023C181.654 144.243 181.137 144.242 180.665 143.934C180.393 143.756 180.118 143.522 179.859 143.212C179.6 142.902 179.418 142.589 179.292 142.29C179.074 141.771 179.165 141.262 179.474 140.786C179.79 140.298 180.327 139.865 180.936 139.569Z" fill="white" stroke="black" stroke-width="0.84795"/>
<path d="M180.983 134.351L183.883 135.356C184.493 135.567 184.881 136.167 184.824 136.81C184.766 137.454 184.277 137.975 183.639 138.074L180.606 138.545C179.937 138.649 179.249 138.599 178.711 138.379C178.186 138.163 177.821 137.797 177.705 137.246C177.638 136.928 177.609 136.568 177.645 136.165C177.681 135.763 177.774 135.413 177.897 135.113C178.109 134.591 178.533 134.296 179.089 134.177C179.657 134.056 180.343 134.13 180.983 134.351Z" fill="white" stroke="black" stroke-width="0.84795"/>
<circle cx="187.822" cy="136.873" r="3.39169" transform="rotate(-39.8659 187.822 136.873)" fill="#FFFDE7" stroke="black" stroke-width="0.84795"/>
<path d="M170.747 129.841L172.087 132.602C172.369 133.183 172.219 133.882 171.724 134.296C171.228 134.71 170.514 134.733 169.992 134.352L167.514 132.54C166.968 132.141 166.517 131.619 166.293 131.083C166.073 130.559 166.074 130.042 166.382 129.57C166.559 129.298 166.794 129.023 167.104 128.764C167.414 128.505 167.727 128.323 168.026 128.197C168.545 127.979 169.054 128.07 169.53 128.379C170.018 128.695 170.451 129.232 170.747 129.841Z" fill="white" stroke="black" stroke-width="0.84795"/>
<path d="M178.787 139.469L176.309 137.657C175.787 137.276 175.073 137.299 174.578 137.713C174.082 138.127 173.932 138.826 174.214 139.407L175.555 142.168C175.85 142.777 176.283 143.314 176.771 143.63C177.247 143.939 177.756 144.03 178.275 143.812C178.574 143.686 178.887 143.504 179.197 143.245C179.508 142.986 179.742 142.711 179.919 142.439C180.227 141.967 180.228 141.45 180.009 140.926C179.784 140.39 179.333 139.868 178.787 139.469Z" fill="white" stroke="black" stroke-width="0.84795"/>
<path d="M176.07 129.352L175.065 132.253C174.854 132.863 174.254 133.251 173.61 133.193C172.967 133.136 172.446 132.647 172.347 132.009L171.875 128.975C171.771 128.307 171.822 127.619 172.042 127.081C172.257 126.555 172.623 126.191 173.175 126.075C173.492 126.008 173.853 125.979 174.255 126.015C174.658 126.051 175.007 126.144 175.308 126.266C175.83 126.479 176.125 126.903 176.243 127.458C176.364 128.027 176.291 128.713 176.07 129.352Z" fill="white" stroke="black" stroke-width="0.84795"/>
<path d="M179.802 133.193L177.041 134.534C176.46 134.816 175.761 134.666 175.347 134.17C174.933 133.674 174.91 132.96 175.291 132.439L177.103 129.961C177.502 129.414 178.024 128.963 178.56 128.739C179.084 128.519 179.601 128.52 180.073 128.828C180.345 129.006 180.62 129.24 180.879 129.55C181.138 129.86 181.32 130.173 181.446 130.472C181.665 130.991 181.574 131.5 181.264 131.976C180.948 132.464 180.411 132.897 179.802 133.193Z" fill="white" stroke="black" stroke-width="0.84795"/>
<path d="M179.756 138.411L176.855 137.407C176.245 137.195 175.857 136.595 175.915 135.952C175.972 135.309 176.461 134.787 177.099 134.688L180.133 134.217C180.801 134.113 181.489 134.163 182.027 134.384C182.553 134.599 182.917 134.965 183.033 135.516C183.1 135.834 183.129 136.194 183.093 136.597C183.057 136.999 182.964 137.349 182.842 137.65C182.629 138.171 182.205 138.467 181.65 138.585C181.081 138.706 180.395 138.633 179.756 138.411Z" fill="white" stroke="black" stroke-width="0.84795"/>
<path d="M170.147 142.556L171.151 139.656C171.363 139.045 171.963 138.657 172.606 138.715C173.249 138.773 173.77 139.262 173.87 139.9L174.341 142.933C174.445 143.601 174.395 144.29 174.174 144.828C173.959 145.353 173.593 145.718 173.042 145.834C172.724 145.9 172.364 145.93 171.961 145.894C171.558 145.857 171.209 145.764 170.908 145.642C170.387 145.43 170.091 145.006 169.973 144.45C169.852 143.882 169.925 143.195 170.147 142.556Z" fill="white" stroke="black" stroke-width="0.84795"/>
<path d="M166.414 138.716L169.176 137.375C169.757 137.093 170.455 137.243 170.869 137.739C171.283 138.234 171.306 138.948 170.925 139.47L169.114 141.948C168.714 142.494 168.192 142.945 167.656 143.17C167.132 143.389 166.615 143.388 166.144 143.08C165.872 142.903 165.596 142.669 165.337 142.358C165.078 142.048 164.897 141.735 164.771 141.436C164.552 140.917 164.643 140.408 164.952 139.932C165.269 139.444 165.806 139.011 166.414 138.716Z" fill="white" stroke="black" stroke-width="0.84795"/>
<path d="M166.461 133.497L169.361 134.502C169.972 134.713 170.36 135.313 170.302 135.956C170.244 136.6 169.755 137.121 169.117 137.22L166.084 137.692C165.415 137.795 164.727 137.745 164.189 137.525C163.664 137.31 163.299 136.943 163.183 136.392C163.116 136.074 163.087 135.714 163.123 135.312C163.16 134.909 163.253 134.56 163.375 134.259C163.587 133.737 164.011 133.442 164.567 133.324C165.135 133.203 165.822 133.276 166.461 133.497Z" fill="white" stroke="black" stroke-width="0.84795"/>
<circle cx="173.3" cy="136.019" r="3.39169" transform="rotate(-39.8659 173.3 136.019)" fill="#FFFDE7" stroke="black" stroke-width="0.84795"/>
<path d="M160.916 125.346L162.257 128.108C162.539 128.689 162.389 129.387 161.893 129.801C161.398 130.215 160.684 130.238 160.162 129.857L157.684 128.046C157.138 127.647 156.687 127.124 156.462 126.588C156.243 126.064 156.244 125.548 156.552 125.076C156.729 124.804 156.963 124.528 157.274 124.269C157.584 124.01 157.897 123.829 158.196 123.703C158.715 123.484 159.223 123.575 159.7 123.884C160.187 124.201 160.621 124.738 160.916 125.346Z" fill="white" stroke="black" stroke-width="0.84795"/>
<path d="M168.957 134.974L166.479 133.163C165.957 132.782 165.243 132.805 164.747 133.219C164.251 133.633 164.102 134.331 164.384 134.912L165.724 137.674C166.02 138.282 166.453 138.819 166.941 139.136C167.417 139.445 167.926 139.536 168.445 139.317C168.744 139.191 169.057 139.01 169.367 138.751C169.677 138.492 169.911 138.216 170.089 137.944C170.397 137.473 170.398 136.956 170.178 136.432C169.954 135.896 169.503 135.374 168.957 134.974Z" fill="white" stroke="black" stroke-width="0.84795"/>
<path d="M166.239 124.858L165.235 127.759C165.023 128.369 164.423 128.757 163.78 128.699C163.137 128.641 162.616 128.153 162.516 127.514L162.045 124.481C161.941 123.813 161.991 123.124 162.212 122.587C162.427 122.061 162.793 121.696 163.344 121.58C163.662 121.514 164.022 121.484 164.425 121.521C164.828 121.557 165.177 121.65 165.478 121.772C165.999 121.984 166.295 122.408 166.413 122.964C166.534 123.533 166.461 124.219 166.239 124.858Z" fill="white" stroke="black" stroke-width="0.84795"/>
<path d="M169.972 128.698L167.211 130.039C166.63 130.321 165.931 130.171 165.517 129.676C165.103 129.18 165.08 128.466 165.461 127.944L167.273 125.466C167.672 124.92 168.194 124.469 168.73 124.244C169.254 124.025 169.771 124.026 170.243 124.334C170.514 124.511 170.79 124.746 171.049 125.056C171.308 125.366 171.489 125.679 171.616 125.978C171.834 126.497 171.743 127.006 171.434 127.482C171.118 127.97 170.581 128.403 169.972 128.698Z" fill="white" stroke="black" stroke-width="0.84795"/>
<path d="M169.925 133.917L167.025 132.912C166.414 132.701 166.027 132.101 166.084 131.458C166.142 130.814 166.631 130.293 167.269 130.194L170.302 129.722C170.971 129.619 171.659 129.669 172.197 129.889C172.722 130.105 173.087 130.471 173.203 131.022C173.27 131.34 173.299 131.7 173.263 132.103C173.227 132.505 173.134 132.855 173.011 133.155C172.799 133.677 172.375 133.972 171.819 134.09C171.251 134.211 170.565 134.138 169.925 133.917Z" fill="white" stroke="black" stroke-width="0.84795"/>
<path d="M160.316 138.062L161.321 135.161C161.532 134.551 162.132 134.163 162.776 134.221C163.419 134.279 163.94 134.767 164.039 135.405L164.511 138.439C164.615 139.107 164.564 139.795 164.344 140.333C164.129 140.859 163.763 141.223 163.211 141.339C162.894 141.406 162.533 141.435 162.131 141.399C161.728 141.363 161.379 141.27 161.078 141.148C160.556 140.935 160.261 140.511 160.143 139.956C160.022 139.387 160.095 138.701 160.316 138.062Z" fill="white" stroke="black" stroke-width="0.84795"/>
<path d="M156.584 134.221L159.345 132.881C159.926 132.598 160.625 132.748 161.039 133.244C161.453 133.74 161.476 134.454 161.095 134.975L159.283 137.454C158.884 138 158.362 138.451 157.826 138.675C157.302 138.895 156.785 138.894 156.313 138.586C156.041 138.408 155.766 138.174 155.507 137.864C155.248 137.554 155.066 137.241 154.94 136.942C154.722 136.423 154.813 135.914 155.122 135.438C155.438 134.95 155.975 134.517 156.584 134.221Z" fill="white" stroke="black" stroke-width="0.84795"/>
<path d="M156.631 129.003L159.531 130.007C160.141 130.219 160.529 130.819 160.472 131.462C160.414 132.105 159.925 132.627 159.287 132.726L156.254 133.197C155.585 133.301 154.897 133.251 154.359 133.03C153.833 132.815 153.469 132.449 153.353 131.898C153.286 131.58 153.257 131.22 153.293 130.817C153.329 130.415 153.422 130.065 153.545 129.765C153.757 129.243 154.181 128.947 154.737 128.829C155.305 128.708 155.991 128.781 156.631 129.003Z" fill="white" stroke="black" stroke-width="0.84795"/>
<circle cx="163.47" cy="131.525" r="3.39169" transform="rotate(-39.8659 163.47 131.525)" fill="#FFFDE7" stroke="black" stroke-width="0.84795"/>
<path d="M155.01 135.801L156.351 138.563C156.633 139.144 156.483 139.842 155.987 140.256C155.492 140.67 154.778 140.693 154.256 140.312L151.778 138.501C151.232 138.101 150.781 137.579 150.556 137.043C150.337 136.519 150.338 136.002 150.646 135.531C150.823 135.259 151.057 134.983 151.368 134.724C151.678 134.465 151.991 134.284 152.29 134.158C152.809 133.939 153.318 134.03 153.794 134.339C154.282 134.656 154.715 135.193 155.01 135.801Z" fill="white" stroke="black" stroke-width="0.84795"/>
<path d="M163.051 145.429L160.573 143.618C160.051 143.237 159.337 143.26 158.841 143.674C158.346 144.088 158.196 144.786 158.478 145.367L159.818 148.129C160.114 148.737 160.547 149.274 161.035 149.591C161.511 149.9 162.02 149.991 162.539 149.772C162.838 149.646 163.151 149.465 163.461 149.206C163.771 148.947 164.006 148.671 164.183 148.399C164.491 147.927 164.492 147.411 164.272 146.887C164.048 146.351 163.597 145.828 163.051 145.429Z" fill="white" stroke="black" stroke-width="0.84795"/>
<path d="M160.333 135.313L159.329 138.213C159.117 138.824 158.517 139.212 157.874 139.154C157.231 139.096 156.71 138.607 156.61 137.969L156.139 134.936C156.035 134.267 156.085 133.579 156.306 133.041C156.521 132.516 156.887 132.151 157.438 132.035C157.756 131.968 158.117 131.939 158.519 131.975C158.922 132.011 159.271 132.104 159.572 132.227C160.093 132.439 160.389 132.863 160.507 133.419C160.628 133.987 160.555 134.673 160.333 135.313Z" fill="white" stroke="black" stroke-width="0.84795"/>
<path d="M164.066 139.153L161.305 140.494C160.724 140.776 160.025 140.626 159.611 140.13C159.197 139.635 159.174 138.921 159.555 138.399L161.367 135.921C161.766 135.375 162.288 134.924 162.824 134.699C163.348 134.48 163.865 134.481 164.337 134.789C164.609 134.966 164.884 135.2 165.143 135.51C165.402 135.821 165.583 136.134 165.71 136.433C165.928 136.952 165.837 137.46 165.528 137.937C165.212 138.424 164.675 138.858 164.066 139.153Z" fill="white" stroke="black" stroke-width="0.84795"/>
<path d="M164.019 144.372L161.119 143.367C160.508 143.156 160.121 142.556 160.178 141.912C160.236 141.269 160.725 140.748 161.363 140.649L164.396 140.177C165.065 140.073 165.753 140.124 166.291 140.344C166.816 140.559 167.181 140.925 167.297 141.477C167.364 141.794 167.393 142.155 167.357 142.557C167.321 142.96 167.228 143.309 167.105 143.61C166.893 144.132 166.469 144.427 165.913 144.545C165.345 144.666 164.659 144.593 164.019 144.372Z" fill="white" stroke="black" stroke-width="0.84795"/>
<path d="M154.411 148.517L155.415 145.616C155.626 145.006 156.226 144.618 156.87 144.676C157.513 144.733 158.034 145.222 158.133 145.86L158.605 148.893C158.709 149.562 158.658 150.25 158.438 150.788C158.223 151.314 157.857 151.678 157.305 151.794C156.988 151.861 156.627 151.89 156.225 151.854C155.822 151.818 155.473 151.725 155.172 151.602C154.65 151.39 154.355 150.966 154.237 150.41C154.116 149.842 154.189 149.156 154.411 148.517Z" fill="white" stroke="black" stroke-width="0.84795"/>
<path d="M150.678 144.676L153.439 143.335C154.02 143.053 154.719 143.203 155.133 143.699C155.547 144.195 155.57 144.909 155.189 145.43L153.377 147.908C152.978 148.454 152.456 148.906 151.92 149.13C151.396 149.349 150.879 149.348 150.407 149.04C150.135 148.863 149.86 148.629 149.601 148.319C149.342 148.009 149.16 147.696 149.034 147.397C148.816 146.877 148.907 146.369 149.216 145.892C149.532 145.405 150.069 144.971 150.678 144.676Z" fill="white" stroke="black" stroke-width="0.84795"/>
<path d="M150.725 139.458L153.625 140.462C154.236 140.674 154.623 141.274 154.566 141.917C154.508 142.56 154.019 143.081 153.381 143.181L150.348 143.652C149.679 143.756 148.991 143.706 148.453 143.485C147.928 143.27 147.563 142.904 147.447 142.352C147.38 142.035 147.351 141.674 147.387 141.272C147.423 140.869 147.516 140.52 147.639 140.219C147.851 139.697 148.275 139.402 148.831 139.284C149.399 139.163 150.085 139.236 150.725 139.458Z" fill="white" stroke="black" stroke-width="0.84795"/>
<circle cx="157.564" cy="141.979" r="3.39169" transform="rotate(-39.8659 157.564 141.979)" fill="#FFFDE7" stroke="black" stroke-width="0.84795"/>
<path d="M139.835 158.97L141.176 161.731C141.458 162.312 141.308 163.011 140.812 163.425C140.316 163.839 139.602 163.862 139.081 163.481L136.603 161.669C136.057 161.27 135.606 160.748 135.381 160.212C135.162 159.688 135.163 159.171 135.471 158.699C135.648 158.428 135.882 158.152 136.192 157.893C136.503 157.634 136.815 157.453 137.114 157.327C137.634 157.108 138.142 157.199 138.619 157.508C139.106 157.825 139.54 158.361 139.835 158.97Z" fill="white" stroke="black" stroke-width="0.84795"/>
<path d="M147.875 168.598L145.397 166.787C144.876 166.405 144.162 166.428 143.666 166.842C143.17 167.256 143.02 167.955 143.302 168.536L144.643 171.297C144.939 171.906 145.372 172.443 145.859 172.759C146.336 173.069 146.845 173.16 147.364 172.941C147.663 172.815 147.976 172.633 148.286 172.374C148.596 172.115 148.83 171.84 149.008 171.568C149.315 171.096 149.317 170.579 149.097 170.056C148.873 169.519 148.422 168.997 147.875 168.598Z" fill="white" stroke="black" stroke-width="0.84795"/>
<path d="M145.158 158.482L144.153 161.382C143.942 161.993 143.342 162.38 142.699 162.323C142.055 162.265 141.534 161.776 141.435 161.138L140.964 158.105C140.86 157.436 140.91 156.748 141.13 156.21C141.346 155.685 141.712 155.32 142.263 155.204C142.581 155.137 142.941 155.108 143.344 155.144C143.746 155.18 144.096 155.273 144.396 155.396C144.918 155.608 145.213 156.032 145.332 156.588C145.453 157.156 145.379 157.842 145.158 158.482Z" fill="white" stroke="black" stroke-width="0.84795"/>
<path d="M148.891 162.322L146.129 163.663C145.548 163.945 144.85 163.795 144.436 163.299C144.022 162.803 143.999 162.089 144.38 161.568L146.191 159.09C146.591 158.544 147.113 158.093 147.649 157.868C148.173 157.649 148.69 157.65 149.161 157.958C149.433 158.135 149.709 158.369 149.968 158.679C150.227 158.99 150.408 159.302 150.534 159.601C150.753 160.121 150.662 160.629 150.353 161.106C150.036 161.593 149.499 162.027 148.891 162.322Z" fill="white" stroke="black" stroke-width="0.84795"/>
<path d="M148.844 167.54L145.944 166.536C145.333 166.324 144.945 165.725 145.003 165.081C145.061 164.438 145.55 163.917 146.188 163.818L149.221 163.346C149.89 163.242 150.578 163.292 151.116 163.513C151.641 163.728 152.006 164.094 152.122 164.646C152.188 164.963 152.218 165.324 152.182 165.726C152.145 166.129 152.052 166.478 151.93 166.779C151.718 167.301 151.294 167.596 150.738 167.714C150.17 167.835 149.483 167.762 148.844 167.54Z" fill="white" stroke="black" stroke-width="0.84795"/>
<path d="M139.235 171.685L140.24 168.785C140.451 168.174 141.051 167.787 141.694 167.844C142.338 167.902 142.859 168.391 142.958 169.029L143.43 172.062C143.533 172.731 143.483 173.419 143.263 173.957C143.047 174.482 142.681 174.847 142.13 174.963C141.812 175.03 141.452 175.059 141.049 175.023C140.647 174.987 140.297 174.894 139.997 174.771C139.475 174.559 139.18 174.135 139.062 173.579C138.941 173.011 139.014 172.325 139.235 171.685Z" fill="white" stroke="black" stroke-width="0.84795"/>
<path d="M135.503 167.845L138.264 166.504C138.845 166.222 139.544 166.372 139.958 166.868C140.372 167.363 140.395 168.078 140.013 168.599L138.202 171.077C137.803 171.623 137.281 172.074 136.744 172.299C136.22 172.518 135.704 172.517 135.232 172.209C134.96 172.032 134.685 171.798 134.426 171.488C134.166 171.177 133.985 170.865 133.859 170.565C133.64 170.046 133.731 169.538 134.041 169.061C134.357 168.574 134.894 168.14 135.503 167.845Z" fill="white" stroke="black" stroke-width="0.84795"/>
<path d="M135.549 162.626L138.45 163.631C139.06 163.842 139.448 164.442 139.39 165.086C139.332 165.729 138.844 166.25 138.206 166.349L135.172 166.821C134.504 166.925 133.816 166.874 133.278 166.654C132.752 166.439 132.388 166.073 132.272 165.521C132.205 165.204 132.176 164.843 132.212 164.441C132.248 164.038 132.341 163.689 132.463 163.388C132.676 162.866 133.1 162.571 133.655 162.453C134.224 162.332 134.91 162.405 135.549 162.626Z" fill="white" stroke="black" stroke-width="0.84795"/>
<circle cx="142.388" cy="165.148" r="3.39169" transform="rotate(-39.8659 142.388 165.148)" fill="#FFFDE7" stroke="black" stroke-width="0.84795"/>
<path d="M143.696 139.452L145.037 142.214C145.319 142.795 145.169 143.493 144.673 143.907C144.177 144.321 143.463 144.344 142.942 143.963L140.464 142.152C139.917 141.753 139.466 141.23 139.242 140.694C139.022 140.17 139.024 139.654 139.331 139.182C139.509 138.91 139.743 138.634 140.053 138.375C140.363 138.116 140.676 137.935 140.975 137.809C141.494 137.59 142.003 137.681 142.48 137.99C142.967 138.307 143.4 138.844 143.696 139.452Z" fill="white" stroke="black" stroke-width="0.84795"/>
<path d="M151.736 149.08L149.258 147.269C148.737 146.888 148.023 146.911 147.527 147.325C147.031 147.739 146.881 148.437 147.163 149.018L148.504 151.78C148.799 152.388 149.233 152.925 149.72 153.242C150.197 153.551 150.705 153.642 151.225 153.423C151.524 153.297 151.837 153.116 152.147 152.857C152.457 152.598 152.691 152.322 152.868 152.05C153.176 151.579 153.177 151.062 152.958 150.538C152.734 150.002 152.282 149.48 151.736 149.08Z" fill="white" stroke="black" stroke-width="0.84795"/>
<path d="M149.019 138.964L148.014 141.864C147.803 142.475 147.203 142.863 146.56 142.805C145.916 142.747 145.395 142.259 145.296 141.62L144.824 138.587C144.721 137.919 144.771 137.23 144.991 136.693C145.207 136.167 145.573 135.802 146.124 135.686C146.442 135.62 146.802 135.59 147.205 135.626C147.607 135.663 147.957 135.756 148.257 135.878C148.779 136.09 149.074 136.514 149.192 137.07C149.313 137.638 149.24 138.325 149.019 138.964Z" fill="white" stroke="black" stroke-width="0.84795"/>
<path d="M152.752 142.804L149.99 144.145C149.409 144.427 148.711 144.277 148.297 143.781C147.883 143.286 147.86 142.572 148.241 142.05L150.052 139.572C150.452 139.026 150.974 138.575 151.51 138.35C152.034 138.131 152.55 138.132 153.022 138.44C153.294 138.617 153.57 138.851 153.829 139.162C154.088 139.472 154.269 139.785 154.395 140.084C154.614 140.603 154.523 141.112 154.214 141.588C153.897 142.076 153.36 142.509 152.752 142.804Z" fill="white" stroke="black" stroke-width="0.84795"/>
<path d="M152.705 148.023L149.804 147.018C149.194 146.807 148.806 146.207 148.864 145.564C148.922 144.92 149.41 144.399 150.049 144.3L153.082 143.828C153.75 143.725 154.439 143.775 154.976 143.995C155.502 144.21 155.867 144.577 155.983 145.128C156.049 145.446 156.079 145.806 156.042 146.209C156.006 146.611 155.913 146.96 155.791 147.261C155.579 147.783 155.155 148.078 154.599 148.196C154.03 148.317 153.344 148.244 152.705 148.023Z" fill="white" stroke="black" stroke-width="0.84795"/>
<path d="M143.096 152.168L144.101 149.267C144.312 148.657 144.912 148.269 145.555 148.327C146.199 148.384 146.72 148.873 146.819 149.511L147.29 152.545C147.394 153.213 147.344 153.901 147.124 154.439C146.908 154.965 146.542 155.329 145.991 155.445C145.673 155.512 145.313 155.541 144.91 155.505C144.508 155.469 144.158 155.376 143.858 155.254C143.336 155.041 143.041 154.617 142.922 154.062C142.801 153.493 142.875 152.807 143.096 152.168Z" fill="white" stroke="black" stroke-width="0.84795"/>
<path d="M139.363 148.327L142.125 146.986C142.706 146.704 143.404 146.854 143.818 147.35C144.232 147.846 144.255 148.56 143.874 149.081L142.063 151.559C141.664 152.106 141.141 152.557 140.605 152.781C140.081 153.001 139.565 153 139.093 152.692C138.821 152.514 138.545 152.28 138.286 151.97C138.027 151.66 137.846 151.347 137.72 151.048C137.501 150.529 137.592 150.02 137.901 149.544C138.218 149.056 138.755 148.623 139.363 148.327Z" fill="white" stroke="black" stroke-width="0.84795"/>
<path d="M139.41 143.109L142.311 144.113C142.921 144.325 143.309 144.925 143.251 145.568C143.193 146.211 142.705 146.733 142.066 146.832L139.033 147.303C138.365 147.407 137.677 147.357 137.139 147.136C136.613 146.921 136.248 146.555 136.133 146.004C136.066 145.686 136.037 145.326 136.073 144.923C136.109 144.521 136.202 144.171 136.324 143.87C136.537 143.349 136.961 143.053 137.516 142.935C138.085 142.814 138.771 142.887 139.41 143.109Z" fill="white" stroke="black" stroke-width="0.84795"/>
<circle cx="146.249" cy="145.631" r="3.39169" transform="rotate(-39.8659 146.249 145.631)" fill="#FFFDE7" stroke="black" stroke-width="0.84795"/>
<path d="M145.119 150.416L146.46 153.177C146.742 153.758 146.592 154.457 146.096 154.871C145.6 155.285 144.886 155.308 144.365 154.927L141.887 153.115C141.34 152.716 140.889 152.194 140.665 151.658C140.445 151.134 140.447 150.617 140.754 150.145C140.932 149.874 141.166 149.598 141.476 149.339C141.786 149.08 142.099 148.899 142.398 148.773C142.917 148.554 143.426 148.645 143.902 148.954C144.39 149.271 144.823 149.807 145.119 150.416Z" fill="white" stroke="black" stroke-width="0.84795"/>
<path d="M153.159 160.044L150.681 158.233C150.16 157.851 149.446 157.874 148.95 158.288C148.454 158.702 148.304 159.401 148.586 159.982L149.927 162.743C150.222 163.352 150.656 163.889 151.143 164.205C151.62 164.515 152.128 164.606 152.648 164.387C152.947 164.261 153.259 164.079 153.57 163.82C153.88 163.561 154.114 163.286 154.291 163.014C154.599 162.542 154.6 162.025 154.381 161.502C154.156 160.965 153.705 160.443 153.159 160.044Z" fill="white" stroke="black" stroke-width="0.84795"/>
<path d="M150.442 149.928L149.437 152.828C149.226 153.438 148.626 153.826 147.983 153.769C147.339 153.711 146.818 153.222 146.719 152.584L146.247 149.551C146.144 148.882 146.194 148.194 146.414 147.656C146.63 147.13 146.996 146.766 147.547 146.65C147.865 146.583 148.225 146.554 148.628 146.59C149.03 146.626 149.38 146.719 149.68 146.842C150.202 147.054 150.497 147.478 150.615 148.034C150.736 148.602 150.663 149.288 150.442 149.928Z" fill="white" stroke="black" stroke-width="0.84795"/>
<path d="M154.175 153.768L151.413 155.109C150.832 155.391 150.134 155.241 149.72 154.745C149.306 154.249 149.283 153.535 149.664 153.014L151.475 150.536C151.874 149.99 152.397 149.538 152.933 149.314C153.457 149.095 153.973 149.096 154.445 149.404C154.717 149.581 154.993 149.815 155.252 150.125C155.511 150.435 155.692 150.748 155.818 151.047C156.037 151.567 155.946 152.075 155.637 152.552C155.32 153.039 154.783 153.473 154.175 153.768Z" fill="white" stroke="black" stroke-width="0.84795"/>
<path d="M154.128 158.986L151.227 157.982C150.617 157.77 150.229 157.17 150.287 156.527C150.345 155.884 150.833 155.363 151.472 155.263L154.505 154.792C155.173 154.688 155.861 154.738 156.399 154.959C156.925 155.174 157.29 155.54 157.405 156.092C157.472 156.409 157.502 156.77 157.465 157.172C157.429 157.575 157.336 157.924 157.214 158.225C157.001 158.747 156.577 159.042 156.022 159.16C155.453 159.281 154.767 159.208 154.128 158.986Z" fill="white" stroke="black" stroke-width="0.84795"/>
<path d="M144.519 163.131L145.524 160.231C145.735 159.62 146.335 159.233 146.978 159.29C147.622 159.348 148.143 159.837 148.242 160.475L148.713 163.508C148.817 164.177 148.767 164.865 148.547 165.403C148.331 165.928 147.965 166.293 147.414 166.409C147.096 166.476 146.736 166.505 146.333 166.469C145.931 166.433 145.581 166.34 145.281 166.217C144.759 166.005 144.464 165.581 144.345 165.025C144.224 164.457 144.298 163.771 144.519 163.131Z" fill="white" stroke="black" stroke-width="0.84795"/>
<path d="M140.786 159.291L143.548 157.95C144.129 157.668 144.827 157.818 145.241 158.314C145.655 158.809 145.678 159.523 145.297 160.045L143.486 162.523C143.087 163.069 142.564 163.52 142.028 163.745C141.504 163.964 140.988 163.963 140.516 163.655C140.244 163.478 139.968 163.244 139.709 162.934C139.45 162.623 139.269 162.31 139.143 162.011C138.924 161.492 139.015 160.984 139.324 160.507C139.641 160.02 140.178 159.586 140.786 159.291Z" fill="white" stroke="black" stroke-width="0.84795"/>
<path d="M140.833 154.072L143.734 155.077C144.344 155.288 144.732 155.888 144.674 156.532C144.616 157.175 144.128 157.696 143.489 157.795L140.456 158.267C139.788 158.371 139.1 158.32 138.562 158.1C138.036 157.885 137.671 157.519 137.556 156.967C137.489 156.65 137.459 156.289 137.496 155.887C137.532 155.484 137.625 155.135 137.747 154.834C137.96 154.312 138.384 154.017 138.939 153.899C139.508 153.778 140.194 153.851 140.833 154.072Z" fill="white" stroke="black" stroke-width="0.84795"/>
<circle cx="147.672" cy="156.594" r="3.39169" transform="rotate(-39.8659 147.672 156.594)" fill="#FFFDE7" stroke="black" stroke-width="0.84795"/>
<path d="M191.714 221.269C188.813 220.978 188.807 206.2 189.034 205.459C189.261 204.719 198.243 197.709 199.584 197.753C201.261 197.808 211.206 205.62 210.961 207.28C210.717 208.94 205.382 215.283 202.713 217.512C200.043 219.741 195.078 221.606 191.714 221.269Z" fill="#FFEBEB" stroke="black" stroke-width="1.81347" stroke-linecap="round" stroke-linejoin="round"/>
<path d="M147.052 197.165C147.052 190.783 152.751 183.709 156.249 181.362C156.249 181.362 158.724 183.305 163.373 186.414L167.173 184.126C169.605 182.543 172.34 181.015 175.42 179.161C181.23 176.523 190.315 173.587 193.828 173.155C200.808 172.296 200.29 174.886 197.699 176.311C201.531 176.634 203.332 175.729 203.689 177.575C204.047 179.421 201.216 179.491 198.934 180.176C202.787 180.386 203.689 179.925 203.689 181.752C203.689 183.58 199.24 184.013 196.381 183.58C199.946 184.758 200.632 184.991 200.396 186.415C200.161 187.84 196.983 187.477 193.828 186.984C196.015 187.326 195.876 188.216 195.497 189.136C195.118 190.055 188.674 188.098 185.956 189.537C182.339 191.451 181.064 192.877 167.907 203.642C157.933 211.803 147.052 208.849 147.052 197.165Z" fill="#FBC02D"/>
<path d="M160.639 189.537C164.385 185.322 169.202 182.904 175.42 179.161M175.42 179.161C181.23 176.523 190.315 173.587 193.828 173.155C200.808 172.296 200.29 174.886 197.699 176.311C201.531 176.634 203.332 175.729 203.689 177.575C204.047 179.421 201.216 179.491 198.934 180.176C202.787 180.386 203.689 179.925 203.689 181.752C203.689 183.58 199.24 184.013 196.381 183.58C199.946 184.758 200.632 184.991 200.396 186.415C200.161 187.84 196.983 187.477 193.828 186.984C196.015 187.326 195.876 188.216 195.497 189.136C195.118 190.055 188.674 188.098 185.956 189.537C182.339 191.451 181.064 192.877 167.907 203.642C157.933 211.803 147.052 208.849 147.052 197.165C147.052 190.783 152.751 183.709 156.249 181.362C156.249 181.362 158.724 183.305 163.373 186.414L175.42 179.161Z" stroke="black" stroke-width="1.81347" stroke-linecap="round" stroke-linejoin="round"/>
<ellipse cx="203.529" cy="150.662" rx="1.5544" ry="1.94301" fill="black"/>
<ellipse cx="225.808" cy="150.662" rx="1.5544" ry="1.94301" fill="black"/>
<path d="M235.143 128.266L238.2 114.991C238.258 114.741 238.06 114.492 237.792 114.5C235.917 114.55 232.731 114.605 229.452 114.518C226.193 114.431 222.766 114.204 220.445 113.669C218.118 113.133 214.883 111.823 211.857 110.459C208.813 109.087 205.911 107.627 204.224 106.759C203.985 106.636 203.7 106.775 203.643 107.023L200.586 120.297C200.549 120.458 200.615 120.597 200.725 120.667C202.87 122.018 209.499 125.909 217.217 127.687C224.92 129.461 232.395 128.826 234.861 128.535C234.988 128.52 235.106 128.425 235.143 128.266Z" fill="#293154" stroke="black" stroke-width="1.81347"/>
<path d="M195.881 105.558L223.604 96.6467C223.745 96.6016 223.9 96.6374 224.006 96.7393L244.926 116.858C245.152 117.075 245.039 117.447 244.73 117.506L218.013 122.585C217.903 122.607 217.788 122.58 217.698 122.513L195.771 106.227C195.518 106.039 195.582 105.654 195.881 105.558Z" fill="#1E2646" stroke="black" stroke-width="1.81347"/>
<path d="M264.057 172.017C272.506 181.526 280.294 194.509 277.368 202.068C273.375 212.384 252.91 209.709 236.242 198.594C228.188 193.223 226.925 192.243 227.622 190.818C228.319 189.393 231.776 190.209 231.378 190.043C225.95 187.776 226.327 183.155 233.193 186.187C229.251 183.207 229.178 176.795 237.524 183.271C233.201 179.658 233.456 173.72 241.388 181.52C240.057 178.902 244.073 179.161 246.813 183.155C248.937 186.249 250.813 190.302 254.57 193.015C252.394 181.938 259.988 174.401 264.057 172.017Z" fill="#FBC02D"/>
<path d="M265.451 194.685C262.213 196.239 257.223 194.93 254.57 193.015M254.57 193.015C250.813 190.302 248.937 186.249 246.813 183.155C244.073 179.161 240.057 178.902 241.388 181.52C233.193 173.461 233.193 180.067 237.969 183.623C229.176 176.57 229.182 183.155 233.193 186.187C226.327 183.155 225.95 187.776 231.378 190.043C231.776 190.209 228.319 189.393 227.622 190.818C226.925 192.243 228.188 193.223 236.242 198.594C252.91 209.709 273.375 212.384 277.368 202.068C280.294 194.509 272.506 181.526 264.057 172.017C259.988 174.401 252.394 181.938 254.57 193.015Z" stroke="black" stroke-width="1.81347" stroke-linecap="round" stroke-linejoin="round"/>
<path d="M81.9271 278.575V251.813H97.4923V278.575V286.578V293.675L57.7414 293.675C57.0625 293.675 56.6162 292.966 56.9092 292.354L57.781 290.532C61.0403 283.722 66.7505 279.482 74.1772 279.482H81.0203H81.9271V278.575Z" fill="#FFFDE7" stroke="black" stroke-width="1.81347"/>
<path d="M118.801 278.575V251.813H103.236V278.575V286.578L103.236 293.675L142.986 293.675C143.665 293.675 144.112 292.966 143.819 292.354L142.947 290.532C139.688 283.722 133.977 279.482 126.551 279.482H119.708H118.801V278.575Z" fill="#FFFDE7" stroke="black" stroke-width="1.81347"/>
<path d="M51.5828 214.481C56.6593 213.962 64.5734 213.688 67.8959 213.615C65.6317 219.739 60.7899 232.191 59.5363 233.005C57.9693 234.022 51.4881 235.733 43.5116 231.862C34.7033 227.588 31.7229 219.32 30.9751 211.239C30.3769 204.775 28.4937 202.599 27.6268 202.32C19.2151 197.226 20.3585 194.531 21.9817 193.82C19.1305 191.01 21.5144 189.669 23.0627 189.349C18.6774 184.863 23.5984 185.489 26.607 186.363C25.5341 185.449 23.5634 183.676 25.5064 182.769C27.4494 181.862 34.7076 186.987 37.7578 189.619C38.7985 180.334 42.8791 188.864 45.0137 192.747C47.1483 196.63 45.2371 215.131 51.5828 214.481Z" fill="#FFFDE7" stroke="black" stroke-width="1.81347" stroke-linejoin="round"/>
<path d="M159.385 263.146C160.577 272.412 154.589 265.094 151.594 261.829C143.925 253.469 139.433 239.066 123.106 237.998C123.852 231.511 128.089 220.015 129.114 218.927C135.904 211.717 151.605 233.681 156.022 239.556C160.439 245.432 165.304 248.337 166.212 248.403C175.592 251.355 175.121 254.245 173.713 255.321C177.15 257.374 175.153 259.242 173.724 259.92C179.049 263.238 174.12 263.797 170.99 263.662C172.249 264.295 174.584 265.55 172.912 266.892C171.24 268.234 162.973 264.978 159.385 263.146Z" fill="#FFFDE7" stroke="black" stroke-width="1.81347" stroke-linejoin="round"/>
<path d="M81.9561 180.677C87.3499 164.077 110.835 164.077 116.229 180.677C118.884 188.849 126.499 194.381 135.09 194.381C152.545 194.381 159.803 216.717 145.681 226.977C138.73 232.027 135.822 240.978 138.477 249.149C143.871 265.75 124.871 279.554 110.749 269.294C103.799 264.244 94.3866 264.244 87.4357 269.294C73.3145 279.554 54.3144 265.75 59.7083 249.149C62.3633 240.978 59.4548 232.027 52.5039 226.977C38.3827 216.717 45.64 194.381 63.0949 194.381C71.6866 194.381 79.3011 188.849 81.9561 180.677Z" fill="#FFFDE7" stroke="black" stroke-width="1.81347"/>
<path d="M106.437 219.82H96.1786C96.0124 219.82 95.8888 219.973 95.9298 220.134C96.4771 222.283 97.9752 225.779 101.24 225.779C104.515 225.779 106.28 222.259 106.687 220.113C106.716 219.958 106.595 219.82 106.437 219.82Z" stroke="black" stroke-width="1.81347"/>
<circle cx="87.4351" cy="205.956" r="8.54922" stroke="black" stroke-width="1.81347"/>
<circle cx="109.714" cy="205.956" r="8.54922" stroke="black" stroke-width="1.81347"/>
<path d="M95.8542 204.402C95.8542 204.402 97.02 203.625 98.7039 203.625C100.388 203.625 101.554 204.402 101.554 204.402" stroke="black" stroke-width="1.81347"/>
<ellipse cx="86.5277" cy="204.662" rx="1.5544" ry="1.94301" fill="black"/>
<ellipse cx="108.808" cy="204.662" rx="1.5544" ry="1.94301" fill="black"/>
<path d="M33.6794 158.258C29.5689 160.904 31.1753 168.133 32.1202 169.928C32.8208 171.259 33.0366 173.153 33.2105 174.108C33.2854 174.519 33.602 174.756 34.0078 174.855C37.5369 175.72 39.0482 175.54 39.5851 175.361C39.8119 173.887 40.6246 172.621 42.042 171.487C42.786 170.892 45.0658 169.031 45.7745 167.424C46.4832 165.818 47.0501 163.975 45.5382 160.478C44.0264 156.982 37.7898 155.612 33.6794 158.258Z" fill="#FFEB3B" stroke="black" stroke-width="1.5544"/>
<path d="M36.6451 180.087C36.6451 180.514 36.3171 180.832 35.947 180.832C35.5769 180.832 35.249 180.514 35.249 180.087C35.249 179.659 35.5769 179.341 35.947 179.341C36.3171 179.341 36.6451 179.659 36.6451 180.087Z" fill="#CECECE" stroke="black" stroke-width="0.777202"/>
<path d="M33.9739 178.846C34.0185 178.487 34.3718 178.252 34.7207 178.347C35.2013 178.478 35.8018 178.637 36.0073 178.674C36.2118 178.711 36.8291 178.701 37.3268 178.685C37.6895 178.673 37.9803 178.987 37.9356 179.347V179.347C37.9007 179.627 37.6702 179.843 37.3876 179.853C36.8987 179.872 36.1749 179.89 35.8612 179.849C35.5494 179.808 34.8582 179.616 34.3887 179.48C34.1128 179.4 33.9385 179.131 33.9739 178.846V178.846Z" fill="#CECECE" stroke="black" stroke-width="0.777202"/>
<path d="M33.4827 177.389C33.5463 176.919 34.0131 176.615 34.4696 176.745C35.0984 176.923 35.8842 177.141 36.1532 177.192C36.4211 177.243 37.2312 177.239 37.8846 177.225C38.3606 177.215 38.7378 177.63 38.674 178.102V178.102C38.6243 178.47 38.3188 178.749 37.9479 178.759C37.3061 178.777 36.3561 178.79 35.9451 178.731C35.5365 178.673 34.6322 178.413 34.018 178.227C33.6572 178.118 33.4322 177.763 33.4827 177.389V177.389Z" fill="#CECECE" stroke="black" stroke-width="0.777202"/>
<path d="M32.5923 175.738C32.6854 175.049 33.3785 174.61 34.0455 174.806C34.8253 175.035 35.7948 175.303 36.4456 175.42C37.0892 175.536 38.08 175.535 38.8898 175.506C39.5913 175.482 40.1655 176.088 40.0715 176.784V176.784C40.0031 177.289 39.5962 177.681 39.0869 177.707C38.278 177.75 37.0622 177.777 36.1456 177.638C35.2431 177.502 34.0989 177.167 33.329 176.922C32.8262 176.762 32.5216 176.261 32.5923 175.738V175.738Z" fill="#CECECE" stroke="black" stroke-width="0.777202"/>
<path d="M35.5693 175.173C35.7425 172.7 35.796 167.443 34.6243 166.196C33.1597 164.637 33.5849 168.7 36.5614 168.606C39.538 168.511 39.623 168.69 40.5302 167.897C41.8299 166.759 40.9599 165.248 39.5852 167.33C37.9316 169.834 37.6009 173.866 37.5536 175.504" stroke="black" stroke-width="0.777202"/>
<rect x="40.1953" y="150.427" width="1.24833" height="3.21885" rx="0.624165" transform="rotate(8.45901 40.1953 150.427)" fill="#FFEB3B" stroke="black" stroke-width="0.518135"/>
<rect x="31.8587" y="152.087" width="1.24833" height="3.21885" rx="0.624165" transform="rotate(-27.1532 31.8587 152.087)" fill="#FFEB3B" stroke="black" stroke-width="0.518135"/>
<rect x="25.7417" y="159.197" width="1.24833" height="3.21885" rx="0.624165" transform="rotate(-60.3226 25.7417 159.197)" fill="#FFEB3B" stroke="black" stroke-width="0.518135"/>
<rect x="48.3831" y="154.644" width="1.24833" height="3.21885" rx="0.624165" transform="rotate(44.5492 48.3831 154.644)" fill="#FFEB3B" stroke="black" stroke-width="0.518135"/>
<rect x="51.2938" y="162.354" width="1.24833" height="3.21885" rx="0.624165" transform="rotate(78.8956 51.2938 162.354)" fill="#FFEB3B" stroke="black" stroke-width="0.518135"/>
<path d="M198.927 329.575V302.813H214.492V329.575V337.579V344.675L174.742 344.675C174.063 344.675 173.616 343.967 173.909 343.355L174.781 341.533C178.04 334.722 183.751 330.482 191.177 330.482H198.02H198.927V329.575Z" fill="#FFEB3B" stroke="black" stroke-width="1.81347"/>
<path d="M235.801 329.575V302.813H220.236V329.575V337.579V344.675L259.987 344.675C260.666 344.675 261.112 343.967 260.819 343.355L259.948 341.533C256.688 334.722 250.978 330.482 243.551 330.482H236.708H235.801V329.575Z" fill="#FFEB3B" stroke="black" stroke-width="1.81347"/>
<path d="M180.096 245.378C188.687 245.378 196.302 239.846 198.957 231.675C204.351 215.074 227.836 215.074 233.23 231.675C235.885 239.846 243.499 245.378 252.091 245.378C269.546 245.378 276.803 267.714 262.682 277.974C255.731 283.024 252.823 291.976 255.478 300.147C260.871 316.747 241.871 330.552 227.75 320.292C220.799 315.242 211.387 315.242 204.436 320.292C190.315 330.552 171.315 316.747 176.709 300.147C179.364 291.976 176.455 283.024 169.505 277.974C155.383 267.714 162.641 245.378 180.096 245.378Z" fill="#FFEB3B" stroke="black" stroke-width="1.81347"/>
<ellipse cx="208.192" cy="267.062" rx="1.5544" ry="1.94301" fill="black"/>
<ellipse cx="232.026" cy="263.435" rx="4.40415" ry="5.56995" fill="black"/>
<ellipse cx="230.601" cy="261.363" rx="2.20207" ry="2.72021" fill="white"/>
<path d="M205.136 284.122L206.348 277.707L246.537 278.936L245.226 281.662C241.08 290.284 238.915 299.724 238.891 309.29H203.399V302.667C203.399 296.444 203.98 290.236 205.136 284.122Z" fill="white" stroke="black" stroke-width="1.81347"/>
<path d="M205.136 286.972L206.348 280.557L246.537 281.786L245.226 284.512C241.08 293.134 238.915 302.574 238.891 312.14H203.399V305.516C203.399 299.294 203.98 293.086 205.136 286.972Z" fill="white" stroke="black" stroke-width="1.81347"/>
<path d="M178.169 316.155C169.05 315.845 165.424 296.337 171.685 279.627C173.457 281.225 175.477 285.067 177.262 289.731C179.047 294.394 180.083 300.741 187.495 297.632C194.907 294.523 201.723 290.25 208.998 289.731C214.314 289.351 211.439 292.311 209.156 293.292C210.167 292.918 214.751 291.667 217.777 291.415C220.368 291.415 220.886 291.674 221.016 292.839C221.145 294.005 218.532 294.146 216.482 295.171C219.771 294.525 221.772 294.653 221.862 296.207C221.951 297.762 219.532 298.409 215.993 298.409C218.794 298.409 219.828 298.15 219.749 299.575C219.672 300.978 216.231 301.115 212.787 301.253L212.625 301.259C216.539 301.489 217.339 301.259 217.378 303.073C217.417 304.886 213.302 305.188 208.48 305.404C199.801 305.793 189.568 316.544 178.169 316.155Z" fill="#FFEB3B"/>
<path d="M171.685 279.627C165.424 296.337 169.05 315.845 178.169 316.155C189.568 316.544 199.801 305.793 208.48 305.404C213.302 305.188 217.417 304.886 217.378 303.073C217.339 301.259 216.539 301.489 212.625 301.259C216.122 301.119 219.67 301 219.749 299.575C219.828 298.15 218.794 298.409 215.993 298.409C219.532 298.409 221.951 297.762 221.862 296.207C221.772 294.653 219.771 294.525 216.482 295.171C218.532 294.146 221.145 294.005 221.016 292.839C220.886 291.674 220.368 291.415 217.777 291.415C214.539 291.684 209.516 293.098 208.998 293.358C211.301 292.451 214.438 289.342 208.998 289.731C201.723 290.25 194.907 294.523 187.495 297.632C180.083 300.741 179.047 294.394 177.262 289.731C175.477 285.067 173.457 281.225 171.685 279.627Z" stroke="black" stroke-width="1.81347" stroke-linejoin="round"/>
<circle cx="232.026" cy="262.788" r="12.4352" stroke="black" stroke-width="3.10881"/>
<rect x="243.166" y="269.625" width="3.10881" height="18.1642" transform="rotate(-60 243.166 269.625)" fill="black"/>
<path d="M292.777 273.023C288.777 266.106 281.182 265.299 270.368 261.105C270.67 264.348 271.042 270.691 265.964 274.706C264.409 273.929 264.021 273.54 262.337 273.022C259.551 272.165 256.03 272.643 254.704 272.824L254.682 272.827C252.419 272.357 251.586 271.985 251.067 273.151C250.549 274.317 252.375 275.508 254.284 276.806C251.551 275.794 250.549 275.258 250.031 276.601C249.513 277.943 251.557 279.706 254.286 280.871C251.55 280.167 250.938 279.368 250.161 280.663C249.384 281.959 252.314 283.629 253.776 284.784C251.546 283.464 248.332 284.572 252.972 287.921C258.429 291.859 272.149 291.159 277.865 289.862C283.58 288.565 298.995 283.773 292.777 273.023Z" fill="#FFEB3B"/>
<path d="M254.682 272.827C255.665 273.71 258.2 275.632 260.478 276.258M254.682 272.827C255.992 272.649 259.535 272.16 262.337 273.022C264.021 273.54 264.409 273.929 265.964 274.706M254.682 272.827C252.419 272.357 251.586 271.985 251.067 273.151C250.549 274.317 252.375 275.508 254.284 276.806C251.551 275.794 250.549 275.258 250.031 276.601C249.513 277.943 251.557 279.706 254.286 280.871C251.55 280.167 250.938 279.368 250.161 280.663C249.384 281.959 252.314 283.629 253.776 284.784C251.546 283.464 248.332 284.572 252.972 287.921C258.429 291.859 272.149 291.159 277.865 289.862C283.58 288.565 298.995 283.773 292.777 273.023C288.777 266.106 281.182 265.299 270.368 261.105C270.67 264.348 271.042 270.691 265.964 274.706M285.965 277.196C283.6 277.952 267.518 275.483 265.964 274.706" stroke="black" stroke-width="1.81347" stroke-linecap="round" stroke-linejoin="round"/>
</svg>
